<?xml version="1.0" standalone="no"?>
<!DOCTYPE svg PUBLIC "-//W3C//DTD SVG 1.1//EN" "http://www.w3.org/Graphics/SVG/1.1/DTD/svg11.dtd" >
<svg>
<metadata>
Created by FontForge 20120731 at Thu Jun 30 02:56:59 2016
 By ,,,
Typeface (c) DJBFontography).2006-2008. All Rights Reserved
</metadata>
<defs>
<font id="DJBSmartyPants" horiz-adv-x="1200" >
  <font-face 
    font-family="DJB Smarty Pants"
    font-weight="400"
    font-stretch="normal"
    units-per-em="2048"
    panose-1="2 0 5 0 0 0 0 0 0 0"
    ascent="1638"
    descent="-410"
    x-height="1311"
    cap-height="1600"
    bbox="-697 -1537 2400 2200"
    underline-thickness="150"
    underline-position="-142"
    unicode-range="U+0020-F002"
  />
<missing-glyph horiz-adv-x="1024" 
 />
    <glyph glyph-name=".notdef" horiz-adv-x="1024" 
 />
    <glyph glyph-name=".null" horiz-adv-x="0" 
 />
    <glyph glyph-name="nonmarkingreturn" horiz-adv-x="508" 
 />
    <glyph glyph-name="space" unicode=" " horiz-adv-x="978" 
 />
    <glyph glyph-name="space" unicode="&#xa0;" horiz-adv-x="978" 
 />
    <glyph glyph-name="exclam" unicode="!" horiz-adv-x="562" 
d="M432 1880h18l27 -27v-9q0 -168 -94 -604q-81 -376 -108 -702l-54 -18q-99 0 -99 144q142 1216 310 1216zM203 288h18q99 0 99 -162q-11 -126 -90 -126h-9q-131 0 -144 153q38 135 126 135z" />
    <glyph glyph-name="quotedbl" unicode="&#x22;" horiz-adv-x="672" 
d="M483 1749q117 0 117 -162v-27q0 -342 -72 -342l-45 -9q-81 0 -81 117q0 120 -45 369v9q0 39 126 45zM78 1722q163 0 234 -162l36 -171q-20 -189 -72 -189h-54q-99 49 -99 315l-72 180z" />
    <glyph glyph-name="numbersign" unicode="#" horiz-adv-x="1600" 
d="M936 1800q82 0 108 -387q63 -161 63 -234v-72q6 -54 27 -54q24 0 189 99q99 36 171 36q117 -11 117 -90q0 -117 -117 -117q-143 0 -324 -171q54 -138 54 -324v-45q0 -234 -99 -234q-90 0 -90 324q0 83 -27 135h-9q-157 -49 -297 -225l-9 -27q0 -170 117 -360v-18
q-34 -144 -126 -144h-9q-119 0 -144 216l-27 162h-9q-274 -261 -378 -261q-76 0 -108 135v45q0 20 279 171q198 164 198 261l-36 153h-18l-279 -297l-36 -9q-79 0 -117 126v9q0 79 459 468l-9 108v171l-9 36q12 126 45 126h27q40 0 81 -252l27 -18h18l180 99l-9 198v72
l-9 54q0 135 135 135zM648 882v-9q0 -144 27 -144q130 29 252 198v27q0 104 -54 162q-225 -110 -225 -234z" />
    <glyph glyph-name="dollar" unicode="$" horiz-adv-x="1477" 
d="M709 1923q91 0 61 -236q66 -324 81 -324q325 -51 522 -180l18 -27l-18 -18h-45q-144 0 -450 54v-9q36 -468 63 -468q99 63 252 63q207 0 207 -225q-4 -107 -459 -495q0 -284 118 -555q45 -71 45 -126v-27q0 -52 -63 -108h-18q-154 0 -197.5 372t-82.5 372
q-160 -72 -252 -72h-9q-216 0 -216 225v126q0 63 -99 63q-189 120 -189 198v18q0 319 207 459q204 201 450 315l18 27v18q0 227 -115 434l-9 36q0 90 180 90zM194 598v-45l36 -36h36q196 0 477 162l9 63q0 143 -63 414h-9q-486 -264 -486 -558zM941 301q198 83 198 216
q0 54 -45 54q-153 -20 -153 -126v-144zM419 274v-72q0 -78 99 -90q252 50 252 144v225q-351 -135 -351 -207z" />
    <glyph glyph-name="percent" unicode="%" horiz-adv-x="1915" 
d="M1341 1800q86 0 144 -81q0 -54 -351 -1476q-12 -244 -12 -403v-99q81 -63 81 -126v-9q-27 -153 -126 -153q-153 32 -153 144l-9 36q0 357 228 1375l72 495h-9q-139 -65 -576 -432q-129 -378 -243 -378l-45 -9q-135 0 -216 288q-126 186 -126 261q0 224 279 306l90 9
q243 -50 243 -198l27 -9q73 0 558 423q81 36 144 36zM369 1206v-18h9q63 27 63 90v27h-27q-45 -31 -45 -99zM1647 693h18q95 0 135 -162l-153 -459q-48 -72 -126 -72h-45q-117 0 -108 477q156 216 279 216z" />
    <glyph glyph-name="ampersand" unicode="&#x26;" horiz-adv-x="1683" 
d="M710 1591l27 -72l153 36q83 0 99 -126v-18q0 -141 -189 -171l-9 -9l36 -171q28 2 342 171l72 9h9q90 -12 90 -90v-27q0 -100 -306 -243l-180 -144q19 -423 63 -423h9l675 288h18q36 -13 36 -27q0 -105 -630 -414q-81 -25 -81 -54l27 -297q0 -90 -99 -90h-9q-90 0 -90 180
q-16 0 -18 117q0 63 -144 63q-203 0 -360 153l-36 144v18q0 69 225 288l-171 45l-117 99v27q468 489 468 549l-9 126v27q20 45 99 36zM521 952v-18q135 11 135 72v90q-133 -119 -135 -144zM485 367q0 -90 162 -90h45q18 0 18 27q-18 279 -45 279h-9q-93 0 -171 -216z" />
    <glyph glyph-name="quotesingle" unicode="'" horiz-adv-x="346" 
d="M146 1091q-41 17 -45 36v9q0 68 271 628q38 36 72 36h36l36 -36v-45q-14 -167 -325 -619z" />
    <glyph glyph-name="parenleft" unicode="(" horiz-adv-x="758" 
d="M360 1701q54 0 63 -72v-18q0 -30 -72 -108q-162 -362 -162 -702v-90q0 -351 207 -477q315 -127 315 -162q0 -72 -216 -72q-196 0 -423 261q-72 147 -72 432q0 359 126 711q81 160 189 270z" />
    <glyph glyph-name="parenright" unicode=")" horiz-adv-x="758" 
d="M180 1913h54q173 -50 387 -486q72 -152 72 -387q0 -532 -540 -1359q-80 -81 -126 -81l-27 27q0 65 243 450q279 610 279 810l9 99q0 319 -306 657q-43 43 -135 72l-9 45v27q0 126 99 126z" />
    <glyph glyph-name="asterisk" unicode="*" horiz-adv-x="1400" 
d="M769 1600q70 0 124 -70l7 -27q-76 -284 -76 -430q248 271 342 271h22l15 -14l-358 -410q194 -35 504 -56q51 -24 51 -63v-7q0 -57 -80 -90q-213 35 -467 55v-7l206 -373l14 -97q-11 -91 -95 -91q-87 59 -178 409l-15 -14q-83 -483 -199 -483q-53 0 -88 84q42 0 136 426
v21l-15 14q-87 -72 -182 -299q-42 -91 -95 -91q-83 0 -102 84q0 50 306 410l15 28v7h-329q-240 0 -240 63l-15 42v14q0 38 139 69l43 -7l424 -21v7q-88 270 -175 390q-81 43 -81 98v35q0 78 117 97h7q119 0 154 -223q49 -99 65 -167h8q51 244 91 416z" />
    <glyph glyph-name="plus" unicode="+" 
d="M600 1200l84 -435q33 -36 72 -36q198 45 288 45q135 -7 135 -81q-33 -43 -387 -117q0 -15 -117 -45l27 -477v-18l-36 -36h-108q-63 0 -63 306v171l-477 -18l-18 135q0 99 315 99q80 0 99 18q-72 386 -43 537.5t229 -48.5z" />
    <glyph glyph-name="comma" unicode="," horiz-adv-x="557" 
d="M312 282q212 0 288 -333v-45q0 -217 -324 -477q-46 -27 -90 -27l-36 45q0 45 216 315l36 117q0 68 -153 162q-45 62 -45 117v27q0 82 108 99z" />
    <glyph glyph-name="hyphen" unicode="-" 
d="M838 735q261 0 261 -135v-18q0 -81 -99 -81l-189 36h-9l-604 -16h-27q-84 0 -171 81v18q0 88 838 115z" />
    <glyph glyph-name="hyphen" unicode="&#xad;" 
d="M838 735q261 0 261 -135v-18q0 -81 -99 -81l-189 36h-9l-604 -16h-27q-84 0 -171 81v18q0 88 838 115z" />
    <glyph glyph-name="period" unicode="." horiz-adv-x="557" 
d="M265 297.5q52 29.5 94 8.5q43 -21 51 -80t-23 -122q-31 -62 -82.5 -91.5t-94.5 -8.5t-51 80t23 122q31 62 83 91.5z" />
    <glyph glyph-name="slash" unicode="/" horiz-adv-x="869" 
d="M883 1867q117 -52 117 -153v-9q-345 -481 -685 -1399q-83 -306 -198 -306q-44 1 -117 99v45q63 87 676 1516q68 207 207 207z" />
    <glyph glyph-name="zero" unicode="0" horiz-adv-x="1400" 
d="M153 576v-54q0 -277 189 -342l54 -9q516 0 756 819v45q-145 309 -502 332t-497 -791zM804.5 1490q397.5 -77 473.5 -293q27 -55 27 -162q0 -466 -504 -909q-187 -126 -342 -126h-9q-234 0 -405 198q-45 86 -45 279q0 576 203.5 833t601 180z" />
    <glyph glyph-name="one" unicode="1" horiz-adv-x="477" 
d="M130 1665h63q45 0 45 -360q27 -1170 153 -1170l9 -9v-81q0 -39 -126 -45q-138 38 -171 423q-27 556 -27 963q13 279 54 279z" />
    <glyph glyph-name="two" unicode="2" horiz-adv-x="1400" 
d="M495 1709q286 0 495 -333q81 -186 81 -468l-27 -180v-9q70 0 207 -117q54 0 90 -90q-12 -37 -45 -54h-54q-184 81 -216 81h-9q-34 -8 -171 -297q-311 -448 -549 -549h-36q-81 44 -81 162q0 364 396 783q85 67 270 135q54 41 54 90v180q0 334 -306 468l-72 9
q-162 0 -369 -243l-27 -18q-64 0 -126 81v18q0 137 387 324zM369 -64q282 255 405 504q27 46 27 90v9q-209 -61 -378 -396z" />
    <glyph glyph-name="three" unicode="3" horiz-adv-x="1400" 
d="M720 1665h72q180 0 180 -126v-72q0 -138 -126 -333v-9q480 75 501 -291t-492 -726q-125 -76 -234 -108q-34 0 -81 63v36q0 70 289.5 234t358.5 477q0 121 -189 144q-300 0 -657 -387l-99 -27q-99 0 -99 81v9q0 102 279 315q360 298 360 495l-9 36h-45q-214 0 -585 -261
l-54 -9h-9q-69 0 -81 90v18q0 107 513 306q133 45 207 45z" />
    <glyph glyph-name="four" unicode="4" horiz-adv-x="1500" 
d="M743 1800h18q153 0 207 -252q144 -431 144 -603l9 -9h9q202 84 268 84q56 0 81 -45v-81q0 -33 -279 -72q-43 -57 -43 -111v-27q32 -556 160 -654q45 -48 45 -72q-24 -72 -90 -72q-187 0 -252 414q-64 393 -88 393h-9q-273 -43 -743 -137h-27q-153 25 -153 108v9
q0 113 356 551l279 387l-9 90q43 99 117 99zM761 1458q-482 -634 -482 -668h9q301 65 437 65q189 14 189 81v27q-60 495 -153 495z" />
    <glyph glyph-name="five" unicode="5" horiz-adv-x="1485" 
d="M1134 1719h9q126 0 126 -54q0 -45 -297 -117q-729 -220 -729 -405q-36 -207 -36 -333q3 -63 18 -63q555 369 936 369q252 -32 252 -234q0 -338 -729 -819l-180 -63q-252 69 -252 252l-9 63v9l18 18h9q59 0 198 -144l36 -18q231 65 468 306q243 246 243 342v54
q0 39 -144 54q-297 0 -756 -378q-94 -63 -180 -63q-119 0 -135 144l72 936q33 27 63 27q86 0 144 -99q583 216 855 216z" />
    <glyph glyph-name="six" unicode="6" 
d="M301 1829q99 -16 99 -45v-27q0 -42 -171 -279q-49 -110 -49 -641v-36q0 -164 54 -342h9q261 534 603 639l81 18q203 0 234 -288q0 -323 -333 -711q-141 -117 -261 -117h-27q-305 0 -459 369q-81 215 -81 432q0 545 112 893q103 135 189 135zM360 279q71 -90 198 -90
q125 0 324 261q90 175 90 369v18q0 81 -45 81q-158 0 -423 -351z" />
    <glyph glyph-name="seven" unicode="7" horiz-adv-x="1323" 
d="M836 1787h63q189 -28 189 -162v-45q0 -229 -54 -720l279 36l18 -27v-45q-14 -30 -306 -162q-27 -129 -27 -324q76 -491 -59 -538q-108 41 -108 117v9l-13 547q-6 135 -27 135q-146 -83 -190 -83q-81 43 -81 126q0 94 298 173q60 0 90 693v36l-18 18h-36
q-143 -24 -584 -301q-133 -72 -189 -72h-36q-45 25 -45 81q0 110 288 225q367 220 422 220q0 39 126 63z" />
    <glyph glyph-name="eight" unicode="8" horiz-adv-x="1869" 
d="M963 1728q351 5 378 -135q59 -193 -36 -288l-95 -154l122 19q444 -5 469.5 -251.5t-604.5 -738.5q-298 -180 -432 -180q-116 0 -144 171v9q0 162 198 621l18 63q-431 -216 -621 -216h-63q-117 0 -153 207q0 263 612 765q181 108 351 108zM207 882l36 -36h27q55 0 729 270
q88 204 207 342l18 54v9q0 25 -90 36h-108q-326 0 -612 -342q-207 -219 -207 -333zM837 288v-54l27 -27h18q296 112 639 486q117 165 117 234q-72 72 -216 72q-284 0 -360 -180q-225 -411 -225 -531z" />
    <glyph glyph-name="nine" unicode="9" horiz-adv-x="1292" 
d="M582 1773h36q110 0 369 -108q126 0 126 -180l15 -972l72 -342q-54 -171 -99 -171h-18q-153 0 -153 459q13 252 -24 756v45l-333 -396q-206 -188 -426 -188q-216 35 -216 216v72q0 394 244.5 601.5t406.5 207.5zM129 991v-9q12 -81 81 -81h27q172 0 552 512q0 45 18 45
q0 72 -198 90q-265 0 -372.5 -187t-107.5 -370z" />
    <glyph glyph-name="colon" unicode=":" horiz-adv-x="657" 
d="M343 1080q135 -30 135 -117v-54q0 -96 -243 -225l-27 -9q-108 49 -108 108v9q66 252 135 252q23 36 108 36zM514 396h45q36 0 45 -117q-50 -279 -198 -279q-171 50 -171 171v9q0 88 198 198z" />
    <glyph glyph-name="semicolon" unicode=";" horiz-adv-x="557" 
d="M345 1200q171 -27 171 -135v-45q0 -56 -108 -108q0 -99 -117 -99q-171 0 -171 180q0 181 225 207zM312 282q212 0 288 -333v-45q0 -217 -324 -477q-46 -27 -90 -27l-36 45q0 45 216 315l36 117q0 68 -153 162q-45 62 -45 117v27q0 82 108 99z" />
    <glyph glyph-name="semicolon" unicode="&#x37e;" horiz-adv-x="557" 
d="M345 1200q171 -27 171 -135v-45q0 -56 -108 -108q0 -99 -117 -99q-171 0 -171 180q0 181 225 207zM312 282q212 0 288 -333v-45q0 -217 -324 -477q-46 -27 -90 -27l-36 45q0 45 216 315l36 117q0 68 -153 162q-45 62 -45 117v27q0 82 108 99z" />
    <glyph glyph-name="less" unicode="&#x3c;" horiz-adv-x="2287" 
d="M919 1800h9q111 0 288 -423l108 -144q425 117 612 243q0 33 135 45q47 0 81 -54v-27q0 -202 -225 -360l-252 -315q459 -807 459 -936q93 -88 153 -279q-46 -180 -144 -180h-36q-121 0 -198 252l-342 261q-229 148 -333 171h-9q-124 -162 -225 -468q-33 -126 -135 -126
h-27q-92 0 -108 126l36 756q-310 153 -603 234l-54 63v18q0 70 198 198q101 0 477 126q27 62 27 243v18q0 162 -36 477q0 52 144 81zM1000 1269l-9 -90v-36q0 -72 36 -72q41 15 63 54q0 50 -90 144zM1441 1080v-9l108 -162q104 104 198 243h-18zM982 873q0 -468 90 -468
q65 -36 99 -36q63 0 225 369l-162 243zM568 639q155 -90 216 -90l9 45v108l-9 45q-178 -59 -216 -108zM1504 531q-144 -171 -144 -234q0 -52 243 -180q124 -137 234 -198h36q0 86 -288 567q-47 45 -81 45zM928 63v-54h27q81 88 81 180l-36 18q-45 0 -72 -144z" />
    <glyph glyph-name="equal" unicode="=" horiz-adv-x="1014" 
d="M73 861q92 -27 792 -72q135 -36 135 -108v-9q0 -63 -117 -63l-207 -9h-360q-288 0 -288 90q-16 0 -18 108q22 63 63 63zM587 400h99q198 -9 198 -54v-36q0 -51 -576 -153h-54q-54 25 -54 189q46 45 387 54z" />
    <glyph glyph-name="greater" unicode="&#x3e;" horiz-adv-x="1877" 
d="M1088 2000q52 0 52 -56q0 -21 -52 -127q-27 -77 -27 -117v-10q43 -74 43 -135q6 -51 16 -51q110 116 159 116q191 75 247 75q223 -25 223 -65q24 -38 24 -89q0 -143 -163 -295q-159 -166 -220 -244l4 -5v-5q-11 -17 -11 -32q98 -132 183 -174q207 -149 207 -234l4 -33
q0 -64 -91 -230q-12 -18 -112 -23l-259 23q-21 0 -135 94h-8q-9 0 -13 -23l5 -165q0 -117 -76 -164l-40 -9h-8q-58 0 -120 253v52q0 24 -7 24q-33 -25 -148 -235q-104 -188 -231 -239h-31q-90 0 -180 145q-15 48 -15 108q0 149 95 296q106 104 131 197q24 0 24 32
q44 76 44 94q-23 12 -135 28q-133 37 -203 94q-64 45 -64 267q0 56 135 140q137 42 327 42l147 -4v4l-16 141q0 29 16 89q-18 82 -151 281v5q0 47 59 65q76 0 76 -74l76 -127h8q87 0 151 272q20 25 60 28zM1076 1287q0 -257 60 -674l4 -4q0 -15 7 -15q15 92 25 108h16
q23 0 43 -145q28 -80 128 -80q123 -51 187 -51q60 0 60 46q0 65 -64 151l-183 173q-129 76 -147 98q-44 66 -44 103q0 57 179 174q299 252 299 355v5q-9 24 -40 24q-75 0 -287 -85q-141 -78 -243 -183zM315 1072q0 -32 60 -66q0 -66 383 -135q27 -22 27 -57
q0 -105 -251 -412q-99 -166 -99 -281q0 -71 40 -104q74 9 143 90l112 135q83 98 103 165q14 0 32 65q36 46 36 104v121q0 422 -24 422q-148 66 -231 66q-235 0 -302 -80q-29 -11 -29 -33z" />
    <glyph glyph-name="question" unicode="?" 
d="M931 1817h9q180 0 180 -108v-18q0 -291 -254 -670q-117 -230 -117 -405v-27q0 -59 72 -144v-18q-21 -99 -90 -99q-126 0 -189 288v9q0 265 191 499q144 286 144 423q0 72 -72 72h-27q-248 -32 -578 -301h-63q-27 6 -27 72q-30 183 497 391q172 36 324 36zM798 133h9
q79 0 90 -117q-45 -216 -171 -216q-126 147 -126 189q34 82 198 144z" />
    <glyph glyph-name="at" unicode="@" horiz-adv-x="1877" 
d="M909 1867h45q495 0 738 -765q27 -83 36 -243q0 -451 -270 -711q-69 -27 -126 -27q-144 0 -315 225q-49 -113 -189 -171h-36q-189 73 -189 207q0 364 180 774q73 72 117 72h18q161 0 315 -504l18 -108l-27 -63v-27q31 -180 117 -180h27q189 149 189 468v27l9 9l-9 9v72
q0 457 -423 720q-128 54 -225 54h-36q-363 0 -639 -720q-99 -337 -99 -774q0 -472 396 -864q154 -135 378 -135h117q216 0 567 252h27q18 0 18 -27q-307 -360 -756 -360q-435 0 -720 468q-162 307 -162 711q0 892 468 1431q199 180 441 180zM792 517q0 -48 36 -63
q99 99 99 450l-9 63q-67 0 -126 -378v-72z" />
    <glyph glyph-name="A" unicode="A" horiz-adv-x="1381" 
d="M863 1725q122 0 301 -807q41 -198 81 -198q54 -18 54 -36q0 -53 -45 -108v-45q72 -333 72 -414q-9 -117 -45 -117h-9q-166 0 -225 585q-128 0 -531 -180q-136 -324 -315 -324h-18q-225 0 -159 135.5t141 89.5q156 0 216 306q66 90 329 969q0 127 153 144zM818 1266
l-167 -492v-54q0 -15 45 -27q306 30 306 72v18l-175 483h-9z" />
    <glyph glyph-name="B" unicode="B" 
d="M864 1494l9 -36v-9q0 -118 -117 -297q196 1 291.5 -85t95.5 -203q0 -291 -621 -819l-63 -9h-99q-38 -36 -72 -36q-207 40 -207 369l-45 837q-36 15 -36 63v45q0 211 175.5 290t432 64.5t256.5 -174.5zM216 954q0 -117 36 -117q19 0 189 225q198 213 198 342
q-25 90 -81 90q-342 -62 -342 -279v-261zM261 423q20 -194 63 -207h9q36 33 243 126q378 367 378 558q-42 45 -135 45h-18q-162 0 -432 -333q-108 -104 -108 -189z" />
    <glyph glyph-name="C" unicode="C" horiz-adv-x="1399" 
d="M488 1644h18q171 0 171 -90q0 -87 -243 -135q-85 0 -216 -432q-118 -431 133 -762q89 -45 135 -45h36q236 0 747 513l63 18h9l27 -27v-27q-38 -179 -468 -522q-182 -135 -450 -135h-45q-242 0 -323.5 268t-71.5 612.5t271 682.5q103 81 207 81z" />
    <glyph glyph-name="D" unicode="D" 
d="M207 1764q72 0 90 -108v-108q630 -27 630 -81q189 -127 189 -324q0 -458 -639 -1080q-103 -63 -162 -63h-18q-137 0 -189 144l54 153v18q-45 185 -72 774q-72 53 -90 117l108 252q0 306 99 306zM279 1125v-144q0 -684 180 -684q141 103 270 315q189 269 189 504
q0 160 -207 225h-18q-300 0 -378 -72q-36 -81 -36 -144z" />
    <glyph glyph-name="E" unicode="E" horiz-adv-x="1264" 
d="M576 1557h90q66 0 72 -27v-36q-68 -54 -315 -162q-63 -42 -63 -315v-27l9 -108l522 396l54 9h36l27 -27q0 -102 -594 -648l-45 -99v-27q50 -243 153 -243q138 0 567 369l81 18h18q48 0 63 -36q-76 -187 -531 -513q-123 -81 -225 -81h-45q-297 0 -297 684v243l9 144
q0 79 -126 153q-36 38 -36 72v18q0 67 171 135q0 33 297 72q0 20 108 36z" />
    <glyph glyph-name="F" unicode="F" horiz-adv-x="1079" 
d="M1074 1680q87 0 126 -72q0 -70 -432 -126l-468 -135l42 -491l9 -9h45l477 180h63l27 -27v-9q0 -75 -441 -333q-153 -102 -153 -162q92 -496 -54 -496q-117 34 -117 99l9 324q-52 736 -132 834q-99 24 -99 90v27q0 97 198 216h72q119 0 747 90h81z" />
    <glyph glyph-name="G" unicode="G" horiz-adv-x="1344" 
d="M783 1672q117 -36 117 -72v-9q-3 -16 -171 -99q-237 -114 -366 -303q-153 -347 -153 -639q15 -284 235 -333l45 -9q193 0 404 351l41 41q65 255 65 259l-394 -120q-162 0 -162 153q0 131 198 153q176 10 486 126q72 0 72 -117l10 -693q0 -438 63 -549q27 -6 27 -72v-18
q0 -111 -153 -135h-9q-117 0 -117 360l-18 432q-370 -378 -423 -378l-45 -9h-117q-259 0 -379 324q-18 39 -18 144v117q0 644 537 1014q154 81 225 81z" />
    <glyph glyph-name="H" unicode="H" 
d="M864 1665h18q153 0 153 -180q234 -1485 99.5 -1485h-134.5l-124 693l-27 9l-498 -90v-198q0 -114 58.5 -227t-58.5 -187h-54q-135 74 -135 441l-72 297l18 117v90q0 194 -108 567v18q43 45 99 45h18q171 0 171 -567v-27q0 -144 108 -144l480 27l18 54q-39 317 -120 639v9
q15 99 90 99z" />
    <glyph glyph-name="I" unicode="I" horiz-adv-x="400" 
d="M71 1600h129q79 0 111 -1402q18 -84 54 -126v-36q-15 -36 -63 -36h-90q-81 0 -81 90l-87 1465q6 45 27 45z" />
    <glyph glyph-name="J" unicode="J" horiz-adv-x="1236" 
d="M965 1700q123 0 135 -261q88 -550 92.5 -866.5t-166.5 -428.5q-263 -144 -558 -144q-468 61 -468 378q37 189 153 189q54 -19 54 -72v-27q0 -18 -54 -36v-36q39 -225 270 -225h99q355 0 450 171q45 73 37 432t-152 782v45q0 77 108 99z" />
    <glyph glyph-name="K" unicode="K" horiz-adv-x="1300" 
d="M99 1700h36q117 0 117 -189l9 -522q618 621 648 621h9q89 0 153 -90q0 -61 -351 -333q-369 -343 -369 -396q58 -36 207 -36l549 27q108 0 144 -63v-36q0 -108 -342 -108l-621 -9q0 -207 72 -576v-9q0 -65 -108 -117q-99 0 -99 369q-54 466 -99 1242q-54 75 -54 135v36
q28 54 99 54z" />
    <glyph glyph-name="L" unicode="L" horiz-adv-x="1400" 
d="M83 1620h18q99 0 99 -279q24 -1089 115 -1089l45 -9q121 0 315 144q617 387 738 387h18q45 -23 45 -81q0 -96 -324 -216q-625 -422 -891 -477h-36q-135 0 -135 261q-61 890 -61 1071q6 288 54 288z" />
    <glyph glyph-name="M" unicode="M" horiz-adv-x="2200" 
d="M693 1701h18q144 0 144 -405q45 -250 99 -441h9l306 774q54 36 99 36q134 0 279 -774q187 -648 279 -648h45q222 252 270 252h9q45 0 45 -36q-190 -441 -351 -441h-45q-243 0 -477 1035q-54 169 -90 189h-18q-108 -230 -243 -657q-57 -90 -117 -90h-9q-207 0 -207 360
l-36 144q-63 -95 -198 -648q-107 -315 -180 -315q0 -24 -135 -36h-27q-65 0 -153 306l-9 72v72l18 18h18q22 -7 144 -180l54 -18h18q71 0 216 594q81 320 117 702q25 135 108 135z" />
    <glyph glyph-name="N" unicode="N" horiz-adv-x="1500" 
d="M1494 1809q58 -23 63 -45l-135 -558q-162 -906 -216 -1089q-50 -108 -108 -108q-94 0 -432 927l-135 270q-188 -1206 -441 -1206h-36q-54 31 -54 90q0 23 99 153q120 183 279 1116q0 243 108 243h54q102 0 261 -513q234 -615 279 -648q51 98 126 594q153 774 279 774h9z
" />
    <glyph glyph-name="O" unicode="O" horiz-adv-x="1044" 
d="M217 1733q81 0 81 -72l-9 -27q0 48 331.5 57t364 -661.5t-390.5 -993.5q-97 -36 -180 -36q-278 0 -369 486q-45 194 -53.5 604t153.5 616q38 27 72 27zM393 250q193 -61 300 279.5t107 606t-203.5 337t-334.5 -144.5q-99 0 -80.5 -508.5t211.5 -569.5z" />
    <glyph glyph-name="P" unicode="P" horiz-adv-x="1120" 
d="M691 1700h63q191 0 306 -279v-9q0 -355 -461 -755q-153 -132 -153 -234q0 -155 54 -318v-45q-67 -90 -126 -90q-99 107 -135 858l-9 252q-16 206 92 206q54 0 54 -126l16 -143q0 -201 36 -279q211 187 317 314q117 227 117 306v36q0 108 -171 108q-218 0 -504 -225
q-54 -88 -72 -171l-27 -18h-36q-73 0 -108 108q0 133 270 369q325 135 477 135z" />
    <glyph glyph-name="Q" unicode="Q" horiz-adv-x="1614" 
d="M582 1691q91 0 126 -63v-45q0 -32 -162 -63q-112 34 -248 -234.5t-136 -607.5t324 -490q52 -27 108 -27q190 0 396 198q36 48 36 81q-94 152 -299 260q-45 52 -45 90q0 81 72 81h36q150 0 407 -269q125 336 68 552t-211 275h-18q-228 0 -495 -180h-27q-27 9 -27 54
q0 130 441 279l144 18q228 0 311 -367.5t-24 -684.5l-18 -45q12 -87 232 -331l27 -36v-9q0 -76 -126 -108h-36q-119 0 -196 205l-72 54h-9q-271 -315 -549 -315h-99q-237 0 -432 351q-81 174 -81 443.5t126 595.5t456 338z" />
    <glyph glyph-name="R" unicode="R" horiz-adv-x="1600" 
d="M720 1689h36q159 0 180 -189v-9q0 -156 -225 -540q-81 -154 -81 -189l18 -18q428 0 972 171q72 -9 72 -63q0 -137 -918 -333l-207 -18h-45q-61 11 -153 63v-9q-6 -495 -10.5 -549t-73.5 -54h-9q-126 31 -126 108q4 1053 -96 1053q-54 85 -54 144q0 43 90 162
q0 145 333 207q196 63 297 63zM306 1176q13 -414 45 -414q125 138 324 549q36 96 36 153l-36 27q-369 -89 -369 -225v-90z" />
    <glyph glyph-name="S" unicode="S" horiz-adv-x="1500" 
d="M909 1593h18q136 0 333 -198v-27q0 -27 -72 -36l-171 72h-36q-336 0 -720 -576l-27 -99v-36q37 -54 90 -54h18q129 0 567 189q187 45 342 45h9q207 -21 207 -144v-54q0 -222 -486 -558q-170 -117 -288 -117q-117 30 -117 144v18q0 48 36 63l99 -18h36q135 0 450 351
l27 90v9l-18 18h-27q-94 0 -774 -243l-90 -9q-209 0 -288 180l-27 144q55 228 405.5 528t503.5 318z" />
    <glyph glyph-name="T" unicode="T" horiz-adv-x="1350" 
d="M1352 1632q135 0 135 -126v-27l-27 -27h-27q-454 -25 -495 -99l-9 -45l97 -1290l-18 -18h-27q-162 0 -162 297q-73 827 -133 948q-46 27 -90 27l-450 -90q-126 0 -126 135q0 78 504 153q447 126 828 162z" />
    <glyph glyph-name="U" unicode="U" 
d="M952 1740h27q143 0 162 -252v-54q0 -696 -502 -1362q-63 -72 -171 -72h-45q-104 0 -144 72q-144 257 -234 738q-45 275 -45 486v72q6 126 45 126h27q144 0 144 -279q0 -694 261 -999h18q256 298 403 633q72 262 72 477v135q0 77 -108 162l-9 36v9q41 72 99 72z" />
    <glyph glyph-name="V" unicode="V" horiz-adv-x="1456" 
d="M1386 1701h36q54 -37 54 -90v-45q-94 -200 -360 -909q-294 -579 -396 -630l-90 -27q-146 0 -423 801l-207 486v27q0 20 81 45q176 -66 387 -720q127 -314 207 -342h18q86 0 459 918q163 486 234 486z" />
    <glyph glyph-name="W" unicode="W" horiz-adv-x="1656" 
d="M1574 1723q81 -13 81 -63q-126 -848 -278 -1318q-138 -293 -189 -306h-54q-140 0 -189 153q-72 64 -280 807h-9q-226 -636 -242 -861q-88 -135 -144 -135q-144 0 -144 270q-118 720 -118 1014q12 45 27 45q64 71 99.5 -18.5t162.5 -815.5h9l260 789q73 72 144 72
q118 0 153 -252l226 -735l9 -9h36q92 0 314 1156q69 207 126 207z" />
    <glyph glyph-name="X" unicode="X" horiz-adv-x="1350" 
d="M954 1519q63 -18 63 -72q0 -36 -153 -333q-153 -359 -153 -405v-27q0 -117 441 -522q288 -283 288 -333l-45 -27q-163 0 -792 639q-131 -468 -234 -468l-63 -9q-45 0 -45 81q0 122 180 522v18q-109 235 -441 639q0 56 81 126h27q121 0 432 -522h18q216 693 396 693z" />
    <glyph glyph-name="Y" unicode="Y" horiz-adv-x="1233" 
d="M774 1600q133 0 243 -423q162 -380 162 -729q0 -592 -486 -1062q-167 -135 -369 -135q-243 36 -243 243v36q9 126 54 126h36q90 -18 90 -90l-9 -90q48 -63 117 -63h9q184 0 414 306q216 351 216 792q0 263 -198 675l-9 9h-9q-43 -3 -252 -603q-105 -180 -207 -180h-27
q-126 0 -252 333q-36 63 -54 675q0 153 117 153q63 0 63 -207q0 -312 45 -468q0 -171 99 -252q90 50 207 369q111 489 171 558z" />
    <glyph glyph-name="Z" unicode="Z" horiz-adv-x="1715" 
d="M1161 1700q99 0 99 -180q0 -159 -180 -513q-297 -549 -432 -882h18q596 241 810 414l90 27q115 0 135 -162v-36q0 -90 -180 -90l-873 -396q-84 -27 -153 -27h-36q-153 32 -153 117v9q0 29 117 171l612 1260l9 63v9h-9q-281 -88 -756 -333q-112 -54 -216 -54h-27
q-36 19 -36 45q0 171 108 171q219 48 531 189q294 172 522 198z" />
    <glyph glyph-name="bracketleft" unicode="[" horiz-adv-x="1285" 
d="M675 1845h27q108 -12 108 -81q0 -79 -414 -180l-117 -45l36 -1224h9q26 0 540 378q145 99 252 99q81 0 81 -135q-31 -35 -324 -198l-495 -396q-88 -63 -189 -63q-70 0 -90 135l9 837v135q0 385 -99 468l-9 72q0 162 265.5 180t409.5 18z" />
    <glyph glyph-name="backslash" unicode="\" horiz-adv-x="908" 
d="M-167 1643q112 63 193 2l7 -5q179 -564 671 -1263q195 -250 126 -342q-27 -35 -149 -35l-36 27q-32 103 -770 1326q-125 179 -42 290z" />
    <glyph glyph-name="bracketright" unicode="]" horiz-adv-x="1300" 
d="M1179 1843q48 0 63 -36l-18 -927q0 -681 63 -972q-37 -108 -126 -108q-418 99 -756 99q-225 34 -225 72v18q0 99 333 99q504 0 504 45l18 405q0 990 -63 990h-9l-585 -171l-99 -18q-240 0 -279 144v9q0 87 378 108q405 81 729 243h72z" />
    <glyph glyph-name="asciicircum" unicode="^" horiz-adv-x="1723" 
d="M871 1600l18 -18v-36l9 -621q-18 -81 -81 -81q-92 0 -126 450q-63 149 -63 252v9q0 45 243 45zM358 1555h18q127 0 162 -423q72 -124 72 -171q0 -79 -126 -90q-126 0 -126 225q-27 137 -36 387q11 72 36 72zM142 844h54q72 0 99 -369q149 -640 270 -747
q113 -135 180 -135h9q229 0 486 531q90 185 126 558q27 153 135 153h18q81 0 81 -108q0 -144 -198 -666q-140 -331 -396 -567q-150 -72 -243 -72h-63q-133 0 -333 288q-351 915 -351 1044v18q60 72 126 72z" />
    <glyph glyph-name="underscore" unicode="_" horiz-adv-x="1323" 
d="M117 232q185 -90 261 -90l126 -9l468 9q297 0 297 -99q36 -36 36 -99v-9q-9 -135 -54 -135q-40 0 -180 81q-52 36 -495 36h-225q-351 0 -351 90v36q0 61 117 189z" />
    <glyph glyph-name="grave" unicode="`" horiz-adv-x="2092" 
d="M1316 1725q169 0 216.5 -248.5t-249.5 -557.5q-27 -46 -27 -90v-18q0 -190 37 -419h9q56 400 405 479q174 0 252 -279q27 -179 97.5 -485.5t-74.5 -306.5q-108 0 -108 189q-67 666 -176 666h-18q-131 -62 -227.5 -297t-120.5 -375h-45q-107 0 -171 144l9 63v36l-31 252
q-20 252 -45 252q-42 0 -234 -117q-39 -336 -12 -622h-9q-180 0 -180 153l3 370q-232 -122 -428 -122q-117 0 -117 117v63q0 27 81 27q310 14 491 131l-54 558q16 90 45 90q72 0 153 -414q0 -144 45 -144q216 70 216 198q-12 407 159 680q52 27 108 27zM1247 1126
q153 124 141 230v27q0 65 -45 72q-108 -79 -96 -329z" />
    <glyph glyph-name="a" unicode="a" 
d="M369 1323q164 0 396 -270l63 -36l72 9q135 0 135 -288q36 -236 90 -333q0 -58 108 -153l9 -45q0 -58 -81 -72q-160 0 -306 342l-27 18q-331 -486 -477 -486l-72 -9q-236 0 -270 405l-9 81q86 837 369 837zM207 450q18 -225 108 -225q133 59 306 333q72 105 72 144
q-112 139 -153 261q-88 99 -153 99h-9q-74 0 -153 -423z" />
    <glyph glyph-name="b" unicode="b" horiz-adv-x="1156" 
d="M101 1890q99 0 99 -90l124 -1107q347 621 540 621h27q207 -78 207 -306v-72q0 -299 -333 -702q-240 -234 -360 -234q-144 0 -144 126q-102 0 -153 153l18 324q0 158 -70 1161v18l-9 36q15 72 54 72zM405 261v-63l18 -18q414 322 414 531q22 37 45 243q-6 108 -45 108
q-264 -173 -414 -666z" />
    <glyph glyph-name="c" unicode="c" horiz-adv-x="1060" 
d="M414 1296q151 0 342 -207l9 -45v-45q-22 -113 -135 -135h-9q-162 27 -162 144l9 9v9l-54 18q-214 -44 -214 -444t214 -402h9q115 0 630 270l81 18h36l27 -27v-18q-210 -200 -585 -396q-126 -45 -207 -45q-253 0 -360 225q-45 141 -45 430.5t81 437.5t333 203z" />
    <glyph glyph-name="d" unicode="d" horiz-adv-x="1268" 
d="M856 1843h36q108 0 108 -243q100 -1400 264 -1537q18 0 36 -63q-65 -126 -153 -126q-174 0 -184 365q-31 171 -45 171q-218 -410 -503 -390h-36q-227 28 -282 397.5t138.5 543.5t319 174t287.5 -80v18q-49 246 -103 752q41 18 117 18zM433 218h27q108 -20 350 318l27 108
q-40 203 -238.5 279.5t-298.5 -223.5t133 -482z" />
    <glyph glyph-name="e" unicode="e" horiz-adv-x="1013" 
d="M666 1258h36q126 0 180 -99l18 -99q-46 -324 -279 -534q-106 -106 -234 -117q-26 -64 84 -146.5t213 -82.5h63q75 0 423 189q66 27 153 36l36 -27v-9q-331 -326 -612 -369h-45q-243 -25 -382 115.5t-203 356.5q-72 115 -72 153v18q0 29 99 45q140 570 522 570zM351 661
v-27l27 -27q122 0 252 192q50 90 54 153q0 68 -45 108h-9q-134 0 -261 -273z" />
    <glyph glyph-name="f" unicode="f" horiz-adv-x="1000" 
d="M1069 1543v-9l-18 -18q-251 227 -399.5 127t-129.5 -273t27 -530q555 -8 555 -125v-36l-36 -36l-243 9h-18l-267 -19q-55 -63 -23.5 -561t-112.5 -654l-63 -18h-18q-99 18 -99 90l81 144q45 103 45 261v108l1 360q0 216 -36 216q-155 -40 -207 -40h-9q-81 0 -99 117
q0 78 315 139q32 59 -7 423.5t126.5 544.5t410.5 80t224 -300z" />
    <glyph glyph-name="g" unicode="g" horiz-adv-x="1600" 
d="M846 1300q203 0 540 -801l27 -117q87 118 177 135h72q81 -12 81 -81q0 -90 -126 -108q-132 -97 -132 -189v-216q0 -693 -405 -1107q-122 -90 -198 -90h-18q-180 28 -180 225v81q22 364 486 1071q90 108 90 162v18q0 142 -207 441l-18 36q-87 -48 -279 -333
q-338 -441 -513 -441h-27q-109 0 -216 216v72q16 99 107.5 321.5t292 463.5t446.5 241zM216 256q0 -13 36 -27q235 0 567 693q90 90 102.5 139.5t-120.5 49.5q-148 0 -297 -252q-288 -347 -288 -603zM864 -995v-27l27 -81q141 35 324 423q90 282 90 432v216h-9
q-432 -554 -432 -963z" />
    <glyph glyph-name="h" unicode="h" horiz-adv-x="1500" 
d="M90 1888q162 0 162 -216q18 -250 108 -909h9q23 158 270 513q81 54 135 54h72q157 0 234 -630q125 -684 198 -684q114 99 153 99q36 0 72 -54v-18q0 -145 -225 -243q-131 43 -198 153q-87 156 -261 1044l-45 90q-169 -83 -279 -675q-29 -432 -144 -432h-63
q-108 0 -108 342q0 689 -180 1404v36q0 126 90 126z" />
    <glyph glyph-name="i" unicode="i" horiz-adv-x="626" 
d="M330 1863h36q104 0 162 -99q-79 -117 -180 -117q-90 0 -90 153v18q23 45 72 45zM153 1327l105 -29q130 -35 77 -226q-138 -423 -45 -764q40 -104 124 -127l17 -5q116 -31 300 79q70 -19 51 -88l-3 -9q-49 -181 -387 -158l-63 8q-176 49 -272 439q-52 475 52 855z" />
    <glyph glyph-name="j" unicode="j" horiz-adv-x="632" 
d="M227 1700q126 -49 126 -171v-18q-11 -117 -90 -117h-27q-147 0 -189 153q0 100 180 153zM232 1204q59 0 270 -810q45 -198 45 -378q-36 -594 -229 -820t-482 -296h-27q-305 0 -450 297l-9 81v27q0 69 36 81h9q63 0 162 -180q106 -99 306 -99q179 0 414 405q90 238 90 495
q0 261 -198 945l-9 99v45q0 108 72 108z" />
    <glyph glyph-name="k" unicode="k" 
d="M63 1600h18q99 0 126 -243q74 -672 106 -672h18q172 140 396 504q80 168 180 177.5t100 -82.5v-27q-249 -287 -433 -581l-189 -225l54 9l896 55q72 -7 72 -45q0 -93 -293 -145l-756 -81l-18 -27v-9l67 -451q-7 -72 -72 -72h-27q-99 0 -139 316q-27 207 -72 369l18 153
q0 302 -115 1005q0 72 63 72z" />
    <glyph glyph-name="l" unicode="l" horiz-adv-x="981" 
d="M537 1915q162 0 185 -693v-45q0 -116 -126 -504l-18 -153v-45q0 -315 225 -576q98 -72 342 -72l36 -36v-9q-19 -108 -207 -108q-292 0 -486 351l-81 306l-297 -216l-90 -18q-117 0 -127.5 61.5t118.5 109.5q166 135 333 333v342q-23 838 166 972h27zM499 987v-72
q45 0 47 555l-9 45h-9q-42 0 -29 -528z" />
    <glyph glyph-name="m" unicode="m" horiz-adv-x="2200" 
d="M42 1423h54q222 0 351 -531l27 -18h9q0 184 252 414h18q225 0 387 -756h18q240 603 414 603h18q195 0 444 -757q62 -138 198 -270l18 -54v-9q-20 -45 -90 -45h-9q-147 0 -207 171q-72 144 -237 559q-97 184 -144 189q-131 -79 -294 -532q0 -191 -153 -306h-9
q-116 42 -174 550q-131 388 -189 423q-135 -110 -258 -793q0 -135 -81 -135h-63q-81 0 -81 45l42 352v36q0 536 -288 792v45z" />
    <glyph glyph-name="n" unicode="n" horiz-adv-x="1400" 
d="M86 1300h63q151 0 247 -571h9l225 405q104 126 162 126h36q137 0 216 -387q94 -345 252 -486q72 -54 108 -54q54 -162 -36 -180q-242 0 -414 396q-117 388 -162 468h-27q-75 -47 -216 -486q-72 -288 -72 -459q-48 -72 -126 -72q-108 0 -108 180l9 81v108q0 496 -175 715
q-63 44 -63 99v45q0 72 72 72z" />
    <glyph glyph-name="o" unicode="o" horiz-adv-x="900" 
d="M284 1389h45q30 0 153 -108q152 0 288 -144q99 -217 99 -414q0 -357 -156 -540t-295.5 -183t-278.5 199.5t-125 532.5q66 657 270 657zM223 570q61 -322 242 -392q171 101 251 608q0 183 -117 261q-47 36 -99 36h-18q-309 -52 -259 -513z" />
    <glyph glyph-name="p" unicode="p" horiz-adv-x="1010" 
d="M648 1331q315 -98 315 -333l9 -81q0 -417 -378 -738l-99 -27h-9q-113 0 -144 54q70 117 162 117q162 102 270 450l18 171q-42 189 -171 189h-9q-232 0 -405 -522q171 -1058 171 -1557v-18l-36 -36h-81q-98 0 -179.5 753t-18.5 1092l9 108h18l27 -18q43 0 90 153
q215 243 441 243z" />
    <glyph glyph-name="q" unicode="q" horiz-adv-x="1292" 
d="M476 1246h9q279 -50 279 -171v-18q0 -24 -270 -45q-141 -41 -233 -363q-54 -184 -54 -369v-27q6 -54 27 -54h27q232 164 323 318q220 288 342 288q117 0 117 -162q0 -103 -81 -666l27 -9q273 390 387 390h90l27 -27q-103 -124 -213 -231q-332 -388 -354 -474
q0 -54 153 -207q339 -326 414 -648l9 -45v-36q-50 -181 -207 -198h-36q-308 0 -486 495q-54 495 -108 495q-116 57 -162 126v36q0 72 216 171q72 0 108 630q-13 36 -27 36h-9q-227 -285 -440 -471q-59 -27 -126 -27h-45q-180 0 -180 324q46 413 233 741q162 194 243 198z
M926 -698v-45q0 -361 243 -531l63 -9h36l18 18v63q0 119 -324 522h-18z" />
    <glyph glyph-name="r" unicode="r" horiz-adv-x="1000" 
d="M72 1359q198 -82 198 -270l144 -450h9q42 201 351 549q89 72 126 72h27q76 0 108 -126q0 -25 -153 -108q-304 -365 -378 -693l9 -207q-15 -126 -126 -126h-36q-109 0 -153 180v9l45 297q0 123 -171 621q-72 143 -72 198q21 54 72 54z" />
    <glyph glyph-name="s" unicode="s" horiz-adv-x="1500" 
d="M769 1281q331 19 396 -108v-9q0 -18 -27 -18q-485 0 -594 -117q-241 -150 -301 -390v-9h9q168 0 639 162q199 45 315 45q297 0 297 -126v-45q0 -189 -369 -513q-198 -153 -342 -153q-180 54 -180 162q33 27 63 27h162q138 0 405 360l18 54v27l-27 27q-177 0 -729 -171
q-139 -36 -288 -36h-18q-189 74 -189 207l-9 9q44 231 400 471q218 144 369 144z" />
    <glyph glyph-name="t" unicode="t" horiz-adv-x="1300" 
d="M447 1743l26 -3q126 -17 123 -171q18 58 -35 -334l-3 -90q417 134 536 151l64 1q51 -26 49 -43l-7 -54q-9 -49 -490 -211q-161 -63 -185 -94l-5 -35q-54 -188 107 -611q65 -99 202 -118q168 -22 346 178q84 127 216 189l35 -5q18 -2 15 -29q-41 -205 -238 -392
q-273 -154 -436 -132q-247 33 -358 311q-98 391 -69 487q-16 75 -35 78l-9 1q-44 6 -297 -122l-18 3q-89 12 -125 80l1 9q15 113 247 184t239 70q54 691 74 688z" />
    <glyph glyph-name="u" unicode="u" horiz-adv-x="900" 
d="M779 1329q81 -76 81 -216v-72q0 -317 -123.5 -679t-326.5 -362q-325 0 -410 960q0 351 126 351q54 0 63 -417.5t203 -677.5q135 0 207 288t72 663q25 162 108 162z" />
    <glyph glyph-name="v" unicode="v" horiz-adv-x="1100" 
d="M989 1326q90 0 90 -153q0 -173 -282 -1047q-48 -126 -126 -126h-54q-81 0 -153 288q-464 834 -464 904q0 77 117 108q83 0 518 -877h9q37 0 345 903z" />
    <glyph glyph-name="w" unicode="w" horiz-adv-x="1600" 
d="M152 1307h27q72 0 72 -144v-63q-8 -202 91 -686h18l286 858q54 54 117 54q144 -40 144 -135l-9 -180q2 -247 164 -633l27 -45q59 0 234 585q110 322 169 360h54l54 -18q-109 -571 -349 -1098q-120 -148 -171 -162q-141 32 -162 180q-77 227 -179 673h-9
q-102 -332 -235 -673q-69 -180 -189 -180q-147 0 -198 675q-42 233 -64 398q-36 90 -36 144q47 90 144 90z" />
    <glyph glyph-name="x" unicode="x" horiz-adv-x="1100" 
d="M771 1315h45q144 -93 -18 -369q-85 -100 -147 -248q197 -244 310.5 -417.5t119.5 -251.5q0 -57 -99 -81q-159 111 -448 561q-103 -164 -327 -794q-54 -36 -99 -36q-75 0 -108 117q11 71 145 259q196 480 254 625l-392 367q0 52 153 153q33 0 347 -340q-18 -14 183 374z
" />
    <glyph glyph-name="y" unicode="y" horiz-adv-x="1500" 
d="M105 1300h18q77 0 75 -619q9 -189 65 -366h9q90 101 223 636q75 360 252 360q330 0 603 -900q63 104 219 104h9q63 0 63 -54q-145 -157 -246 -266q27 -292 62 -783t-298 -897q-88 -45 -126 -45q-185 0 -252 279q-45 103 -41 402t187 774l234 333l9 54q-22 225 -243 639
q-73 72 -117 72q-81 0 -243 -522q-167 -501 -358 -501q-180 0 -200 609l-9 387q28 304 105 304zM1024 -1278h18q234 147 230.5 612.5t-48.5 653.5h-18q-273 -388 -277 -790.5t95 -475.5z" />
    <glyph glyph-name="z" unicode="z" 
d="M666 1316q234 -47 234 -180q-12 -156 -477 -848l-36 -36v-27l45 -9q177 0 760 216h54q90 -12 90 -81q0 -116 -382.5 -233.5t-566.5 -117.5h-54q-153 0 -153 135q0 163 486 956l-36 18q-130 0 -547 -315h-36q-42 20 -63 63v36q0 133 340 306q234 117 342 117z" />
    <glyph glyph-name="braceleft" unicode="{" horiz-adv-x="1315" 
d="M657 2000q36 -13 36 -27q0 -52 -342 -396q-108 -156 -108 -261q16 -135 135 -135h63l216 27h45q153 0 153 -45v-18q0 -119 -72 -243v-18q72 -77 72 -144v-54q0 -132 -297 -504q-153 -237 -143 -397t208 -160h9q122 0 549 144h99q27 0 27 -36q-19 -47 -162 -135
q0 -60 -450 -180h-27q-440 -8 -459.5 328.5t241.5 687.5q63 38 63 54v27q0 27 -171 63q-108 107 -108 216q0 59 99 117v9q0 21 -144 45q-189 97 -189 342v9q0 169 225 459q307 225 432 225z" />
    <glyph glyph-name="bar" unicode="|" horiz-adv-x="2492" 
d="M2074 1356.5q41 -328.5 -108 -703.5q-94 -264 -400 -957q-110 -304 -110 -408q-42 -71 -95 -71h-7q-95 22 -95 86v8l24 102h-8l-23 -8l-526 385q-444 422 -573 856q-71 200 -71 298v47q0 235 212 275h16q237 0 557 -377l126 -173l7 -8h8q29 34 87 252q215 539 395 655
t361.5 93t222.5 -351.5zM1098 337q-65 40 -146 242q-313 451 -542 482h-7q-95 -18 -95 -183v-21q0 -207 51 -293q152 -269 256 -417q311 -362 541 -475q91 -47 169 -110h7q53 149 424 980q139 446 139 695q0 263 -117 263h-29q-166 0 -338 -268.5t-225 -726.5
q-48 -133 -88 -168z" />
    <glyph glyph-name="braceright" unicode="}" horiz-adv-x="1308" 
d="M729 1799q291 -223 334 -387l2 -8q63 -237 -95 -379q-133 -60 -128 -80l2 -9q111 -30 126 -88q27 -105 -50 -236q-156 -79 -149 -105l7 -26q4 -16 74 -36q342 -273 409 -603.5t-361 -434.5l-26 -7q-466 2 -481 59q-160 49 -191 90q-9 35 17 41l96 26q450 -31 567 0l9 2
q192 51 160.5 208.5t-239.5 347.5q-382 284 -415 411l-14 53q-17 64 33 157l-5 18q-101 102 -131 216l-5 18q-11 43 137 82l43 12l216 29l61 16q115 30 96 165q-27 102 -171 224q-418 246 -431 296q-4 13 28 36q120 31 475 -108z" />
    <glyph glyph-name="asciitilde" unicode="~" horiz-adv-x="1900" 
d="M576 1000q186 0 333 -189q0 -23 153 -234q83 -166 135 -171q212 179 432 549q88 43 162 45l9 -9v-27q0 -110 -207 -414q-194 -261 -369 -360h-27q-215 66 -279 198q-30 97 -243 315q-90 90 -108 90q-204 -103 -270 -234q-116 -162 -180 -162h-36q-48 0 -63 36v9
q51 235 351 486q128 72 207 72z" />
    <glyph glyph-name="exclamdown" unicode="&#xa1;" horiz-adv-x="562" 
d="M122 0h-18l-27 27v9q0 168 94 604q81 376 108 702l54 18q99 0 99 -144q-142 -1216 -310 -1216zM351 1592h-18q-99 0 -99 162q11 126 90 126h9q131 0 144 -153q-38 -135 -126 -135z" />
    <glyph glyph-name="cent" unicode="&#xa2;" horiz-adv-x="1060" 
d="M483 1392q151 0 342 -207l9 -45v-45q-22 -113 -135 -135h-9q-162 27 -162 144l9 9v9l-54 18q-214 -44 -214 -444t214 -402h9q115 0 339.5 21.5t-150.5 -174.5q-126 -45 -207 -45q-253 0 -360 225q-45 141 -45 430.5t81 437.5t333 203zM251 -304h-18l-27 27v9
q0 168 202 1148q81 376 108 702l54 18q99 0 99 -144q-250 -1760 -418 -1760z" />
    <glyph glyph-name="sterling" unicode="&#xa3;" 
d="M679 1642h18q303 -242 303 -332q0 -87 -375 107q-85 0 -216 -432q-59 -287 -138.5 -369t-69.5 262.5t271 682.5q103 81 207 81zM325 1116l117 -946h9q26 0 324 66q145 99 252 99q81 0 81 -135q-31 -35 -324 -198l-279 -84q-88 -63 -189 -63q-70 0 -90 135
q-26 1210 99 1126zM43 930q64 -27 546 -72q93 -36 93 -108v-9q0 -63 -81 -63l-142 -9h-248q-199 0 -199 90q-11 0 -12 108q15 63 43 63z" />
    <glyph glyph-name="currency" unicode="&#xa4;" horiz-adv-x="1014" 
 />
    <glyph glyph-name="yen" unicode="&#xa5;" horiz-adv-x="1262" 
 />
    <glyph glyph-name="brokenbar" unicode="&#xa6;" horiz-adv-x="473" 
d="M106 393q0 261 135 261h18q81 0 45 -288v-9l16 -197v-27q0 -84 -81 -171h-18q-88 0 -115 431zM120 1249q0 261 135 261h18q81 0 45 -288v-9l16 -197v-27q0 -84 -81 -171h-18q-88 0 -115 431z" />
    <glyph glyph-name="section" unicode="&#xa7;" horiz-adv-x="1652" 
d="M588 1143q83 35 146 42q97 30 213 70q199 45 315 45q297 0 297 -126v-45q0 -136 -193 -305q137 -27 137 -113v-45q0 -189 -374 -443q-198 -153 -342 -153q-180 54 -180 162q33 27 63 27h162q138 0 410 290l18 54v27l-27 27q-40 0 -99 -9q-487 -118 -630 -162
q-139 -36 -288 -36h-18q-189 74 -189 207l-9 9q32 111 227 259q-162 72 -162 195l-9 9q39 137 326 329t438 192q331 19 396 -108v-9q0 -18 -27 -18q-485 0 -660 -133.5t-230 -279.5v-9h9q93 0 280 50zM872 1040q-137 -37 -312 -91q-32 -8 -64 -15q-12 -7 -23 -15
q-175 -134 -230 -280v-9h9q168 0 639 162q124 28 216 39q85 69 191 181l18 54v27l-27 27q-55 0 -177.5 -34t-239.5 -46z" />
    <glyph glyph-name="dieresis" unicode="&#xa8;" horiz-adv-x="657" 
d="M194 1887q33 -34 33 -81q0 -48 -33 -82t-79 -34t-79 34t-33 82q0 47 33 81t79 34t79 -34zM514 1914q33 -34 33 -81q0 -48 -33 -82t-79 -34q-47 0 -79.5 34t-32.5 82q0 47 32.5 81t79.5 34q46 0 79 -34z" />
    <glyph glyph-name="copyright" unicode="&#xa9;" horiz-adv-x="1674" 
 />
    <glyph glyph-name="ordfeminine" unicode="&#xaa;" horiz-adv-x="648" 
 />
    <glyph glyph-name="guillemotleft" unicode="&#xab;" horiz-adv-x="1800" 
d="M999 298q5 -90 -148 -98q-173 -9 -630 186q-129 42 -133 120l-3 53q-4 81 280 168q362 190 432 194q77 4 114 -111q4 -83 -511 -269v-9q2 -37 599 -234zM1799 298q5 -90 -148 -98q-173 -9 -630 186q-129 42 -133 120l-3 53q-4 81 280 168q362 190 432 194q77 4 114 -111
q4 -83 -511 -269v-9q2 -37 599 -234z" />
    <glyph glyph-name="logicalnot" unicode="&#xac;" horiz-adv-x="1014" 
 />
    <glyph glyph-name="registered" unicode="&#xae;" horiz-adv-x="1674" 
 />
    <glyph glyph-name="macron" unicode="&#xaf;" horiz-adv-x="1323" 
d="M92 1823q145 -71 204 -71l99 -7l367 7q233 0 233 -78q28 -28 28 -77v-7q-7 -106 -42 -106q-32 0 -141 63q-41 29 -388 29h-177q-275 0 -275 70v28q0 48 92 149z" />
    <glyph glyph-name="degree" unicode="&#xb0;" horiz-adv-x="604" 
d="M455.5 1569.5q67.5 -69.5 67.5 -168.5t-67.5 -169t-163.5 -70t-164 70t-68 169t68 168.5t164 69.5t163.5 -69.5zM301 1504q-45 0 -77 -33t-32 -79t32 -79t77 -33q46 0 78 33t32 79t-32 79t-78 33z" />
    <glyph glyph-name="plusminus" unicode="&#xb1;" 
d="M591 1308l52 -318q114 5 204 5q135 -7 135 -81q-33 -43 -330 -111l41 -384v-18l-36 -36h-108q-63 0 -63 306l-14 134l-356 -37l-18 79q0 99 255 118q80 0 99 18q-59 245 -15.5 310t154.5 15zM843 276q261 0 261 -135v-18q0 -81 -99 -81l-189 36h-9l-604 -16h-27
q-84 0 -127.5 93.5t794.5 120.5z" />
    <glyph glyph-name="uni00B2" unicode="&#xb2;" horiz-adv-x="1014" 
 />
    <glyph glyph-name="uni00B3" unicode="&#xb3;" horiz-adv-x="1014" 
 />
    <glyph glyph-name="acute" unicode="&#xb4;" horiz-adv-x="1024" 
d="M869 1836q-63 -27 -170 -116q-142 -174 -240 -95q-91 88 -41 149q30 37 164 88q192 144 291 63l14 -11q19 -16 -18 -78z" />
    <glyph glyph-name="mu" unicode="&#xb5;" horiz-adv-x="1180" 
 />
    <glyph glyph-name="paragraph" unicode="&#xb6;" horiz-adv-x="1024" 
 />
    <glyph glyph-name="periodcentered" unicode="&#xb7;" horiz-adv-x="508" 
 />
    <glyph glyph-name="periodcentered" unicode="&#x2219;" horiz-adv-x="508" 
 />
    <glyph glyph-name="cedilla" unicode="&#xb8;" horiz-adv-x="1000" 
d="M267 -518q-158 57 -135 171q0 41 22 45h49q4 -95 198 -115h21q163 -45 36 86t-98 275.5t127 144.5q54 0 34.5 -63t-19.5 -99v-17q0 -109 83.5 -149.5t83.5 -222.5v-11q0 -67 -141 -67h-7q-119 0 -254 22z" />
    <glyph glyph-name="uni00B9" unicode="&#xb9;" horiz-adv-x="1014" 
 />
    <glyph glyph-name="ordmasculine" unicode="&#xba;" horiz-adv-x="718" 
 />
    <glyph glyph-name="guillemotright" unicode="&#xbb;" horiz-adv-x="1800" 
d="M1485 532v9q-515 186 -511 269q37 115 114 111q70 -4 432 -194q284 -87 280 -168l-3 -53q-4 -78 -133 -120q-457 -195 -630 -186q-153 8 -148 98q597 197 599 234zM685 532v9q-515 186 -511 269q37 115 114 111q70 -4 432 -194q284 -87 280 -168l-3 -53q-4 -78 -133 -120
q-457 -195 -630 -186q-153 8 -148 98q597 197 599 234z" />
    <glyph glyph-name="onequarter" unicode="&#xbc;" horiz-adv-x="1708" 
 />
    <glyph glyph-name="onehalf" unicode="&#xbd;" horiz-adv-x="1964" 
 />
    <glyph glyph-name="threequarters" unicode="&#xbe;" horiz-adv-x="1708" 
 />
    <glyph glyph-name="questiondown" unicode="&#xbf;" 
d="M297 -200h-9q-180 0 -180 108v18q0 291 254 670q117 230 117 405v27q0 59 -72 144v18q21 99 90 99q126 0 189 -288v-9q0 -265 -191 -499q-144 -286 -144 -423q0 -72 72 -72h27q248 32 578 301h63q27 -6 27 -72q30 -183 -497 -391q-172 -36 -324 -36zM430 1484h-9
q-79 0 -90 117q45 216 171 216q126 -147 126 -189q-34 -82 -198 -144z" />
    <glyph glyph-name="Agrave" unicode="&#xc0;" horiz-adv-x="1372" 
d="M854 1600q122 0 301 -807q41 -198 81 -198q54 -18 54 -36q0 -53 -45 -108v-45q72 -333 72 -414q-9 -117 -45 -117h-9q-166 0 -225 585q-128 0 -531 -180q-136 -324 -315 -324h-18q-225 0 -159 135.5t141 89.5q156 0 216 306q66 90 329 969q0 127 153 144zM809 1266
l-167 -492v-54q0 -15 45 -27q306 30 306 72v18l-175 483h-9zM438 1960l14 11q99 81 291 -63q134 -51 164 -88q50 -61 -41 -149q-98 -79 -240 95q-107 89 -170 116q-37 62 -18 78z" />
    <glyph glyph-name="Aacute" unicode="&#xc1;" horiz-adv-x="1428" 
d="M910 1725q122 0 301 -807q41 -198 81 -198q54 -18 54 -36q0 -53 -45 -108v-45q72 -333 72 -414q-9 -117 -45 -117h-9q-166 0 -225 585q-128 0 -531 -180q-136 -324 -315 -324h-18q-225 0 -159 135.5t141 89.5q156 0 216 306q66 90 329 969q0 127 153 144zM865 1266
l-167 -492v-54q0 -15 45 -27q306 30 306 72v18l-175 483h-9zM1271 2078q-63 -27 -170 -116q-142 -174 -240 -95q-91 88 -41 149q30 37 164 88q192 144 291 63l14 -11q19 -16 -18 -78z" />
    <glyph glyph-name="Acircumflex" unicode="&#xc2;" horiz-adv-x="1363" 
d="M845 1725q122 0 301 -807q41 -198 81 -198q54 -18 54 -36q0 -53 -45 -108v-45q72 -333 72 -414q-9 -117 -45 -117h-9q-166 0 -225 585q-128 0 -531 -180q-136 -324 -315 -324h-18q-225 0 -159 135.5t141 89.5q156 0 216 306q66 90 329 969q0 127 153 144zM800 1266
l-167 -492v-54q0 -15 45 -27q306 30 306 72v18l-175 483h-9zM749 1931h-9q-225 -185 -225 -108q0 70 82.5 154.5t225.5 184.5q70 -100 200 -300q-31 -108 -134 -19.5t-140 88.5z" />
    <glyph glyph-name="Atilde" unicode="&#xc3;" horiz-adv-x="1437" 
d="M919 1725q122 0 301 -807q41 -198 81 -198q54 -18 54 -36q0 -53 -45 -108v-45q72 -333 72 -414q-9 -117 -45 -117h-9q-166 0 -225 585q-128 0 -531 -180q-136 -324 -315 -324h-18q-225 0 -159 135.5t141 89.5q156 0 216 306q66 90 329 969q0 127 153 144zM874 1266
l-167 -492v-54q0 -15 45 -27q306 30 306 72v18l-175 483h-9zM1032 1971q84 -60 111 -48q57 86 107 101.5t36.5 -45.5t-73.5 -156l-14 -7q-123 -24 -189 25q-40 40 -163 110q-68 21 -77 16q-73 -104 -92 -130q-143 -2 -41 144q44 69 109.5 104t285.5 -114z" />
    <glyph glyph-name="Adieresis" unicode="&#xc4;" horiz-adv-x="1648" 
d="M1130 1725q122 0 301 -807q41 -198 81 -198q54 -18 54 -36q0 -53 -45 -108v-45q72 -333 72 -414q-9 -117 -45 -117h-9q-166 0 -225 585q-128 0 -531 -180q-136 -324 -315 -324h-18q-225 0 -159 135.5t141 89.5q156 0 216 306q66 90 329 969q0 127 153 144zM1085 1266
l-167 -492v-54q0 -15 45 -27q306 30 306 72v18l-175 483h-9zM1049.5 2011.5q31.5 -32.5 31.5 -78.5q0 -47 -31.5 -79.5t-76.5 -32.5q-44 0 -76 32.5t-32 79.5q0 46 32 78.5t76 32.5q45 0 76.5 -32.5zM1358.5 2037.5q31.5 -32.5 31.5 -78.5t-31.5 -79t-76.5 -33t-76.5 33
t-31.5 79t31.5 78.5t76.5 32.5t76.5 -32.5z" />
    <glyph glyph-name="Aring" unicode="&#xc5;" horiz-adv-x="1395" 
d="M877 1725q122 0 301 -807q41 -198 81 -198q54 -18 54 -36q0 -53 -45 -108v-45q72 -333 72 -414q-9 -117 -45 -117h-9q-166 0 -225 585q-128 0 -531 -180q-136 -324 -315 -324h-18q-225 0 -159 135.5t141 89.5q156 0 216 306q66 90 329 969q0 127 153 144zM832 1266
l-167 -492v-54q0 -15 45 -27q306 30 306 72v18l-175 483h-9zM966 1985.5q68 -69.5 68 -168.5t-68 -169t-164 -70t-164 70t-68 169t68 168.5t164 69.5t164 -69.5zM812 1920q-46 0 -78 -33t-32 -79t32 -79t78 -33q45 0 77.5 33t32.5 79t-32.5 79t-77.5 33z" />
    <glyph glyph-name="AE" unicode="&#xc6;" horiz-adv-x="2400" 
d="M1085 1266l-167 -492v-54q0 -15 45 -27q306 30 306 72v18l-175 483h-9zM1306 585q-133 -6 -523 -180q-136 -324 -315 -324h-18q-225 0 -324 396q-72 246 -126 621l27 36q144 -79 144 -216q39 -28 108 -369q78 -197 153 -243q156 0 216 306q66 90 329 969q0 127 153 144
q68 0 153 -249q17 8 37 16q0 33 297 72q0 20 108 36h90q66 0 72 -27v-36q-68 -54 -315 -162q-63 -42 -63 -315v-27l9 -108l522 396l54 9h36l27 -27q0 -102 -594 -648l-1 -2q-6 -27 -25 -56l-16 -34v-32q10 -47 19 -88q48 -157 131 -157q138 0 567 369l81 18h18q48 0 63 -36
q-76 -187 -531 -513q-123 -81 -276 -102.5t-287 563.5z" />
    <glyph glyph-name="Ccedilla" unicode="&#xc7;" horiz-adv-x="1399" 
d="M488 1644h18q171 0 171 -90q0 -87 -243 -135q-85 0 -216 -432q-118 -431 133 -762q89 -45 135 -45h36q236 0 747 513l63 18h9l27 -27v-27q-38 -179 -468 -522q-182 -135 -450 -135h-45q-242 0 -323.5 268t-71.5 612.5t271 682.5q103 81 207 81zM390 -816
q-412 130 -389 244q0 41 22 45h49q258 -168 452 -188h21q57 0 57 45q0 85 -113 263q-149 146 -149 311v6q49 179 147 179q54 0 71 -62v-11q-56 -53 -56 -89v-17q0 -109 91 -252q199 -236 199 -418v-11q0 -67 -141 -67h-7q-119 0 -254 22z" />
    <glyph glyph-name="Egrave" unicode="&#xc8;" horiz-adv-x="1264" 
d="M576 1557h90q66 0 72 -27v-36q-68 -54 -315 -162q-63 -42 -63 -315v-27l9 -108l522 396l54 9h36l27 -27q0 -102 -594 -648l-45 -99v-27q50 -243 153 -243q138 0 567 369l81 18h18q48 0 63 -36q-76 -187 -531 -513q-123 -81 -225 -81h-45q-297 0 -297 684v243l9 144
q0 79 -126 153q-36 38 -36 72v18q0 67 171 135q0 33 297 72q0 20 108 36zM6 1914l14 11q99 81 291 -63q134 -51 164 -88q50 -61 -41 -149q-98 -79 -240 95q-107 89 -170 116q-37 62 -18 78z" />
    <glyph glyph-name="Eacute" unicode="&#xc9;" horiz-adv-x="1264" 
d="M576 1557h90q66 0 72 -27v-36q-68 -54 -315 -162q-63 -42 -63 -315v-27l9 -108l522 396l54 9h36l27 -27q0 -102 -594 -648l-45 -99v-27q50 -243 153 -243q138 0 567 369l81 18h18q48 0 63 -36q-76 -187 -531 -513q-123 -81 -225 -81h-45q-297 0 -297 684v243l9 144
q0 79 -126 153q-36 38 -36 72v18q0 67 171 135q0 33 297 72q0 20 108 36zM668 1836q-63 -27 -170 -116q-142 -174 -240 -95q-91 88 -41 149q30 37 164 88q192 144 291 63l14 -11q19 -16 -18 -78z" />
    <glyph glyph-name="Ecircumflex" unicode="&#xca;" horiz-adv-x="1264" 
d="M576 1557h90q66 0 72 -27v-36q-68 -54 -315 -162q-63 -42 -63 -315v-27l9 -108l522 396l54 9h36l27 -27q0 -102 -594 -648l-45 -99v-27q50 -243 153 -243q138 0 567 369l81 18h18q48 0 63 -36q-76 -187 -531 -513q-123 -81 -225 -81h-45q-297 0 -297 684v243l9 144
q0 79 -126 153q-36 38 -36 72v18q0 67 171 135q0 33 297 72q0 20 108 36zM434 1769h-9q-225 -185 -225 -108q0 70 82.5 154.5t225.5 184.5q70 -100 200 -300q-31 -108 -134 -19.5t-140 88.5z" />
    <glyph glyph-name="Edieresis" unicode="&#xcb;" horiz-adv-x="1264" 
d="M576 1557h90q66 0 72 -27v-36q-68 -54 -315 -162q-63 -42 -63 -315v-27l9 -108l522 396l54 9h36l27 -27q0 -102 -594 -648l-45 -99v-27q50 -243 153 -243q138 0 567 369l81 18h18q48 0 63 -36q-76 -187 -531 -513q-123 -81 -225 -81h-45q-297 0 -297 684v243l9 144
q0 79 -126 153q-36 38 -36 72v18q0 67 171 135q0 33 297 72q0 20 108 36zM305.5 1800.5q31.5 -32.5 31.5 -78.5q0 -47 -31.5 -79.5t-76.5 -32.5q-44 0 -76 32.5t-32 79.5q0 46 32 78.5t76 32.5q45 0 76.5 -32.5zM614.5 1826.5q31.5 -32.5 31.5 -78.5t-31.5 -79t-76.5 -33
t-76.5 33t-31.5 79t31.5 78.5t76.5 32.5t76.5 -32.5z" />
    <glyph glyph-name="Igrave" unicode="&#xcc;" horiz-adv-x="400" 
d="M71 1600h129q79 0 111 -1402q18 -84 54 -126v-36q-15 -36 -63 -36h-90q-81 0 -81 90l-87 1465q6 45 27 45zM-286 1960l14 11q99 81 291 -63q134 -51 164 -88q50 -61 -41 -149q-98 -79 -240 95q-107 89 -170 116q-37 62 -18 78z" />
    <glyph glyph-name="Iacute" unicode="&#xcd;" horiz-adv-x="400" 
d="M71 1600h129q79 0 111 -1402q18 -84 54 -126v-36q-15 -36 -63 -36h-90q-81 0 -81 90l-87 1465q6 45 27 45zM468 1836q-63 -27 -170 -116q-142 -174 -240 -95q-91 88 -41 149q30 37 164 88q192 144 290 63l14 -11q20 -16 -17 -78z" />
    <glyph glyph-name="Icircumflex" unicode="&#xce;" horiz-adv-x="400" 
d="M71 1600h129q79 0 111 -1402q18 -84 54 -126v-36q-15 -36 -63 -36h-90q-81 0 -81 90l-87 1465q6 45 27 45zM126 1769h-9q-225 -185 -225 -108q0 70 82.5 154.5t225.5 184.5q70 -100 200 -300q-31 -108 -134 -19.5t-140 88.5z" />
    <glyph glyph-name="Idieresis" unicode="&#xcf;" horiz-adv-x="400" 
d="M71 1600h129q79 0 111 -1402q18 -84 54 -126v-36q-15 -36 -63 -36h-90q-81 0 -81 90l-87 1465q6 45 27 45zM34.5 1866.5q31.5 -32.5 31.5 -78.5q0 -47 -31.5 -79.5t-76.5 -32.5t-76.5 32.5t-31.5 79.5q0 46 31.5 78.5t76.5 32.5t76.5 -32.5zM343 1892.5
q32 -32.5 32 -78.5t-32 -79t-76 -33q-45 0 -76.5 33t-31.5 79t31.5 78.5t76.5 32.5q44 0 76 -32.5z" />
    <glyph glyph-name="Eth" unicode="&#xd0;" horiz-adv-x="1400" 
d="M407 1764q72 0 90 -108v-108q630 -27 630 -81q189 -127 189 -324q0 -458 -639 -1080q-103 -63 -162 -63h-18q-137 0 -189 144l54 153v18q-45 185 -72 774q-72 53 -90 117l108 252q0 306 99 306zM479 1125v-144q0 -684 180 -684q141 103 270 315q189 269 189 504
q0 160 -207 225h-18q-300 0 -378 -72q-36 -81 -36 -144zM698 904q201 0 201 -135v-18q0 -81 -76 -81l-145 36h-7l-465 -16h-21q-64 0 -131 81v18q0 88 644 115z" />
    <glyph glyph-name="Ntilde" unicode="&#xd1;" horiz-adv-x="1500" 
d="M1256 1800q59 -18 66 -40l-84 -567q-80 -917 -117 -1104q-40 -112 -98 -118q-94 -8 -514 885l-158 257q-79 -1218 -331 -1241l-36 -3q-57 26 -62 84q-2 23 85 162q103 193 178 1136q-22 242 85 252l54 5q102 9 306 -488q288 -591 336 -620q42 102 72 603q83 785 209 796z
M774 1953q84 -60 111 -48q57 143 107 158.5t36.5 -74t-73.5 -184.5l-14 -7q-123 -24 -189 25q-40 40 -163 110q-68 21 -77 16q-73 -104 -110 -205q-143 -2 -23 219q44 69 109.5 104t285.5 -114z" />
    <glyph glyph-name="Ograve" unicode="&#xd2;" horiz-adv-x="1044" 
d="M217 1733q81 0 81 -72l-9 -27q0 48 331.5 57t364 -661.5t-390.5 -993.5q-97 -36 -180 -36q-278 0 -369 486q-45 194 -53.5 604t153.5 616q38 27 72 27zM393 250q193 -61 300 279.5t107 606t-203.5 337t-334.5 -144.5q-99 0 -80.5 -508.5t211.5 -569.5zM114 2029l14 11
q99 81 291 -63q134 -51 164 -88q50 -61 -41 -149q-98 -79 -240 95q-107 89 -170 116q-37 62 -18 78z" />
    <glyph glyph-name="Oacute" unicode="&#xd3;" horiz-adv-x="1044" 
d="M217 1733q81 0 81 -72l-9 -27q0 48 331.5 57t364 -661.5t-390.5 -993.5q-97 -36 -180 -36q-278 0 -369 486q-45 194 -53.5 604t153.5 616q38 27 72 27zM393 250q193 -61 300 279.5t107 606t-203.5 337t-334.5 -144.5q-99 0 -80.5 -508.5t211.5 -569.5zM868 1951
q-63 -27 -170 -116q-142 -174 -240 -95q-91 88 -41 149q30 37 164 88q192 144 291 63l14 -11q19 -16 -18 -78z" />
    <glyph glyph-name="Ocircumflex" unicode="&#xd4;" horiz-adv-x="1044" 
d="M217 1733q81 0 81 -72l-9 -27q0 48 331.5 57t364 -661.5t-390.5 -993.5q-97 -36 -180 -36q-278 0 -369 486q-45 194 -53.5 604t153.5 616q38 27 72 27zM393 250q193 -61 300 279.5t107 606t-203.5 337t-334.5 -144.5q-99 0 -80.5 -508.5t211.5 -569.5zM434 1969h-9
q-225 -185 -225 -108q0 70 82.5 154.5t225.5 184.5q70 -100 200 -300q-31 -108 -134 -19.5t-140 88.5z" />
    <glyph glyph-name="Otilde" unicode="&#xd5;" horiz-adv-x="1044" 
d="M217 1733q81 0 81 -72l-9 -27q0 48 331.5 57t364 -661.5t-390.5 -993.5q-97 -36 -180 -36q-278 0 -369 486q-45 194 -53.5 604t153.5 616q38 27 72 27zM393 250q193 -61 300 279.5t107 606t-203.5 337t-334.5 -144.5q-99 0 -80.5 -508.5t211.5 -569.5zM220 2043
q92 49 214 -6q6 -11 98 -94q84 -60 111 -48q58 143 157 174q-27 -179 -87 -274l-13 -7q-123 -24 -189 25q-41 40 -164 110q-68 21 -77 16q-73 -104 -110 -205q-143 -2 -23 219q45 69 83 90z" />
    <glyph glyph-name="Odieresis" unicode="&#xd6;" horiz-adv-x="1044" 
d="M217 1733q81 0 81 -72l-9 -27q0 48 331.5 57t364 -661.5t-390.5 -993.5q-97 -36 -180 -36q-278 0 -369 486q-45 194 -53.5 604t153.5 616q38 27 72 27zM393 250q193 -61 300 279.5t107 606t-203.5 337t-334.5 -144.5q-99 0 -80.5 -508.5t211.5 -569.5zM394.5 2016.5
q31.5 -32.5 31.5 -78.5q0 -47 -31.5 -79.5t-76.5 -32.5q-44 0 -76 32.5t-32 79.5q0 46 32 78.5t76 32.5q45 0 76.5 -32.5zM703.5 2042.5q31.5 -32.5 31.5 -78.5t-31.5 -79t-76.5 -33t-76.5 33t-31.5 79t31.5 78.5t76.5 32.5t76.5 -32.5z" />
    <glyph glyph-name="multiply" unicode="&#xd7;" horiz-adv-x="1100" 
d="M771 1315h45q144 -93 -18 -369q-85 -100 -147 -248q373 -506 379 -584q0 -57 -99 -81l-397 476q-103 -164 -186 -485q-54 -36 -99 -36q-75 0 -86 94t83.5 273.5t152.5 324.5l-392 367q28 160 153 153q33 0 347 -340q-18 -14 183 374z" />
    <glyph glyph-name="Oslash" unicode="&#xd8;" horiz-adv-x="1044" 
d="M217 1733q81 0 81 -72l-9 -27q0 48 331.5 57t364 -661.5t-390.5 -993.5q-97 -36 -180 -36q-278 0 -369 486q-45 194 -53.5 604t153.5 616q38 27 72 27zM393 250q193 -61 300 279.5t107 606t-203.5 337t-334.5 -144.5q-99 0 -80.5 -508.5t211.5 -569.5zM633 1991h18
l27 -27v-9q-123 -999 -217 -1435q-81 -376 -108 -702l-54 -18q-99 0 -99 144q265 2047 433 2047z" />
    <glyph glyph-name="Ugrave" unicode="&#xd9;" 
d="M952 1740h27q143 0 162 -252v-54q0 -696 -502 -1362q-63 -72 -171 -72h-45q-104 0 -144 72q-144 257 -234 738q-45 275 -45 486v72q6 126 45 126h27q144 0 144 -279q0 -694 261 -999h18q256 298 403 633q72 262 72 477v135q0 77 -108 162l-9 36v9q41 72 99 72zM6 1914
l14 11q99 81 291 -63q134 -51 164 -88q50 -61 -41 -149q-98 -79 -240 95q-107 89 -170 116q-37 62 -18 78z" />
    <glyph glyph-name="Uacute" unicode="&#xda;" 
d="M952 1740h27q143 0 162 -252v-54q0 -696 -502 -1362q-63 -72 -171 -72h-45q-104 0 -144 72q-144 257 -234 738q-45 275 -45 486v72q6 126 45 126h27q144 0 144 -279q0 -694 261 -999h18q256 298 403 633q72 262 72 477v135q0 77 -108 162l-9 36v9q41 72 99 72zM776 1836
q-63 -27 -170 -116q-142 -174 -240 -95q-91 88 -41 149q30 37 164 88q192 144 291 63l14 -11q19 -16 -18 -78z" />
    <glyph glyph-name="Ucircumflex" unicode="&#xdb;" 
d="M952 1740h27q143 0 162 -252v-54q0 -696 -502 -1362q-63 -72 -171 -72h-45q-104 0 -144 72q-144 257 -234 738q-45 275 -45 486v72q6 126 45 126h27q144 0 144 -279q0 -694 261 -999h18q256 298 403 633q72 262 72 477v135q0 77 -108 162l-9 36v9q41 72 99 72zM434 1769
h-9q-225 -185 -225 -108q0 70 82.5 154.5t225.5 184.5q70 -100 200 -300q-31 -108 -134 -19.5t-140 88.5z" />
    <glyph glyph-name="Udieresis" unicode="&#xdc;" 
d="M952 1740h27q143 0 162 -252v-54q0 -696 -502 -1362q-63 -72 -171 -72h-45q-104 0 -144 72q-144 257 -234 738q-45 275 -45 486v72q6 126 45 126h27q144 0 144 -279q0 -694 261 -999h18q256 298 403 633q72 262 72 477v135q0 77 -108 162l-9 36v9q41 72 99 72z
M380.5 1950.5q31.5 -32.5 31.5 -78.5q0 -47 -31.5 -79.5t-76.5 -32.5q-44 0 -76 32.5t-32 79.5q0 46 32 78.5t76 32.5q45 0 76.5 -32.5zM689.5 1976.5q31.5 -32.5 31.5 -78.5t-31.5 -79t-76.5 -33t-76.5 33t-31.5 79t31.5 78.5t76.5 32.5t76.5 -32.5z" />
    <glyph glyph-name="Yacute" unicode="&#xdd;" horiz-adv-x="1233" 
d="M774 1600q133 0 243 -423q162 -380 162 -729q0 -592 -486 -1062q-167 -135 -369 -135q-243 36 -243 243v36q9 126 54 126h36q90 -18 90 -90l-9 -90q48 -63 117 -63h9q184 0 414 306q216 351 216 792q0 263 -198 675l-9 9h-9q-43 -3 -252 -603q-105 -180 -207 -180h-27
q-126 0 -252 333q-36 63 -54 675q0 153 117 153q63 0 63 -207q0 -312 45 -468q0 -171 99 -252q90 50 207 369q111 489 171 558zM976 1836q-63 -27 -170 -116q-142 -174 -240 -95q-91 88 -41 149q30 37 164 88q192 144 291 63l14 -11q19 -16 -18 -78z" />
    <glyph glyph-name="Thorn" unicode="&#xde;" 
d="M131 1665h63q45 0 45 -360q27 -1170 153 -1170l9 -9v-81q0 -39 -126 -45q-138 38 -171 423q-27 556 -27 963q13 279 54 279zM71 1179q76 81 216 81h72q317 0 532.5 -123.5t215.5 -326.5q0 -325 -667 -410q-351 0 -351 126q0 54 271 63t531 203q0 135 -141.5 207
t-516.5 72q-162 25 -162 108z" />
    <glyph glyph-name="germandbls" unicode="&#xdf;" horiz-adv-x="1400" 
d="M720 1665h72q180 0 180 -126v-72q0 -138 -126 -333v-9q480 75 501 -291t-147 -534q-125 -76 -234 -108q-34 0 -81 63v36q0 70 117 138t186 381q0 121 -189 144q-200 100 -299 -54l-99 -27q-99 0 -99 81v9q0 102 21 82q260 198 260 395l-9 36h-45q-214 0 -585 -438l-54 -9
h-9q-69 0 -81 90v18q0 107 513 483q133 45 207 45zM541 -191l-16 -9l-37 9l-5 8q-84 145 -222 569q-120 366 -261 661l38 43q85 50 158 -75q490 -1122 345 -1206z" />
    <glyph glyph-name="agrave" unicode="&#xe0;" 
d="M369 1323q164 0 396 -270l63 -36l72 9q135 0 135 -288q36 -236 90 -333q0 -58 108 -153l9 -45q0 -58 -81 -72q-160 0 -306 342l-27 18q-331 -486 -477 -486l-72 -9q-236 0 -270 405l-9 81q86 837 369 837zM207 450q18 -225 108 -225q133 59 306 333q72 105 72 144
q-112 139 -153 261q-88 99 -153 99h-9q-74 0 -153 -423zM206 1760l14 11q99 81 291 -63q134 -51 164 -88q50 -61 -41 -149q-98 -79 -240 95q-107 89 -170 116q-37 62 -18 78z" />
    <glyph glyph-name="aacute" unicode="&#xe1;" 
d="M369 1323q164 0 396 -270l63 -36l72 9q135 0 135 -288q36 -236 90 -333q0 -58 108 -153l9 -45q0 -58 -81 -72q-160 0 -306 342l-27 18q-331 -486 -477 -486l-72 -9q-236 0 -270 405l-9 81q86 837 369 837zM207 450q18 -225 108 -225q133 59 306 333q72 105 72 144
q-112 139 -153 261q-88 99 -153 99h-9q-74 0 -153 -423zM668 1682q-63 -27 -170 -116q-142 -174 -240 -95q-91 88 -41 149q30 37 164 88q192 144 291 63l14 -11q19 -16 -18 -78z" />
    <glyph glyph-name="acircumflex" unicode="&#xe2;" 
d="M369 1323q164 0 396 -270l63 -36l72 9q135 0 135 -288q36 -236 90 -333q0 -58 108 -153l9 -45q0 -58 -81 -72q-160 0 -306 342l-27 18q-331 -486 -477 -486l-72 -9q-236 0 -270 405l-9 81q86 837 369 837zM207 450q18 -225 108 -225q133 59 306 333q72 105 72 144
q-112 139 -153 261q-88 99 -153 99h-9q-74 0 -153 -423zM434 1569h-9q-225 -185 -225 -108q0 70 82.5 154.5t225.5 184.5q70 -100 200 -300q-31 -108 -134 -19.5t-140 88.5z" />
    <glyph glyph-name="atilde" unicode="&#xe3;" 
d="M369 1323q164 0 396 -270l63 -36l72 9q135 0 135 -288q36 -236 90 -333q0 -58 108 -153l9 -45q0 -58 -81 -72q-160 0 -306 342l-27 18q-331 -486 -477 -486l-72 -9q-236 0 -270 405l-9 81q86 837 369 837zM207 450q18 -225 108 -225q133 59 306 333q72 105 72 144
q-112 139 -153 261q-88 99 -153 99h-9q-74 0 -153 -423zM621 1615q84 -60 111 -48q57 86 107 101.5t36.5 -45.5t-73.5 -156l-14 -7q-123 -24 -189 25q-40 40 -163 110q-68 21 -77 16q-73 -104 -92 -130q-143 -2 -41 144q44 69 109.5 104t285.5 -114z" />
    <glyph glyph-name="adieresis" unicode="&#xe4;" 
d="M369 1323q164 0 396 -270l63 -36l72 9q135 0 135 -288q36 -236 90 -333q0 -58 108 -153l9 -45q0 -58 -81 -72q-160 0 -306 342l-27 18q-331 -486 -477 -486l-72 -9q-236 0 -270 405l-9 81q86 837 369 837zM207 450q18 -225 108 -225q133 59 306 333q72 105 72 144
q-112 139 -153 261q-88 99 -153 99h-9q-74 0 -153 -423zM361.5 1642.5q31.5 -32.5 31.5 -78.5q0 -47 -31.5 -79.5t-76.5 -32.5q-44 0 -76 32.5t-32 79.5q0 46 32 78.5t76 32.5q45 0 76.5 -32.5zM670.5 1668.5q31.5 -32.5 31.5 -78.5t-31.5 -79t-76.5 -33t-76.5 33t-31.5 79
t31.5 78.5t76.5 32.5t76.5 -32.5z" />
    <glyph glyph-name="aring" unicode="&#xe5;" 
d="M369 1323q164 0 396 -270l63 -36l72 9q135 0 135 -288q36 -236 90 -333q0 -58 108 -153l9 -45q0 -58 -81 -72q-160 0 -306 342l-27 18q-331 -486 -477 -486l-72 -9q-236 0 -270 405l-9 81q86 837 369 837zM207 450q18 -225 108 -225q133 59 306 333q72 105 72 144
q-112 139 -153 261q-88 99 -153 99h-9q-74 0 -153 -423z" />
    <glyph glyph-name="ae" unicode="&#xe6;" horiz-adv-x="2000" 
d="M369 1323q164 0 396 -270l63 -36l72 9q135 0 135 -288q36 -236 90 -333q0 -58 108 -153l9 -45q0 -58 -81 -72q-160 0 -306 342l-27 18q-331 -486 -477 -486l-72 -9q-236 0 -270 405l-9 81q86 837 369 837zM207 450q18 -225 108 -225q133 59 306 333q72 105 72 144
q-112 139 -153 261q-88 99 -153 99h-9q-74 0 -153 -423zM1421 1258h36q126 0 180 -99l18 -99q-46 -324 -279 -534q-106 -106 -234 -117l-18 -36q-8 -28 117 -121q95 -72 198 -72h63q75 0 423 189q66 27 153 36l36 -27v-9q-331 -326 -612 -369h-45q-369 22 -459 171
q-62 85 -126 301q-72 115 -72 153v18q0 29 99 45q140 570 522 570zM1106 661v-27l27 -27q122 0 252 192q50 90 54 153q0 68 -45 108h-9q-134 0 -261 -273z" />
    <glyph glyph-name="ccedilla" unicode="&#xe7;" horiz-adv-x="1060" 
d="M414 1296q151 0 342 -207l9 -45v-45q-22 -113 -135 -135h-9q-162 27 -162 144l9 9v9l-54 18q-214 -44 -214 -444t214 -402h9q115 0 630 270l81 18h36l27 -27v-18q-210 -200 -585 -396q-126 -45 -207 -45q-253 0 -360 225q-45 141 -45 430.5t81 437.5t333 203zM262 -573
q-166 47 -147 143q0 35 18 38h42q36 -79 200 -96h18q47 0 47 38q0 71 -28 121q-126 123 -126 262v5q42 151 125 151q45 0 59 -52v-9q-47 -45 -47 -76v-14q0 -92 77 -212q100 -99 100 -252v-9q0 -57 -118 -57h-6q-100 0 -214 19z" />
    <glyph glyph-name="egrave" unicode="&#xe8;" horiz-adv-x="1240" 
d="M666 1258h36q126 0 180 -99l18 -99q-46 -324 -279 -534q-106 -106 -234 -117l-18 -36q-8 -28 117 -121q95 -72 198 -72h63q75 0 423 189q66 27 153 36l36 -27v-9q-331 -326 -612 -369h-45q-369 22 -459 171q-62 85 -126 301q-72 115 -72 153v18q0 29 99 45
q140 570 522 570zM351 661v-27l27 -27q122 0 252 192q50 90 54 153q0 68 -45 108h-9q-134 0 -261 -273zM206 1760l14 11q99 81 291 -63q134 -51 164 -88q50 -61 -41 -149q-98 -79 -240 95q-107 89 -170 116q-37 62 -18 78z" />
    <glyph glyph-name="eacute" unicode="&#xe9;" horiz-adv-x="1240" 
d="M666 1258h36q126 0 180 -99l18 -99q-46 -324 -279 -534q-106 -106 -234 -117l-18 -36q-8 -28 117 -121q95 -72 198 -72h63q75 0 423 189q66 27 153 36l36 -27v-9q-331 -326 -612 -369h-45q-369 22 -459 171q-62 85 -126 301q-72 115 -72 153v18q0 29 99 45
q140 570 522 570zM351 661v-27l27 -27q122 0 252 192q50 90 54 153q0 68 -45 108h-9q-134 0 -261 -273zM668 1482q-63 -27 -170 -116q-142 -174 -240 -95q-91 88 -41 149q30 37 164 88q192 144 291 63l14 -11q19 -16 -18 -78z" />
    <glyph glyph-name="ecircumflex" unicode="&#xea;" horiz-adv-x="1240" 
d="M666 1258h36q126 0 180 -99l18 -99q-46 -324 -279 -534q-106 -106 -234 -117l-18 -36q-8 -28 117 -121q95 -72 198 -72h63q75 0 423 189q66 27 153 36l36 -27v-9q-331 -326 -612 -369h-45q-369 22 -459 171q-62 85 -126 301q-72 115 -72 153v18q0 29 99 45
q140 570 522 570zM351 661v-27l27 -27q122 0 252 192q50 90 54 153q0 68 -45 108h-9q-134 0 -261 -273zM526 1531h-9q-225 -185 -225 -108q0 70 82.5 154.5t225.5 184.5q70 -100 200 -300q-31 -108 -134 -19.5t-140 88.5z" />
    <glyph glyph-name="edieresis" unicode="&#xeb;" horiz-adv-x="1240" 
d="M666 1258h36q126 0 180 -99l18 -99q-46 -324 -279 -534q-106 -106 -234 -117l-18 -36q-8 -28 117 -121q95 -72 198 -72h63q75 0 423 189q66 27 153 36l36 -27v-9q-331 -326 -612 -369h-45q-369 22 -459 171q-62 85 -126 301q-72 115 -72 153v18q0 29 99 45
q140 570 522 570zM351 661v-27l27 -27q122 0 252 192q50 90 54 153q0 68 -45 108h-9q-134 0 -261 -273zM427.5 1538.5q31.5 -32.5 31.5 -78.5q0 -47 -31.5 -79.5t-76.5 -32.5q-44 0 -76 32.5t-32 79.5q0 46 32 78.5t76 32.5q45 0 76.5 -32.5zM736.5 1564.5
q31.5 -32.5 31.5 -78.5t-31.5 -79t-76.5 -33t-76.5 33t-31.5 79t31.5 78.5t76.5 32.5t76.5 -32.5z" />
    <glyph glyph-name="igrave" unicode="&#xec;" horiz-adv-x="800" 
d="M153 1327l105 -29q130 -35 77 -226q-138 -423 -45 -764q40 -104 124 -127l17 -5q116 -31 454 112q70 -19 51 -88l-3 -9q-49 -181 -541 -191l-63 8q-176 49 -272 439q-52 475 52 855zM-194 1714l14 11q99 81 291 -63q134 -51 164 -88q50 -61 -41 -149q-98 -79 -240 95
q-107 89 -170 116q-37 62 -18 78z" />
    <glyph glyph-name="iacute" unicode="&#xed;" horiz-adv-x="800" 
d="M153 1327l105 -29q130 -35 77 -226q-138 -423 -45 -764q40 -104 124 -127l17 -5q116 -31 454 112q70 -19 51 -88l-3 -9q-49 -181 -541 -191l-63 8q-176 49 -272 439q-52 475 52 855zM668 1682q-63 -27 -170 -116q-142 -174 -240 -95q-91 88 -41 149q30 37 164 88
q192 144 291 63l14 -11q19 -16 -18 -78z" />
    <glyph glyph-name="icircumflex" unicode="&#xee;" horiz-adv-x="800" 
d="M153 1327l105 -29q130 -35 77 -226q-138 -423 -45 -764q40 -104 124 -127l17 -5q116 -31 454 112q70 -19 51 -88l-3 -9q-49 -181 -541 -191l-63 8q-176 49 -272 439q-52 475 52 855zM234 1531h-9q-225 -185 -225 -108q0 70 82.5 154.5t225.5 184.5q70 -100 200 -300
q-31 -108 -134 -19.5t-140 88.5z" />
    <glyph glyph-name="idieresis" unicode="&#xef;" horiz-adv-x="800" 
d="M153 1327l105 -29q130 -35 77 -226q-138 -423 -45 -764q40 -104 124 -127l17 -5q116 -31 454 112q70 -19 51 -88l-3 -9q-49 -181 -541 -191l-63 8q-176 49 -272 439q-52 475 52 855zM202.5 1660.5q31.5 -32.5 31.5 -78.5q0 -47 -31.5 -79.5t-76.5 -32.5q-44 0 -76 32.5
t-32 79.5q0 46 32 78.5t76 32.5q45 0 76.5 -32.5zM511.5 1686.5q31.5 -32.5 31.5 -78.5t-31.5 -79t-76.5 -33t-76.5 33t-31.5 79t31.5 78.5t76.5 32.5t76.5 -32.5z" />
    <glyph glyph-name="eth" unicode="&#xf0;" horiz-adv-x="1000" 
d="M223 570q61 -322 242 -392q171 101 251 608q0 183 -117 261q-47 36 -99 36h-18q-309 -52 -259 -513zM448 1611q-83 133 -89 186q16 56 67 61q194 -59 221 -229q43 3 91 5q170 0 170 -135v-18q0 -81 -64 -81l-124 36h-5l-15 -1l146 -499l-5 2q28 -110 28 -215
q0 -357 -156 -540t-295.5 -183t-278.5 199.5t-125 532.5q66 657 270 657h45q30 0 153 -108q61 0 119 -23q-30 75 -71 170l-209 -8h-18q-54 0 -111 81v18q0 60 256 92z" />
    <glyph glyph-name="ntilde" unicode="&#xf1;" horiz-adv-x="1400" 
d="M86 1300h63q151 0 247 -571h9l225 405q104 126 162 126h36q137 0 216 -387q94 -345 252 -486q72 -54 108 -54q54 -162 -36 -180q-242 0 -414 396q-117 388 -162 468h-27q-75 -47 -216 -486q-72 -288 -72 -459q-48 -72 -126 -72q-108 0 -108 180l9 81v108q0 496 -175 715
q-63 44 -63 99v45q0 72 72 72zM621 1615q84 -60 111 -48q57 86 107 101.5t36.5 -45.5t-73.5 -156l-14 -7q-123 -24 -189 25q-40 40 -163 110q-68 21 -77 16q-73 -104 -92 -130q-143 -2 -41 144q44 69 109.5 104t285.5 -114z" />
    <glyph glyph-name="ograve" unicode="&#xf2;" horiz-adv-x="900" 
d="M114 1714l14 11q99 81 291 -63q134 -51 164 -88q50 -61 -41 -149q-98 -79 -240 95q-107 89 -170 116q-37 62 -18 78zM284 1389h45q30 0 153 -108q152 0 288 -144q99 -217 99 -414q0 -357 -156 -540t-295.5 -183t-278.5 199.5t-125 532.5q66 657 270 657zM223 570
q61 -322 242 -392q171 101 251 608q0 183 -117 261q-47 36 -99 36h-18q-309 -52 -259 -513z" />
    <glyph glyph-name="oacute" unicode="&#xf3;" horiz-adv-x="900" 
d="M668 1682q-63 -27 -170 -116q-142 -174 -240 -95q-91 88 -41 149q30 37 164 88q192 144 291 63l14 -11q19 -16 -18 -78zM284 1389h45q30 0 153 -108q152 0 288 -144q99 -217 99 -414q0 -357 -156 -540t-295.5 -183t-278.5 199.5t-125 532.5q66 657 270 657zM223 570
q61 -322 242 -392q171 101 251 608q0 183 -117 261q-47 36 -99 36h-18q-309 -52 -259 -513z" />
    <glyph glyph-name="ocircumflex" unicode="&#xf4;" horiz-adv-x="900" 
d="M434 1569h-9q-225 -185 -225 -108q0 70 82.5 154.5t225.5 184.5q70 -100 200 -300q-31 -108 -134 -19.5t-140 88.5zM284 1389h45q30 0 153 -108q152 0 288 -144q99 -217 99 -414q0 -357 -156 -540t-295.5 -183t-278.5 199.5t-125 532.5q66 657 270 657zM223 570
q61 -322 242 -392q171 101 251 608q0 183 -117 261q-47 36 -99 36h-18q-309 -52 -259 -513z" />
    <glyph glyph-name="otilde" unicode="&#xf5;" horiz-adv-x="900" 
d="M621 1615q84 -60 111 -48q57 86 107 101.5t36.5 -45.5t-73.5 -156l-14 -7q-123 -24 -189 25q-40 40 -163 110q-68 21 -77 16q-73 -104 -92 -130q-143 -2 -41 144q44 69 109.5 104t285.5 -114zM284 1389h45q30 0 153 -108q152 0 288 -144q99 -217 99 -414
q0 -357 -156 -540t-295.5 -183t-278.5 199.5t-125 532.5q66 657 270 657zM223 570q61 -322 242 -392q171 101 251 608q0 183 -117 261q-47 36 -99 36h-18q-309 -52 -259 -513z" />
    <glyph glyph-name="odieresis" unicode="&#xf6;" horiz-adv-x="900" 
d="M343.5 1735.5q31.5 -32.5 31.5 -78.5q0 -47 -31.5 -79.5t-76.5 -32.5q-44 0 -76 32.5t-32 79.5q0 46 32 78.5t76 32.5q45 0 76.5 -32.5zM652.5 1761.5q31.5 -32.5 31.5 -78.5t-31.5 -79t-76.5 -33t-76.5 33t-31.5 79t31.5 78.5t76.5 32.5t76.5 -32.5zM284 1389h45
q30 0 153 -108q152 0 288 -144q99 -217 99 -414q0 -357 -156 -540t-295.5 -183t-278.5 199.5t-125 532.5q66 657 270 657zM223 570q61 -322 242 -392q171 101 251 608q0 183 -117 261q-47 36 -99 36h-18q-309 -52 -259 -513z" />
    <glyph glyph-name="divide" unicode="&#xf7;" horiz-adv-x="1254" 
d="M904 660q261 0 261 -135v-18q0 -81 -99 -81l-189 36h-9l-604 -16h-27q-84 0 -171 81v18q0 88 838 115zM573.5 307.5q65.5 29.5 118.5 8.5q54 -21 64 -80t-29 -122q-38 -62 -103.5 -91.5t-118.5 -8.5q-54 21 -64 80t28 122q39 62 104.5 91.5zM550.5 1060.5
q65.5 29.5 118.5 8.5q54 -21 64 -80t-29 -122q-38 -62 -103.5 -91.5t-118.5 -8.5q-54 21 -64 80t28 122q39 62 104.5 91.5z" />
    <glyph glyph-name="oslash" unicode="&#xf8;" horiz-adv-x="900" 
d="M959 1679l17 -5l18 -34l-3 -9q-423 -913 -645 -1300q-192 -333 -318 -635l-57 -1q-94 31 -50 168q878 1868 1038 1816zM284 1389h45q30 0 153 -108q152 0 288 -144q99 -217 99 -414q0 -357 -156 -540t-295.5 -183t-278.5 199.5t-125 532.5q66 657 270 657zM223 570
q61 -322 242 -392q171 101 251 608q0 183 -117 261q-47 36 -99 36h-18q-309 -52 -259 -513z" />
    <glyph glyph-name="ugrave" unicode="&#xf9;" horiz-adv-x="900" 
d="M779 1329q81 -76 81 -216v-72q0 -317 -123.5 -679t-326.5 -362q-325 0 -410 960q0 351 126 351q54 0 63 -417.5t203 -677.5q135 0 207 288t72 663q25 162 108 162zM114 1760l14 11q99 81 291 -63q134 -51 164 -88q50 -61 -41 -149q-98 -79 -240 95q-107 89 -170 116
q-37 62 -18 78z" />
    <glyph glyph-name="uacute" unicode="&#xfa;" horiz-adv-x="900" 
d="M779 1329q81 -76 81 -216v-72q0 -317 -123.5 -679t-326.5 -362q-325 0 -410 960q0 351 126 351q54 0 63 -417.5t203 -677.5q135 0 207 288t72 663q25 162 108 162zM868 1636q-63 -27 -170 -116q-142 -174 -240 -95q-91 88 -41 149q30 37 164 88q192 144 291 63l14 -11
q19 -16 -18 -78z" />
    <glyph glyph-name="ucircumflex" unicode="&#xfb;" horiz-adv-x="900" 
d="M779 1329q81 -76 81 -216v-72q0 -317 -123.5 -679t-326.5 -362q-325 0 -410 960q0 351 126 351q54 0 63 -417.5t203 -677.5q135 0 207 288t72 663q25 162 108 162zM434 1569h-9q-225 -185 -225 -108q0 70 82.5 154.5t225.5 184.5q70 -100 200 -300q-31 -108 -134 -19.5
t-140 88.5z" />
    <glyph glyph-name="udieresis" unicode="&#xfc;" horiz-adv-x="900" 
d="M779 1329q81 -76 81 -216v-72q0 -317 -123.5 -679t-326.5 -362q-325 0 -410 960q0 351 126 351q54 0 63 -417.5t203 -677.5q135 0 207 288t72 663q25 162 108 162zM352.5 1623.5q31.5 -32.5 31.5 -78.5q0 -47 -31.5 -79.5t-76.5 -32.5q-44 0 -76 32.5t-32 79.5
q0 46 32 78.5t76 32.5q45 0 76.5 -32.5zM661.5 1649.5q31.5 -32.5 31.5 -78.5t-31.5 -79t-76.5 -33t-76.5 33t-31.5 79t31.5 78.5t76.5 32.5t76.5 -32.5z" />
    <glyph glyph-name="yacute" unicode="&#xfd;" horiz-adv-x="1500" 
d="M105 1300h18q77 0 75 -619q9 -189 65 -366h9q90 101 223 636q75 360 252 360q330 0 603 -900q63 104 219 104h9q63 0 63 -54q-145 -157 -246 -266q27 -292 54.5 -786.5t-305.5 -900.5q-88 -45 -126 -45q-185 0 -252 279q-45 103 -68 370t229 813l234 333l9 54
q-22 225 -243 639q-73 72 -117 72q-81 0 -243 -522q-167 -501 -358 -501q-180 0 -200 609l-9 387q28 304 105 304zM1009 -1285h18q234 147 238 616t-41 657h-18q-342 -459 -319 -829.5t122 -443.5zM-86 1714l14 11q99 81 291 -63q134 -51 164 -88q50 -61 -41 -149
q-98 -79 -240 95q-107 89 -170 116q-37 62 -18 78z" />
    <glyph glyph-name="thorn" unicode="&#xfe;" 
d="M60 1200h63q45 0 45 -360q27 -1170 153 -1170l9 -9v-81q0 -39 -126 -45q-138 38 -171 423q-27 556 -27 963q13 279 54 279zM0 779q76 81 216 81h72q317 0 532.5 -123.5t215.5 -326.5q0 -325 -667 -410q-351 0 -351 126q0 54 271 63t531 203q0 135 -141.5 207t-516.5 72
q-162 25 -162 108z" />
    <glyph glyph-name="ydieresis" unicode="&#xff;" horiz-adv-x="1500" 
d="M105 1300h18q77 0 75 -619q9 -189 65 -366h9q90 101 223 636q75 360 252 360q330 0 603 -900q63 104 219 104h9q63 0 63 -54q-145 -157 -246 -266q27 -292 36 -657q62 -538 -271 -944q-88 -45 -126 -45q-185 0 -252 279q-45 103 -45 297v90q-62 164 190 710l234 333l9 54
q-22 225 -243 639q-73 72 -117 72q-81 0 -243 -522q-167 -501 -358 -501q-180 0 -200 609l-9 387q28 304 105 304zM926 -767v-117q0 -242 99 -315h18q234 147 226 818q0 181 -45 369h-18q-342 -459 -280 -755zM310.5 1609.5q31.5 -32.5 31.5 -78.5q0 -47 -31.5 -79.5
t-76.5 -32.5q-44 0 -76 32.5t-32 79.5q0 46 32 78.5t76 32.5q45 0 76.5 -32.5zM619.5 1635.5q31.5 -32.5 31.5 -78.5t-31.5 -79t-76.5 -33t-76.5 33t-31.5 79t31.5 78.5t76.5 32.5t76.5 -32.5z" />
    <glyph glyph-name="dotlessi" unicode="&#x131;" horiz-adv-x="1000" 
d="M153 1327l105 -29q130 -35 77 -226q-138 -423 -45 -764q40 -104 124 -127l17 -5q116 -31 454 112q70 -19 51 -88l-3 -9q-49 -181 -541 -191l-63 8q-176 49 -272 439q-52 475 52 855z" />
    <glyph glyph-name="circumflex" unicode="&#x2c6;" horiz-adv-x="1024" 
d="M434 1569h-9q-225 -185 -225 -108q0 70 82.5 154.5t225.5 184.5q70 -100 200 -300q-31 -108 -134 -19.5t-140 88.5z" />
    <glyph glyph-name="caron" unicode="&#x2c7;" horiz-adv-x="1024" 
d="M708 1738q-130 -200 -200 -300q-143 100 -225.5 184.5t-82.5 154.5q0 77 225 -108h9q37 0 140 88.5t134 -19.5z" />
    <glyph glyph-name="uni02C9" unicode="&#x2c9;" horiz-adv-x="1024" 
 />
    <glyph glyph-name="breve" unicode="&#x2d8;" horiz-adv-x="1024" 
d="M708 1738q-130 -200 -236.5 -200t-189 84.5t-82.5 154.5q0 77 135.5 -15.5t238.5 -4t134 -19.5z" />
    <glyph glyph-name="dotaccent" unicode="&#x2d9;" horiz-adv-x="557" 
d="M522 1500q0 -100 -174 -141q-189 9 -189 180q0 74 84 127t181.5 -6.5t97.5 -159.5z" />
    <glyph glyph-name="ring" unicode="&#x2da;" horiz-adv-x="1024" 
d="M792 1792q-267 -210 -355.5 -3.5t37.5 299.5q266 19 341.5 -71.5t-23.5 -224.5zM522 1911l2 -29l30 -55l45 -31l80 32l16 83l-33 51l-63 29l-81 -31z" />
    <glyph glyph-name="ogonek" unicode="&#x2db;" horiz-adv-x="1024" 
d="M277 -540h-7q-141 0 -141 67v11q0 182 83.5 222.5t83.5 149.5v17q0 36 -19.5 99t34.5 63q98 0 127 -144.5t-98 -275.5t36 -86h21q194 20 198 115h49q22 -4 22 -45q23 -114 -135 -171q-135 -22 -254 -22z" />
    <glyph glyph-name="tilde" unicode="&#x2dc;" horiz-adv-x="1024" 
d="M221 1974q91 49 213 -6q6 -11 98 -94q84 -60 111 -48q58 143 157 174q-27 -179 -87 -274l-13 -7q-123 -24 -189 25q-41 40 -164 110q-68 21 -77 16q-73 -104 -110 -205q-143 -2 -22 219q44 69 83 90z" />
    <glyph glyph-name="hungarumlaut" unicode="&#x2dd;" horiz-adv-x="1024" 
d="M239 1298q-41 17 -45 36v9q0 68 178 421q38 36 72 36h36l36 -36v-45q-14 -167 -232 -412zM645 1298q-41 17 -45 36v9q0 68 178 421q38 36 72 36h36l36 -36v-45q-14 -167 -232 -412z" />
    <glyph glyph-name="endash" unicode="&#x2013;" horiz-adv-x="1338" 
d="M992 730q261 0 261 -135v-18q0 -81 -99 -81l-189 36h-9l-758 -11h-27q-84 0 -171 81v18q0 88 992 110z" />
    <glyph glyph-name="emdash" unicode="&#x2014;" horiz-adv-x="1483" 
d="M1114 735q261 0 261 -135v-18q0 -81 -99 -81l-189 36h-9l-880 -16h-27q-84 0 -171 81v18q0 88 1114 115z" />
    <glyph glyph-name="quoteleft" unicode="&#x2018;" horiz-adv-x="400" 
d="M75 1900q312 -452 325 -619v-45l-36 -36h-36q-34 0 -72 36q-271 560 -271 628v9q4 19 45 36z" />
    <glyph glyph-name="quoteright" unicode="&#x2019;" horiz-adv-x="346" 
d="M471 1800q41 -17 45 -36v-9q0 -68 -271 -628q-38 -36 -72 -36h-36l-36 36v45q14 167 325 619z" />
    <glyph glyph-name="quotesinglbase" unicode="&#x201a;" horiz-adv-x="346" 
d="M247 233q41 -17 45 -36v-9q0 -68 -271 -628q-38 -36 -72 -36h-36l-36 36v45q14 167 325 619z" />
    <glyph glyph-name="quotedblleft" unicode="&#x201c;" horiz-adv-x="672" 
d="M294 1704v-9q-45 -249 -45 -369q0 -117 -81 -117l-45 9q-72 0 -72 342v27q0 162 117 162q126 -6 126 -45zM600 1695l-72 -180q0 -266 -99 -315h-54q-52 0 -72 189l36 171q71 162 234 162z" />
    <glyph glyph-name="quotedblright" unicode="&#x201d;" horiz-adv-x="672" 
d="M483 1749q117 0 117 -162v-27q0 -342 -72 -342l-45 -9q-81 0 -81 117q0 120 -45 369v9q0 39 126 45zM78 1722q163 0 234 -162l36 -171q-20 -189 -72 -189h-54q-99 49 -99 315l-72 180z" />
    <glyph glyph-name="quotedblbase" unicode="&#x201e;" horiz-adv-x="672" 
d="M502 271q117 0 117 -162v-27q0 -342 -72 -342l-45 -9q-81 0 -81 117q0 120 -45 369v9q0 39 126 45zM97 244q163 0 234 -162l36 -171q-20 -189 -72 -189h-54q-99 49 -99 315l-72 180z" />
    <glyph glyph-name="dagger" unicode="&#x2020;" horiz-adv-x="1014" 
 />
    <glyph glyph-name="daggerdbl" unicode="&#x2021;" horiz-adv-x="1014" 
 />
    <glyph glyph-name="bullet" unicode="&#x2022;" horiz-adv-x="600" 
d="M491 776q0 -125 -218 -176q-236 11 -236 225q0 93 105 159t227 -8.5t122 -199.5z" />
    <glyph glyph-name="ellipsis" unicode="&#x2026;" horiz-adv-x="1685" 
d="M874 172q-44 -96 -113 -82l-44 9q-76 15 -143 216l-3 22q55 72 102 62l7 -1q192 -89 181 -141q26 -22 13 -85zM302 155l-6 -34q-6 -27 -101 -14q-215 81 -193 191q65 119 162 99l7 -1q71 -14 129 -179zM1504 172q-44 -96 -113 -82l-44 9q-76 15 -143 216l-3 22
q55 72 102 62l7 -1q192 -89 181 -141q26 -22 13 -85z" />
    <glyph glyph-name="guilsinglleft" unicode="&#x2039;" horiz-adv-x="1085" 
d="M999 298q5 -90 -148 -98q-173 -9 -630 186q-129 42 -133 120l-3 53q-4 81 280 168q362 190 432 194q77 4 114 -111q4 -83 -511 -269v-9q2 -37 599 -234z" />
    <glyph glyph-name="guilsinglright" unicode="&#x203a;" horiz-adv-x="1115" 
d="M685 532v9q-515 186 -511 269q37 115 114 111q70 -4 432 -194q284 -87 280 -168l-3 -53q-4 -78 -133 -120q-457 -195 -630 -186q-153 8 -148 98q597 197 599 234z" />
    <glyph glyph-name="fraction" unicode="&#x2044;" horiz-adv-x="869" 
d="M883 1867q117 -52 117 -153v-9q-345 -481 -685 -1399q-83 -306 -198 -306q-44 1 -117 99v45q63 87 676 1516q68 207 207 207z" />
    <glyph glyph-name="fraction" unicode="&#x2215;" horiz-adv-x="869" 
d="M883 1867q117 -52 117 -153v-9q-345 -481 -685 -1399q-83 -306 -198 -306q-44 1 -117 99v45q63 87 676 1516q68 207 207 207z" />
    <glyph glyph-name="franc" unicode="&#x20a3;" horiz-adv-x="1014" 
 />
    <glyph glyph-name="lira" unicode="&#x20a4;" horiz-adv-x="1014" 
 />
    <glyph glyph-name="peseta" unicode="&#x20a7;" horiz-adv-x="2028" 
 />
    <glyph glyph-name="Euro" unicode="&#x20ac;" horiz-adv-x="1331" 
d="M819 1644h18q171 0 171 -90q0 -87 -243 -135q-85 0 -216 -432q-118 -431 133 -762q89 -45 135 -45h36q236 0 379 128l63 18h9l27 -27v-27q-38 -179 -100 -137q-182 -135 -450 -135h-45q-242 0 -323.5 268t-71.5 612.5t271 682.5q103 81 207 81zM81 1104q92 -27 792 -72
q135 -36 135 -108v-9q0 -63 -117 -63l-207 -9h-360q-288 0 -288 90q-16 0 -18 108q22 63 63 63zM595 643h99q198 -9 198 -54v-36q0 -51 -576 -153h-54q-54 25 -54 189q46 45 387 54z" />
    <glyph glyph-name="afii61352" unicode="&#x2116;" horiz-adv-x="2271" 
 />
    <glyph glyph-name="trademark" unicode="&#x2122;" horiz-adv-x="1497" 
 />
    <glyph glyph-name="partialdiff" unicode="&#x2202;" horiz-adv-x="1014" 
 />
    <glyph glyph-name="Delta" unicode="&#x2206;" horiz-adv-x="1081" 
 />
    <glyph glyph-name="product" unicode="&#x220f;" horiz-adv-x="1515" 
 />
    <glyph glyph-name="summation" unicode="&#x2211;" horiz-adv-x="1206" 
 />
    <glyph glyph-name="minus" unicode="&#x2212;" 
d="M838 735q261 0 261 -135v-18q0 -81 -99 -81l-189 36h-9l-604 -16h-27q-84 0 -171 81v18q0 88 838 115z" />
    <glyph glyph-name="radical" unicode="&#x221a;" horiz-adv-x="1014" 
 />
    <glyph glyph-name="infinity" unicode="&#x221e;" horiz-adv-x="1014" 
 />
    <glyph glyph-name="integral" unicode="&#x222b;" horiz-adv-x="665" 
 />
    <glyph glyph-name="approxequal" unicode="&#x2248;" horiz-adv-x="912" 
d="M523 1016q84 -60 111 -48q57 86 107 101.5t36.5 -45.5t-73.5 -156l-14 -7q-123 -24 -189 25q-40 40 -163 110q-68 21 -77 16q-73 -104 -92 -130q-143 -2 -41 144q44 69 109.5 104t285.5 -114zM528 749q84 -60 111 -48q57 86 107 101.5t36.5 -45.5t-73.5 -156l-14 -7
q-123 -24 -189 25q-40 40 -163 110q-68 21 -77 16q-73 -104 -92 -130q-143 -2 -41 144q44 69 109.5 104t285.5 -114z" />
    <glyph glyph-name="lessequal" unicode="&#x2264;" horiz-adv-x="1446" 
d="M1376 528q84 -138 -121 -161q-173 0 -1047 62q-126 48 -126 126v54q0 81 288 153q834 464 904 464q77 0 108 -117q0 -83 -877 -518zM1067 234q261 0 261 -135v-18q0 -81 -99 -81l-189 36h-9l-632 2h-27q-84 0 -171 81v18q0 88 866 97z" />
    <glyph glyph-name="greaterequal" unicode="&#x2265;" horiz-adv-x="1493" 
d="M968 591q-877 435 -877 518q31 117 108 117q70 0 904 -464q288 -72 288 -153v-54q0 -78 -126 -126q-874 -62 -1047 -62q-205 23 -121 161zM1273 137v-18q-87 -81 -171 -81h-27l-632 -2h-9l-189 -36q-99 0 -99 81v18q0 135 261 135q866 -9 866 -97z" />
    <glyph glyph-name="uniF001" unicode="&#xf001;" horiz-adv-x="1073" 
 />
    <glyph glyph-name="uniF001" unicode="&#xfb01;" horiz-adv-x="1073" 
 />
    <glyph glyph-name="uniF002" unicode="&#xf002;" horiz-adv-x="1081" 
 />
    <glyph glyph-name="uniF002" unicode="&#xfb02;" horiz-adv-x="1081" 
 />
    <glyph glyph-name="Amacron" unicode="&#x100;" horiz-adv-x="1386" 
d="M868 1725q122 0 301 -807q41 -198 81 -198q54 -18 54 -36q0 -53 -45 -108v-45q72 -333 72 -414q-9 -117 -45 -117h-9q-166 0 -225 585q-128 0 -531 -180q-136 -324 -315 -324h-18q-225 0 -159 135.5t141 89.5q156 0 216 306q66 90 329 969q0 127 153 144zM823 1266
l-167 -492v-54q0 -15 45 -27q306 30 306 72v18l-175 483h-9zM407 2139q145 -71 204 -71l99 -7l367 7q233 0 233 -78q28 -28 28 -77v-7q-7 -106 -42 -106q-32 0 -141 63q-41 29 -388 29h-177q-275 0 -275 70v28q0 48 92 149z" />
    <glyph glyph-name="amacron" unicode="&#x101;" 
d="M369 1323q164 0 396 -270l63 -36l72 9q135 0 135 -288q36 -236 90 -333q0 -58 108 -153l9 -45q0 -58 -81 -72q-160 0 -306 342l-27 18q-331 -486 -477 -486l-72 -9q-236 0 -270 405l-9 81q86 837 369 837zM207 450q18 -225 108 -225q133 59 306 333q72 105 72 144
q-112 139 -153 261q-88 99 -153 99h-9q-74 0 -153 -423zM92 1739q145 -71 204 -71l99 -7l367 7q233 0 233 -78q28 -28 28 -77v-7q-7 -106 -42 -106q-32 0 -141 63q-41 29 -388 29h-177q-275 0 -275 70v28q0 48 92 149z" />
    <glyph glyph-name="Abreve" unicode="&#x102;" horiz-adv-x="1414" 
d="M896 1725q122 0 301 -807q41 -198 81 -198q54 -18 54 -36q0 -53 -45 -108v-45q72 -333 72 -414q-9 -117 -45 -117h-9q-166 0 -225 585q-128 0 -531 -180q-136 -324 -315 -324h-18q-225 0 -159 135.5t141 89.5q156 0 216 306q66 90 329 969q0 127 153 144zM851 1266
l-167 -492v-54q0 -15 45 -27q306 30 306 72v18l-175 483h-9zM1166 1926q-130 -200 -236.5 -200t-189 84.5t-82.5 154.5q0 77 135.5 -15.5t238.5 -4t134 -19.5z" />
    <glyph glyph-name="abreve" unicode="&#x103;" 
d="M369 1323q164 0 396 -270l63 -36l72 9q135 0 135 -288q36 -236 90 -333q0 -58 108 -153l9 -45q0 -58 -81 -72q-160 0 -306 342l-27 18q-331 -486 -477 -486l-72 -9q-236 0 -270 405l-9 81q86 837 369 837zM207 450q18 -225 108 -225q133 59 306 333q72 105 72 144
q-112 139 -153 261q-88 99 -153 99h-9q-74 0 -153 -423zM708 1738q-130 -200 -236.5 -200t-189 84.5t-82.5 154.5q0 77 135.5 -15.5t238.5 -4t134 -19.5z" />
    <glyph glyph-name="Aogonek" unicode="&#x104;" horiz-adv-x="1381" 
d="M863 1725q122 0 301 -807q41 -198 81 -198q54 -18 54 -36q0 -53 -45 -108v-45q72 -333 72 -414q-9 -117 -45 -117h-9q-166 0 -225 585q-128 0 -531 -180q-136 -324 -315 -324h-18q-225 0 -159 135.5t141 89.5q156 0 216 306q66 90 329 969q0 127 153 144zM818 1266
l-167 -492v-54q0 -15 45 -27q306 30 306 72v18l-175 483h-9zM1150 -331h-7q-141 0 -141 67v11q0 182 83.5 222.5t83.5 149.5v17q0 36 -19.5 99t34.5 63q98 0 127 -144.5t-98 -275.5t36 -86h21q194 20 231.5 65.5t37.5 4.5q23 -114 -135 -171q-135 -22 -254 -22z" />
    <glyph glyph-name="aogonek" unicode="&#x105;" 
d="M369 1323q164 0 396 -270l63 -36l72 9q135 0 135 -288q36 -236 90 -333q0 -58 108 -153l9 -45q0 -58 -81 -72q-160 0 -306 342l-27 18q-331 -486 -477 -486l-72 -9q-236 0 -270 405l-9 81q86 837 369 837zM207 450q18 -225 108 -225q133 59 306 333q72 105 72 144
q-112 139 -153 261q-88 99 -153 99h-9q-74 0 -153 -423zM1077 -332h-7q-141 0 -141 67v11q0 182 83.5 222.5t83.5 149.5v17q0 36 -19.5 99t34.5 63q98 0 127 -144.5t-98 -275.5t36 -86h21q194 20 198 115h49q22 -4 22 -45q23 -114 -135 -171q-135 -22 -254 -22z" />
    <glyph glyph-name="Cacute" unicode="&#x106;" horiz-adv-x="1399" 
d="M488 1644h18q171 0 171 -90q0 -87 -243 -135q-85 0 -216 -432q-118 -431 133 -762q89 -45 135 -45h36q236 0 747 513l63 18h9l27 -27v-27q-38 -179 -468 -522q-182 -135 -450 -135h-45q-242 0 -323.5 268t-71.5 612.5t271 682.5q103 81 207 81zM869 2036
q-63 -27 -170 -116q-142 -174 -240 -95q-91 88 -41 149q30 37 164 88q192 144 291 63l14 -11q19 -16 -18 -78z" />
    <glyph glyph-name="cacute" unicode="&#x107;" horiz-adv-x="1060" 
d="M414 1296q151 0 342 -207l9 -45v-45q-22 -113 -135 -135h-9q-162 27 -162 144l9 9v9l-54 18q-214 -44 -214 -444t214 -402h9q115 0 630 270l81 18h36l27 -27v-18q-210 -200 -585 -396q-126 -45 -207 -45q-253 0 -360 225q-45 141 -45 430.5t81 437.5t333 203zM776 1636
q-63 -27 -170 -116q-142 -174 -240 -95q-91 88 -41 149q30 37 164 88q192 144 291 63l14 -11q19 -16 -18 -78z" />
    <glyph glyph-name="Ccircumflex" unicode="&#x108;" horiz-adv-x="1399" 
d="M488 1644h18q171 0 171 -90q0 -87 -243 -135q-85 0 -216 -432q-118 -431 133 -762q89 -45 135 -45h36q236 0 747 513l63 18h9l27 -27v-27q-38 -179 -468 -522q-182 -135 -450 -135h-45q-242 0 -323.5 268t-71.5 612.5t271 682.5q103 81 207 81zM526 1769h-9
q-225 -185 -225 -108q0 70 82.5 154.5t225.5 184.5q70 -100 200 -300q-31 -108 -134 -19.5t-140 88.5z" />
    <glyph glyph-name="ccircumflex" unicode="&#x109;" horiz-adv-x="1060" 
d="M414 1296q151 0 342 -207l9 -45v-45q-22 -113 -135 -135h-9q-162 27 -162 144l9 9v9l-54 18q-214 -44 -214 -444t214 -402h9q115 0 630 270l81 18h36l27 -27v-18q-210 -200 -585 -396q-126 -45 -207 -45q-253 0 -360 225q-45 141 -45 430.5t81 437.5t333 203zM434 1569
h-9q-225 -185 -225 -108q0 70 82.5 154.5t225.5 184.5q70 -100 200 -300q-31 -108 -134 -19.5t-140 88.5z" />
    <glyph glyph-name="Cdotaccent" unicode="&#x10a;" horiz-adv-x="1399" 
d="M488 1644h18q171 0 171 -90q0 -87 -243 -135q-85 0 -216 -432q-118 -431 133 -762q89 -45 135 -45h36q236 0 747 513l63 18h9l27 -27v-27q-38 -179 -468 -522q-182 -135 -450 -135h-45q-242 0 -323.5 268t-71.5 612.5t271 682.5q103 81 207 81zM610.5 1995.5
q31.5 -32.5 31.5 -78.5t-31.5 -79t-76.5 -33t-76.5 33t-31.5 79t31.5 78.5t76.5 32.5t76.5 -32.5z" />
    <glyph glyph-name="cdotaccent" unicode="&#x10b;" horiz-adv-x="1060" 
d="M414 1296q151 0 342 -207l9 -45v-45q-22 -113 -135 -135h-9q-162 27 -162 144l9 9v9l-54 18q-214 -44 -214 -444t214 -402h9q115 0 630 270l81 18h36l27 -27v-18q-210 -200 -585 -396q-126 -45 -207 -45q-253 0 -360 225q-45 141 -45 430.5t81 437.5t333 203z
M470.5 1625.5q31.5 -32.5 31.5 -78.5t-31.5 -79t-76.5 -33t-76.5 33t-31.5 79t31.5 78.5t76.5 32.5t76.5 -32.5z" />
    <glyph glyph-name="Ccaron" unicode="&#x10c;" horiz-adv-x="1399" 
d="M488 1644h18q171 0 171 -90q0 -87 -243 -135q-85 0 -216 -432q-118 -431 133 -762q89 -45 135 -45h36q236 0 747 513l63 18h9l27 -27v-27q-38 -179 -468 -522q-182 -135 -450 -135h-45q-242 0 -323.5 268t-71.5 612.5t271 682.5q103 81 207 81zM708 1900
q-130 -200 -200 -300q-143 100 -225.5 184.5t-82.5 154.5q0 77 225 -108h9q37 0 140 88.5t134 -19.5z" />
    <glyph glyph-name="ccaron" unicode="&#x10d;" horiz-adv-x="1060" 
d="M414 1296q151 0 342 -207l9 -45v-45q-22 -113 -135 -135h-9q-162 27 -162 144l9 9v9l-54 18q-214 -44 -214 -444t214 -402h9q115 0 630 270l81 18h36l27 -27v-18q-210 -200 -585 -396q-126 -45 -207 -45q-253 0 -360 225q-45 141 -45 430.5t81 437.5t333 203zM708 1738
q-130 -200 -200 -300q-143 100 -225.5 184.5t-82.5 154.5q0 77 225 -108h9q37 0 140 88.5t134 -19.5z" />
    <glyph glyph-name="Dcaron" unicode="&#x10e;" 
d="M207 1764q72 0 90 -108v-108q630 -27 630 -81q189 -127 189 -324q0 -458 -639 -1080q-103 -63 -162 -63h-18q-137 0 -189 144l54 153v18q-45 185 -72 774q-72 53 -90 117l108 252q0 306 99 306zM279 1125v-144q0 -684 180 -684q141 103 270 315q189 269 189 504
q0 160 -207 225h-18q-300 0 -378 -72q-36 -81 -36 -144zM908 1900q-130 -200 -200 -300q-143 100 -225.5 184.5t-82.5 154.5q0 77 225 -108h9q37 0 140 88.5t134 -19.5z" />
    <glyph glyph-name="dcaron" unicode="&#x10f;" 
d="M856 1843h36q108 0 108 -243q100 -1400 264 -1537q18 0 36 -63q-65 -126 -153 -126q-174 0 -184 365q-31 171 -45 171q-218 -410 -503 -390h-36q-227 28 -282 397.5t138.5 543.5t319 174t287.5 -80v18q-49 246 -103 752q41 18 117 18zM433 218h27q108 -20 350 318l27 108
q-40 203 -238.5 279.5t-298.5 -223.5t133 -482zM1135 2014q200 -130 200 -236.5t-84.5 -189t-154.5 -82.5q-77 0 15.5 135.5t4 238.5t19.5 134z" />
    <glyph glyph-name="Dcroat" unicode="&#x110;" horiz-adv-x="1400" 
d="M407 1764q72 0 90 -108v-108q630 -27 630 -81q189 -127 189 -324q0 -458 -639 -1080q-103 -63 -162 -63h-18q-137 0 -189 144l54 153v18q-45 185 -72 774q-72 53 -90 117l108 252q0 306 99 306zM479 1125v-144q0 -684 180 -684q141 103 270 315q189 269 189 504
q0 160 -207 225h-18q-300 0 -378 -72q-36 -81 -36 -144zM698 904q201 0 201 -135v-18q0 -81 -76 -81l-145 36h-7l-465 -16h-21q-64 0 -131 81v18q0 88 644 115z" />
    <glyph glyph-name="dcroat" unicode="&#x111;" 
d="M856 1843h36q108 0 108 -243q100 -1400 264 -1537q18 0 36 -63q-65 -126 -153 -126q-174 0 -184 365q-31 171 -45 171q-218 -410 -503 -390h-36q-227 28 -282 397.5t138.5 543.5t319 174t287.5 -80v18q-49 246 -103 752q41 18 117 18zM433 218h27q108 -20 350 318l27 108
q-40 203 -238.5 279.5t-298.5 -223.5t133 -482zM464 1600q115 -71 162 -71l78 -7l290 7q184 0 184 -78q22 -28 22 -77v-7q-6 -106 -33 -106q-25 0 -112 63q-32 29 -306 29h-140q-217 0 -217 70v28q0 48 72 149z" />
    <glyph glyph-name="Emacron" unicode="&#x112;" horiz-adv-x="1264" 
d="M576 1557h90q66 0 72 -27v-36q-68 -54 -315 -162q-63 -42 -63 -315v-27l9 -108l522 396l54 9h36l27 -27q0 -102 -594 -648l-45 -99v-27q50 -243 153 -243q138 0 567 369l81 18h18q48 0 63 -36q-76 -187 -531 -513q-123 -81 -225 -81h-45q-297 0 -297 684v243l9 144
q0 79 -126 153q-36 38 -36 72v18q0 67 171 135q0 33 297 72q0 20 108 36zM92 1823q145 -71 204 -71l99 -7l367 7q233 0 233 -78q28 -28 28 -77v-7q-7 -106 -42 -106q-32 0 -141 63q-41 29 -388 29h-177q-275 0 -275 70v28q0 48 92 149z" />
    <glyph glyph-name="emacron" unicode="&#x113;" horiz-adv-x="1240" 
d="M666 1258h36q126 0 180 -99l18 -99q-46 -324 -279 -534q-106 -106 -234 -117l-18 -36q-8 -28 117 -121q95 -72 198 -72h63q75 0 423 189q66 27 153 36l36 -27v-9q-331 -326 -612 -369h-45q-369 22 -459 171q-62 85 -126 301q-72 115 -72 153v18q0 29 99 45
q140 570 522 570zM351 661v-27l27 -27q122 0 252 192q50 90 54 153q0 68 -45 108h-9q-134 0 -261 -273zM92 1739q145 -71 204 -71l99 -7l367 7q233 0 233 -78q28 -28 28 -77v-7q-7 -106 -42 -106q-32 0 -141 63q-41 29 -388 29h-177q-275 0 -275 70v28q0 48 92 149z" />
    <glyph glyph-name="Ebreve" unicode="&#x114;" horiz-adv-x="1264" 
d="M576 1557h90q66 0 72 -27v-36q-68 -54 -315 -162q-63 -42 -63 -315v-27l9 -108l522 396l54 9h36l27 -27q0 -102 -594 -648l-45 -99v-27q50 -243 153 -243q138 0 567 369l81 18h18q48 0 63 -36q-76 -187 -531 -513q-123 -81 -225 -81h-45q-297 0 -297 684v243l9 144
q0 79 -126 153q-36 38 -36 72v18q0 67 171 135q0 33 297 72q0 20 108 36zM800 1926q-130 -200 -236.5 -200t-189 84.5t-82.5 154.5q0 77 135.5 -15.5t238.5 -4t134 -19.5z" />
    <glyph glyph-name="ebreve" unicode="&#x115;" horiz-adv-x="1240" 
d="M666 1258h36q126 0 180 -99l18 -99q-46 -324 -279 -534q-106 -106 -234 -117l-18 -36q-8 -28 117 -121q95 -72 198 -72h63q75 0 423 189q66 27 153 36l36 -27v-9q-331 -326 -612 -369h-45q-369 22 -459 171q-62 85 -126 301q-72 115 -72 153v18q0 29 99 45
q140 570 522 570zM351 661v-27l27 -27q122 0 252 192q50 90 54 153q0 68 -45 108h-9q-134 0 -261 -273zM908 1600q-130 -200 -236.5 -200t-189 84.5t-82.5 154.5q0 77 135.5 -15.5t238.5 -4t134 -19.5z" />
    <glyph glyph-name="Edotaccent" unicode="&#x116;" horiz-adv-x="1264" 
d="M576 1557h90q66 0 72 -27v-36q-68 -54 -315 -162q-63 -42 -63 -315v-27l9 -108l522 396l54 9h36l27 -27q0 -102 -594 -648l-45 -99v-27q50 -243 153 -243q138 0 567 369l81 18h18q48 0 63 -36q-76 -187 -531 -513q-123 -81 -225 -81h-45q-297 0 -297 684v243l9 144
q0 79 -126 153q-36 38 -36 72v18q0 67 171 135q0 33 297 72q0 20 108 36zM600 1741q0 -100 -174 -141q-189 9 -189 180q0 74 84 127t181.5 -6.5t97.5 -159.5z" />
    <glyph glyph-name="edotaccent" unicode="&#x117;" horiz-adv-x="1240" 
d="M666 1258h36q126 0 180 -99l18 -99q-46 -324 -279 -534q-106 -106 -234 -117l-18 -36q-8 -28 117 -121q95 -72 198 -72h63q75 0 423 189q66 27 153 36l36 -27v-9q-331 -326 -612 -369h-45q-369 22 -459 171q-62 85 -126 301q-72 115 -72 153v18q0 29 99 45
q140 570 522 570zM351 661v-27l27 -27q122 0 252 192q50 90 54 153q0 68 -45 108h-9q-134 0 -261 -273zM763 1541q0 -100 -174 -141q-189 9 -189 180q0 74 84 127t181.5 -6.5t97.5 -159.5z" />
    <glyph glyph-name="Eogonek" unicode="&#x118;" horiz-adv-x="1264" 
d="M576 1557h90q66 0 72 -27v-36q-68 -54 -315 -162q-63 -42 -63 -315v-27l9 -108l522 396l54 9h36l27 -27q0 -102 -594 -648l-45 -99v-27q50 -243 153 -243q138 0 567 369l81 18h18q48 0 63 -36q-76 -187 -531 -513q-123 -81 -225 -81h-45q-297 0 -297 684v243l9 144
q0 79 -126 153q-36 38 -36 72v18q0 67 171 135q0 33 297 72q0 20 108 36zM608 -429h-7q-141 0 -141 67v11q0 182 83.5 222.5t83.5 149.5v17q0 36 -19.5 99t34.5 63q98 0 127 -144.5t-98 -275.5t36 -86h21q194 20 198 115h49q22 -4 22 -45q23 -114 -135 -171
q-135 -22 -254 -22z" />
    <glyph glyph-name="eogonek" unicode="&#x119;" horiz-adv-x="1240" 
d="M666 1258h36q126 0 180 -99l18 -99q-46 -324 -279 -534q-106 -106 -234 -117l-18 -36q-8 -28 117 -121q95 -72 198 -72h63q75 0 423 189q66 27 153 36l36 -27v-9q-331 -326 -612 -369h-45q-369 22 -459 171q-62 85 -126 301q-72 115 -72 153v18q0 29 99 45
q140 570 522 570zM351 661v-27l27 -27q122 0 252 192q50 90 54 153q0 68 -45 108h-9q-134 0 -261 -273zM548 -509h-7q-141 0 -141 67v11q0 182 83.5 222.5t83.5 149.5v17q0 36 -19.5 99t34.5 63q98 0 127 -144.5t-98 -275.5t36 -86h21q194 20 198 115h49q22 -4 22 -45
q23 -114 -135 -171q-135 -22 -254 -22z" />
    <glyph glyph-name="Ecaron" unicode="&#x11a;" horiz-adv-x="1264" 
d="M576 1557h90q66 0 72 -27v-36q-68 -54 -315 -162q-63 -42 -63 -315v-27l9 -108l522 396l54 9h36l27 -27q0 -102 -594 -648l-45 -99v-27q50 -243 153 -243q138 0 567 369l81 18h18q48 0 63 -36q-76 -187 -531 -513q-123 -81 -225 -81h-45q-297 0 -297 684v243l9 144
q0 79 -126 153q-36 38 -36 72v18q0 67 171 135q0 33 297 72q0 20 108 36zM708 1900q-130 -200 -200 -300q-143 100 -225.5 184.5t-82.5 154.5q0 77 225 -108h9q37 0 140 88.5t134 -19.5z" />
    <glyph glyph-name="ecaron" unicode="&#x11b;" horiz-adv-x="1240" 
d="M666 1258h36q126 0 180 -99l18 -99q-46 -324 -279 -534q-106 -106 -234 -117l-18 -36q-8 -28 117 -121q95 -72 198 -72h63q75 0 423 189q66 27 153 36l36 -27v-9q-331 -326 -612 -369h-45q-369 22 -459 171q-62 85 -126 301q-72 115 -72 153v18q0 29 99 45
q140 570 522 570zM351 661v-27l27 -27q122 0 252 192q50 90 54 153q0 68 -45 108h-9q-134 0 -261 -273zM708 1738q-130 -200 -200 -300q-143 100 -225.5 184.5t-82.5 154.5q0 77 225 -108h9q37 0 140 88.5t134 -19.5z" />
    <glyph glyph-name="Gcircumflex" unicode="&#x11c;" horiz-adv-x="1344" 
d="M783 1672q117 -36 117 -72v-9q-3 -16 -171 -99q-237 -114 -366 -303q-153 -347 -153 -639q15 -284 235 -333l45 -9q193 0 404 351l41 41q65 255 65 259l-394 -120q-162 0 -162 153q0 131 198 153q176 10 486 126q72 0 72 -117l10 -693q0 -438 63 -549q27 -6 27 -72v-18
q0 -111 -153 -135h-9q-117 0 -117 360l-18 432q-370 -378 -423 -378l-45 -9h-117q-259 0 -379 324q-18 39 -18 144v117q0 644 537 1014q154 81 225 81zM634 1853h-9q-225 -185 -225 -108q0 70 82.5 154.5t225.5 184.5q70 -100 200 -300q-31 -108 -134 -19.5t-140 88.5z" />
    <glyph glyph-name="gcircumflex" unicode="&#x11d;" horiz-adv-x="1600" 
d="M846 1300q203 0 540 -801l27 -117q87 118 177 135h72q81 -12 81 -81q0 -90 -126 -108q-132 -97 -132 -189v-216q0 -693 -405 -1107q-122 -90 -198 -90h-18q-180 28 -180 225v81q22 364 486 1071q90 108 90 162v18q0 142 -207 441l-18 36q-87 -48 -279 -333
q-338 -441 -513 -441h-27q-109 0 -216 216v72q16 99 107.5 321.5t292 463.5t446.5 241zM216 256q0 -13 36 -27q235 0 567 693q90 90 102.5 139.5t-120.5 49.5q-148 0 -297 -252q-288 -347 -288 -603zM864 -995v-27l27 -81q141 35 324 423q90 282 90 432v216h-9
q-432 -554 -432 -963zM726 1569h-9q-225 -185 -225 -108q0 70 82.5 154.5t225.5 184.5q70 -100 200 -300q-31 -108 -134 -19.5t-140 88.5z" />
    <glyph glyph-name="Gbreve" unicode="&#x11e;" horiz-adv-x="1344" 
d="M783 1672q117 -36 117 -72v-9q-3 -16 -171 -99q-237 -114 -366 -303q-153 -347 -153 -639q15 -284 235 -333l45 -9q193 0 404 351l41 41q65 255 65 259l-394 -120q-162 0 -162 153q0 131 198 153q176 10 486 126q72 0 72 -117l10 -693q0 -438 63 -549q27 -6 27 -72v-18
q0 -111 -153 -135h-9q-117 0 -117 360l-18 432q-370 -378 -423 -378l-45 -9h-117q-259 0 -379 324q-18 39 -18 144v117q0 644 537 1014q154 81 225 81zM908 1926q-130 -200 -236.5 -200t-189 84.5t-82.5 154.5q0 77 135.5 -15.5t238.5 -4t134 -19.5z" />
    <glyph glyph-name="gbreve" unicode="&#x11f;" horiz-adv-x="1600" 
d="M846 1300q203 0 540 -801l27 -117q87 118 177 135h72q81 -12 81 -81q0 -90 -126 -108q-132 -97 -132 -189v-216q0 -693 -405 -1107q-122 -90 -198 -90h-18q-180 28 -180 225v81q22 364 486 1071q90 108 90 162v18q0 142 -207 441l-18 36q-87 -48 -279 -333
q-338 -441 -513 -441h-27q-109 0 -216 216v72q16 99 107.5 321.5t292 463.5t446.5 241zM216 256q0 -13 36 -27q235 0 567 693q90 90 102.5 139.5t-120.5 49.5q-148 0 -297 -252q-288 -347 -288 -603zM864 -995v-27l27 -81q141 35 324 423q90 282 90 432v216h-9
q-432 -554 -432 -963zM1000 1600q-130 -200 -236.5 -200t-189 84.5t-82.5 154.5q0 77 135.5 -15.5t238.5 -4t134 -19.5z" />
    <glyph glyph-name="Gdotaccent" unicode="&#x120;" horiz-adv-x="1344" 
d="M783 1672q117 -36 117 -72v-9q-3 -16 -171 -99q-237 -114 -366 -303q-153 -347 -153 -639q15 -284 235 -333l45 -9q193 0 404 351l41 41q65 255 65 259l-394 -120q-162 0 -162 153q0 131 198 153q176 10 486 126q72 0 72 -117l10 -693q0 -438 63 -549q27 -6 27 -72v-18
q0 -111 -153 -135h-9q-117 0 -117 360l-18 432q-370 -378 -423 -378l-45 -9h-117q-259 0 -379 324q-18 39 -18 144v117q0 644 537 1014q154 81 225 81zM892 1809q0 -100 -174 -141q-189 9 -189 180q0 74 84 127t181.5 -6.5t97.5 -159.5z" />
    <glyph glyph-name="gdotaccent" unicode="&#x121;" horiz-adv-x="1600" 
d="M846 1300q203 0 540 -801l27 -117q87 118 177 135h72q81 -12 81 -81q0 -90 -126 -108q-132 -97 -132 -189v-216q0 -693 -405 -1107q-122 -90 -198 -90h-18q-180 28 -180 225v81q22 364 486 1071q90 108 90 162v18q0 142 -207 441l-18 36q-87 -48 -279 -333
q-338 -441 -513 -441h-27q-109 0 -216 216v72q16 99 107.5 321.5t292 463.5t446.5 241zM216 256q0 -13 36 -27q235 0 567 693q90 90 102.5 139.5t-120.5 49.5q-148 0 -297 -252q-288 -347 -288 -603zM864 -995v-27l27 -81q141 35 324 423q90 282 90 432v216h-9
q-432 -554 -432 -963zM800 1541q0 -100 -174 -141q-189 9 -189 180q0 74 84 127t181.5 -6.5t97.5 -159.5z" />
    <glyph glyph-name="Gcommaaccent" unicode="&#x122;" horiz-adv-x="1344" 
d="M783 1672q117 -36 117 -72v-9q-3 -16 -171 -99q-237 -114 -366 -303q-153 -347 -153 -639q15 -284 235 -333l45 -9q193 0 404 351l41 41q65 255 65 259l-394 -120q-162 0 -162 153q0 131 198 153q176 10 486 126q72 0 72 -117l10 -693q0 -438 63 -549q27 -6 27 -72v-18
q0 -111 -153 -135h-9q-117 0 -117 360l-18 432q-370 -378 -423 -378l-45 -9h-117q-259 0 -379 324q-18 39 -18 144v117q0 644 537 1014q154 81 225 81zM757 -270q-55 -40 -140 -151q-99 -201 -212 -146q-109 66 -74 136q21 43 141 122q155 184 269 127l17 -8q22 -11 -1 -80z
" />
    <glyph glyph-name="gcommaaccent" unicode="&#x123;" horiz-adv-x="1600" 
d="M846 1300q203 0 540 -801l27 -117q87 118 177 135h72q81 -12 81 -81q0 -90 -126 -108q-132 -97 -132 -189v-216q0 -693 -405 -1107q-122 -90 -198 -90h-18q-180 28 -180 225v81q22 364 486 1071q90 108 90 162v18q0 142 -207 441l-18 36q-87 -48 -279 -333
q-338 -441 -513 -441h-27q-109 0 -216 216v72q16 99 107.5 321.5t292 463.5t446.5 241zM216 256q0 -13 36 -27q235 0 567 693q90 90 102.5 139.5t-120.5 49.5q-148 0 -297 -252q-288 -347 -288 -603zM864 -995v-27l27 -81q141 35 324 423q90 282 90 432v216h-9
q-432 -554 -432 -963zM669 -364q-63 -27 -170 -116q-142 -174 -240 -95q-91 88 -41 149q30 37 164 88q192 144 291 63l14 -11q19 -16 -18 -78z" />
    <glyph glyph-name="Hcircumflex" unicode="&#x124;" 
d="M864 1665h18q153 0 153 -180q234 -1485 99.5 -1485h-134.5l-124 693l-27 9l-498 -90v-198q0 -114 58.5 -227t-58.5 -187h-54q-135 74 -135 441l-72 297l18 117v90q0 194 -108 567v18q43 45 99 45h18q171 0 171 -567v-27q0 -144 108 -144l480 27l18 54q-39 317 -120 639v9
q15 99 90 99zM526 1769h-9q-225 -185 -225 -108q0 70 82.5 154.5t225.5 184.5q70 -100 200 -300q-31 -108 -134 -19.5t-140 88.5z" />
    <glyph glyph-name="hcircumflex" unicode="&#x125;" horiz-adv-x="1500" 
d="M90 1888q162 0 162 -216q18 -250 108 -909h9q23 158 270 513q81 54 135 54h72q157 0 234 -630q125 -684 198 -684q114 99 153 99q36 0 72 -54v-18q0 -145 -225 -243q-131 43 -198 153q-87 156 -261 1044l-45 90q-169 -83 -279 -675q-29 -432 -144 -432h-63
q-108 0 -108 342q0 689 -180 1404v36q0 126 90 126zM634 1731h-9q-225 -185 -225 -108q0 70 82.5 154.5t225.5 184.5q70 -100 200 -300q-31 -108 -134 -19.5t-140 88.5z" />
    <glyph glyph-name="Hbar" unicode="&#x126;" 
d="M864 1665h18q153 0 153 -180q234 -1485 99.5 -1485h-134.5l-124 693l-27 9l-498 -90v-198q0 -114 58.5 -227t-58.5 -187h-54q-135 74 -135 441l-72 297l18 117v90q0 194 -108 567v18q43 45 99 45h18q171 0 171 -567v-27q0 -144 108 -144l480 27l18 54q-39 317 -120 639v9
q15 99 90 99zM3 1339q198 -71 280 -71l135 -7l502 7q318 0 318 -78q39 -28 39 -77v-7q-10 -106 -58 -106q-43 0 -193 63q-56 29 -531 29h-241q-377 0 -377 70v28q0 48 126 149z" />
    <glyph glyph-name="hbar" unicode="&#x127;" horiz-adv-x="1500" 
d="M90 1888q162 0 162 -216q18 -250 108 -909h9q23 158 270 513q81 54 135 54h72q157 0 234 -630q125 -684 198 -684q114 99 153 99q36 0 72 -54v-18q0 -145 -225 -243q-131 43 -198 153q-87 156 -261 1044l-45 90q-169 -83 -279 -675q-29 -432 -144 -432h-63
q-108 0 -108 342q0 689 -180 1404v36q0 126 90 126zM-123 1739q121 -71 170 -71l83 -7l306 7q194 0 194 -78q24 -28 24 -77v-7q-6 -106 -35 -106q-27 0 -118 63q-34 29 -324 29h-147q-230 0 -230 70v28q0 48 77 149z" />
    <glyph glyph-name="Itilde" unicode="&#x128;" horiz-adv-x="400" 
d="M71 1600h129q79 0 111 -1402q18 -84 54 -126v-36q-15 -36 -63 -36h-90q-81 0 -81 90l-87 1465q6 45 27 45zM266 1840q84 -60 111 -48q57 86 107 101.5t36.5 -45.5t-73.5 -156l-14 -7q-123 -24 -189 25q-40 40 -163 110q-68 21 -77 16q-73 -104 -92 -130q-143 -2 -41 144
q44 69 109.5 104t285.5 -114z" />
    <glyph glyph-name="itilde" unicode="&#x129;" horiz-adv-x="1000" 
d="M153 1327l105 -29q130 -35 77 -226q-138 -423 -45 -764q40 -104 124 -127l17 -5q116 -31 454 112q70 -19 51 -88l-3 -9q-49 -181 -541 -191l-63 8q-176 49 -272 439q-52 475 52 855zM293 1634q84 -60 111 -48q57 86 107 101.5t36.5 -45.5t-73.5 -156l-14 -7
q-123 -24 -189 25q-40 40 -163 110q-68 21 -77 16q-73 -104 -92 -130q-143 -2 -41 144q44 69 109.5 104t285.5 -114z" />
    <glyph glyph-name="Imacron" unicode="&#x12a;" horiz-adv-x="400" 
d="M71 1600h129q79 0 111 -1402q18 -84 54 -126v-36q-15 -36 -63 -36h-90q-81 0 -81 90l-87 1465q6 45 27 45zM-153 2000q112 -71 157 -71l76 -7l282 7q178 0 178 -78q22 -28 22 -77v-7q-5 -106 -32 -106q-25 0 -109 63q-31 29 -298 29h-135q-211 0 -211 70v28q0 48 70 149z
" />
    <glyph glyph-name="imacron" unicode="&#x12b;" horiz-adv-x="1000" 
d="M153 1327l105 -29q130 -35 77 -226q-138 -423 -45 -764q40 -104 124 -127l17 -5q116 -31 454 112q70 -19 51 -88l-3 -9q-49 -181 -541 -191l-63 8q-176 49 -272 439q-52 475 52 855zM63 1823q99 -71 140 -71l67 -7l251 7q160 0 160 -78q19 -28 19 -77v-7
q-5 -106 -29 -106q-21 0 -97 63q-27 29 -265 29h-121q-188 0 -188 70v28q0 48 63 149z" />
    <glyph glyph-name="Ibreve" unicode="&#x12c;" horiz-adv-x="400" 
d="M71 1600h129q79 0 111 -1402q18 -84 54 -126v-36q-15 -36 -63 -36h-90q-81 0 -81 90l-87 1465q6 45 27 45zM400 1926q-130 -200 -236.5 -200t-189 84.5t-82.5 154.5q0 77 135.5 -15.5t238.5 -4t134 -19.5z" />
    <glyph glyph-name="ibreve" unicode="&#x12d;" horiz-adv-x="1000" 
d="M153 1327l105 -29q130 -35 77 -226q-138 -423 -45 -764q40 -104 124 -127l17 -5q116 -31 454 112q70 -19 51 -88l-3 -9q-49 -181 -541 -191l-63 8q-176 49 -272 439q-52 475 52 855zM508 1800q-130 -200 -236.5 -200t-189 84.5t-82.5 154.5q0 77 135.5 -15.5t238.5 -4
t134 -19.5z" />
    <glyph glyph-name="Iogonek" unicode="&#x12e;" horiz-adv-x="400" 
d="M71 1600h129q79 0 111 -1402q18 -84 54 -126v-36q-15 -36 -63 -36h-90q-81 0 -81 90l-87 1465q6 45 27 45zM148 -429h-7q-141 0 -141 67v11q0 182 83.5 222.5t83.5 149.5v17q0 36 -19.5 99t34.5 63q98 0 127 -144.5t-98 -275.5t36 -86h21q194 20 198 115h49q22 -4 22 -45
q23 -114 -135 -171q-135 -22 -254 -22z" />
    <glyph glyph-name="iogonek" unicode="&#x12f;" horiz-adv-x="1000" 
d="M153 1327l105 -29q130 -35 77 -226q-138 -423 -45 -764q40 -104 124 -127l17 -5q116 -31 454 112q70 -19 51 -88l-3 -9q-49 -181 -541 -191l-63 8q-176 49 -272 439q-52 475 52 855zM408 -510h-7q-141 0 -141 67v11q0 182 83.5 222.5t83.5 149.5v17q0 36 -19.5 99
t34.5 63q98 0 127 -144.5t-98 -275.5t36 -86h21q194 20 198 115h49q22 -4 22 -45q23 -114 -135 -171q-135 -22 -254 -22z" />
    <glyph glyph-name="Idotaccent" unicode="&#x130;" horiz-adv-x="400" 
d="M71 1600h129q79 0 111 -1402q18 -84 54 -126v-36q-15 -36 -63 -36h-90q-81 0 -81 90l-87 1465q6 45 27 45zM400 1809q0 -100 -174 -141q-189 9 -189 180q0 74 84 127t181.5 -6.5t97.5 -159.5z" />
    <glyph glyph-name="IJ" unicode="&#x132;" horiz-adv-x="0" 
 />
    <glyph glyph-name="ij" unicode="&#x133;" horiz-adv-x="0" 
 />
    <glyph glyph-name="Jcircumflex" unicode="&#x134;" horiz-adv-x="1236" 
d="M965 1700q123 0 135 -261q88 -550 92.5 -866.5t-166.5 -428.5q-263 -144 -558 -144q-468 61 -468 378q37 189 153 189q54 -19 54 -72v-27q0 -18 -54 -36v-36q39 -225 270 -225h99q355 0 450 171q45 73 37 432t-152 782v45q0 77 108 99zM926 1931h-9q-225 -185 -225 -108
q0 70 82.5 154.5t225.5 184.5q70 -100 200 -300q-31 -108 -134 -19.5t-140 88.5z" />
    <glyph glyph-name="jcircumflex" unicode="&#x135;" horiz-adv-x="523" 
d="M185 1204q59 0 270 -810q45 -198 45 -378q-36 -594 -229 -820t-482 -296h-27q-305 0 -450 297l-9 81v27q0 69 36 81h9q63 0 162 -180q106 -99 306 -99q179 0 414 405q90 238 90 495q0 261 -198 945l-9 99v45q0 108 72 108zM126 1531h-9q-225 -185 -225 -108
q0 70 82.5 154.5t225.5 184.5q70 -100 200 -300q-31 -108 -134 -19.5t-140 88.5z" />
    <glyph glyph-name="Kcommaaccent" unicode="&#x136;" horiz-adv-x="1300" 
d="M99 1700h36q117 0 117 -189l9 -522q618 621 648 621h9q89 0 153 -90q0 -61 -351 -333q-369 -343 -369 -396q58 -36 207 -36l549 27q108 0 144 -63v-36q0 -108 -342 -108l-621 -9q0 -207 72 -576v-9q0 -65 -108 -117q-99 0 -99 369q-54 466 -99 1242q-54 75 -54 135v36
q28 54 99 54zM937 315q-48 -48 -113 -171q-66 -215 -187 -179q-117 48 -94 123q14 46 119 143q123 206 246 168l17 -5q23 -7 12 -79z" />
    <glyph glyph-name="kcommaaccent" unicode="&#x137;" 
d="M63 1600h18q99 0 126 -243q74 -672 106 -672h18q172 140 396 504q80 168 180 177.5t100 -82.5v-27q-249 -287 -433 -581l-189 -225l54 9l896 55q72 -7 72 -45q0 -93 -293 -145l-756 -81l-18 -27v-9l67 -451q-7 -72 -72 -72h-27q-99 0 -139 316q-27 207 -72 369l18 153
q0 302 -115 1005q0 72 63 72zM946 122q-39 -57 -80 -190q-25 -223 -151 -209q-124 24 -115 103q5 47 90 162q84 225 211 211l18 -2q24 -3 27 -75z" />
    <glyph glyph-name="kgreenlandic" unicode="&#x138;" horiz-adv-x="1285" 
d="M140 1243h18q99 0 126 -243q-3 -315 29 -315h18q172 140 396 504q80 168 180 177.5t100 -82.5v-27q-249 -287 -433 -581l-189 -225l54 9l896 55q72 -7 72 -45q0 -93 -293 -145l-756 -81l-18 -27v-9l60 -208q-7 -72 -72 -72h-27q-99 0 -132 73q-27 207 -72 369l18 153
q0 302 -38 648q0 72 63 72z" />
    <glyph glyph-name="Lacute" unicode="&#x139;" horiz-adv-x="1400" 
d="M83 1620h18q99 0 99 -279q24 -1089 115 -1089l45 -9q121 0 315 144q617 387 738 387h18q45 -23 45 -81q0 -96 -324 -216q-625 -422 -891 -477h-36q-135 0 -135 261q-61 890 -61 1071q6 288 54 288zM804 1945q-39 -57 -83 -189q-28 -223 -153 -207q-124 26 -114 104
q6 48 93 162q87 224 214 207l17 -2q25 -3 26 -75z" />
    <glyph glyph-name="lacute" unicode="&#x13a;" horiz-adv-x="1000" 
d="M556 1915q162 0 185 -693v-45q0 -116 -126 -504l-18 -153v-45q0 -315 225 -576q98 -72 342 -72l36 -36v-9q-19 -108 -207 -108q-292 0 -486 351l-81 306l-297 -216l-90 -18q-117 0 -189 90v36q0 25 180 45q166 135 333 333v342q-23 838 166 972h27zM518 987v-72
q45 0 47 555l-9 45h-9q-42 0 -29 -528zM1095 2116q-44 -53 -99 -181q-47 -220 -170 -194q-121 37 -104 114q9 47 106 153q105 216 230 189l17 -4q24 -5 20 -77z" />
    <glyph glyph-name="Lcommaaccent" unicode="&#x13b;" horiz-adv-x="1400" 
d="M83 1620h18q99 0 99 -279q24 -1089 115 -1089l45 -9q121 0 315 144q617 387 738 387h18q45 -23 45 -81q0 -96 -324 -216q-625 -422 -891 -477h-36q-135 0 -135 261q-61 890 -61 1071q6 288 54 288zM976 -118q-63 -27 -170 -116q-142 -174 -240 -95q-91 88 -41 149
q30 37 164 88q192 144 291 63l14 -11q19 -16 -18 -78z" />
    <glyph glyph-name="lcommaaccent" unicode="&#x13c;" horiz-adv-x="1000" 
d="M556 1915q162 0 185 -693v-45q0 -116 -126 -504l-18 -153v-45q0 -315 225 -576q98 -72 342 -72l36 -36v-9q-19 -108 -207 -108q-292 0 -486 351l-81 306l-297 -216l-90 -18q-117 0 -189 90v36q0 25 180 45q166 135 333 333v342q-23 838 166 972h27zM518 987v-72
q45 0 47 555l-9 45h-9q-42 0 -29 -528zM121 -415q29 62 49 200q-11 224 115 231q126 -4 130 -83q2 -48 -63 -175q-47 -236 -174 -242l-18 -1q-25 -1 -39 70z" />
    <glyph glyph-name="Lcaron" unicode="&#x13d;" horiz-adv-x="1400" 
d="M83 1620h18q99 0 99 -279q24 -1089 115 -1089l45 -9q121 0 315 144q617 387 738 387h18q45 -23 45 -81q0 -96 -324 -216q-625 -422 -891 -477h-36q-135 0 -135 261q-61 890 -61 1071q6 288 54 288zM708 1738q-130 -200 -200 -300q-143 100 -225.5 184.5t-82.5 154.5
q0 77 225 -108h9q37 0 140 88.5t134 -19.5z" />
    <glyph glyph-name="lcaron" unicode="&#x13e;" horiz-adv-x="1000" 
d="M556 1915q162 0 185 -693v-45q0 -116 -126 -504l-18 -153v-45q0 -315 225 -576q98 -72 342 -72l36 -36v-9q-19 -108 -207 -108q-292 0 -486 351l-81 306l-297 -216l-90 -18q-117 0 -189 90v36q0 25 180 45q166 135 333 333v342q-23 838 166 972h27zM518 987v-72
q45 0 47 555l-9 45h-9q-42 0 -29 -528zM901 2070q200 -130 200 -236.5t-84.5 -189t-154.5 -82.5q-77 0 15.5 135.5t4 238.5t19.5 134z" />
    <glyph glyph-name="Ldot" unicode="&#x13f;" horiz-adv-x="1400" 
d="M83 1620h18q99 0 99 -279q24 -1089 115 -1089l45 -9q121 0 315 144q617 387 738 387h18q45 -23 45 -81q0 -96 -324 -216q-625 -422 -891 -477h-36q-135 0 -135 261q-61 890 -61 1071q6 288 54 288zM763 1609q0 -100 -174 -141q-189 9 -189 180q0 74 84 127t181.5 -6.5
t97.5 -159.5z" />
    <glyph glyph-name="ldot" unicode="&#x140;" horiz-adv-x="1000" 
d="M556 1915q162 0 185 -693v-45q0 -116 -126 -504l-18 -153v-45q0 -315 225 -576q98 -72 342 -72l36 -36v-9q-19 -108 -207 -108q-292 0 -486 351l-81 306l-297 -216l-90 -18q-117 0 -189 90v36q0 25 180 45q166 135 333 333v342q-23 838 166 972h27zM518 987v-72
q45 0 47 555l-9 45h-9q-42 0 -29 -528zM1076 1741q0 -100 -174 -141q-189 9 -189 180q0 74 84 127t181.5 -6.5t97.5 -159.5z" />
    <glyph glyph-name="Lslash" unicode="&#x141;" horiz-adv-x="1400" 
d="M83 1620h18q99 0 99 -279q24 -1089 115 -1089l45 -9q121 0 315 144q617 387 738 387h18q45 -23 45 -81q0 -96 -324 -216q-625 -422 -891 -477h-36q-135 0 -135 261q-61 890 -61 1071q6 288 54 288zM-177 1229q119 -32 157 -18l67 17l236 94q152 55 178 -18q28 -20 45 -66
l3 -7q31 -101 8 -109q-20 -8 -113 26q-36 17 -262 -66l-115 -42q-179 -65 -203 1l-10 27q-16 45 9 161z" />
    <glyph glyph-name="lslash" unicode="&#x142;" horiz-adv-x="1000" 
d="M556 1915q162 0 185 -693v-45q0 -116 -126 -504l-18 -153v-45q0 -315 225 -576q98 -72 342 -72l36 -36v-9q-19 -108 -207 -108q-292 0 -486 351l-81 306l-297 -216l-90 -18q-117 0 -189 90v36q0 25 180 45q166 135 333 333v342q-23 838 166 972h27zM518 987v-72
q45 0 47 555l-9 45h-9q-42 0 -29 -528zM92 1400q145 -71 204 -71l99 -7l367 7q233 0 233 -78q28 -28 28 -77v-7q-7 -106 -42 -106q-32 0 -141 63q-41 29 -388 29h-177q-275 0 -275 70v28q0 48 92 149z" />
    <glyph glyph-name="Nacute" unicode="&#x143;" horiz-adv-x="1500" 
d="M1494 1809q58 -23 63 -45l-135 -558q-162 -906 -216 -1089q-50 -108 -108 -108q-94 0 -432 927l-135 270q-188 -1206 -441 -1206h-36q-54 31 -54 90q0 23 99 153q120 183 279 1116q0 243 108 243h54q102 0 261 -513q234 -615 279 -648q51 98 126 594q153 774 279 774h9z
M1176 1951q-63 -27 -170 -116q-142 -174 -240 -95q-91 88 -41 149q30 37 164 88q192 144 291 63l14 -11q19 -16 -18 -78z" />
    <glyph glyph-name="nacute" unicode="&#x144;" horiz-adv-x="1400" 
d="M86 1300h63q151 0 247 -571h9l225 405q104 126 162 126h36q137 0 216 -387q94 -345 252 -486q72 -54 108 -54l54 -162l-90 -18q-242 0 -414 396q-117 388 -162 468h-27q-75 -47 -216 -486q-72 -288 -72 -459q-48 -72 -126 -72q-108 0 -108 180l9 81v108q0 496 -175 715
q-63 44 -63 99v45q0 72 72 72zM869 1682q-63 -27 -170 -116q-142 -174 -240 -95q-91 88 -41 149q30 37 164 88q192 144 291 63l14 -11q19 -16 -18 -78z" />
    <glyph glyph-name="Ncommaaccent" unicode="&#x145;" horiz-adv-x="1500" 
d="M1494 1809q58 -23 63 -45l-135 -558q-162 -906 -216 -1089q-50 -108 -108 -108q-94 0 -432 927l-135 270q-188 -1206 -441 -1206h-36q-54 31 -54 90q0 23 99 153q120 183 279 1116q0 243 108 243h54q102 0 261 -513q234 -615 279 -648q51 98 126 594q153 774 279 774h9z
M776 -118q-63 -27 -170 -116q-142 -174 -240 -95q-91 88 -41 149q30 37 164 88q192 144 291 63l14 -11q19 -16 -18 -78z" />
    <glyph glyph-name="ncommaaccent" unicode="&#x146;" horiz-adv-x="1400" 
d="M86 1300h63q151 0 247 -571h9l225 405q104 126 162 126h36q137 0 216 -387q94 -345 252 -486q72 -54 108 -54l54 -162l-90 -18q-242 0 -414 396q-117 388 -162 468h-27q-75 -47 -216 -486q-72 -288 -72 -459q-48 -72 -126 -72q-108 0 -108 180l9 81v108q0 496 -175 715
q-63 44 -63 99v45q0 72 72 72zM1018 131q-44 -53 -99 -181q-47 -220 -170 -194q-121 37 -104 114q9 47 106 153q105 216 230 189l17 -4q24 -5 20 -77z" />
    <glyph glyph-name="Ncaron" unicode="&#x147;" horiz-adv-x="1500" 
d="M1494 1809q58 -23 63 -45l-135 -558q-162 -906 -216 -1089q-50 -108 -108 -108q-94 0 -432 927l-135 270q-188 -1206 -441 -1206h-36q-54 31 -54 90q0 23 99 153q120 183 279 1116q0 243 108 243h54q102 0 261 -513q234 -615 279 -648q51 98 126 594q153 774 279 774h9z
M966 1831h9q225 185 225 108q0 -70 -82.5 -154.5t-225.5 -184.5q-70 100 -200 300q31 108 134 19.5t140 -88.5z" />
    <glyph glyph-name="ncaron" unicode="&#x148;" horiz-adv-x="1400" 
d="M86 1300h63q151 0 247 -571h9l225 405q104 126 162 126h36q137 0 216 -387q94 -345 252 -486q72 -54 108 -54l54 -162l-90 -18q-242 0 -414 396q-117 388 -162 468h-27q-75 -47 -216 -486q-72 -288 -72 -459q-48 -72 -126 -72q-108 0 -108 180l9 81v108q0 496 -175 715
q-63 44 -63 99v45q0 72 72 72zM708 1738q-130 -200 -200 -300q-143 100 -225.5 184.5t-82.5 154.5q0 77 225 -108h9q37 0 140 88.5t134 -19.5z" />
    <glyph glyph-name="napostrophe" unicode="&#x149;" horiz-adv-x="1600" 
d="M286 1300h63q151 0 247 -571h9l225 405q104 126 162 126h36q137 0 216 -387q94 -345 252 -486q72 -54 108 -54l54 -162l-90 -18q-242 0 -414 396q-117 388 -162 468h-27q-75 -47 -216 -486q-72 -288 -72 -459q-48 -72 -126 -72q-108 0 -108 180l9 81v108q0 496 -175 715
q-63 44 -63 99v45q0 72 72 72zM48 1118q-2 68 -48 200q-112 194 -3 258q114 54 153 -15q24 -41 25 -184q66 -231 -45 -295l-15 -9q-22 -12 -67 45z" />
    <glyph glyph-name="Eng" unicode="&#x14a;" horiz-adv-x="1600" 
d="M117 1715h63q151 0 216 -986h9q360 946 641.5 970t360.5 -363q63 -760 90 -1136q-216 -200 -211 397q-86 803 -131 883q-434 -95 -606 -949q-72 -288 -72 -459q-48 -72 -126 -72q-108 0 -108 180l9 81v108q31 911 -144 1130q-63 44 -63 99v45q0 72 72 72zM1432 600
q45 -198 45 -378q-36 -594 -229 -820t-482 -296h-27q-305 0 -450 297l-9 81v27q0 69 36 81h9q63 0 162 -180q106 -99 306 -99q179 0 414 405q90 238 90 495q0 261 135 387z" />
    <glyph glyph-name="eng" unicode="&#x14b;" 
d="M86 1300h63q151 0 247 -571h9l225 405q104 126 162 126h36q137 0 216 -387q94 -345 48 -1073q-62 97 -138 749q-117 388 -162 468h-27q-75 -47 -216 -486q-72 -288 -72 -459q-48 -72 -126 -72q-108 0 -108 180l9 81v108q0 496 -175 715q-63 44 -63 99v45q0 72 72 72z
M1100 600q100 -1000 -151.5 -1154t-396.5 143l-9 81v27q0 69 36 81h9q63 0 162 -180q106 -99 188 118.5t82 474.5z" />
    <glyph glyph-name="Omacron" unicode="&#x14c;" horiz-adv-x="1044" 
d="M217 1733q81 0 81 -72l-9 -27q0 48 331.5 57t364 -661.5t-390.5 -993.5q-97 -36 -180 -36q-278 0 -369 486q-45 194 -53.5 604t153.5 616q38 27 72 27zM393 250q193 -61 300 279.5t107 606t-203.5 337t-334.5 -144.5q-99 0 -80.5 -508.5t211.5 -569.5zM69 2069
q145 -71 204 -71l99 -7l367 7q233 0 233 -78q28 -28 28 -77v-7q-7 -106 -42 -106q-32 0 -141 63q-41 29 -388 29h-177q-275 0 -275 70v28q0 48 92 149z" />
    <glyph glyph-name="omacron" unicode="&#x14d;" horiz-adv-x="900" 
d="M92 1823q145 -71 204 -71l99 -7l367 7q233 0 233 -78q28 -28 28 -77v-7q-7 -106 -42 -106q-32 0 -141 63q-41 29 -388 29h-177q-275 0 -275 70v28q0 48 92 149zM284 1389h45q30 0 153 -108q152 0 288 -144q99 -217 99 -414q0 -357 -156 -540t-295.5 -183t-278.5 199.5
t-125 532.5q66 657 270 657zM223 570q61 -322 242 -392q171 101 251 608q0 183 -117 261q-47 36 -99 36h-18q-309 -52 -259 -513z" />
    <glyph glyph-name="Obreve" unicode="&#x14e;" horiz-adv-x="1044" 
d="M217 1733q81 0 81 -72l-9 -27q0 48 331.5 57t364 -661.5t-390.5 -993.5q-97 -36 -180 -36q-278 0 -369 486q-45 194 -53.5 604t153.5 616q38 27 72 27zM393 250q193 -61 300 279.5t107 606t-203.5 337t-334.5 -144.5q-99 0 -80.5 -508.5t211.5 -569.5zM708 1926
q-130 -200 -236.5 -200t-189 84.5t-82.5 154.5q0 77 135.5 -15.5t238.5 -4t134 -19.5z" />
    <glyph glyph-name="obreve" unicode="&#x14f;" horiz-adv-x="900" 
d="M708 1738q-130 -200 -236.5 -200t-189 84.5t-82.5 154.5q0 77 135.5 -15.5t238.5 -4t134 -19.5zM284 1389h45q30 0 153 -108q152 0 288 -144q99 -217 99 -414q0 -357 -156 -540t-295.5 -183t-278.5 199.5t-125 532.5q66 657 270 657zM223 570q61 -322 242 -392
q171 101 251 608q0 183 -117 261q-47 36 -99 36h-18q-309 -52 -259 -513z" />
    <glyph glyph-name="Ohungarumlaut" unicode="&#x150;" horiz-adv-x="1044" 
d="M217 1733q81 0 81 -72l-9 -27q0 48 331.5 57t364 -661.5t-390.5 -993.5q-97 -36 -180 -36q-278 0 -369 486q-45 194 -53.5 604t153.5 616q38 27 72 27zM393 250q193 -61 300 279.5t107 606t-203.5 337t-334.5 -144.5q-99 0 -80.5 -508.5t211.5 -569.5zM245 1698
q-41 17 -45 36v9q0 68 178 421q38 36 72 36h36l36 -36v-45q-14 -167 -232 -412zM651 1698q-41 17 -45 36v9q0 68 178 421q38 36 72 36h36l36 -36v-45q-14 -167 -232 -412z" />
    <glyph glyph-name="ohungarumlaut" unicode="&#x151;" horiz-adv-x="900" 
d="M245 1498q-41 17 -45 36v9q0 68 178 421q38 36 72 36h36l36 -36v-45q-14 -167 -232 -412zM651 1498q-41 17 -45 36v9q0 68 178 421q38 36 72 36h36l36 -36v-45q-14 -167 -232 -412zM284 1389h45q30 0 153 -108q152 0 288 -144q99 -217 99 -414q0 -357 -156 -540
t-295.5 -183t-278.5 199.5t-125 532.5q66 657 270 657zM223 570q61 -322 242 -392q171 101 251 608q0 183 -117 261q-47 36 -99 36h-18q-309 -52 -259 -513z" />
    <glyph glyph-name="OE" unicode="&#x152;" horiz-adv-x="2000" 
d="M597 1473q-204 71 -335 -145q-99 0 -80.5 -508.5t211.5 -569.5t300 279.5t107 606.5q0 31 -3 60q-31 181 -85.5 218t-114.5 59zM857 344q-96 -181 -263 -308q-97 -36 -180 -36q-278 0 -369 486q-45 194 -53.5 604t153.5 616q38 27 72 27q81 0 81 -72l-6 -18q28 40 329 48
q171 5 263 -173q70 22 254 46q0 20 108 36h90q66 0 72 -27v-36q-68 -54 -315 -162q-63 -42 -63 -315v-27l9 -108l522 396l54 9h36l27 -27q0 -102 -594 -648l-45 -99v-27q50 -243 153 -243q138 0 567 369l81 18h18q48 0 63 -36q-76 -187 -531 -513q-123 -81 -225 -81h-45
q-197 0 -263 301z" />
    <glyph glyph-name="oe" unicode="&#x153;" horiz-adv-x="1779" 
d="M906 661v-27l27 -27q122 0 252 192q50 90 54 153q0 68 -45 108h-9q-134 0 -261 -273zM699 688q2 7 4 15q4 29 13 83q0 183 -117 261q-47 36 -99 36h-18q-309 -52 -259 -513q61 -322 242 -392q116 68 190 322q-55 92 -55 125v18q0 29 99 45zM821 1007q147 251 400 251h36
q126 0 180 -99l18 -99q-46 -324 -279 -534q-106 -106 -234 -117l-18 -36q-8 -28 117 -121q95 -72 198 -72h63q75 0 423 189q66 27 153 36l36 -27v-9q-331 -326 -612 -369h-45q-369 22 -459 171q-21 28 -41 71q-20 -31 -44 -59q-156 -183 -295.5 -183t-278.5 199.5
t-125 532.5q66 657 270 657h45q30 0 153 -108q152 0 288 -144q30 -66 51 -130z" />
    <glyph glyph-name="Racute" unicode="&#x154;" horiz-adv-x="1600" 
d="M720 1689h36q159 0 180 -189v-9q0 -156 -225 -540q-81 -154 -81 -189l18 -18q428 0 972 171q72 -9 72 -63q0 -137 -918 -333l-207 -18h-45q-61 11 -153 63v-9q-6 -495 -10.5 -549t-73.5 -54h-9q-126 31 -126 108q4 1053 -96 1053q-54 85 -54 144q0 43 90 162
q0 145 333 207q196 63 297 63zM306 1176q13 -414 45 -414q125 138 324 549q36 96 36 153l-36 27q-369 -89 -369 -225v-90zM869 2036q-63 -27 -170 -116q-142 -174 -240 -95q-91 88 -41 149q30 37 164 88q192 144 291 63l14 -11q19 -16 -18 -78z" />
    <glyph glyph-name="racute" unicode="&#x155;" horiz-adv-x="1000" 
d="M72 1359q198 -82 198 -270l144 -450h9q42 201 351 549q89 72 126 72h27q76 0 108 -126q0 -25 -153 -108q-304 -365 -378 -693l9 -207q-15 -126 -126 -126h-36q-109 0 -153 180v9l45 297q0 123 -171 621q-72 143 -72 198q21 54 72 54zM869 1636q-63 -27 -170 -116
q-142 -174 -240 -95q-91 88 -41 149q30 37 164 88q192 144 291 63l14 -11q19 -16 -18 -78z" />
    <glyph glyph-name="Rcommaaccent" unicode="&#x156;" horiz-adv-x="1600" 
d="M720 1689h36q159 0 180 -189v-9q0 -156 -225 -540q-81 -154 -81 -189l18 -18q428 0 972 171q72 -9 72 -63q0 -137 -918 -333l-207 -18h-45q-61 11 -153 63v-9q-6 -495 -10.5 -549t-73.5 -54h-9q-126 31 -126 108q4 1053 -96 1053q-54 85 -54 144q0 43 90 162
q0 145 333 207q196 63 297 63zM306 1176q13 -414 45 -414q125 138 324 549q36 96 36 153l-36 27q-369 -89 -369 -225v-90zM976 -118q-63 -27 -170 -116q-142 -174 -240 -95q-91 88 -41 149q30 37 164 88q192 144 291 63l14 -11q19 -16 -18 -78z" />
    <glyph glyph-name="rcommaaccent" unicode="&#x157;" horiz-adv-x="1000" 
d="M72 1359q198 -82 198 -270l144 -450h9q42 201 351 549q89 72 126 72h27q76 0 108 -126q0 -25 -153 -108q-304 -365 -378 -693l9 -207q-15 -126 -126 -126h-36q-109 0 -153 180v9l45 297q0 123 -171 621q-72 143 -72 198q21 54 72 54zM905 111q-47 -49 -111 -173
q-62 -216 -184 -181q-118 45 -96 121q14 46 117 145q120 208 243 172l17 -5q24 -7 14 -79z" />
    <glyph glyph-name="Rcaron" unicode="&#x158;" horiz-adv-x="1600" 
d="M720 1689h36q159 0 180 -189v-9q0 -156 -225 -540q-81 -154 -81 -189l18 -18q428 0 972 171q72 -9 72 -63q0 -137 -918 -333l-207 -18h-45q-61 11 -153 63v-9q-6 -495 -10.5 -549t-73.5 -54h-9q-126 31 -126 108q4 1053 -96 1053q-54 85 -54 144q0 43 90 162
q0 145 333 207q196 63 297 63zM306 1176q13 -414 45 -414q125 138 324 549q36 96 36 153l-36 27q-369 -89 -369 -225v-90zM1000 1938q-130 -200 -200 -300q-143 100 -225.5 184.5t-82.5 154.5q0 77 225 -108h9q37 0 140 88.5t134 -19.5z" />
    <glyph glyph-name="rcaron" unicode="&#x159;" horiz-adv-x="1000" 
d="M72 1359q198 -82 198 -270l144 -450h9q42 201 351 549q89 72 126 72h27q76 0 108 -126q0 -25 -153 -108q-304 -365 -378 -693l9 -207q-15 -126 -126 -126h-36q-109 0 -153 180v9l45 297q0 123 -171 621q-72 143 -72 198q21 54 72 54zM708 1738q-130 -200 -200 -300
q-143 100 -225.5 184.5t-82.5 154.5q0 77 225 -108h9q37 0 140 88.5t134 -19.5z" />
    <glyph glyph-name="Sacute" unicode="&#x15a;" horiz-adv-x="1500" 
d="M909 1593h18q136 0 333 -198v-27q0 -27 -72 -36l-171 72h-36q-336 0 -720 -576l-27 -99v-36q37 -54 90 -54h18q129 0 567 189q187 45 342 45h9q207 -21 207 -144v-54q0 -222 -486 -558q-170 -117 -288 -117q-117 30 -117 144v18q0 48 36 63l99 -18h36q135 0 450 351
l27 90v9l-18 18h-27q-94 0 -774 -243l-90 -9q-209 0 -288 180l-27 144q55 228 405.5 528t503.5 318zM869 1836q-63 -27 -170 -116q-142 -174 -240 -95q-91 88 -41 149q30 37 164 88q192 144 291 63l14 -11q19 -16 -18 -78z" />
    <glyph glyph-name="sacute" unicode="&#x15b;" horiz-adv-x="1500" 
d="M769 1281q331 19 396 -108v-9q0 -18 -27 -18q-485 0 -594 -117q-241 -150 -301 -390v-9h9q168 0 639 162q199 45 315 45q297 0 297 -126v-45q0 -189 -369 -513q-198 -153 -342 -153q-180 54 -180 162q33 27 63 27h162q138 0 405 360l18 54v27l-27 27q-177 0 -729 -171
q-139 -36 -288 -36h-18q-189 74 -189 207l-9 9q44 231 400 471q218 144 369 144zM869 1636q-63 -27 -170 -116q-142 -174 -240 -95q-91 88 -41 149q30 37 164 88q192 144 291 63l14 -11q19 -16 -18 -78z" />
    <glyph glyph-name="Scircumflex" unicode="&#x15c;" horiz-adv-x="1500" 
d="M909 1593h18q136 0 333 -198v-27q0 -27 -72 -36l-171 72h-36q-336 0 -720 -576l-27 -99v-36q37 -54 90 -54h18q129 0 567 189q187 45 342 45h9q207 -21 207 -144v-54q0 -222 -486 -558q-170 -117 -288 -117q-117 30 -117 144v18q0 48 36 63l99 -18h36q135 0 450 351
l27 90v9l-18 18h-27q-94 0 -774 -243l-90 -9q-209 0 -288 180l-27 144q55 228 405.5 528t503.5 318zM834 1731h-9q-225 -185 -225 -108q0 70 82.5 154.5t225.5 184.5q70 -100 200 -300q-31 -108 -134 -19.5t-140 88.5z" />
    <glyph glyph-name="scircumflex" unicode="&#x15d;" horiz-adv-x="1500" 
d="M769 1281q331 19 396 -108v-9q0 -18 -27 -18q-485 0 -594 -117q-241 -150 -301 -390v-9h9q168 0 639 162q199 45 315 45q297 0 297 -126v-45q0 -189 -369 -513q-198 -153 -342 -153q-180 54 -180 162q33 27 63 27h162q138 0 405 360l18 54v27l-27 27q-177 0 -729 -171
q-139 -36 -288 -36h-18q-189 74 -189 207l-9 9q44 231 400 471q218 144 369 144zM726 1531h-9q-225 -185 -225 -108q0 70 82.5 154.5t225.5 184.5q70 -100 200 -300q-31 -108 -134 -19.5t-140 88.5z" />
    <glyph glyph-name="Scedilla" unicode="&#x15e;" horiz-adv-x="1500" 
d="M909 1593h18q136 0 333 -198v-27q0 -27 -72 -36l-171 72h-36q-336 0 -720 -576l-27 -99v-36q37 -54 90 -54h18q129 0 567 189q187 45 342 45h9q207 -21 207 -144v-54q0 -222 -486 -558q-170 -117 -288 -117q-117 30 -117 144v18q0 48 36 63l99 -18h36q135 0 450 351
l27 90v9l-18 18h-27q-94 0 -774 -243l-90 -9q-209 0 -288 180l-27 144q55 228 405.5 528t503.5 318zM798 -378q-158 57 -135 171q0 41 22 45h49q4 -95 198 -115h21q163 -45 36 86t-98 275.5t127 144.5q54 0 34.5 -63t-19.5 -99v-17q0 -109 83.5 -149.5t83.5 -222.5v-11
q0 -67 -141 -67h-7q-119 0 -254 22z" />
    <glyph glyph-name="scedilla" unicode="&#x15f;" horiz-adv-x="1500" 
d="M769 1281q331 19 396 -108v-9q0 -18 -27 -18q-485 0 -594 -117q-241 -150 -301 -390v-9h9q168 0 639 162q199 45 315 45q297 0 297 -126v-45q0 -189 -369 -513q-198 -153 -342 -153q-180 54 -180 162q33 27 63 27h162q138 0 405 360l18 54v27l-27 27q-177 0 -729 -171
q-139 -36 -288 -36h-18q-189 74 -189 207l-9 9q44 231 400 471q218 144 369 144zM798 -407q-158 57 -135 171q0 41 22 45h49q4 -95 198 -115h21q163 -45 36 86t-98 275.5t127 144.5q54 0 34.5 -63t-19.5 -99v-17q0 -109 83.5 -149.5t83.5 -222.5v-11q0 -67 -141 -67h-7
q-119 0 -254 22z" />
    <glyph glyph-name="Scaron" unicode="&#x160;" horiz-adv-x="1500" 
d="M909 1593h18q136 0 333 -198v-27q0 -27 -72 -36l-171 72h-36q-336 0 -720 -576l-27 -99v-36q37 -54 90 -54h18q129 0 567 189q187 45 342 45h9q207 -21 207 -144v-54q0 -222 -486 -558q-170 -117 -288 -117q-117 30 -117 144v18q0 48 36 63l99 -18h36q135 0 450 351
l27 90v9l-18 18h-27q-94 0 -774 -243l-90 -9q-209 0 -288 180l-27 144q55 228 405.5 528t503.5 318zM708 1738q-130 -200 -200 -300q-143 100 -225.5 184.5t-82.5 154.5q0 77 225 -108h9q37 0 140 88.5t134 -19.5z" />
    <glyph glyph-name="scaron" unicode="&#x161;" horiz-adv-x="1500" 
d="M769 1281q331 19 396 -108v-9q0 -18 -27 -18q-485 0 -594 -117q-241 -150 -301 -390v-9h9q168 0 639 162q199 45 315 45q297 0 297 -126v-45q0 -189 -369 -513q-198 -153 -342 -153q-180 54 -180 162q33 27 63 27h162q138 0 405 360l18 54v27l-27 27q-177 0 -729 -171
q-139 -36 -288 -36h-18q-189 74 -189 207l-9 9q44 231 400 471q218 144 369 144zM800 1538q-130 -200 -200 -300q-143 100 -225.5 184.5t-82.5 154.5q0 77 225 -108h9q37 0 140 88.5t134 -19.5z" />
    <glyph glyph-name="Tcommaaccent" unicode="&#x162;" horiz-adv-x="1350" 
d="M1352 1632q135 0 135 -126v-27l-27 -27h-27q-454 -25 -495 -99l-9 -45l97 -1290l-18 -18h-27q-162 0 -162 297q-73 827 -133 948q-46 27 -90 27l-450 -90q-126 0 -126 135q0 78 504 153q447 126 828 162zM1176 -164q-63 -27 -170 -116q-142 -174 -240 -95q-91 88 -41 149
q30 37 164 88q192 144 291 63l14 -11q19 -16 -18 -78z" />
    <glyph glyph-name="tcommaaccent" unicode="&#x163;" horiz-adv-x="1300" 
d="M447 1743l26 -3q126 -17 123 -171q18 58 -35 -334l-3 -90q417 134 536 151l64 1q51 -26 49 -43l-7 -54q-9 -49 -490 -211q-161 -63 -185 -94l-5 -35q-54 -188 107 -611q65 -99 202 -118q168 -22 346 178q84 127 216 189l35 -5q18 -2 15 -29q-41 -205 -238 -392
q-273 -154 -436 -132q-247 33 -358 311q-98 391 -69 487q-16 75 -35 78l-9 1q-44 6 -297 -122l-18 3q-89 12 -125 80l1 9q15 113 247 184t239 70q54 691 74 688zM1069 -249q-63 -27 -170 -116q-142 -174 -240 -95q-91 88 -41 149q30 37 164 88q192 144 291 63l14 -11
q19 -16 -18 -78z" />
    <glyph glyph-name="Tcaron" unicode="&#x164;" horiz-adv-x="1350" 
d="M1352 1632q135 0 135 -126v-27l-27 -27h-27q-454 -25 -495 -99l-9 -45l97 -1290l-18 -18h-27q-162 0 -162 297q-73 827 -133 948q-46 27 -90 27l-450 -90q-126 0 -126 135q0 78 504 153q447 126 828 162zM908 1900q-130 -200 -200 -300q-143 100 -225.5 184.5
t-82.5 154.5q0 77 225 -108h9q37 0 140 88.5t134 -19.5z" />
    <glyph glyph-name="tcaron" unicode="&#x165;" horiz-adv-x="1300" 
d="M447 1743l26 -3q126 -17 123 -171q18 58 -35 -334l-3 -90q417 134 536 151l64 1q51 -26 49 -43l-7 -54q-9 -49 -490 -211q-161 -63 -185 -94l-5 -35q-54 -188 107 -611q65 -99 202 -118q168 -22 346 178q84 127 216 189l35 -5q18 -2 15 -29q-41 -205 -238 -392
q-273 -154 -436 -132q-247 33 -358 311q-98 391 -69 487q-16 75 -35 78l-9 1q-44 6 -297 -122l-18 3q-89 12 -125 80l1 9q15 113 247 184t239 70q54 691 74 688zM808 2037q200 -130 200 -236.5t-84.5 -189t-154.5 -82.5q-77 0 15.5 135.5t4 238.5t19.5 134z" />
    <glyph glyph-name="Tbar" unicode="&#x166;" horiz-adv-x="1350" 
d="M1352 1632q135 0 135 -126v-27l-27 -27h-27q-454 -25 -495 -99l-9 -45l97 -1290l-18 -18h-27q-162 0 -162 297q-73 827 -133 948q-46 27 -90 27l-450 -90q-126 0 -126 135q0 78 504 153q447 126 828 162zM441 1038q157 -36 215 -22l98 16l356 91q226 53 244 -22
q34 -21 45 -69l2 -7q17 -105 -17 -113q-30 -7 -152 30q-46 18 -384 -62l-172 -41q-267 -63 -284 6l-6 27q-11 47 55 166z" />
    <glyph glyph-name="tbar" unicode="&#x167;" horiz-adv-x="1300" 
d="M447 1743l26 -3q126 -17 123 -171q18 58 -35 -334l-3 -90q417 134 536 151l64 1q51 -26 49 -43l-7 -54q-9 -49 -490 -211q-161 -63 -185 -94l-5 -35q-54 -188 107 -611q65 -99 202 -118q168 -22 346 178q84 127 216 189l35 -5q18 -2 15 -29q-41 -205 -238 -392
q-273 -154 -436 -132q-247 33 -358 311q-98 391 -69 487q-16 75 -35 78l-9 1q-44 6 -297 -122l-18 3q-89 12 -125 80l1 9q15 113 247 184t239 70q54 691 74 688zM31 1352q161 -14 217 7l95 28l340 137q218 82 246 9q36 -16 53 -62l3 -7q31 -101 -2 -114q-30 -11 -155 10
q-48 12 -373 -111l-165 -63q-257 -97 -282 -31l-10 26q-17 45 33 171z" />
    <glyph glyph-name="Utilde" unicode="&#x168;" 
d="M952 1740h27q143 0 162 -252v-54q0 -696 -502 -1362q-63 -72 -171 -72h-45q-104 0 -144 72q-144 257 -234 738q-45 275 -45 486v72q6 126 45 126h27q144 0 144 -279q0 -694 261 -999h18q256 298 403 633q72 262 72 477v135q0 77 -108 162l-9 36v9q41 72 99 72zM579 1896
q84 -60 111 -48q57 86 107 101.5t36.5 -45.5t-73.5 -156l-14 -7q-123 -24 -189 25q-40 40 -163 110q-68 21 -77 16q-73 -104 -92 -130q-143 -2 -41 144q44 69 109.5 104t285.5 -114z" />
    <glyph glyph-name="utilde" unicode="&#x169;" horiz-adv-x="900" 
d="M779 1329q81 -76 81 -216v-72q0 -317 -123.5 -679t-326.5 -362q-325 0 -410 960q0 351 126 351q54 0 63 -417.5t203 -677.5q135 0 207 288t72 663q25 162 108 162zM504 1648q84 -60 111 -48q57 86 107 101.5t36.5 -45.5t-73.5 -156l-14 -7q-123 -24 -189 25
q-40 40 -163 110q-68 21 -77 16q-73 -104 -92 -130q-143 -2 -41 144q44 69 109.5 104t285.5 -114z" />
    <glyph glyph-name="Umacron" unicode="&#x16a;" 
d="M952 1740h27q143 0 162 -252v-54q0 -696 -502 -1362q-63 -72 -171 -72h-45q-104 0 -144 72q-144 257 -234 738q-45 275 -45 486v72q6 126 45 126h27q144 0 144 -279q0 -694 261 -999h18q256 298 403 633q72 262 72 477v135q0 77 -108 162l-9 36v9q41 72 99 72zM1023 1990
v-28q0 -70 -275 -70h-177q-347 0 -388 -29q-109 -63 -141 -63q-35 0 -42 106v7q0 49 28 77q0 78 233 78l367 -7l99 7q59 0 204 71q92 -101 92 -149z" />
    <glyph glyph-name="umacron" unicode="&#x16b;" horiz-adv-x="900" 
d="M779 1329q81 -76 81 -216v-72q0 -317 -123.5 -679t-326.5 -362q-325 0 -410 960q0 351 126 351q54 0 63 -417.5t203 -677.5q135 0 207 288t72 663q25 162 108 162zM1023 1674v-28q0 -70 -275 -70h-177q-347 0 -388 -29q-109 -63 -141 -63q-35 0 -42 106v7q0 49 28 77
q0 78 233 78l367 -7l99 7q59 0 204 71q92 -101 92 -149z" />
    <glyph glyph-name="Ubreve" unicode="&#x16c;" 
d="M952 1740h27q143 0 162 -252v-54q0 -696 -502 -1362q-63 -72 -171 -72h-45q-104 0 -144 72q-144 257 -234 738q-45 275 -45 486v72q6 126 45 126h27q144 0 144 -279q0 -694 261 -999h18q256 298 403 633q72 262 72 477v135q0 77 -108 162l-9 36v9q41 72 99 72zM708 1738
q-130 -200 -236.5 -200t-189 84.5t-82.5 154.5q0 77 135.5 -15.5t238.5 -4t134 -19.5z" />
    <glyph glyph-name="ubreve" unicode="&#x16d;" horiz-adv-x="900" 
d="M779 1329q81 -76 81 -216v-72q0 -317 -123.5 -679t-326.5 -362q-325 0 -410 960q0 351 126 351q54 0 63 -417.5t203 -677.5q135 0 207 288t72 663q25 162 108 162zM708 1738q-130 -200 -236.5 -200t-189 84.5t-82.5 154.5q0 77 135.5 -15.5t238.5 -4t134 -19.5z" />
    <glyph glyph-name="Uring" unicode="&#x16e;" 
d="M952 1740h27q143 0 162 -252v-54q0 -696 -502 -1362q-63 -72 -171 -72h-45q-104 0 -144 72q-144 257 -234 738q-45 275 -45 486v72q6 126 45 126h27q144 0 144 -279q0 -694 261 -999h18q256 298 403 633q72 262 72 477v135q0 77 -108 162l-9 36v9q41 72 99 72zM792 1792
q-267 -210 -355.5 -3.5t37.5 299.5q266 19 341.5 -71.5t-23.5 -224.5zM522 1911l2 -29l30 -55l45 -31l80 32l16 83l-33 51l-63 29l-81 -31z" />
    <glyph glyph-name="uring" unicode="&#x16f;" horiz-adv-x="900" 
d="M779 1329q81 -76 81 -216v-72q0 -317 -123.5 -679t-326.5 -362q-325 0 -410 960q0 351 126 351q54 0 63 -417.5t203 -677.5q135 0 207 288t72 663q25 162 108 162zM592 1701q-267 -210 -355.5 -3.5t37.5 299.5q266 19 341.5 -71.5t-23.5 -224.5zM322 1820l2 -29l30 -55
l45 -31l80 32l16 83l-33 51l-63 29l-81 -31z" />
    <glyph glyph-name="Uhungarumlaut" unicode="&#x170;" 
d="M952 1740h27q143 0 162 -252v-54q0 -696 -502 -1362q-63 -72 -171 -72h-45q-104 0 -144 72q-144 257 -234 738q-45 275 -45 486v72q6 126 45 126h27q144 0 144 -279q0 -694 261 -999h18q256 298 403 633q72 262 72 477v135q0 77 -108 162l-9 36v9q41 72 99 72zM245 1600
q-41 17 -45 36v9q0 68 178 421q38 36 72 36h36l36 -36v-45q-14 -167 -232 -412zM651 1600q-41 17 -45 36v9q0 68 178 421q38 36 72 36h36l36 -36v-45q-14 -167 -232 -412z" />
    <glyph glyph-name="uhungarumlaut" unicode="&#x171;" horiz-adv-x="900" 
d="M779 1329q81 -76 81 -216v-72q0 -317 -123.5 -679t-326.5 -362q-325 0 -410 960q0 351 126 351q54 0 63 -417.5t203 -677.5q135 0 207 288t72 663q25 162 108 162zM117 1400q-41 17 -45 36v9q0 68 178 421q38 36 72 36h36l36 -36v-45q-14 -167 -232 -412zM523 1400
q-41 17 -45 36v9q0 68 178 421q38 36 72 36h36l36 -36v-45q-14 -167 -232 -412z" />
    <glyph glyph-name="Uogonek" unicode="&#x172;" 
d="M952 1740h27q143 0 162 -252v-54q0 -696 -502 -1362q-63 -72 -171 -72h-45q-104 0 -144 72q-144 257 -234 738q-45 275 -45 486v72q6 126 45 126h27q144 0 144 -279q0 -694 261 -999h18q256 298 403 633q72 262 72 477v135q0 77 -108 162l-9 36v9q41 72 99 72zM408 -429
h-7q-141 0 -141 67v11q0 182 83.5 222.5t83.5 149.5v17q0 36 -19.5 99t34.5 63q98 0 127 -144.5t-98 -275.5t36 -86h21q194 20 198 115h49q22 -4 22 -45q23 -114 -135 -171q-135 -22 -254 -22z" />
    <glyph glyph-name="uogonek" unicode="&#x173;" horiz-adv-x="900" 
d="M779 1329q81 -76 81 -216v-72q0 -317 -123.5 -679t-326.5 -362q-325 0 -410 960q0 351 126 351q54 0 63 -417.5t203 -677.5q135 0 207 288t72 663q25 162 108 162zM408 -429h-7q-141 0 -141 67v11q0 182 83.5 222.5t83.5 149.5v17q0 36 -19.5 99t34.5 63q98 0 127 -144.5
t-98 -275.5t36 -86h21q194 20 198 115h49q22 -4 22 -45q23 -114 -135 -171q-135 -22 -254 -22z" />
    <glyph glyph-name="Wcircumflex" unicode="&#x174;" horiz-adv-x="1656" 
d="M1574 1723q81 -13 81 -63q-126 -848 -278 -1318q-138 -293 -189 -306h-54q-140 0 -189 153q-72 64 -280 807h-9q-226 -636 -242 -861q-88 -135 -144 -135q-144 0 -144 270q-118 720 -118 1014q12 45 27 45q64 71 99.5 -18.5t162.5 -815.5h9l260 789q73 72 144 72
q118 0 153 -252l226 -735l9 -9h36q92 0 314 1156q69 207 126 207zM726 1731h-9q-225 -185 -225 -108q0 70 82.5 154.5t225.5 184.5q70 -100 200 -300q-31 -108 -134 -19.5t-140 88.5z" />
    <glyph glyph-name="wcircumflex" unicode="&#x175;" horiz-adv-x="1600" 
d="M152 1307h27q72 0 72 -144v-63q-8 -202 91 -686h18l286 858q54 54 117 54q144 -40 144 -135l-9 -180q2 -247 164 -633l27 -45q59 0 234 585q110 322 169 360h54l54 -18q-109 -571 -349 -1098q-120 -148 -171 -162q-141 32 -162 180q-77 227 -179 673h-9
q-102 -332 -235 -673q-69 -180 -189 -180q-147 0 -198 675q-42 233 -64 398q-36 90 -36 144q47 90 144 90zM726 1569h-9q-225 -185 -225 -108q0 70 82.5 154.5t225.5 184.5q70 -100 200 -300q-31 -108 -134 -19.5t-140 88.5z" />
    <glyph glyph-name="Ycircumflex" unicode="&#x176;" horiz-adv-x="1233" 
d="M774 1600q133 0 243 -423q162 -380 162 -729q0 -592 -486 -1062q-167 -135 -369 -135q-243 36 -243 243v36q9 126 54 126h36q90 -18 90 -90l-9 -90q48 -63 117 -63h9q184 0 414 306q216 351 216 792q0 263 -198 675l-9 9h-9q-43 -3 -252 -603q-105 -180 -207 -180h-27
q-126 0 -252 333q-36 63 -54 675q0 153 117 153q63 0 63 -207q0 -312 45 -468q0 -171 99 -252q90 50 207 369q111 489 171 558zM526 1931h-9q-225 -185 -225 -108q0 70 82.5 154.5t225.5 184.5q70 -100 200 -300q-31 -108 -134 -19.5t-140 88.5z" />
    <glyph glyph-name="ycircumflex" unicode="&#x177;" horiz-adv-x="1500" 
d="M105 1300h18q77 0 75 -619q9 -189 65 -366h9q90 101 223 636q75 360 252 360q330 0 603 -900q63 104 219 104h9q63 0 63 -54q-145 -157 -246 -266q27 -292 62 -783t-298 -897q-88 -45 -126 -45q-185 0 -252 279q-45 103 -41 402t187 774l234 333l9 54q-22 225 -243 639
q-73 72 -117 72q-81 0 -243 -522q-167 -501 -358 -501q-180 0 -200 609l-9 387q28 304 105 304zM1024 -1278h18q234 147 230.5 612.5t-48.5 653.5h-18q-273 -388 -277 -790.5t95 -475.5zM526 1931h-9q-225 -185 -225 -108q0 70 82.5 154.5t225.5 184.5q70 -100 200 -300
q-31 -108 -134 -19.5t-140 88.5z" />
    <glyph glyph-name="Ydieresis" unicode="&#x178;" horiz-adv-x="1233" 
d="M774 1600q133 0 243 -423q162 -380 162 -729q0 -592 -486 -1062q-167 -135 -369 -135q-243 36 -243 243v36q9 126 54 126h36q90 -18 90 -90l-9 -90q48 -63 117 -63h9q184 0 414 306q216 351 216 792q0 263 -198 675l-9 9h-9q-43 -3 -252 -603q-105 -180 -207 -180h-27
q-126 0 -252 333q-36 63 -54 675q0 153 117 153q63 0 63 -207q0 -312 45 -468q0 -171 99 -252q90 50 207 369q111 489 171 558zM301.5 1969.5q31.5 -32.5 31.5 -78.5q0 -47 -31.5 -79.5t-76.5 -32.5q-44 0 -76 32.5t-32 79.5q0 46 32 78.5t76 32.5q45 0 76.5 -32.5z
M610.5 1995.5q31.5 -32.5 31.5 -78.5t-31.5 -79t-76.5 -33t-76.5 33t-31.5 79t31.5 78.5t76.5 32.5t76.5 -32.5z" />
    <glyph glyph-name="Zacute" unicode="&#x179;" horiz-adv-x="1700" 
d="M1161 1700q99 0 99 -180q0 -159 -180 -513l-9 -72q72 -28 72 -81l-207 -171q-153 -225 -288 -558h18q596 241 810 414l90 27q115 0 135 -162v-36q0 -90 -180 -90l-873 -396q-84 -27 -153 -27h-36q-153 32 -153 117v9q0 29 117 171l207 396q-198 0 -198 117v9q12 90 81 90
l171 -9q126 0 351 657l9 63v9h-9q-281 -88 -756 -333q-112 -54 -216 -54h-27q-36 19 -36 45q0 171 108 171q219 48 531 189q294 172 522 198zM869 1836q-63 -27 -170 -116q-142 -174 -240 -95q-91 88 -41 149q30 37 164 88q192 144 291 63l14 -11q19 -16 -18 -78z" />
    <glyph glyph-name="zacute" unicode="&#x17a;" 
d="M666 1316q234 -47 234 -180q-12 -156 -477 -848l-36 -36v-27l45 -9q177 0 760 216h54q90 -12 90 -81q0 -116 -382.5 -233.5t-566.5 -117.5h-54q-153 0 -153 135q0 163 486 956l-36 18q-130 0 -547 -315h-36q-42 20 -63 63v36q0 133 340 306q234 117 342 117zM869 1836
q-63 -27 -170 -116q-142 -174 -240 -95q-91 88 -41 149q30 37 164 88q192 144 291 63l14 -11q19 -16 -18 -78z" />
    <glyph glyph-name="Zdotaccent" unicode="&#x17b;" horiz-adv-x="1700" 
d="M1161 1700q99 0 99 -180q0 -159 -180 -513l-9 -72q72 -28 72 -81l-207 -171q-153 -225 -288 -558h18q596 241 810 414l90 27q115 0 135 -162v-36q0 -90 -180 -90l-873 -396q-84 -27 -153 -27h-36q-153 32 -153 117v9q0 29 117 171l207 396q-198 0 -198 117v9q12 90 81 90
l171 -9q126 0 351 657l9 63v9h-9q-281 -88 -756 -333q-112 -54 -216 -54h-27q-36 19 -36 45q0 171 108 171q219 48 531 189q294 172 522 198zM800 1809q0 -100 -174 -141q-189 9 -189 180q0 74 84 127t181.5 -6.5t97.5 -159.5z" />
    <glyph glyph-name="zdotaccent" unicode="&#x17c;" 
d="M666 1316q234 -47 234 -180q-12 -156 -477 -848l-36 -36v-27l45 -9q177 0 760 216h54q90 -12 90 -81q0 -116 -382.5 -233.5t-566.5 -117.5h-54q-153 0 -153 135q0 163 486 956l-36 18q-130 0 -547 -315h-36q-42 20 -63 63v36q0 133 340 306q234 117 342 117zM522 1500
q0 -100 -174 -141q-189 9 -189 180q0 74 84 127t181.5 -6.5t97.5 -159.5z" />
    <glyph glyph-name="Zcaron" unicode="&#x17d;" horiz-adv-x="1700" 
d="M1161 1700q99 0 99 -180q0 -159 -180 -513l-9 -72q72 -28 72 -81l-207 -171q-153 -225 -288 -558h18q596 241 810 414l90 27q115 0 135 -162v-36q0 -90 -180 -90l-873 -396q-84 -27 -153 -27h-36q-153 32 -153 117v9q0 29 117 171l207 396q-198 0 -198 117v9q12 90 81 90
l171 -9q126 0 351 657l9 63v9h-9q-281 -88 -756 -333q-112 -54 -216 -54h-27q-36 19 -36 45q0 171 108 171q219 48 531 189q294 172 522 198zM800 1900q-130 -200 -200 -300q-143 100 -225.5 184.5t-82.5 154.5q0 77 225 -108h9q37 0 140 88.5t134 -19.5z" />
    <glyph glyph-name="zcaron" unicode="&#x17e;" 
d="M666 1316q234 -47 234 -180q-12 -156 -477 -848l-36 -36v-27l45 -9q177 0 760 216h54q90 -12 90 -81q0 -116 -382.5 -233.5t-566.5 -117.5h-54q-153 0 -153 135q0 163 486 956l-36 18q-130 0 -547 -315h-36q-42 20 -63 63v36q0 133 340 306q234 117 342 117zM708 1738
q-130 -200 -200 -300q-143 100 -225.5 184.5t-82.5 154.5q0 77 225 -108h9q37 0 140 88.5t134 -19.5z" />
    </font>
</defs>
</svg>
