<?xml version="1.0" standalone="no"?>
<!DOCTYPE svg PUBLIC "-//W3C//DTD SVG 1.1//EN" "http://www.w3.org/Graphics/SVG/1.1/DTD/svg11.dtd" >
<svg>
<metadata>
Created by FontForge 20120731 at Wed Jun 29 21:57:59 2016
 By ,,,
Copyright (c) 2012 by Gobierno Federal - Mexico. All rights reserved.
</metadata>
<defs>
<font id="SoberanaSans-Light" horiz-adv-x="650" >
  <font-face 
    font-family="Soberana Sans Light"
    font-weight="300"
    font-stretch="normal"
    units-per-em="1000"
    panose-1="2 0 0 0 0 0 0 0 0 0"
    ascent="770"
    descent="-230"
    x-height="538"
    cap-height="750"
    bbox="-201 -230 1208 1021"
    underline-thickness="50"
    underline-position="-50"
    unicode-range="U+0020-FB02"
  />
<missing-glyph horiz-adv-x="750" 
d="M281 106h116q-18 36 -18 68q0 29 19 57t46.5 53t55 51.5t46.5 64t19 79.5q0 79 -56 127.5t-156 48.5q-97 0 -177 -46l36 -93q23 16 58 26t64 10q45 0 73 -23.5t28 -65.5q0 -28 -18 -55t-44.5 -49t-52.5 -45.5t-44 -56t-18 -69.5q0 -38 23 -82zM344 -113q33 0 54.5 18.5
t21.5 50.5t-21.5 51t-54.5 19q-34 0 -56 -19t-22 -51q0 -33 22 -51t56 -18zM650 770v-1000h-550v1000h550z" />
    <glyph glyph-name="f_i" unicode="fi" horiz-adv-x="541" 
d="M401 0v489h-221v-489h-60v489h-85v49h86v52q0 180 188 180q70 0 139 -20l-12 -49q-69 19 -131 19q-59 0 -92 -28.5t-33 -99.5v-54h281v-538h-60z" />
    <glyph glyph-name="f_l" unicode="fl" horiz-adv-x="560" 
d="M420 0v705q-54 15 -115 15q-59 0 -92 -28.5t-33 -99.5v-54h137v-49h-137v-489h-60v489h-85v49h86v52q0 180 188 180q92 0 171 -27v-743h-60z" />
    <glyph glyph-name=".notdef" horiz-adv-x="750" 
d="M281 106h116q-18 36 -18 68q0 29 19 57t46.5 53t55 51.5t46.5 64t19 79.5q0 79 -56 127.5t-156 48.5q-97 0 -177 -46l36 -93q23 16 58 26t64 10q45 0 73 -23.5t28 -65.5q0 -28 -18 -55t-44.5 -49t-52.5 -45.5t-44 -56t-18 -69.5q0 -38 23 -82zM344 -113q33 0 54.5 18.5
t21.5 50.5t-21.5 51t-54.5 19q-34 0 -56 -19t-22 -51q0 -33 22 -51t56 -18zM650 770v-1000h-550v1000h550z" />
    <glyph glyph-name=".null" horiz-adv-x="0" 
 />
    <glyph glyph-name="nonmarkingreturn" horiz-adv-x="333" 
 />
    <glyph glyph-name="space" unicode=" " horiz-adv-x="260" 
 />
    <glyph glyph-name="exclam" unicode="!" horiz-adv-x="308" 
d="M177 183h-42l-22 567l80 7zM154 -7q-18 0 -31 12.5t-13 30.5q0 19 13 31.5t31 12.5t31 -12.5t13 -31.5q0 -18 -13 -30.5t-31 -12.5z" />
    <glyph glyph-name="quotedbl" unicode="&#x22;" horiz-adv-x="379" 
d="M127 538h-37l-20 212l79 7zM287 538h-37l-20 212l79 7z" />
    <glyph glyph-name="numbersign" unicode="#" 
d="M432 637h48l-25 -202l145 1v-46l-151 1l-16 -131l147 1v-46l-153 1l-25 -206h-48l25 206h-137l-25 -206h-48l25 206l-144 -1v46l150 -1l16 131l-146 -1v46l152 -1l25 202h48l-25 -202h137zM264 391l-16 -131h137l16 131h-137z" />
    <glyph glyph-name="dollar" unicode="$" 
d="M228 -131l16 128q-80 11 -139 52l13 59q82 -58 184 -58q172 0 172 131q0 32 -15.5 58t-44.5 47t-58.5 37t-70 37.5t-65.5 38.5q-100 65 -100 160q0 79 58 123.5t155 44.5h11l17 129l56 -5l-18 -129q69 -12 122 -40l-21 -53q-78 43 -163 43q-150 0 -150 -114
q0 -46 36.5 -79t112.5 -71t106 -59q97 -67 97 -168q0 -96 -65.5 -142t-173.5 -46l-17 -129z" />
    <glyph glyph-name="percent" unicode="%" horiz-adv-x="869" 
d="M220 417q51 0 79 35.5t28 99.5t-29 99t-78 35q-55 0 -82 -37t-27 -97q0 -62 27 -98.5t82 -36.5zM219 376q-72 0 -115.5 46.5t-43.5 128.5q0 77 41.5 126.5t117.5 49.5q77 0 118 -48.5t41 -127.5q0 -83 -43.5 -129t-115.5 -46zM234 -7l-41 24l442 710l40 -23zM651 34
q51 0 79 35.5t28 99.5t-29 99t-78 35q-55 0 -82 -37t-27 -97q0 -62 27 -98.5t82 -36.5zM650 -7q-72 0 -115.5 46.5t-43.5 128.5q0 77 41.5 126.5t117.5 49.5q77 0 118 -48.5t41 -127.5q0 -83 -43.5 -129t-115.5 -46z" />
    <glyph glyph-name="ampersand" unicode="&#x26;" horiz-adv-x="760" 
d="M725 0q-23 -7 -38 -7q-50 0 -117 49q-35 26 -76 60q-100 -109 -225 -109q-108 0 -166 57t-58 135q0 134 153 229q-58 93 -58 165q0 78 50 128t138 50q93 0 170 -52l-24 -55q-68 51 -142 51q-59 0 -94.5 -29.5t-35.5 -91.5q0 -75 83 -183.5t202 -211.5q53 74 125 235h67
q-57 -139 -149 -271q62 -50 102 -75q49 -31 77 -31h16v-43zM268 49q106 0 184 88q-145 125 -224 233q-118 -71 -118 -186q0 -59 41 -97t117 -38z" />
    <glyph glyph-name="quotesingle" unicode="'" horiz-adv-x="219" 
d="M127 538h-37l-20 212l79 7z" />
    <glyph glyph-name="parenleft" unicode="(" horiz-adv-x="426" 
d="M346 -102q-125 52 -200.5 167.5t-75.5 269.5t75.5 269.5t200.5 167.5v-61q-208 -117 -208 -376t208 -376v-61z" />
    <glyph glyph-name="parenright" unicode=")" horiz-adv-x="426" 
d="M288 335q0 259 -208 376v61q125 -52 200.5 -167.5t75.5 -269.5t-75.5 -269.5t-200.5 -167.5v61q208 117 208 376z" />
    <glyph glyph-name="asterisk" unicode="*" horiz-adv-x="435" 
d="M243 397h-51l11 142l-116 -83l-27 47l130 59l-130 59l27 47l116 -83l-11 142h51l-11 -142l116 83l27 -47l-130 -59l130 -59l-27 -47l-116 83z" />
    <glyph glyph-name="plus" unicode="+" 
d="M351 68h-52v234h-219v48h219v235h52v-235h219v-48h-219v-234z" />
    <glyph glyph-name="comma" unicode="," horiz-adv-x="230" 
d="M83 -118l-33 11q61 46 61 97q0 47 -55 93l58 18q56 -39 56 -92q0 -72 -87 -127z" />
    <glyph glyph-name="hyphen" unicode="-" horiz-adv-x="380" 
d="M30 236v49l320 20v-49z" />
    <glyph glyph-name="period" unicode="." horiz-adv-x="230" 
d="M69 38q0 19 13.5 32.5t32.5 13.5t32.5 -13.5t13.5 -32.5t-13.5 -32t-32.5 -13t-32.5 13t-13.5 32z" />
    <glyph glyph-name="slash" unicode="/" horiz-adv-x="555" 
d="M505 767l-407 -807l-48 23l407 807z" />
    <glyph glyph-name="zero" unicode="0" 
d="M325 49q92 0 139.5 82t47.5 228q0 148 -48.5 230t-138.5 82q-93 0 -140 -85.5t-47 -226.5t47 -225.5t140 -84.5zM325 -7q-118 0 -186.5 96t-68.5 270q0 164 66.5 266t188.5 102q123 0 189 -100t66 -268q0 -176 -68 -271t-187 -95z" />
    <glyph glyph-name="one" unicode="1" 
d="M153 0v55h160v588l-160 -12v41q110 15 204 48h18v-665h145v-55h-367z" />
    <glyph glyph-name="two" unicode="2" 
d="M114 0l-6 37q185 181 263.5 288t78.5 206q0 66 -38 102.5t-100 36.5q-89 0 -172 -65l-20 53q91 69 192 69q94 0 149.5 -52t55.5 -146q0 -47 -21 -101t-48 -97.5t-74.5 -99.5t-79 -89t-82.5 -83v-4h330v-55h-428z" />
    <glyph glyph-name="three" unicode="3" 
d="M530 210q0 -104 -62.5 -160.5t-158.5 -56.5q-106 0 -204 66l20 58q87 -67 184 -67q72 0 113.5 41.5t41.5 117.5q0 154 -218 154v43q191 49 191 161q0 52 -32.5 77.5t-84.5 25.5q-47 0 -95.5 -20t-79.5 -53l-21 54q82 76 198 76q77 0 129 -40.5t52 -118.5
q0 -60 -34.5 -102.5t-91.5 -64.5v-4q153 -40 153 -187z" />
    <glyph glyph-name="four" unicode="4" 
d="M443 720l29 -10v-459h93l-7 -55h-86v-196h-62v196h-342v49q241 310 375 475zM405 589q-149 -182 -261 -332l1 -6h265v335z" />
    <glyph glyph-name="five" unicode="5" 
d="M304 -7q-109 0 -199 65l20 58q84 -67 183 -67q73 0 114.5 38t41.5 114q0 42 -13.5 72.5t-48 56t-98.5 42t-160 24.5q25 173 37 324h326v-55h-272q-10 -118 -24 -215q60 -7 105.5 -18t87 -30t68.5 -45.5t42.5 -66t15.5 -90.5q0 -91 -59.5 -149t-166.5 -58z" />
    <glyph glyph-name="six" unicode="6" 
d="M489 672q-126 -36 -203 -112.5t-104 -174.5l5 -1q76 50 154 50q103 0 153.5 -59.5t50.5 -159.5q0 -109 -65 -165.5t-152 -56.5q-112 0 -167.5 83t-55.5 202q0 67 21 133.5t63.5 129.5t115.5 112.5t168 72.5zM335 376q-82 0 -166 -62q-1 -12 -1 -34q0 -101 40 -166
t119 -65q71 0 112 44.5t41 120.5q0 78 -38 120t-107 42z" />
    <glyph glyph-name="seven" unicode="7" 
d="M233 0h-71l318 663h-372v57h431l14 -23z" />
    <glyph glyph-name="eight" unicode="8" 
d="M325 -7q-108 0 -160.5 56t-52.5 135q0 66 40.5 117t107.5 81q-60 34 -94 73.5t-34 99.5q0 77 52 124.5t141 47.5t141 -47.5t52 -124.5q0 -60 -34 -99.5t-94 -73.5q67 -30 107.5 -81t40.5 -117q0 -79 -52.5 -135t-160.5 -56zM325 413q71 35 99.5 67.5t28.5 72.5
q0 58 -35 87.5t-93 29.5t-93 -29.5t-35 -87.5q0 -40 28.5 -72.5t99.5 -67.5zM325 50q70 0 109.5 37t39.5 96q0 58 -36 97t-113 73q-77 -34 -113 -73t-36 -97q0 -59 39.5 -96t109.5 -37z" />
    <glyph glyph-name="nine" unicode="9" 
d="M168 47q239 92 300 298l-3 2q-70 -54 -172 -54q-99 0 -146 60.5t-47 147.5q0 106 66 166t151 60q77 0 129 -42t73 -103.5t21 -137.5q0 -68 -18.5 -131.5t-58.5 -125t-111.5 -112t-168.5 -81.5zM304 352q89 0 171 62q2 18 2 28q0 103 -42 165.5t-117 62.5
q-72 0 -112.5 -48t-40.5 -119q0 -151 139 -151z" />
    <glyph glyph-name="colon" unicode=":" horiz-adv-x="230" 
d="M69 38q0 19 13.5 32.5t32.5 13.5t32.5 -13.5t13.5 -32.5t-13.5 -32t-32.5 -13t-32.5 13t-13.5 32zM69 348q0 19 13.5 32.5t32.5 13.5t32.5 -13.5t13.5 -32.5t-13.5 -32t-32.5 -13t-32.5 13t-13.5 32z" />
    <glyph glyph-name="semicolon" unicode=";" horiz-adv-x="230" 
d="M115 303q-19 0 -32.5 13t-13.5 32t13.5 32.5t32.5 13.5t32.5 -13.5t13.5 -32.5t-13.5 -32t-32.5 -13zM83 -118l-33 11q61 46 61 97q0 47 -55 93l58 18q56 -39 56 -92q0 -72 -87 -127z" />
    <glyph glyph-name="less" unicode="&#x3c;" 
d="M95 304v45l450 215v-53l-393 -185l393 -183v-54z" />
    <glyph glyph-name="equal" unicode="=" 
d="M570 382h-490v48h490v-48zM570 222h-490v48h490v-48z" />
    <glyph glyph-name="greater" unicode="&#x3e;" 
d="M555 349v-45l-450 -215v54l393 183l-393 185v53z" />
    <glyph glyph-name="question" unicode="?" horiz-adv-x="456" 
d="M209 183h-50q-24 42 -24 81q0 42 20 78t48.5 63t57.5 53.5t49 59.5t20 69q0 56 -36.5 88t-93.5 32q-71 0 -118 -34l-22 47q66 37 139 37q89 0 138 -48.5t49 -118.5q0 -46 -20.5 -85t-49.5 -67t-58 -54t-49.5 -58t-20.5 -68q0 -35 21 -75zM191 -7q-18 0 -31 12.5t-13 30.5
q0 19 13 31.5t31 12.5t31 -12.5t13 -31.5q0 -18 -13 -30.5t-31 -12.5z" />
    <glyph glyph-name="at" unicode="@" horiz-adv-x="840" 
d="M404 -113q-69 0 -130 21.5t-109.5 62.5t-76.5 108.5t-28 153.5q0 183 105.5 300t292.5 118q61 0 117.5 -18t103 -53t74 -92t27.5 -128q0 -113 -67 -197t-165 -84q-62 0 -69 60l-4 1q-16 -20 -48 -37.5t-65 -17.5q-61 0 -89.5 43.5t-28.5 108.5q0 101 52.5 168.5
t145.5 67.5q48 0 90 -29l16 22h23q-45 -263 -45 -299q0 -40 33 -40q68 0 119.5 66t51.5 167q0 117 -79 181.5t-197 64.5q-157 -1 -251 -102.5t-94 -267.5q0 -148 84 -226t214 -78q134 0 257 85l26 -34q-128 -96 -286 -96zM363 133q57 0 116 63l36 206q-31 26 -75 26
q-68 0 -105.5 -56t-37.5 -134q0 -105 66 -105z" />
    <glyph glyph-name="A" unicode="A" horiz-adv-x="697" 
d="M108 0h-68q46 127 149 395.5t140 354.5h38q35 -90 162 -418t128 -332h-67q-64 166 -96 252h-298q-47 -128 -88 -252zM347 644h-5q-79 -210 -126 -337h258z" />
    <glyph glyph-name="B" unicode="B" horiz-adv-x="568" 
d="M85 0v750h155q226 0 226 -184q0 -109 -110 -156v-5q162 -33 162 -191q0 -95 -61.5 -154.5t-174.5 -59.5h-197zM148 55h134q81 0 124.5 44t43.5 115q0 156 -209 156h-93v-315zM148 425h81q72 0 120.5 39t48.5 102t-39.5 96t-113.5 33h-97v-270z" />
    <glyph glyph-name="C" unicode="C" horiz-adv-x="687" 
d="M625 100l7 -55q-95 -52 -212 -52q-72 0 -136 22.5t-116 66.5t-82.5 117.5t-30.5 167.5q0 183 102 286.5t259 103.5q52 0 112.5 -16t94.5 -40l-11 -58q-40 25 -94 41.5t-101 16.5q-131 0 -212.5 -86.5t-81.5 -247.5q0 -156 85.5 -236t215.5 -80q105 0 201 49z" />
    <glyph glyph-name="D" unicode="D" horiz-adv-x="740" 
d="M85 0v750h214q103 0 178 -28t118.5 -80t64 -117.5t20.5 -148.5q0 -77 -19.5 -142t-61 -119t-113.5 -84.5t-169 -30.5h-232zM148 695v-640h162q80 0 140 26.5t94.5 72.5t51 101.5t16.5 120.5q0 152 -78 235.5t-233 83.5h-153z" />
    <glyph glyph-name="E" unicode="E" horiz-adv-x="510" 
d="M85 0v750h357v-55h-294v-288h228l-8 -56h-220v-296h302v-55h-365z" />
    <glyph glyph-name="F" unicode="F" horiz-adv-x="479" 
d="M85 0v750h354v-55h-291v-287h234l-7 -57h-227v-351h-63z" />
    <glyph glyph-name="G" unicode="G" horiz-adv-x="753" 
d="M678 353v-301q-43 -28 -112.5 -43.5t-127.5 -15.5q-168 0 -273 101t-105 274q0 187 103.5 288t273.5 101q59 0 122.5 -16t100.5 -40l-13 -58q-42 25 -98.5 41.5t-109.5 16.5q-142 0 -227 -84.5t-85 -246.5q0 -153 88 -236.5t224 -83.5q97 0 177 34v218h-110v51h172z" />
    <glyph glyph-name="H" unicode="H" horiz-adv-x="742" 
d="M85 0v750h63v-326h447v326h62v-750h-62v368h-447v-368h-63z" />
    <glyph glyph-name="I" unicode="I" horiz-adv-x="232" 
d="M85 0v750h62v-750h-62z" />
    <glyph glyph-name="J" unicode="J" horiz-adv-x="404" 
d="M162 697v53h162v-554q0 -95 -52.5 -149.5t-139.5 -54.5q-41 0 -77 8l-5 53q33 -8 74 -8q137 0 137 161v491h-99z" />
    <glyph glyph-name="K" unicode="K" horiz-adv-x="628" 
d="M598 41v-41q-24 -7 -43 -7q-41 0 -72 31q-27 27 -105.5 143t-124.5 203h-105v-370h-63v750h63v-324h110q94 123 224 324h71q-135 -204 -246 -351q114 -202 215 -321q31 -37 76 -37z" />
    <glyph glyph-name="L" unicode="L" horiz-adv-x="496" 
d="M85 0v750h63v-695h298v-55h-361z" />
    <glyph glyph-name="M" unicode="M" horiz-adv-x="893" 
d="M773 750l45 -750h-62l-35 633h-4q-96 -242 -254 -573l-37 -6q-163 385 -262 581h-4l-22 -635h-63l31 750h68q58 -107 124 -250t102 -228t47 -114h4q141 306 249 592h73z" />
    <glyph glyph-name="N" unicode="N" horiz-adv-x="769" 
d="M684 1l-31 -8q-64 94 -236.5 315.5t-265.5 329.5h-5v-638h-61v750h51q91 -105 244.5 -297.5t237.5 -308.5h4v606h62v-749z" />
    <glyph glyph-name="O" unicode="O" horiz-adv-x="796" 
d="M398 -7q-85 0 -151 31.5t-106 86t-60.5 122.5t-20.5 146q0 102 35 185.5t113.5 138t189.5 54.5q84 0 150.5 -31.5t106.5 -85t60.5 -120t20.5 -140.5q0 -80 -20.5 -148.5t-60.5 -122.5t-106 -85t-151 -31zM395 50q131 0 202 87t71 245q0 145 -71 232t-202 87
q-128 0 -197.5 -89.5t-69.5 -232.5q0 -148 69 -238.5t198 -90.5z" />
    <glyph glyph-name="P" unicode="P" horiz-adv-x="542" 
d="M220 312q-35 0 -72 5v-317h-63v750h180q112 0 172 -55.5t60 -152.5q0 -106 -66 -168t-211 -62zM148 695v-323q27 -4 68 -4q110 0 164 38t54 136q0 153 -183 153h-103z" />
    <glyph glyph-name="Q" unicode="Q" horiz-adv-x="796" 
d="M671 -155q-73 0 -163 46t-159 105q-142 17 -215.5 124.5t-73.5 258.5q0 102 35 185.5t113.5 138t189.5 54.5q84 0 150.5 -31.5t106.5 -85t60.5 -120t20.5 -140.5q0 -155 -74.5 -262t-218.5 -122q134 -100 257 -100q9 0 48 3v-44q-38 -10 -77 -10zM395 50q131 0 202 87
t71 245q0 145 -71 232t-202 87q-128 0 -197.5 -89.5t-69.5 -232.5q0 -148 69 -238.5t198 -90.5z" />
    <glyph glyph-name="R" unicode="R" horiz-adv-x="611" 
d="M586 41v-41q-24 -7 -42 -7q-45 0 -73 32q-25 27 -84 123.5t-100 180.5h-139v-329h-63v750h173q112 0 171 -52t59 -152q0 -73 -32 -120t-106 -77q81 -163 164 -271q17 -23 30 -30t32 -7h10zM148 695v-312h79q196 0 196 163q0 149 -179 149h-96z" />
    <glyph glyph-name="S" unicode="S" horiz-adv-x="554" 
d="M251 -7q-116 0 -196 58l12 59q82 -61 185 -61q172 0 172 139q0 33 -15.5 60.5t-44.5 49.5t-58.5 38.5t-70 38.5t-65.5 40q-100 68 -100 167q0 82 58 128.5t155 46.5q103 0 188 -47l-20 -52q-77 44 -164 44q-70 0 -110 -30t-40 -91q0 -32 16 -58t45 -47t58.5 -37.5
t69.5 -38t66 -40.5q97 -71 97 -172q0 -100 -65.5 -147.5t-172.5 -47.5z" />
    <glyph glyph-name="T" unicode="T" horiz-adv-x="675" 
d="M306 0v695h-256v55h575v-55h-256v-695h-63z" />
    <glyph glyph-name="U" unicode="U" horiz-adv-x="726" 
d="M364 -7q-75 0 -139 32.5t-107 103.5t-43 168v453h63v-455q0 -115 67 -180t159 -65q91 0 157.5 65t66.5 180v455h63v-457q0 -72 -24.5 -130.5t-65.5 -95t-91.5 -55.5t-105.5 -19z" />
    <glyph glyph-name="V" unicode="V" horiz-adv-x="648" 
d="M339 0h-40q-42 105 -130.5 357.5t-133.5 392.5h68q121 -381 216 -644h5q103 271 223 644h66q-237 -665 -274 -750z" />
    <glyph glyph-name="W" unicode="W" horiz-adv-x="1036" 
d="M699 0q-25 64 -53.5 145t-68.5 202.5t-54 162.5h-4q-132 -380 -188 -510h-38q-44 112 -258 750h66q123 -387 212 -644h5q110 302 172 499l-18 52q-7 18 -11 25.5t-16 15.5t-32 8v42q22 2 41 2q32 0 46.5 -14t31.5 -59q30 -83 184 -571h5q36 98 77.5 226t83 262.5
t48.5 155.5h66q-36 -120 -128.5 -391.5t-130.5 -358.5h-38z" />
    <glyph glyph-name="X" unicode="X" horiz-adv-x="671" 
d="M35 0q175 266 261 391q-116 192 -160 261q-18 28 -33.5 40.5t-40.5 12.5v42q12 3 26 3q32 0 54.5 -16t48.5 -57q11 -18 72 -122.5t70 -118.5h5q52 77 195 314h67q-162 -263 -234 -364q145 -236 199 -308q16 -22 29.5 -29.5t41.5 -7.5v-41q-21 -7 -40 -7q-36 0 -64 32
q-8 9 -24 32t-38.5 58.5t-43.5 68.5t-50.5 80t-47.5 75h-4q-117 -173 -220 -339h-69z" />
    <glyph glyph-name="Y" unicode="Y" horiz-adv-x="602" 
d="M273 0v356q-56 100 -177 299q-11 19 -18 27.5t-19.5 15.5t-28.5 7v42q9 3 21 3q33 0 55 -15t47 -58q57 -96 152 -267h4q65 101 191 340h67q-97 -181 -234 -398v-352h-60z" />
    <glyph glyph-name="Z" unicode="Z" horiz-adv-x="641" 
d="M586 55v-55h-536v23q201 323 431 668l-1 4h-404v55h493l10 -21q-164 -239 -438 -670l1 -4h444z" />
    <glyph glyph-name="bracketleft" unicode="[" horiz-adv-x="408" 
d="M318 713h-136v-757h136v-55h-198v867h198v-55z" />
    <glyph glyph-name="backslash" unicode="\" horiz-adv-x="555" 
d="M457 -40l-407 807l48 23l407 -807z" />
    <glyph glyph-name="bracketright" unicode="]" horiz-adv-x="408" 
d="M226 713h-136v55h198v-867h-198v55h136v757z" />
    <glyph glyph-name="asciicircum" unicode="^" 
d="M298 720h54l201 -434h-54l-174 378l-174 -378h-54z" />
    <glyph glyph-name="underscore" unicode="_" 
d="M-10 -200v50h670v-50h-670z" />
    <glyph glyph-name="grave" unicode="`" horiz-adv-x="400" 
d="M292 631l-29 -16l-155 176l65 33z" />
    <glyph glyph-name="a" unicode="a" horiz-adv-x="542" 
d="M509 45l3 -35q-26 -17 -59 -17q-61 0 -69 70l-4 2q-50 -39 -84.5 -55.5t-80.5 -16.5q-69 0 -114.5 44t-45.5 113q0 54 29.5 81t94.5 44q29 7 101.5 24t102.5 25v45q0 64 -29 94.5t-97 30.5q-72 0 -161 -49l-16 47q92 53 178 53q90 0 137.5 -40t47.5 -141v-278
q0 -14 1 -21.5t8 -14.5t21 -7q16 0 36 2zM116 150q0 -47 29.5 -75.5t73.5 -28.5q82 0 164 82v147q-93 -17 -189 -44q-39 -11 -58.5 -27t-19.5 -54z" />
    <glyph glyph-name="b" unicode="b" horiz-adv-x="563" 
d="M80 0v770h60v-181l-2 -118l5 -1q25 23 41 35.5t49 26t69 13.5q100 0 153 -77t53 -190q0 -137 -61.5 -211t-177.5 -74q-76 0 -153 31l-12 -24h-24zM305 492q-93 0 -165 -86v-336q64 -29 127 -29q94 0 137 64.5t43 169.5q0 98 -40 157.5t-102 59.5z" />
    <glyph glyph-name="c" unicode="c" horiz-adv-x="501" 
d="M296 -7q-109 0 -172.5 67.5t-63.5 199.5q0 285 233 285q81 0 151 -31l-12 -54q-68 32 -138 32q-91 0 -132 -59t-41 -173q0 -104 45.5 -159.5t134.5 -55.5q70 0 148 28l7 -46q-76 -34 -160 -34z" />
    <glyph glyph-name="d" unicode="d" horiz-adv-x="562" 
d="M261 -7q-100 0 -153 77t-53 190q0 137 61.5 211t177.5 74q69 0 128 -21v246h60v-770h-40l-14 69l-5 1q-25 -23 -42 -36t-50.5 -27t-69.5 -14zM258 46q92 0 164 86v336q-64 29 -126 29q-94 0 -137 -64.5t-43 -169.5q0 -98 40 -157.5t102 -59.5z" />
    <glyph glyph-name="e" unicode="e" horiz-adv-x="544" 
d="M469 75l7 -48q-68 -34 -159 -34q-115 0 -186 67t-71 201q0 140 63 212t168 72q198 0 198 -222q0 -22 -1 -36h-367v-27q0 -114 57.5 -164.5t144.5 -50.5q77 0 146 30zM125 336h305q0 160 -137 160q-66 0 -111.5 -39t-56.5 -121z" />
    <glyph glyph-name="f" unicode="f" horiz-adv-x="368" 
d="M35 489v49h86v52q0 102 38.5 141t112.5 39q62 0 106 -20l-12 -49q-46 18 -94 18q-46 0 -69 -28t-23 -98v-55h151l-7 -49h-144v-489h-60v489h-85z" />
    <glyph glyph-name="g" unicode="g" horiz-adv-x="562" 
d="M72 373q1 76 50.5 124t137.5 48q93 0 142 -49h6q3 27 14 40.5t42 13.5q35 0 63 -12l-4 -42q-21 2 -43 2q-27 0 -34 -14t-9 -51q11 -30 11 -59q0 -76 -58 -121.5t-147 -45.5h-10q-40 -14 -73 -37t-33 -53q0 -21 18 -30.5t40 -9.5h176q166 0 166 -136q0 -60 -43.5 -100.5
t-101.5 -55.5t-125 -15q-33 0 -67 6t-69.5 20t-58 43t-22.5 69q0 77 87 128v4q-56 20 -56 70q0 40 31 69.5t74 45.5l-1 4q-103 34 -103 144zM364 28h-149q-37 -8 -76 -37.5t-39 -76.5q0 -93 170 -93q47 0 88 9t75.5 38t34.5 75q0 85 -104 85zM129 373q0 -49 32.5 -82
t92.5 -33q63 0 99 29.5t36 86.5q0 58 -34 90.5t-95 32.5q-64 0 -97 -32.5t-34 -91.5z" />
    <glyph glyph-name="h" unicode="h" horiz-adv-x="553" 
d="M80 0v770h60v-179l-3 -122l5 -1q42 44 83 60.5t90 16.5q84 0 126 -54.5t42 -146.5v-344h-60v336q0 156 -116 156q-48 0 -92.5 -23.5t-74.5 -62.5v-406h-60z" />
    <glyph glyph-name="i" unicode="i" horiz-adv-x="220" 
d="M80 0v538h60v-538h-60zM64 711q0 19 13 32.5t33 13.5t33 -13t13 -33t-13.5 -33.5t-32.5 -13.5q-21 0 -33.5 13.5t-12.5 33.5z" />
    <glyph glyph-name="j" unicode="j" horiz-adv-x="260" 
d="M45 491v47h135v-587q0 -94 -24 -137.5t-104 -43.5q-22 0 -42 4l-5 53q24 -6 46 -6q43 0 56 28t13 95v547h-75zM88 711q0 19 13 32.5t33 13.5t33 -13t13 -33t-13.5 -33.5t-32.5 -13.5q-21 0 -33.5 13.5t-12.5 33.5z" />
    <glyph glyph-name="k" unicode="k" horiz-adv-x="540" 
d="M80 0v770h60v-432h90q84 95 168 200h70q-82 -105 -185 -218q25 -50 70.5 -130.5t76.5 -117.5q29 -34 57 -34h13v-38q-21 -7 -41 -7q-26 0 -45.5 14.5t-40.5 44.5q-14 18 -62 101.5t-74 133.5h-97v-287h-60z" />
    <glyph glyph-name="l" unicode="l" horiz-adv-x="220" 
d="M80 0v770h60v-770h-60z" />
    <glyph glyph-name="m" unicode="m" horiz-adv-x="888" 
d="M80 0v538h43l11 -69l6 -1q48 42 87 59.5t88 17.5q94 0 140 -81h5q94 81 187 81q171 0 171 -201v-344h-60v341q0 151 -113 151q-45 0 -90 -21.5t-75 -56.5v-414h-60v341q0 151 -113 151q-44 0 -90.5 -24.5t-76.5 -61.5v-406h-60z" />
    <glyph glyph-name="n" unicode="n" horiz-adv-x="553" 
d="M80 0v538h43l12 -68l6 -1q45 39 85 57.5t89 18.5q81 0 124.5 -54t43.5 -144v-347h-60v339q0 153 -116 153q-89 0 -167 -84v-408h-60z" />
    <glyph glyph-name="o" unicode="o" horiz-adv-x="584" 
d="M292 44q171 0 171 225t-170 225q-172 0 -172 -227q0 -111 45 -167t126 -56zM291 -7q-106 0 -168.5 68.5t-62.5 204.5q0 134 60.5 206.5t172.5 72.5q113 0 172 -71.5t59 -204.5q0 -141 -62 -208.5t-171 -67.5z" />
    <glyph glyph-name="p" unicode="p" horiz-adv-x="563" 
d="M302 545q100 0 153 -77t53 -190q0 -137 -61.5 -211t-177.5 -74q-66 0 -129 22v-245h-60v768h41l13 -69l5 -1q23 22 41 36t52 27.5t70 13.5zM305 492q-93 0 -165 -86v-336q64 -29 127 -29q94 0 137 64.5t43 169.5q0 98 -40 157.5t-102 59.5z" />
    <glyph glyph-name="q" unicode="q" horiz-adv-x="562" 
d="M482 -229h-59v182l2 113l-5 1q-24 -22 -41 -35t-49.5 -26t-68.5 -13q-100 0 -153 77t-53 190q0 137 61.5 211t177.5 74q76 0 152 -34l11 27h25v-767zM258 46q92 0 164 86v334q-62 31 -126 31q-94 0 -137 -64.5t-43 -169.5q0 -98 40 -157.5t102 -59.5z" />
    <glyph glyph-name="r" unicode="r" horiz-adv-x="357" 
d="M140 0h-60v538h43l13 -69h6q76 76 135 76q31 0 55 -32l-13 -41q-28 12 -50 12q-49 0 -129 -75v-409z" />
    <glyph glyph-name="s" unicode="s" horiz-adv-x="469" 
d="M414 147q0 -76 -52.5 -115t-142.5 -39t-164 40l9 48q28 -16 71.5 -27.5t80.5 -11.5q137 0 137 103q0 36 -30 59.5t-72.5 38t-84.5 31t-72 47.5t-30 77q0 66 46 106.5t135 40.5q82 0 149 -30l-12 -51q-64 31 -140 31q-55 0 -87 -24t-32 -70q0 -33 30 -55.5t72.5 -37
t85.5 -31.5t73 -49.5t30 -80.5z" />
    <glyph glyph-name="t" unicode="t" horiz-adv-x="404" 
d="M30 489v49h86l14 120h45v-120h168l-7 -49h-161v-361q0 -83 75 -83q46 0 107 25l7 -47q-59 -30 -120 -30q-70 0 -99 35t-29 102v359h-86z" />
    <glyph glyph-name="u" unicode="u" horiz-adv-x="557" 
d="M477 538v-538h-40l-15 64l-7 2q-85 -73 -168 -73q-82 0 -129.5 56.5t-47.5 138.5v350h60v-337q0 -70 33.5 -112.5t91.5 -42.5q40 0 85 24.5t77 56.5v411h60z" />
    <glyph glyph-name="v" unicode="v" horiz-adv-x="502" 
d="M266 0h-29q-39 95 -107 275.5t-95 262.5h63q60 -193 152 -434h4q96 253 150 434h63q-29 -84 -101.5 -279.5t-99.5 -258.5z" />
    <glyph glyph-name="w" unicode="w" horiz-adv-x="766" 
d="M545 0h-31q-68 202 -122 373h-5q-56 -158 -144 -373h-29q-33 87 -96.5 278t-82.5 260h58q44 -163 138 -439h4q99 260 126 353q-10 28 -19 37t-25 10v39q12 1 28 1q31 0 43 -13t27 -57q97 -299 116 -364h4q81 235 136 433h60q-34 -113 -98.5 -296t-87.5 -242z" />
    <glyph glyph-name="x" unicode="x" horiz-adv-x="557" 
d="M487 538q-94 -150 -173 -253q77 -120 137 -204q16 -23 29 -32.5t37 -10.5v-38q-14 -4 -34 -4q-28 0 -45 13.5t-49 57.5q-16 21 -31.5 44.5t-24 37.5t-28.5 46t-27 44h-4q-52 -71 -159 -239h-70q76 116 197 285q-81 127 -114 172q-31 42 -61 42v39q16 1 26 1
q29 0 45.5 -12t47.5 -56q29 -41 94 -142h4q56 73 136 209h67z" />
    <glyph glyph-name="y" unicode="y" horiz-adv-x="537" 
d="M216 -230h-65q46 103 98 230h-12q-10 28 -52 152t-69.5 201.5t-40.5 107.5q0 1 -4 9.5t-5 9.5t-5 7t-7.5 7t-9.5 3t-14 2v39q2 0 13 0.5t18 0.5q32 0 46 -14t30 -55q7 -19 27.5 -80.5l53.5 -160.5l54 -162h3q114 312 166 471h61q-23 -76 -126 -350.5t-160 -417.5z" />
    <glyph glyph-name="z" unicode="z" horiz-adv-x="507" 
d="M452 52v-52h-397v23q175 265 306 460l-1 4h-293v51h373l10 -20q-197 -286 -308 -462l1 -4h309z" />
    <glyph glyph-name="braceleft" unicode="{" horiz-adv-x="452" 
d="M164 32v152q0 62 -21 87.5t-83 36.5v54q62 11 83 36.5t21 87.5v151q0 77 34 104t117 27h47v-55h-43q-51 0 -72 -14.5t-21 -66.5v-152q0 -61 -23.5 -94t-81.5 -50v-2q58 -17 81.5 -50t23.5 -94v-153q0 -52 21 -66.5t72 -14.5h43v-55h-47q-83 0 -117 27t-34 104z" />
    <glyph glyph-name="bar" unicode="|" horiz-adv-x="340" 
d="M198 -150h-56v1050h56v-1050z" />
    <glyph glyph-name="braceright" unicode="}" horiz-adv-x="452" 
d="M288 184v-152q0 -77 -34 -104t-117 -27h-47v55h43q51 0 72 14.5t21 66.5v153q0 61 23.5 94t81.5 50v2q-58 17 -81.5 50t-23.5 94v152q0 52 -21 66.5t-72 14.5h-43v55h47q83 0 117 -27t34 -104v-151q0 -62 21 -87.5t83 -36.5v-54q-62 -11 -83 -36.5t-21 -87.5z" />
    <glyph glyph-name="asciitilde" unicode="~" 
d="M555 390q0 -57 -31.5 -85.5t-79.5 -28.5q-44 0 -124 32t-113 32q-65 0 -66 -64h-46q0 57 31.5 85.5t79.5 28.5q44 0 124 -32t113 -32q65 0 66 64h46z" />
    <glyph glyph-name="uni00A0" unicode="&#xa0;" horiz-adv-x="260" 
 />
    <glyph glyph-name="exclamdown" unicode="&#xa1;" horiz-adv-x="308" 
d="M115 -196l16 574h42l22 -567zM110 525q0 18 13 30.5t31 12.5t31 -12.5t13 -30.5q0 -19 -13 -31.5t-31 -12.5t-31 12.5t-13 31.5z" />
    <glyph glyph-name="cent" unicode="&#xa2;" 
d="M280 -67l17 134q-79 24 -128 98.5t-49 194.5q0 139 62 232t185 93h9l17 129l54 -5l-17 -131q64 -11 108 -32l-10 -56q-29 15 -76 27t-84 12q-90 0 -138.5 -69t-48.5 -200q0 -120 54 -183t142 -63q77 0 157 36l7 -51q-80 -42 -173 -42h-17l-16 -129z" />
    <glyph glyph-name="sterling" unicode="&#xa3;" 
d="M495 293v-49h-190q1 -12 1 -36q0 -45 -13 -89t-42 -66h309v-53h-431v31q121 28 121 160q0 26 -3 53h-103v49h98l-13 87h-85v49h80q-3 35 -3 71q0 110 56 168.5t158 58.5q63 0 105 -20l-12 -45q-47 15 -97 15q-76 0 -114 -46t-38 -128q0 -38 3 -74h213v-49h-207l12 -87
h195z" />
    <glyph glyph-name="currency" unicode="&#xa4;" 
d="M325 115q-90 0 -147 45l-82 -80l-38 35l84 82q-47 62 -47 152q0 91 47 154l-84 82l38 35l82 -81q62 46 147 46q88 0 147 -46l82 81l38 -35l-85 -82q48 -62 48 -152q0 -93 -47 -154l84 -82l-38 -35l-83 81q-58 -46 -146 -46zM325 165q84 0 128 53t44 134q0 80 -45.5 132
t-126.5 52q-84 0 -128 -53t-44 -134q0 -80 45.5 -132t126.5 -52z" />
    <glyph glyph-name="yen" unicode="&#xa5;" 
d="M294 0v150h-172v49h172v87h-172v49h149q-130 226 -173 297q-31 50 -56 50v42q9 3 21 3q25 0 45.5 -15.5t46.5 -57.5q8 -13 41 -71.5t72.5 -130t55.5 -98.5h4q136 252 193 366h70q-99 -188 -216 -385h158v-49h-177v-87h177v-49h-177v-150h-62z" />
    <glyph glyph-name="brokenbar" unicode="&#xa6;" horiz-adv-x="340" 
d="M198 520h-56v380h56v-380zM198 -150h-56v380h56v-380z" />
    <glyph glyph-name="section" unicode="&#xa7;" horiz-adv-x="538" 
d="M226 -157q-33 0 -79.5 10t-71.5 21l12 51q74 -31 140 -31q52 0 85.5 25.5t33.5 76.5q0 41 -30 73.5t-73 56t-85.5 48.5t-72.5 64t-30 89q0 119 133 151q-60 53 -60 122q0 75 50.5 116t128.5 41q33 0 79.5 -10t71.5 -21l-12 -51q-74 31 -140 31q-52 0 -85.5 -25.5
t-33.5 -76.5q0 -41 30 -73.5t72.5 -56t85.5 -48.5t73 -64t30 -89q0 -121 -134 -151q61 -53 61 -122q0 -75 -50.5 -116t-128.5 -41zM418 271q0 23 -9 42.5t-30 37.5t-36.5 29t-49.5 30.5t-47 27.5q-131 -19 -131 -109q0 -20 8 -37.5t18 -30.5t30.5 -28t34 -23.5t41.5 -24
t40 -23.5q131 17 131 109z" />
    <glyph glyph-name="dieresis" unicode="&#xa8;" horiz-adv-x="400" 
d="M101 648q-18 0 -29.5 11.5t-11.5 28.5q0 16 11.5 27.5t29.5 11.5t29.5 -11.5t11.5 -27.5q0 -17 -11.5 -28.5t-29.5 -11.5zM299 648q-18 0 -29.5 11.5t-11.5 28.5q0 16 11.5 27.5t29.5 11.5t29.5 -11.5t11.5 -27.5q0 -17 -11.5 -28.5t-29.5 -11.5z" />
    <glyph glyph-name="copyright" unicode="&#xa9;" horiz-adv-x="884" 
d="M442 -7q-158 0 -270 112t-112 271q0 158 112 269.5t270 111.5t270 -111.5t112 -269.5q0 -160 -112 -271.5t-270 -111.5zM444 36q140 0 236.5 99t96.5 239q0 141 -96.5 239.5t-236.5 98.5q-139 0 -237.5 -99t-98.5 -239q0 -141 98.5 -239.5t237.5 -98.5zM464 158
q-99 0 -162 57.5t-63 158.5q0 105 63.5 165t160.5 60q80 0 128 -33l-7 -47q-53 34 -121 34q-79 0 -125.5 -47t-46.5 -132q0 -84 47.5 -127t126.5 -43q83 0 127 28l5 -43q-43 -31 -133 -31z" />
    <glyph glyph-name="ordfeminine" unicode="&#xaa;" horiz-adv-x="360" 
d="M318 416l2 -30q-20 -10 -40 -10q-40 0 -45 41l-3 1q-27 -24 -47 -33t-49 -9q-42 0 -69 22t-27 61q0 64 74 84q100 24 120 30v18q0 37 -15.5 54.5t-55.5 17.5q-51 0 -98 -30l-10 36q49 32 109 32q61 0 89 -25t28 -87v-150q0 -25 18 -25zM89 462q0 -46 52 -46q49 0 93 49
v72q-12 -3 -51 -12.5t-55 -14.5q-39 -12 -39 -48z" />
    <glyph glyph-name="guillemotleft" unicode="&#xab;" horiz-adv-x="598" 
d="M70 254v36l232 195v-62l-181 -151l181 -151v-62zM281 254v36l232 195v-62l-181 -151l181 -151v-62z" />
    <glyph glyph-name="logicalnot" unicode="&#xac;" 
d="M522 190v192h-442v48h490v-240h-48z" />
    <glyph glyph-name="uni00AD" unicode="&#xad;" horiz-adv-x="380" 
d="M30 236v49l320 20v-49z" />
    <glyph glyph-name="registered" unicode="&#xae;" horiz-adv-x="552" 
d="M276 372q-87 0 -144 55t-57 136q0 84 56.5 139t144.5 55q87 0 144 -55t57 -139q0 -81 -57.5 -136t-143.5 -55zM279 405q72 0 118 44.5t46 117.5q0 71 -46.5 114t-120.5 43q-73 0 -119 -43t-46 -114q0 -73 46.5 -117.5t121.5 -44.5zM362 482q-8 -2 -25 -2q-22 0 -62 74
h-30v-72h-30v180h57q67 0 67 -52q0 -35 -34 -50q20 -32 38 -54q7 -8 19 -8v-16zM245 637v-57h19q45 0 45 29q0 28 -41 28h-23z" />
    <glyph glyph-name="macron" unicode="&#xaf;" horiz-adv-x="400" 
d="M350 720v-56h-300v56h300z" />
    <glyph glyph-name="degree" unicode="&#xb0;" horiz-adv-x="422" 
d="M347 592q0 -65 -39.5 -102t-97.5 -37q-61 0 -98 39t-37 96q0 62 38.5 100.5t98.5 38.5q62 0 98.5 -39.5t36.5 -95.5zM303 590q0 45 -25.5 71.5t-67.5 26.5q-39 0 -65 -26.5t-26 -73.5q0 -43 25.5 -69.5t66.5 -26.5q43 0 67.5 28t24.5 70z" />
    <glyph glyph-name="plusminus" unicode="&#xb1;" 
d="M351 198h-52v194h-199v48h199v195h52v-195h199v-48h-199v-194zM550 68h-450v48h450v-48z" />
    <glyph glyph-name="twosuperior" unicode="&#xb2;" horiz-adv-x="360" 
d="M58 383l-6 26q93 77 135 127.5t42 94.5q0 28 -17.5 43.5t-47.5 15.5q-47 0 -90 -30l-15 35q48 32 109 32q52 0 83 -24.5t31 -70.5q0 -82 -145 -207v-2h158v-40h-237z" />
    <glyph glyph-name="threesuperior" unicode="&#xb3;" horiz-adv-x="360" 
d="M170 376q-60 0 -113 31l14 37q46 -31 96 -31q35 0 55 17.5t20 49.5t-29 50t-81 18v26q96 21 96 72q0 43 -57 43q-50 0 -91 -32l-15 33q48 37 113 37q45 0 73.5 -19.5t28.5 -55.5q0 -28 -17.5 -49.5t-45.5 -32.5v-2q78 -19 78 -89q0 -49 -35 -76t-90 -27z" />
    <glyph glyph-name="acute" unicode="&#xb4;" horiz-adv-x="400" 
d="M139 615l-30 15l118 195l64 -33z" />
    <glyph glyph-name="mu" unicode="&#xb5;" horiz-adv-x="591" 
d="M558 74l23 -21q-14 -29 -35.5 -44.5t-43.5 -15.5q-61 0 -71 70l-6 2q-84 -72 -163 -72q-78 0 -127 54q5 -145 34 -249l-56 -17q-33 133 -33 426v331h60v-337q0 -71 34 -113t93 -42q44 0 86.5 24t73.5 59v409h60v-442q0 -50 30 -50q19 0 41 28z" />
    <glyph glyph-name="paragraph" unicode="&#xb6;" horiz-adv-x="703" 
d="M481 -150v845h-85v-845h-63v436q-142 0 -210 64.5t-68 159.5q0 100 71 170t214 70h303v-57h-95v-843h-67zM333 341v354q-104 0 -160 -51.5t-56 -134.5q0 -74 53.5 -121t162.5 -47z" />
    <glyph glyph-name="periodcentered" unicode="&#xb7;" horiz-adv-x="230" 
d="M69 324q0 19 13.5 32.5t32.5 13.5t32.5 -13.5t13.5 -32.5t-13.5 -32t-32.5 -13t-32.5 13t-13.5 32z" />
    <glyph glyph-name="cedilla" unicode="&#xb8;" horiz-adv-x="400" 
d="M216 0h52l-73 -65q103 0 103 -81q0 -35 -30 -59.5t-78 -24.5q-54 0 -88 23l10 33q33 -20 78 -20q58 0 58 45q0 47 -70 47h-43l-8 20z" />
    <glyph glyph-name="onesuperior" unicode="&#xb9;" horiz-adv-x="360" 
d="M78 383v36h86v257l-86 -5v28q66 8 118 24h16v-305h79v-35h-213z" />
    <glyph glyph-name="ordmasculine" unicode="&#xba;" horiz-adv-x="362" 
d="M182 415q93 0 93 124q0 62 -24.5 93.5t-67.5 31.5q-96 0 -96 -125q0 -124 95 -124zM183 376q-66 0 -104.5 39.5t-38.5 120.5q0 79 38.5 122t105.5 43t102.5 -43t35.5 -120q0 -83 -38.5 -122.5t-100.5 -39.5z" />
    <glyph glyph-name="guillemotright" unicode="&#xbb;" horiz-adv-x="598" 
d="M528 254l-232 -195v62l181 151l-181 151v62l232 -195v-36zM317 254l-232 -195v62l181 151l-181 151v62l232 -195v-36z" />
    <glyph glyph-name="onequarter" unicode="&#xbc;" horiz-adv-x="800" 
d="M78 383v36h86v257l-86 -5v28q66 8 118 24h16v-305h79v-35h-213zM231 -7l-41 24l442 710l40 -23zM677 342l29 -4v-215h46l-5 -36h-41v-87h-45v87h-179v30q160 187 195 225zM658 269q-21 -23 -122 -143v-3h125v145z" />
    <glyph glyph-name="onehalf" unicode="&#xbd;" horiz-adv-x="800" 
d="M78 383v36h86v257l-86 -5v28q66 8 118 24h16v-305h79v-35h-213zM201 -7l-41 24l442 710l40 -23zM498 0l-6 26q93 77 135 127.5t42 94.5q0 28 -17.5 43.5t-47.5 15.5q-47 0 -90 -30l-15 35q48 32 109 32q52 0 83 -24.5t31 -70.5q0 -82 -145 -207v-2h158v-40h-237z" />
    <glyph glyph-name="threequarters" unicode="&#xbe;" horiz-adv-x="800" 
d="M170 376q-60 0 -113 31l14 37q46 -31 96 -31q35 0 55 17.5t20 49.5t-29 50t-81 18v26q96 21 96 72q0 43 -57 43q-50 0 -91 -32l-15 33q48 37 113 37q45 0 73.5 -19.5t28.5 -55.5q0 -28 -17.5 -49.5t-45.5 -32.5v-2q78 -19 78 -89q0 -49 -35 -76t-90 -27zM225 -7l-41 24
l442 710l40 -23zM677 342l29 -4v-215h46l-5 -36h-41v-87h-45v87h-179v30q160 187 195 225zM658 269q-21 -23 -122 -143v-3h125v145z" />
    <glyph glyph-name="questiondown" unicode="&#xbf;" horiz-adv-x="446" 
d="M287 378q24 -42 24 -81q0 -42 -20 -78t-48.5 -63t-57.5 -53.5t-49 -59.5t-20 -69q0 -56 36.5 -88t93.5 -32q71 0 118 34l22 -47q-66 -37 -139 -37q-89 0 -138 48.5t-49 118.5q0 46 20.5 85t49.5 67t58 54t49.5 58t20.5 68q0 35 -21 75h50zM211 525q0 18 13 30.5t31 12.5
t31 -12.5t13 -30.5q0 -19 -13 -31.5t-31 -12.5t-31 12.5t-13 31.5z" />
    <glyph glyph-name="Agrave" unicode="&#xc0;" horiz-adv-x="697" 
d="M108 0h-68q46 127 149 395.5t140 354.5h38q35 -90 162 -418t128 -332h-67q-64 166 -96 252h-298q-47 -128 -88 -252zM347 644h-5q-79 -210 -126 -337h258zM409 825l-221 77l39 60l201 -109z" />
    <glyph glyph-name="Aacute" unicode="&#xc1;" horiz-adv-x="697" 
d="M108 0h-68q46 127 149 395.5t140 354.5h38q35 -90 162 -418t128 -332h-67q-64 166 -96 252h-298q-47 -128 -88 -252zM347 644h-5q-79 -210 -126 -337h258zM287 825l-19 28l201 109l39 -60z" />
    <glyph glyph-name="Acircumflex" unicode="&#xc2;" horiz-adv-x="697" 
d="M108 0h-68q46 127 149 395.5t140 354.5h38q35 -90 162 -418t128 -332h-67q-64 166 -96 252h-298q-47 -128 -88 -252zM347 644h-5q-79 -210 -126 -337h258zM331 955h44l146 -105l-16 -25l-152 72l-152 -72l-16 25z" />
    <glyph glyph-name="Atilde" unicode="&#xc3;" horiz-adv-x="697" 
d="M108 0h-68q46 127 149 395.5t140 354.5h38q35 -90 162 -418t128 -332h-67q-64 166 -96 252h-298q-47 -128 -88 -252zM347 644h-5q-79 -210 -126 -337h258zM516 941q-1 -47 -20.5 -75t-57.5 -28q-24 0 -84 18.5t-78 18.5q-37 0 -41 -48h-35q1 47 20.5 75t57.5 28
q24 0 84 -18.5t78 -18.5q37 0 41 48h35z" />
    <glyph glyph-name="Adieresis" unicode="&#xc4;" horiz-adv-x="697" 
d="M108 0h-68q46 127 149 395.5t140 354.5h38q35 -90 162 -418t128 -332h-67q-64 166 -96 252h-298q-47 -128 -88 -252zM347 644h-5q-79 -210 -126 -337h258zM254 838q-18 0 -29.5 11.5t-11.5 28.5q0 16 11.5 27.5t29.5 11.5t29.5 -11.5t11.5 -27.5q0 -17 -11.5 -28.5
t-29.5 -11.5zM452 838q-18 0 -29.5 11.5t-11.5 28.5q0 16 11.5 27.5t29.5 11.5t29.5 -11.5t11.5 -27.5q0 -17 -11.5 -28.5t-29.5 -11.5z" />
    <glyph glyph-name="Aring" unicode="&#xc5;" horiz-adv-x="697" 
d="M108 0h-68q46 127 149 395.5t140 354.5h38q35 -90 162 -418t128 -332h-67q-64 166 -96 252h-298q-47 -128 -88 -252zM347 644h-5q-79 -210 -126 -337h258zM462 890q0 -45 -32 -76.5t-78 -31.5q-44 0 -75 30.5t-31 74.5q0 45 31.5 76.5t76.5 31.5q46 0 77 -30.5t31 -74.5z
M422 889q0 34 -19.5 53.5t-50.5 19.5t-48.5 -21t-17.5 -53t19 -51.5t48 -19.5q32 0 50.5 20.5t18.5 51.5z" />
    <glyph glyph-name="AE" unicode="&#xc6;" horiz-adv-x="946" 
d="M520 0v202h-302q-77 -121 -124 -202h-74q92 149 241.5 373.5t257.5 376.5h358v-55h-294v-288h228l-8 -56h-220v-296h303v-55h-366zM514 645q-130 -183 -261 -388h267v386z" />
    <glyph glyph-name="Ccedilla" unicode="&#xc7;" horiz-adv-x="687" 
d="M632 45q-88 -48 -195 -51l-65 -59q103 0 103 -81q0 -35 -30 -59.5t-78 -24.5q-53 0 -88 23l10 33q33 -20 78 -20q58 0 58 45q0 47 -70 47h-43l-8 20l83 77q-67 5 -125.5 29.5t-105.5 69t-74 115t-27 158.5q0 183 102 286.5t259 103.5q52 0 112.5 -16t94.5 -40l-11 -58
q-40 25 -94 41.5t-101 16.5q-131 0 -212.5 -86.5t-81.5 -247.5q0 -156 85.5 -236t215.5 -80q105 0 201 49z" />
    <glyph glyph-name="Egrave" unicode="&#xc8;" horiz-adv-x="510" 
d="M85 0v750h357v-55h-294v-288h228l-8 -56h-220v-296h302v-55h-365zM356 825l-221 77l39 60l201 -109z" />
    <glyph glyph-name="Eacute" unicode="&#xc9;" horiz-adv-x="510" 
d="M85 0v750h357v-55h-294v-288h228l-8 -56h-220v-296h302v-55h-365zM154 825l-19 28l201 109l39 -60z" />
    <glyph glyph-name="Ecircumflex" unicode="&#xca;" horiz-adv-x="510" 
d="M85 0v750h357v-55h-294v-288h228l-8 -56h-220v-296h302v-55h-365zM240 955h44l146 -105l-16 -25l-152 72l-152 -72l-16 25z" />
    <glyph glyph-name="Edieresis" unicode="&#xcb;" horiz-adv-x="510" 
d="M85 0v750h357v-55h-294v-288h228l-8 -56h-220v-296h302v-55h-365zM161 838q-18 0 -29.5 11.5t-11.5 28.5q0 16 11.5 27.5t29.5 11.5t29.5 -11.5t11.5 -27.5q0 -17 -11.5 -28.5t-29.5 -11.5zM359 838q-18 0 -29.5 11.5t-11.5 28.5q0 16 11.5 27.5t29.5 11.5t29.5 -11.5
t11.5 -27.5q0 -17 -11.5 -28.5t-29.5 -11.5z" />
    <glyph glyph-name="Igrave" unicode="&#xcc;" horiz-adv-x="232" 
d="M85 0v750h62v-750h-62zM186 825l-221 77l39 60l201 -109z" />
    <glyph glyph-name="Iacute" unicode="&#xcd;" horiz-adv-x="232" 
d="M85 0v750h62v-750h-62zM46 825l-19 28l201 109l39 -60z" />
    <glyph glyph-name="Icircumflex" unicode="&#xce;" horiz-adv-x="232" 
d="M85 0v750h62v-750h-62zM94 955h44l146 -105l-16 -25l-152 72l-152 -72l-16 25z" />
    <glyph glyph-name="Idieresis" unicode="&#xcf;" horiz-adv-x="232" 
d="M85 0v750h62v-750h-62zM17 838q-18 0 -29.5 11.5t-11.5 28.5q0 16 11.5 27.5t29.5 11.5t29.5 -11.5t11.5 -27.5q0 -17 -11.5 -28.5t-29.5 -11.5zM215 838q-18 0 -29.5 11.5t-11.5 28.5q0 16 11.5 27.5t29.5 11.5t29.5 -11.5t11.5 -27.5q0 -17 -11.5 -28.5t-29.5 -11.5z
" />
    <glyph glyph-name="Eth" unicode="&#xd0;" horiz-adv-x="776" 
d="M20 370v54h101v326h214q103 0 178 -28t118.5 -80t64 -117.5t20.5 -148.5q0 -77 -19.5 -142t-61 -119t-113.5 -84.5t-169 -30.5h-232v370h-101zM184 695v-271h164v-54h-164v-315h162q80 0 140 26.5t94.5 72.5t51 101.5t16.5 120.5q0 152 -78 235.5t-233 83.5h-153z" />
    <glyph glyph-name="Ntilde" unicode="&#xd1;" horiz-adv-x="769" 
d="M684 1l-31 -8q-64 94 -236.5 315.5t-265.5 329.5h-5v-638h-61v750h51q91 -105 244.5 -297.5t237.5 -308.5h4v606h62v-749zM547 941q-1 -47 -20.5 -75t-57.5 -28q-24 0 -84.5 18.5t-77.5 18.5q-37 0 -41 -48h-35q1 47 20.5 75t57.5 28q23 0 84 -18.5t78 -18.5q37 0 41 48
h35z" />
    <glyph glyph-name="Ograve" unicode="&#xd2;" horiz-adv-x="796" 
d="M398 -7q-85 0 -151 31.5t-106 86t-60.5 122.5t-20.5 146q0 102 35 185.5t113.5 138t189.5 54.5q84 0 150.5 -31.5t106.5 -85t60.5 -120t20.5 -140.5q0 -80 -20.5 -148.5t-60.5 -122.5t-106 -85t-151 -31zM395 50q131 0 202 87t71 245q0 145 -71 232t-202 87
q-128 0 -197.5 -89.5t-69.5 -232.5q0 -148 69 -238.5t198 -90.5zM499 825l-221 77l39 60l201 -109z" />
    <glyph glyph-name="Oacute" unicode="&#xd3;" horiz-adv-x="796" 
d="M398 -7q-85 0 -151 31.5t-106 86t-60.5 122.5t-20.5 146q0 102 35 185.5t113.5 138t189.5 54.5q84 0 150.5 -31.5t106.5 -85t60.5 -120t20.5 -140.5q0 -80 -20.5 -148.5t-60.5 -122.5t-106 -85t-151 -31zM395 50q131 0 202 87t71 245q0 145 -71 232t-202 87
q-128 0 -197.5 -89.5t-69.5 -232.5q0 -148 69 -238.5t198 -90.5zM297 825l-19 28l201 109l39 -60z" />
    <glyph glyph-name="Ocircumflex" unicode="&#xd4;" horiz-adv-x="796" 
d="M398 -7q-85 0 -151 31.5t-106 86t-60.5 122.5t-20.5 146q0 102 35 185.5t113.5 138t189.5 54.5q84 0 150.5 -31.5t106.5 -85t60.5 -120t20.5 -140.5q0 -80 -20.5 -148.5t-60.5 -122.5t-106 -85t-151 -31zM395 50q131 0 202 87t71 245q0 145 -71 232t-202 87
q-128 0 -197.5 -89.5t-69.5 -232.5q0 -148 69 -238.5t198 -90.5zM376 955h44l146 -105l-16 -25l-152 72l-152 -72l-16 25z" />
    <glyph glyph-name="Otilde" unicode="&#xd5;" horiz-adv-x="796" 
d="M398 -7q-85 0 -151 31.5t-106 86t-60.5 122.5t-20.5 146q0 102 35 185.5t113.5 138t189.5 54.5q84 0 150.5 -31.5t106.5 -85t60.5 -120t20.5 -140.5q0 -80 -20.5 -148.5t-60.5 -122.5t-106 -85t-151 -31zM395 50q131 0 202 87t71 245q0 145 -71 232t-202 87
q-128 0 -197.5 -89.5t-69.5 -232.5q0 -148 69 -238.5t198 -90.5zM556 941q-1 -47 -20.5 -75t-57.5 -28q-24 0 -84 18.5t-78 18.5q-37 0 -41 -48h-35q1 47 20.5 75t57.5 28q24 0 84.5 -18.5t77.5 -18.5q37 0 41 48h35z" />
    <glyph glyph-name="Odieresis" unicode="&#xd6;" horiz-adv-x="796" 
d="M398 -7q-85 0 -151 31.5t-106 86t-60.5 122.5t-20.5 146q0 102 35 185.5t113.5 138t189.5 54.5q84 0 150.5 -31.5t106.5 -85t60.5 -120t20.5 -140.5q0 -80 -20.5 -148.5t-60.5 -122.5t-106 -85t-151 -31zM395 50q131 0 202 87t71 245q0 145 -71 232t-202 87
q-128 0 -197.5 -89.5t-69.5 -232.5q0 -148 69 -238.5t198 -90.5zM299 838q-18 0 -29.5 11.5t-11.5 28.5q0 16 11.5 27.5t29.5 11.5t29.5 -11.5t11.5 -27.5q0 -17 -11.5 -28.5t-29.5 -11.5zM497 838q-18 0 -29.5 11.5t-11.5 28.5q0 16 11.5 27.5t29.5 11.5t29.5 -11.5
t11.5 -27.5q0 -17 -11.5 -28.5t-29.5 -11.5z" />
    <glyph glyph-name="multiply" unicode="&#xd7;" 
d="M113 150l179 177l-179 177l33 34l179 -178l179 178l33 -34l-179 -177l179 -177l-33 -34l-179 178l-179 -178z" />
    <glyph glyph-name="Oslash" unicode="&#xd8;" horiz-adv-x="796" 
d="M398 -7q-105 0 -182 48l-31 -48h-61l51 80q-115 105 -115 306q0 102 35 185.5t113.5 138t189.5 54.5q102 0 182 -49l31 49h60l-51 -80q57 -52 86.5 -130t29.5 -167q0 -80 -20.5 -148.5t-60.5 -122.5t-106 -85t-151 -31zM128 379q0 -165 81 -253l339 532q-63 43 -153 43
q-128 0 -197.5 -89.5t-69.5 -232.5zM395 50q131 0 202 87t71 245q0 156 -81 243l-339 -533q62 -42 147 -42z" />
    <glyph glyph-name="Ugrave" unicode="&#xd9;" horiz-adv-x="726" 
d="M364 -7q-75 0 -139 32.5t-107 103.5t-43 168v453h63v-455q0 -115 67 -180t159 -65q91 0 157.5 65t66.5 180v455h63v-457q0 -72 -24.5 -130.5t-65.5 -95t-91.5 -55.5t-105.5 -19zM444 825l-221 77l39 60l201 -109z" />
    <glyph glyph-name="Uacute" unicode="&#xda;" horiz-adv-x="726" 
d="M364 -7q-75 0 -139 32.5t-107 103.5t-43 168v453h63v-455q0 -115 67 -180t159 -65q91 0 157.5 65t66.5 180v455h63v-457q0 -72 -24.5 -130.5t-65.5 -95t-91.5 -55.5t-105.5 -19zM282 825l-19 28l201 109l39 -60z" />
    <glyph glyph-name="Ucircumflex" unicode="&#xdb;" horiz-adv-x="726" 
d="M364 -7q-75 0 -139 32.5t-107 103.5t-43 168v453h63v-455q0 -115 67 -180t159 -65q91 0 157.5 65t66.5 180v455h63v-457q0 -72 -24.5 -130.5t-65.5 -95t-91.5 -55.5t-105.5 -19zM341 955h44l146 -105l-16 -25l-152 72l-152 -72l-16 25z" />
    <glyph glyph-name="Udieresis" unicode="&#xdc;" horiz-adv-x="726" 
d="M364 -7q-75 0 -139 32.5t-107 103.5t-43 168v453h63v-455q0 -115 67 -180t159 -65q91 0 157.5 65t66.5 180v455h63v-457q0 -72 -24.5 -130.5t-65.5 -95t-91.5 -55.5t-105.5 -19zM264 838q-18 0 -29.5 11.5t-11.5 28.5q0 16 11.5 27.5t29.5 11.5t29.5 -11.5t11.5 -27.5
q0 -17 -11.5 -28.5t-29.5 -11.5zM462 838q-18 0 -29.5 11.5t-11.5 28.5q0 16 11.5 27.5t29.5 11.5t29.5 -11.5t11.5 -27.5q0 -17 -11.5 -28.5t-29.5 -11.5z" />
    <glyph glyph-name="Yacute" unicode="&#xdd;" horiz-adv-x="602" 
d="M273 0v356q-56 100 -177 299q-11 19 -18 27.5t-19.5 15.5t-28.5 7v42q9 3 21 3q33 0 55 -15t47 -58q57 -96 152 -267h4q65 101 191 340h67q-97 -181 -234 -398v-352h-60zM235 825l-19 28l201 109l39 -60z" />
    <glyph glyph-name="Thorn" unicode="&#xde;" horiz-adv-x="547" 
d="M220 159q-39 0 -72 3v-162h-63v750h63v-153h118q111 0 171 -55t60 -156q0 -105 -66.5 -166t-210.5 -61zM148 542v-324q27 -3 68 -3q116 0 167 38.5t51 133.5q0 155 -176 155h-110z" />
    <glyph glyph-name="germandbls" unicode="&#xdf;" horiz-adv-x="637" 
d="M402 -7q-78 0 -140 37l10 48q61 -34 133 -34q48 0 84.5 24.5t36.5 75.5q0 34 -25.5 57.5t-61.5 37.5t-72 29.5t-61.5 43.5t-25.5 70q0 33 18.5 59.5t45 45.5t52.5 38t44.5 44.5t18.5 56.5q0 42 -32 67t-95 25q-42 0 -72 -11t-45.5 -26t-23.5 -40t-9.5 -42.5t-1.5 -44.5
v-554h-60v489h-85v49h85v10q0 112 50 167t160 55q98 0 143.5 -42t45.5 -100q0 -34 -13.5 -62t-33.5 -46t-44 -35.5t-44 -31t-33.5 -31t-13.5 -37.5q0 -27 25.5 -46.5t62.5 -34t74 -31.5t62.5 -48.5t25.5 -76.5q0 -73 -50 -114t-135 -41z" />
    <glyph glyph-name="agrave" unicode="&#xe0;" horiz-adv-x="542" 
d="M509 45l3 -35q-26 -17 -59 -17q-61 0 -69 70l-4 2q-50 -39 -84.5 -55.5t-80.5 -16.5q-69 0 -114.5 44t-45.5 113q0 54 29.5 81t94.5 44q29 7 101.5 24t102.5 25v45q0 64 -29 94.5t-97 30.5q-72 0 -161 -49l-16 47q92 53 178 53q90 0 137.5 -40t47.5 -141v-278
q0 -14 1 -21.5t8 -14.5t21 -7q16 0 36 2zM116 150q0 -47 29.5 -75.5t73.5 -28.5q82 0 164 82v147q-93 -17 -189 -44q-39 -11 -58.5 -27t-19.5 -54zM333 631l-29 -16l-155 176l65 33z" />
    <glyph glyph-name="aacute" unicode="&#xe1;" horiz-adv-x="542" 
d="M509 45l3 -35q-26 -17 -59 -17q-61 0 -69 70l-4 2q-50 -39 -84.5 -55.5t-80.5 -16.5q-69 0 -114.5 44t-45.5 113q0 54 29.5 81t94.5 44q29 7 101.5 24t102.5 25v45q0 64 -29 94.5t-97 30.5q-72 0 -161 -49l-16 47q92 53 178 53q90 0 137.5 -40t47.5 -141v-278
q0 -14 1 -21.5t8 -14.5t21 -7q16 0 36 2zM116 150q0 -47 29.5 -75.5t73.5 -28.5q82 0 164 82v147q-93 -17 -189 -44q-39 -11 -58.5 -27t-19.5 -54zM230 615l-30 15l118 195l64 -33z" />
    <glyph glyph-name="acircumflex" unicode="&#xe2;" horiz-adv-x="542" 
d="M509 45l3 -35q-26 -17 -59 -17q-61 0 -69 70l-4 2q-50 -39 -84.5 -55.5t-80.5 -16.5q-69 0 -114.5 44t-45.5 113q0 54 29.5 81t94.5 44q29 7 101.5 24t102.5 25v45q0 64 -29 94.5t-97 30.5q-72 0 -161 -49l-16 47q92 53 178 53q90 0 137.5 -40t47.5 -141v-278
q0 -14 1 -21.5t8 -14.5t21 -7q16 0 36 2zM116 150q0 -47 29.5 -75.5t73.5 -28.5q82 0 164 82v147q-93 -17 -189 -44q-39 -11 -58.5 -27t-19.5 -54zM284 812l124 -181l-25 -16l-123 135l-123 -135l-25 16l124 181h48z" />
    <glyph glyph-name="atilde" unicode="&#xe3;" horiz-adv-x="542" 
d="M509 45l3 -35q-26 -17 -59 -17q-61 0 -69 70l-4 2q-50 -39 -84.5 -55.5t-80.5 -16.5q-69 0 -114.5 44t-45.5 113q0 54 29.5 81t94.5 44q29 7 101.5 24t102.5 25v45q0 64 -29 94.5t-97 30.5q-72 0 -161 -49l-16 47q92 53 178 53q90 0 137.5 -40t47.5 -141v-278
q0 -14 1 -21.5t8 -14.5t21 -7q16 0 36 2zM116 150q0 -47 29.5 -75.5t73.5 -28.5q82 0 164 82v147q-93 -17 -189 -44q-39 -11 -58.5 -27t-19.5 -54zM422 748q-1 -47 -20.5 -75t-57.5 -28q-24 0 -84.5 18.5t-77.5 18.5q-37 0 -41 -48h-35q1 47 20.5 75t57.5 28
q23 0 83.5 -18.5t78.5 -18.5q37 0 41 48h35z" />
    <glyph glyph-name="adieresis" unicode="&#xe4;" horiz-adv-x="542" 
d="M509 45l3 -35q-26 -17 -59 -17q-61 0 -69 70l-4 2q-50 -39 -84.5 -55.5t-80.5 -16.5q-69 0 -114.5 44t-45.5 113q0 54 29.5 81t94.5 44q29 7 101.5 24t102.5 25v45q0 64 -29 94.5t-97 30.5q-72 0 -161 -49l-16 47q92 53 178 53q90 0 137.5 -40t47.5 -141v-278
q0 -14 1 -21.5t8 -14.5t21 -7q16 0 36 2zM116 150q0 -47 29.5 -75.5t73.5 -28.5q82 0 164 82v147q-93 -17 -189 -44q-39 -11 -58.5 -27t-19.5 -54zM162 648q-18 0 -29.5 11.5t-11.5 28.5q0 16 11.5 27.5t29.5 11.5t29.5 -11.5t11.5 -27.5q0 -17 -11.5 -28.5t-29.5 -11.5z
M360 648q-18 0 -29.5 11.5t-11.5 28.5q0 16 11.5 27.5t29.5 11.5t29.5 -11.5t11.5 -27.5q0 -17 -11.5 -28.5t-29.5 -11.5z" />
    <glyph glyph-name="aring" unicode="&#xe5;" horiz-adv-x="542" 
d="M509 45l3 -35q-26 -17 -59 -17q-61 0 -69 70l-4 2q-50 -39 -84.5 -55.5t-80.5 -16.5q-69 0 -114.5 44t-45.5 113q0 54 29.5 81t94.5 44q29 7 101.5 24t102.5 25v45q0 64 -29 94.5t-97 30.5q-72 0 -161 -49l-16 47q92 53 178 53q90 0 137.5 -40t47.5 -141v-278
q0 -14 1 -21.5t8 -14.5t21 -7q16 0 36 2zM116 150q0 -47 29.5 -75.5t73.5 -28.5q82 0 164 82v147q-93 -17 -189 -44q-39 -11 -58.5 -27t-19.5 -54zM154 720q0 45 31.5 76.5t76.5 31.5q46 0 77 -30.5t31 -74.5q0 -45 -32 -76.5t-78 -31.5q-44 0 -75 30.5t-31 74.5zM194 721
q0 -32 19 -51.5t48 -19.5q32 0 50.5 20.5t18.5 51.5q0 34 -19.5 53.5t-50.5 19.5t-48.5 -21t-17.5 -53z" />
    <glyph glyph-name="ae" unicode="&#xe6;" horiz-adv-x="866" 
d="M791 75l7 -48q-68 -34 -159 -34q-149 0 -215 105q-47 -53 -103 -79t-106 -26q-69 0 -114.5 44t-45.5 113q0 54 29.5 81t94.5 44q29 7 101.5 24t102.5 25v45q0 64 -29 94.5t-97 30.5q-72 0 -161 -49l-16 47q92 53 178 53q138 0 172 -95q59 95 183 95q198 0 198 -222
q0 -22 -1 -36h-367v-27q0 -114 57.5 -164.5t144.5 -50.5q77 0 146 30zM116 150q0 -47 29.5 -75.5t73.5 -28.5q82 0 164 82v147q-93 -17 -189 -44q-39 -11 -58.5 -27t-19.5 -54zM447 336h305q0 160 -137 160q-66 0 -111.5 -39t-56.5 -121z" />
    <glyph glyph-name="ccedilla" unicode="&#xe7;" horiz-adv-x="501" 
d="M456 27q-63 -28 -141 -33l-65 -59q103 0 103 -81q0 -35 -30 -59.5t-78 -24.5q-53 0 -88 23l10 33q33 -20 78 -20q58 0 58 45q0 47 -70 47h-43l-8 20l83 77q-96 9 -150.5 75.5t-54.5 189.5q0 285 233 285q81 0 151 -31l-12 -54q-68 32 -138 32q-91 0 -132 -59t-41 -173
q0 -104 45.5 -159.5t134.5 -55.5q70 0 148 28z" />
    <glyph glyph-name="egrave" unicode="&#xe8;" horiz-adv-x="544" 
d="M469 75l7 -48q-68 -34 -159 -34q-115 0 -186 67t-71 201q0 140 63 212t168 72q198 0 198 -222q0 -22 -1 -36h-367v-27q0 -114 57.5 -164.5t144.5 -50.5q77 0 146 30zM125 336h305q0 160 -137 160q-66 0 -111.5 -39t-56.5 -121zM346 631l-29 -16l-155 176l65 33z" />
    <glyph glyph-name="eacute" unicode="&#xe9;" horiz-adv-x="544" 
d="M469 75l7 -48q-68 -34 -159 -34q-115 0 -186 67t-71 201q0 140 63 212t168 72q198 0 198 -222q0 -22 -1 -36h-367v-27q0 -114 57.5 -164.5t144.5 -50.5q77 0 146 30zM125 336h305q0 160 -137 160q-66 0 -111.5 -39t-56.5 -121zM243 615l-30 15l118 195l64 -33z" />
    <glyph glyph-name="ecircumflex" unicode="&#xea;" horiz-adv-x="544" 
d="M469 75l7 -48q-68 -34 -159 -34q-115 0 -186 67t-71 201q0 140 63 212t168 72q198 0 198 -222q0 -22 -1 -36h-367v-27q0 -114 57.5 -164.5t144.5 -50.5q77 0 146 30zM125 336h305q0 160 -137 160q-66 0 -111.5 -39t-56.5 -121zM318 812l124 -181l-25 -16l-123 135
l-123 -135l-25 16l124 181h48z" />
    <glyph glyph-name="edieresis" unicode="&#xeb;" horiz-adv-x="544" 
d="M469 75l7 -48q-68 -34 -159 -34q-115 0 -186 67t-71 201q0 140 63 212t168 72q198 0 198 -222q0 -22 -1 -36h-367v-27q0 -114 57.5 -164.5t144.5 -50.5q77 0 146 30zM125 336h305q0 160 -137 160q-66 0 -111.5 -39t-56.5 -121zM197 648q-18 0 -29.5 11.5t-11.5 28.5
q0 16 11.5 27.5t29.5 11.5t29.5 -11.5t11.5 -27.5q0 -17 -11.5 -28.5t-29.5 -11.5zM395 648q-18 0 -29.5 11.5t-11.5 28.5q0 16 11.5 27.5t29.5 11.5t29.5 -11.5t11.5 -27.5q0 -17 -11.5 -28.5t-29.5 -11.5z" />
    <glyph glyph-name="igrave" unicode="&#xec;" horiz-adv-x="220" 
d="M80 0v538h60v-538h-60zM150 631l-29 -16l-155 176l65 33z" />
    <glyph glyph-name="iacute" unicode="&#xed;" horiz-adv-x="220" 
d="M80 0v538h60v-538h-60zM100 615l-30 15l118 195l64 -33z" />
    <glyph glyph-name="icircumflex" unicode="&#xee;" horiz-adv-x="220" 
d="M80 0v538h60v-538h-60zM134 812l124 -181l-25 -16l-123 135l-123 -135l-25 16l124 181h48z" />
    <glyph glyph-name="idieresis" unicode="&#xef;" horiz-adv-x="220" 
d="M80 0v538h60v-538h-60zM11 648q-18 0 -29.5 11.5t-11.5 28.5q0 16 11.5 27.5t29.5 11.5t29.5 -11.5t11.5 -27.5q0 -17 -11.5 -28.5t-29.5 -11.5zM209 648q-18 0 -29.5 11.5t-11.5 28.5q0 16 11.5 27.5t29.5 11.5t29.5 -11.5t11.5 -27.5q0 -17 -11.5 -28.5t-29.5 -11.5z
" />
    <glyph glyph-name="eth" unicode="&#xf0;" horiz-adv-x="554" 
d="M183 552v50l94 41q-64 54 -145 79l16 48q107 -28 185 -103l113 50v-50l-80 -35q62 -74 92.5 -169.5t30.5 -184.5q0 -119 -54.5 -202t-166.5 -83q-87 0 -150 59t-63 172q0 110 62.5 175t167.5 65q65 0 116 -25l6 3q-30 97 -94 167zM430 280q0 47 -8 95q-57 35 -131 35
q-79 0 -127 -44t-48 -139q0 -85 41 -133.5t112 -48.5q79 0 120 65t41 170z" />
    <glyph glyph-name="ntilde" unicode="&#xf1;" horiz-adv-x="553" 
d="M80 0v538h43l12 -68l6 -1q45 39 85 57.5t89 18.5q81 0 124.5 -54t43.5 -144v-347h-60v339q0 153 -116 153q-89 0 -167 -84v-408h-60zM434 748q-1 -47 -20.5 -75t-57.5 -28q-24 0 -84 18.5t-78 18.5q-37 0 -41 -48h-35q1 47 20.5 75t57.5 28q24 0 84 -18.5t78 -18.5
q37 0 41 48h35z" />
    <glyph glyph-name="ograve" unicode="&#xf2;" horiz-adv-x="584" 
d="M292 44q171 0 171 225t-170 225q-172 0 -172 -227q0 -111 45 -167t126 -56zM291 -7q-106 0 -168.5 68.5t-62.5 204.5q0 134 60.5 206.5t172.5 72.5q113 0 172 -71.5t59 -204.5q0 -141 -62 -208.5t-171 -67.5zM364 631l-29 -16l-155 176l65 33z" />
    <glyph glyph-name="oacute" unicode="&#xf3;" horiz-adv-x="584" 
d="M292 44q171 0 171 225t-170 225q-172 0 -172 -227q0 -111 45 -167t126 -56zM291 -7q-106 0 -168.5 68.5t-62.5 204.5q0 134 60.5 206.5t172.5 72.5q113 0 172 -71.5t59 -204.5q0 -141 -62 -208.5t-171 -67.5zM251 615l-30 15l118 195l64 -33z" />
    <glyph glyph-name="ocircumflex" unicode="&#xf4;" horiz-adv-x="584" 
d="M292 44q171 0 171 225t-170 225q-172 0 -172 -227q0 -111 45 -167t126 -56zM291 -7q-106 0 -168.5 68.5t-62.5 204.5q0 134 60.5 206.5t172.5 72.5q113 0 172 -71.5t59 -204.5q0 -141 -62 -208.5t-171 -67.5zM320 812l124 -181l-25 -16l-123 135l-123 -135l-25 16
l124 181h48z" />
    <glyph glyph-name="otilde" unicode="&#xf5;" horiz-adv-x="584" 
d="M292 44q171 0 171 225t-170 225q-172 0 -172 -227q0 -111 45 -167t126 -56zM291 -7q-106 0 -168.5 68.5t-62.5 204.5q0 134 60.5 206.5t172.5 72.5q113 0 172 -71.5t59 -204.5q0 -141 -62 -208.5t-171 -67.5zM450 748q-1 -47 -20.5 -75t-57.5 -28q-24 0 -84 18.5
t-78 18.5q-37 0 -41 -48h-35q1 47 20.5 75t57.5 28q24 0 84 -18.5t78 -18.5q37 0 41 48h35z" />
    <glyph glyph-name="odieresis" unicode="&#xf6;" horiz-adv-x="584" 
d="M292 44q171 0 171 225t-170 225q-172 0 -172 -227q0 -111 45 -167t126 -56zM291 -7q-106 0 -168.5 68.5t-62.5 204.5q0 134 60.5 206.5t172.5 72.5q113 0 172 -71.5t59 -204.5q0 -141 -62 -208.5t-171 -67.5zM193 648q-18 0 -29.5 11.5t-11.5 28.5q0 16 11.5 27.5
t29.5 11.5t29.5 -11.5t11.5 -27.5q0 -17 -11.5 -28.5t-29.5 -11.5zM391 648q-18 0 -29.5 11.5t-11.5 28.5q0 16 11.5 27.5t29.5 11.5t29.5 -11.5t11.5 -27.5q0 -17 -11.5 -28.5t-29.5 -11.5z" />
    <glyph glyph-name="divide" unicode="&#xf7;" 
d="M570 302h-490v48h490v-48zM283 166q0 18 12.5 30t29.5 12t29.5 -12t12.5 -30q0 -17 -12.5 -29t-29.5 -12t-29.5 12t-12.5 29zM283 484q0 18 12.5 30t29.5 12t29.5 -12t12.5 -30q0 -17 -12.5 -29t-29.5 -12t-29.5 12t-12.5 29z" />
    <glyph glyph-name="oslash" unicode="&#xf8;" horiz-adv-x="584" 
d="M291 -7q-73 0 -125 31l-29 -46h-56l48 76q-69 69 -69 212q0 138 60 208.5t173 70.5q72 0 125 -31l29 46h56l-48 -76q69 -70 69 -215q0 -141 -62 -208.5t-171 -67.5zM161 106l228 361q-38 27 -96 27q-172 0 -172 -227q0 -106 40 -161zM292 44q171 0 171 225q0 108 -40 164
l-227 -362q39 -27 96 -27z" />
    <glyph glyph-name="ugrave" unicode="&#xf9;" horiz-adv-x="557" 
d="M477 538v-538h-40l-15 64l-7 2q-85 -73 -168 -73q-82 0 -129.5 56.5t-47.5 138.5v350h60v-337q0 -70 33.5 -112.5t91.5 -42.5q40 0 85 24.5t77 56.5v411h60zM324 631l-29 -16l-155 176l65 33z" />
    <glyph glyph-name="uacute" unicode="&#xfa;" horiz-adv-x="557" 
d="M477 538v-538h-40l-15 64l-7 2q-85 -73 -168 -73q-82 0 -129.5 56.5t-47.5 138.5v350h60v-337q0 -70 33.5 -112.5t91.5 -42.5q40 0 85 24.5t77 56.5v411h60zM247 615l-30 15l118 195l64 -33z" />
    <glyph glyph-name="ucircumflex" unicode="&#xfb;" horiz-adv-x="557" 
d="M477 538v-538h-40l-15 64l-7 2q-85 -73 -168 -73q-82 0 -129.5 56.5t-47.5 138.5v350h60v-337q0 -70 33.5 -112.5t91.5 -42.5q40 0 85 24.5t77 56.5v411h60zM292 812l124 -181l-25 -16l-123 135l-123 -135l-25 16l124 181h48z" />
    <glyph glyph-name="udieresis" unicode="&#xfc;" horiz-adv-x="557" 
d="M477 538v-538h-40l-15 64l-7 2q-85 -73 -168 -73q-82 0 -129.5 56.5t-47.5 138.5v350h60v-337q0 -70 33.5 -112.5t91.5 -42.5q40 0 85 24.5t77 56.5v411h60zM169 648q-18 0 -29.5 11.5t-11.5 28.5q0 16 11.5 27.5t29.5 11.5t29.5 -11.5t11.5 -27.5q0 -17 -11.5 -28.5
t-29.5 -11.5zM367 648q-18 0 -29.5 11.5t-11.5 28.5q0 16 11.5 27.5t29.5 11.5t29.5 -11.5t11.5 -27.5q0 -17 -11.5 -28.5t-29.5 -11.5z" />
    <glyph glyph-name="yacute" unicode="&#xfd;" horiz-adv-x="537" 
d="M216 -230h-65q46 103 98 230h-12q-10 28 -52 152t-69.5 201.5t-40.5 107.5q0 1 -4 9.5t-5 9.5t-5 7t-7.5 7t-9.5 3t-14 2v39q2 0 13 0.5t18 0.5q32 0 46 -14t30 -55q7 -19 27.5 -80.5l53.5 -160.5l54 -162h3q114 312 166 471h61q-23 -76 -126 -350.5t-160 -417.5z
M257 615l-30 15l118 195l64 -33z" />
    <glyph glyph-name="thorn" unicode="&#xfe;" horiz-adv-x="563" 
d="M302 545q100 0 153 -77t53 -190q0 -137 -61.5 -211t-177.5 -74q-66 0 -129 22v-245h-60v1000h60v-179l-3 -119l5 -1q26 23 41 34.5t49 25.5t70 14zM305 492q-93 0 -165 -86v-336q64 -29 127 -29q94 0 137 64.5t43 169.5q0 98 -40 157.5t-102 59.5z" />
    <glyph glyph-name="ydieresis" unicode="&#xff;" horiz-adv-x="537" 
d="M216 -230h-65q46 103 98 230h-12q-10 28 -52 152t-69.5 201.5t-40.5 107.5q0 1 -4 9.5t-5 9.5t-5 7t-7.5 7t-9.5 3t-14 2v39q2 0 13 0.5t18 0.5q32 0 46 -14t30 -55q7 -19 27.5 -80.5l53.5 -160.5l54 -162h3q114 312 166 471h61q-23 -76 -126 -350.5t-160 -417.5z
M183 648q-18 0 -29.5 11.5t-11.5 28.5q0 16 11.5 27.5t29.5 11.5t29.5 -11.5t11.5 -27.5q0 -17 -11.5 -28.5t-29.5 -11.5zM381 648q-18 0 -29.5 11.5t-11.5 28.5q0 16 11.5 27.5t29.5 11.5t29.5 -11.5t11.5 -27.5q0 -17 -11.5 -28.5t-29.5 -11.5z" />
    <glyph glyph-name="dotlessi" unicode="&#x131;" horiz-adv-x="220" 
d="M80 0v538h60v-538h-60z" />
    <glyph glyph-name="Lslash" unicode="&#x141;" horiz-adv-x="535" 
d="M35 300v58l89 24v368h63v-351l162 43v-58l-162 -43v-286h298v-55h-361v324z" />
    <glyph glyph-name="lslash" unicode="&#x142;" horiz-adv-x="219" 
d="M6 310v50l74 32v378h60v-352l82 35v-50l-82 -35v-368h-60v342z" />
    <glyph glyph-name="OE" unicode="&#x152;" horiz-adv-x="915" 
d="M855 0h-457q-167 0 -252.5 103t-85.5 265q0 78 20.5 145.5t61 121t106.5 84.5t150 31h448v-55h-294v-288h228l-8 -56h-220v-296h303v-55zM128 367q0 -145 71 -228t202 -83h88v638h-88q-129 0 -201 -91.5t-72 -235.5z" />
    <glyph glyph-name="oe" unicode="&#x153;" horiz-adv-x="947" 
d="M720 -7q-164 0 -225 123q-53 -123 -204 -123q-106 0 -168.5 68.5t-62.5 204.5q0 134 60.5 206.5t172.5 72.5q149 0 202 -124q56 124 199 124q198 0 198 -222q0 -22 -1 -36h-367v-27q0 -114 57.5 -164.5t144.5 -50.5q77 0 146 30l7 -48q-68 -34 -159 -34zM292 44
q171 0 171 225t-170 225q-172 0 -172 -227q0 -111 45 -167t126 -56zM528 336h305q0 160 -137 160q-66 0 -111.5 -39t-56.5 -121z" />
    <glyph glyph-name="Scaron" unicode="&#x160;" horiz-adv-x="554" 
d="M251 -7q-116 0 -196 58l12 59q82 -61 185 -61q172 0 172 139q0 33 -15.5 60.5t-44.5 49.5t-58.5 38.5t-70 38.5t-65.5 40q-100 68 -100 167q0 82 58 128.5t155 46.5q103 0 188 -47l-20 -52q-77 44 -164 44q-70 0 -110 -30t-40 -91q0 -32 16 -58t45 -47t58.5 -37.5
t69.5 -38t66 -40.5q97 -71 97 -172q0 -100 -65.5 -147.5t-172.5 -47.5zM303 825h-44l-146 105l16 25l152 -72l152 72l16 -25z" />
    <glyph glyph-name="scaron" unicode="&#x161;" horiz-adv-x="469" 
d="M414 147q0 -76 -52.5 -115t-142.5 -39t-164 40l9 48q28 -16 71.5 -27.5t80.5 -11.5q137 0 137 103q0 36 -30 59.5t-72.5 38t-84.5 31t-72 47.5t-30 77q0 66 46 106.5t135 40.5q82 0 149 -30l-12 -51q-64 31 -140 31q-55 0 -87 -24t-32 -70q0 -33 30 -55.5t72.5 -37
t85.5 -31.5t73 -49.5t30 -80.5zM263 615h-48l-124 181l25 16l123 -135l123 135l25 -16z" />
    <glyph glyph-name="Ydieresis" unicode="&#x178;" horiz-adv-x="602" 
d="M273 0v356q-56 100 -177 299q-11 19 -18 27.5t-19.5 15.5t-28.5 7v42q9 3 21 3q33 0 55 -15t47 -58q57 -96 152 -267h4q65 101 191 340h67q-97 -181 -234 -398v-352h-60zM207 838q-18 0 -29.5 11.5t-11.5 28.5q0 16 11.5 27.5t29.5 11.5t29.5 -11.5t11.5 -27.5
q0 -17 -11.5 -28.5t-29.5 -11.5zM405 838q-18 0 -29.5 11.5t-11.5 28.5q0 16 11.5 27.5t29.5 11.5t29.5 -11.5t11.5 -27.5q0 -17 -11.5 -28.5t-29.5 -11.5z" />
    <glyph glyph-name="Zcaron" unicode="&#x17d;" horiz-adv-x="641" 
d="M586 55v-55h-536v23q201 323 431 668l-1 4h-404v55h493l10 -21q-164 -239 -438 -670l1 -4h444zM344 825h-44l-146 105l16 25l152 -72l152 72l16 -25z" />
    <glyph glyph-name="zcaron" unicode="&#x17e;" horiz-adv-x="507" 
d="M452 52v-52h-397v23q175 265 306 460l-1 4h-293v51h373l10 -20q-197 -286 -308 -462l1 -4h309zM277 615h-48l-124 181l25 16l123 -135l123 135l25 -16z" />
    <glyph glyph-name="florin" unicode="&#x192;" 
d="M484 318h-155l-25 -246q-13 -124 -53 -176.5t-118 -52.5q-38 0 -70 13l16 46q28 -6 54 -6q25 0 44 10.5t30.5 25t19 40t11 46t6.5 52.5l26 248h-111v49h116l14 127q25 233 213 233q18 0 38 -3l-13 -48q-88 0 -128 -41.5t-51 -139.5l-14 -128h150v-49z" />
    <glyph glyph-name="circumflex" unicode="&#x2c6;" horiz-adv-x="400" 
d="M224 812l124 -181l-25 -16l-123 135l-123 -135l-25 16l124 181h48z" />
    <glyph glyph-name="caron" unicode="&#x2c7;" horiz-adv-x="400" 
d="M224 615h-48l-124 181l25 16l123 -135l123 135l25 -16z" />
    <glyph glyph-name="breve" unicode="&#x2d8;" horiz-adv-x="400" 
d="M200 615q-60 0 -98.5 35t-44.5 102l31 9q28 -98 112 -98t112 98l31 -9q-6 -67 -44.5 -102t-98.5 -35z" />
    <glyph glyph-name="dotaccent" unicode="&#x2d9;" horiz-adv-x="400" 
d="M154 681q0 19 13 32.5t33 13.5t33 -13t13 -33t-13.5 -33.5t-32.5 -13.5q-21 0 -33.5 13.5t-12.5 33.5z" />
    <glyph glyph-name="ring" unicode="&#x2da;" horiz-adv-x="400" 
d="M92 720q0 45 31.5 76.5t76.5 31.5q46 0 77 -30.5t31 -74.5q0 -45 -32 -76.5t-78 -31.5q-44 0 -75 30.5t-31 74.5zM132 721q0 -32 19 -51.5t48 -19.5q32 0 50.5 20.5t18.5 51.5q0 34 -19.5 53.5t-50.5 19.5t-48.5 -21t-17.5 -53z" />
    <glyph glyph-name="ogonek" unicode="&#x2db;" horiz-adv-x="400" 
d="M221 0h57q-44 -21 -77 -65t-33 -82q0 -44 48 -44q26 0 56 14l12 -33q-37 -20 -78 -20q-38 0 -64 19.5t-26 58.5t30.5 82t74.5 70z" />
    <glyph glyph-name="tilde" unicode="&#x2dc;" horiz-adv-x="400" 
d="M358 748q-1 -47 -20.5 -75t-57.5 -28q-24 0 -84 18.5t-78 18.5q-37 0 -41 -48h-35q1 47 20.5 75t57.5 28q24 0 84 -18.5t78 -18.5q37 0 41 48h35z" />
    <glyph glyph-name="hungarumlaut" unicode="&#x2dd;" horiz-adv-x="400" 
d="M80 615l-25 13l83 184l62 -32zM225 615l-25 13l83 184l62 -32z" />
    <glyph glyph-name="pi" unicode="&#x3c0;" horiz-adv-x="642" 
d="M55 484v54h532v-54h-126q-19 -202 -19 -332q0 -104 50 -104q21 0 50 17l26 -38q-46 -34 -99 -34q-87 0 -87 137q0 77 21 354h-167q-8 -124 -26.5 -270.5t-34.5 -213.5h-60q17 73 36.5 217.5t25.5 266.5h-122z" />
    <glyph glyph-name="uni200A" unicode="&#x200a;" horiz-adv-x="65" 
 />
    <glyph glyph-name="endash" unicode="&#x2013;" horiz-adv-x="620" 
d="M30 248v50h560v-50h-560z" />
    <glyph glyph-name="emdash" unicode="&#x2014;" horiz-adv-x="900" 
d="M30 248v50h840v-50h-840z" />
    <glyph glyph-name="quoteleft" unicode="&#x2018;" horiz-adv-x="220" 
d="M132 757l33 -11q-56 -42 -56 -97q0 -47 55 -93l-58 -18q-56 39 -56 92q0 36 22 69.5t60 57.5z" />
    <glyph glyph-name="quoteright" unicode="&#x2019;" horiz-adv-x="220" 
d="M88 538l-33 11q56 42 56 94q0 51 -55 96l58 18q56 -40 56 -94q0 -70 -82 -125z" />
    <glyph glyph-name="quotesinglbase" unicode="&#x201a;" horiz-adv-x="220" 
d="M83 -118l-33 11q56 42 56 94q0 51 -55 96l58 18q56 -40 56 -94q0 -70 -82 -125z" />
    <glyph glyph-name="quotedblleft" unicode="&#x201c;" horiz-adv-x="370" 
d="M132 757l33 -11q-56 -42 -56 -97q0 -47 55 -93l-58 -18q-56 39 -56 92q0 36 22 69.5t60 57.5zM282 757l33 -11q-56 -42 -56 -94q0 -51 55 -96l-58 -18q-56 40 -56 94q0 70 82 125z" />
    <glyph glyph-name="quotedblright" unicode="&#x201d;" horiz-adv-x="370" 
d="M88 538l-33 11q56 42 56 94q0 51 -55 96l58 18q56 -40 56 -94q0 -70 -82 -125zM238 538l-33 11q56 42 56 97q0 47 -55 93l58 18q56 -39 56 -92q0 -36 -22 -69.5t-60 -57.5z" />
    <glyph glyph-name="quotedblbase" unicode="&#x201e;" horiz-adv-x="370" 
d="M83 -118l-33 11q56 42 56 94q0 51 -55 96l58 18q56 -40 56 -94q0 -70 -82 -125zM233 -118l-33 11q56 42 56 97q0 47 -55 93l58 18q56 -39 56 -92q0 -36 -22 -69.5t-60 -57.5z" />
    <glyph glyph-name="dagger" unicode="&#x2020;" horiz-adv-x="528" 
d="M295 0h-61l6 493l-180 -7v53l180 -4l-6 215h61l-7 -215l180 4v-53l-180 7z" />
    <glyph glyph-name="daggerdbl" unicode="&#x2021;" horiz-adv-x="528" 
d="M294 0h-61l3 246l-176 -6v53l176 -4l3 204l-179 -7v53l179 -4l-6 215h61l-7 -215l180 4v-53l-180 7l3 -204l178 4v-53l-178 7z" />
    <glyph glyph-name="bullet" unicode="&#x2022;" horiz-adv-x="428" 
d="M110 332q0 44 29.5 74.5t73.5 30.5q45 0 75 -30.5t30 -74.5t-30 -74t-75 -30q-44 0 -73.5 30t-29.5 74z" />
    <glyph glyph-name="ellipsis" unicode="&#x2026;" horiz-adv-x="634" 
d="M69 38q0 19 13.5 32.5t32.5 13.5t32.5 -13.5t13.5 -32.5t-13.5 -32t-32.5 -13t-32.5 13t-13.5 32zM271 38q0 19 13.5 32.5t32.5 13.5t32.5 -13.5t13.5 -32.5t-13.5 -32t-32.5 -13t-32.5 13t-13.5 32zM473 38q0 19 13.5 32.5t32.5 13.5t32.5 -13.5t13.5 -32.5t-13.5 -32
t-32.5 -13t-32.5 13t-13.5 32z" />
    <glyph glyph-name="perthousand" unicode="&#x2030;" horiz-adv-x="1268" 
d="M220 417q51 0 79 35.5t28 99.5t-29 99t-78 35q-55 0 -82 -37t-27 -97q0 -62 27 -98.5t82 -36.5zM219 376q-72 0 -115.5 46.5t-43.5 128.5q0 77 41.5 126.5t117.5 49.5q77 0 118 -48.5t41 -127.5q0 -83 -43.5 -129t-115.5 -46zM234 -7l-41 24l442 710l40 -23zM651 34
q51 0 79 35.5t28 99.5t-29 99t-78 35q-55 0 -82 -37t-27 -97q0 -62 27 -98.5t82 -36.5zM650 -7q-72 0 -115.5 46.5t-43.5 128.5q0 77 41.5 126.5t117.5 49.5q77 0 118 -48.5t41 -127.5q0 -83 -43.5 -129t-115.5 -46zM1050 34q51 0 79 35.5t28 99.5t-29 99t-78 35
q-55 0 -82 -37t-27 -97q0 -62 27 -98.5t82 -36.5zM1049 -7q-72 0 -115.5 46.5t-43.5 128.5q0 77 41.5 126.5t117.5 49.5q77 0 118 -48.5t41 -127.5q0 -83 -43.5 -129t-115.5 -46z" />
    <glyph glyph-name="guilsinglleft" unicode="&#x2039;" horiz-adv-x="387" 
d="M70 254v36l232 195v-62l-181 -151l181 -151v-62z" />
    <glyph glyph-name="guilsinglright" unicode="&#x203a;" horiz-adv-x="387" 
d="M317 254l-232 -195v62l181 151l-181 151v62l232 -195v-36z" />
    <glyph glyph-name="fraction" unicode="&#x2044;" horiz-adv-x="80" 
d="M-160 -7l-41 24l442 710l40 -23z" />
    <glyph glyph-name="zero.sups" unicode="&#x2070;" horiz-adv-x="360" 
d="M180 414q43 0 65 37.5t22 100.5t-22 100t-65 37q-44 0 -66 -37.5t-22 -100.5t22 -100t66 -37zM180 376q-64 0 -101 45.5t-37 129.5q0 79 36 127.5t102 48.5q64 0 101 -45.5t37 -129.5q0 -79 -36 -127.5t-102 -48.5z" />
    <glyph glyph-name="four.sups" unicode="&#x2074;" horiz-adv-x="360" 
d="M237 725l29 -4v-215h46l-5 -36h-41v-87h-45v87h-179v30q160 187 195 225zM218 652q-21 -23 -122 -143v-3h125v145z" />
    <glyph glyph-name="five.sups" unicode="&#x2075;" horiz-adv-x="360" 
d="M170 376q-55 0 -113 29l15 40q50 -29 97 -29q34 0 55 16t21 48q0 35 -38 54.5t-130 26.5q12 68 22 159h186v-40h-144q-4 -38 -11 -86q165 -10 165 -113q0 -50 -35.5 -77.5t-89.5 -27.5z" />
    <glyph glyph-name="six.sups" unicode="&#x2076;" horiz-adv-x="360" 
d="M274 693q-125 -32 -160 -126l3 -1q35 23 78 23q49 0 78.5 -29t29.5 -76q0 -44 -32 -76t-89 -32q-59 0 -91.5 39.5t-32.5 97.5q0 71 54 132.5t151 81.5zM185 552q-39 0 -79 -28v-6q0 -46 19 -75t57 -29q32 0 52 19t20 51q0 33 -18 50.5t-51 17.5z" />
    <glyph glyph-name="seven.sups" unicode="&#x2077;" horiz-adv-x="360" 
d="M150 383h-54l164 297h-194v40h238l10 -16z" />
    <glyph glyph-name="eight.sups" unicode="&#x2078;" horiz-adv-x="360" 
d="M179 376q-57 0 -88 28t-31 67q0 62 74 92q-64 33 -64 79q0 38 29.5 61.5t79.5 23.5q51 0 80 -24t29 -61q0 -47 -65 -80q76 -31 76 -92q0 -39 -31.5 -66.5t-88.5 -27.5zM180 411q32 0 51 17t19 42t-17 41.5t-54 30.5q-70 -25 -70 -72q0 -25 19.5 -42t51.5 -17zM179 580
q33 15 47 29t14 31q0 25 -17.5 39t-43.5 14q-27 0 -44.5 -14t-17.5 -39q0 -17 13.5 -31t48.5 -29z" />
    <glyph glyph-name="nine.sups" unicode="&#x2079;" horiz-adv-x="360" 
d="M85 411q117 30 159 125l-3 1q-33 -23 -77 -23q-49 0 -78.5 29.5t-29.5 75.5q0 44 32 76t89 32q59 0 91.5 -39.5t32.5 -97.5q0 -71 -54 -132.5t-151 -81.5zM173 551q40 0 80 28q-4 110 -76 110q-33 0 -53 -19t-20 -51q0 -33 18 -50.5t51 -17.5z" />
    <glyph glyph-name="zero.sinf" unicode="&#x2080;" horiz-adv-x="360" 
d="M180 -119q43 0 65 37.5t22 100.5t-22 100t-65 37q-44 0 -66 -37.5t-22 -100.5t22 -100t66 -37zM180 -157q-64 0 -101 45.5t-37 129.5q0 79 36 127.5t102 48.5q64 0 101 -45.5t37 -129.5q0 -79 -36 -127.5t-102 -48.5z" />
    <glyph glyph-name="one.sinf" unicode="&#x2081;" horiz-adv-x="360" 
d="M78 -150v36h86v257l-86 -5v28q66 8 118 24h16v-305h79v-35h-213z" />
    <glyph glyph-name="two.sinf" unicode="&#x2082;" horiz-adv-x="360" 
d="M58 -150l-6 26q93 77 135 127.5t42 94.5q0 28 -17.5 43.5t-47.5 15.5q-47 0 -90 -30l-15 35q48 32 109 32q52 0 83 -24.5t31 -70.5q0 -82 -145 -207v-2h158v-40h-237z" />
    <glyph glyph-name="three.sinf" unicode="&#x2083;" horiz-adv-x="360" 
d="M170 -157q-60 0 -113 31l14 37q46 -31 96 -31q35 0 55 17.5t20 49.5t-29 50t-81 18v26q96 21 96 72q0 43 -57 43q-50 0 -91 -32l-15 33q48 37 113 37q45 0 73.5 -19.5t28.5 -55.5q0 -57 -63 -82v-2q78 -19 78 -89q0 -49 -35 -76t-90 -27z" />
    <glyph glyph-name="four.sinf" unicode="&#x2084;" horiz-adv-x="360" 
d="M237 192l29 -4v-215h46l-5 -36h-41v-87h-45v87h-179v30q160 187 195 225zM218 119q-21 -23 -122 -143v-3h125v145z" />
    <glyph glyph-name="five.sinf" unicode="&#x2085;" horiz-adv-x="360" 
d="M170 -157q-55 0 -113 29l15 40q50 -29 97 -29q34 0 55 16t21 48q0 35 -38 54.5t-130 26.5q12 68 22 159h186v-40h-144q-4 -38 -11 -86q165 -10 165 -113q0 -50 -35.5 -77.5t-89.5 -27.5z" />
    <glyph glyph-name="six.sinf" unicode="&#x2086;" horiz-adv-x="360" 
d="M274 160q-125 -32 -160 -126l3 -1q35 23 78 23q49 0 78.5 -29t29.5 -76q0 -44 -32 -76t-89 -32q-59 0 -91.5 39.5t-32.5 97.5q0 71 54 132.5t151 81.5zM185 19q-39 0 -79 -28v-6q0 -46 19 -75t57 -29q32 0 52 19t20 51q0 33 -18 50.5t-51 17.5z" />
    <glyph glyph-name="seven.sinf" unicode="&#x2087;" horiz-adv-x="360" 
d="M150 -150h-54l164 297h-194v40h238l10 -16z" />
    <glyph glyph-name="eight.sinf" unicode="&#x2088;" horiz-adv-x="360" 
d="M179 -157q-57 0 -88 28t-31 67q0 62 74 92q-64 33 -64 79q0 38 29.5 61.5t79.5 23.5q51 0 80 -24t29 -61q0 -47 -65 -80q76 -31 76 -92q0 -39 -31.5 -66.5t-88.5 -27.5zM180 -122q32 0 51 17t19 42t-17 41.5t-54 30.5q-70 -25 -70 -72q0 -25 19.5 -42t51.5 -17zM179 47
q33 15 47 29t14 31q0 25 -17.5 39t-43.5 14q-27 0 -44.5 -14t-17.5 -39q0 -17 13.5 -31t48.5 -29z" />
    <glyph glyph-name="nine.sinf" unicode="&#x2089;" horiz-adv-x="360" 
d="M85 -122q117 30 159 125l-3 1q-33 -23 -77 -23q-49 0 -78.5 29.5t-29.5 75.5q0 44 32 76t89 32q59 0 91.5 -39.5t32.5 -97.5q0 -71 -54 -132.5t-151 -81.5zM173 18q40 0 80 28q-4 110 -76 110q-33 0 -53 -19t-20 -51q0 -33 18 -50.5t51 -17.5z" />
    <glyph glyph-name="Euro" unicode="&#x20ac;" 
d="M499 311v-49h-252q15 -100 61.5 -157t124.5 -57q76 0 149 41l8 -51q-75 -45 -159 -45q-102 0 -167.5 69.5t-83.5 199.5h-85v49h80q-1 15 -1 46q0 27 1 41h-80v49h84q19 141 91.5 210.5t161.5 69.5q79 0 148 -41l-13 -54q-66 39 -133 39q-85 0 -130 -63t-58 -161h253v-49
h-257q-1 -15 -1 -42q0 -31 1 -45h257z" />
    <glyph glyph-name="trademark" unicode="&#x2122;" horiz-adv-x="818" 
d="M182 383v270h-112v38h268v-38h-114v-270h-42zM408 383v308h47q54 -96 114 -225h4q54 104 106 225h49v-308h-40v231h-4q-22 -53 -46.5 -101.5t-40.5 -77.5t-18 -34h-22q-87 181 -105 210h-4v-228h-40z" />
    <glyph glyph-name="Omega" unicode="&#x2126;" horiz-adv-x="810" 
d="M405 699q-129 0 -199.5 -82t-70.5 -203q0 -100 50 -196.5t143 -157.5v-60h-268v55h192v3q-86 62 -135.5 161t-49.5 206q0 67 20.5 125.5t60.5 105t106 74t151 27.5t151 -27.5t106 -74t60.5 -105t20.5 -125.5q0 -107 -49.5 -206t-135.5 -161v-3h192v-55h-268v60
q93 61 143 157.5t50 196.5q0 121 -70.5 203t-199.5 82z" />
    <glyph glyph-name="partialdiff" unicode="&#x2202;" horiz-adv-x="556" 
d="M237 -7q-93 0 -140 58.5t-47 147.5q0 104 61 166t161 62q43 0 88 -18t69 -47q2 38 2 58q0 45 -4.5 85t-16 80t-30.5 68.5t-49.5 46t-70.5 17.5q-74 0 -151 -44l-13 50q87 47 166 47q229 0 229 -363q0 -77 -14.5 -148.5t-44 -132t-80 -97t-115.5 -36.5zM237 49
q73 0 121 65.5t65 182.5q-55 75 -149 75q-69 0 -116 -45t-47 -127q0 -76 37 -113.5t89 -37.5z" />
    <glyph glyph-name="Delta" unicode="&#x2206;" horiz-adv-x="725" 
d="M678 0h-631l-7 21l316 729h29l300 -727zM119 63l1 -7h483l1 7l-234 572h-5z" />
    <glyph glyph-name="product" unicode="&#x220f;" horiz-adv-x="761" 
d="M611 695v-845h-63v845h-334v-845h-63v845h-91v55h641v-55h-90z" />
    <glyph glyph-name="summation" unicode="&#x2211;" horiz-adv-x="611" 
d="M50 720v30h511v-56h-416l-2 -5l250 -380l-259 -398l2 -5h425v-56h-511v32l270 422z" />
    <glyph glyph-name="minus" unicode="&#x2212;" 
d="M570 302h-490v48h490v-48z" />
    <glyph glyph-name="radical" unicode="&#x221a;" horiz-adv-x="620" 
d="M38 475h147l122 -408l235 833h50l-255 -900h-64l-139 431h-96v44z" />
    <glyph glyph-name="infinity" unicode="&#x221e;" horiz-adv-x="864" 
d="M636 155q-112 0 -206 135q-91 -135 -202 -135q-74 0 -126 49t-52 127t52 127t126 49q109 0 206 -135q89 135 202 135q74 0 126 -49t52 -127t-52 -127t-126 -49zM635 460q-93 0 -175 -128q91 -130 178 -130q59 0 94 37t35 92t-37.5 92t-94.5 37zM229 202q92 0 174 127
q-90 131 -177 131q-59 0 -94 -37t-35 -92t37.5 -92t94.5 -37z" />
    <glyph glyph-name="integral" unicode="&#x222b;" horiz-adv-x="345" 
d="M20 -153l9 48q12 -3 29 -3q97 0 97 142q0 128 -11.5 340t-11.5 316q0 101 35 155.5t119 54.5q17 0 39 -4l-9 -48q-12 3 -29 3q-97 0 -97 -142q0 -127 11.5 -340t11.5 -316q0 -101 -35 -155.5t-119 -54.5q-17 0 -39 4z" />
    <glyph glyph-name="approxequal" unicode="&#x2248;" 
d="M541 312l34 -28q-57 -76 -130 -76q-41 0 -124 26t-113 26q-53 0 -99 -54l-34 28q57 76 130 76q41 0 124 -26t113 -26q53 0 99 54zM541 468l34 -28q-57 -76 -130 -76q-41 0 -124 26t-113 26q-53 0 -99 -54l-34 28q57 76 130 76q41 0 124 -26t113 -26q53 0 99 54z" />
    <glyph glyph-name="notequal" unicode="&#x2260;" 
d="M570 222h-273l-61 -124h-49l61 124h-168v48h192l56 112h-248v48h272l62 124h49l-62 -124h169v-48h-193l-56 -112h249v-48z" />
    <glyph glyph-name="lessequal" unicode="&#x2264;" 
d="M100 393v45l450 205v-53l-396 -175l396 -173v-54zM550 68h-450v48h450v-48z" />
    <glyph glyph-name="greaterequal" unicode="&#x2265;" 
d="M550 438v-45l-450 -205v54l396 173l-396 175v53zM550 68h-450v48h450v-48z" />
    <glyph glyph-name="lozenge" unicode="&#x25ca;" 
d="M352 0h-54l-212 375l212 375h54l212 -375zM325 698l-180 -323l180 -323l180 323z" />
    <glyph glyph-name="fi" unicode="&#xfb01;" horiz-adv-x="541" 
d="M401 0v489h-221v-489h-60v489h-85v49h86v52q0 180 188 180q70 0 139 -20l-12 -49q-69 19 -131 19q-59 0 -92 -28.5t-33 -99.5v-54h281v-538h-60z" />
    <glyph glyph-name="fl" unicode="&#xfb02;" horiz-adv-x="560" 
d="M420 0v705q-54 15 -115 15q-59 0 -92 -28.5t-33 -99.5v-54h137v-49h-137v-489h-60v489h-85v49h86v52q0 180 188 180q92 0 171 -27v-743h-60z" />
    <glyph glyph-name="a.smcp" horiz-adv-x="593" 
d="M484 0l-74 181h-234l-70 -181h-61q10 25 64.5 158.5t100.5 245.5t67 157h36q139 -324 235 -561h-64zM296 467h-4q-62 -148 -95 -234h192q-27 67 -93 234z" />
    <glyph glyph-name="b.smcp" horiz-adv-x="484" 
d="M76 0l-1 561h135q93 0 139 -31t46 -102q0 -86 -89 -122v-4q62 -12 95 -45.5t33 -97.5q0 -75 -48.5 -117t-142.5 -42h-167zM135 49h100q134 0 134 111q0 57 -36 83.5t-115 26.5h-83v-221zM135 319h64q57 0 94 26.5t37 78.5q0 46 -30 66.5t-89 20.5h-76v-192z" />
    <glyph glyph-name="c.smcp" horiz-adv-x="556" 
d="M339 -7q-121 0 -202.5 70t-81.5 212q0 146 77.5 219.5t202.5 73.5q36 0 85 -12t78 -28l-11 -55q-31 16 -75 27.5t-76 11.5q-100 0 -158 -58t-58 -180q0 -118 63.5 -172.5t161.5 -54.5q75 0 154 36l7 -52q-76 -38 -167 -38z" />
    <glyph glyph-name="d.smcp" horiz-adv-x="614" 
d="M75 0v561h179q305 0 305 -280q0 -126 -71 -203.5t-221 -77.5h-192zM135 508v-455h126q120 0 176.5 64.5t56.5 164.5q0 226 -240 226h-119z" />
    <glyph glyph-name="e.smcp" horiz-adv-x="430" 
d="M75 0v561h294v-53h-234v-198h181l-7 -52h-174v-205h240v-53h-300z" />
    <glyph glyph-name="f.smcp" horiz-adv-x="408" 
d="M76 0l-1 561h293v-53h-233v-199h188l-6 -52h-181v-257h-60z" />
    <glyph glyph-name="g.smcp" horiz-adv-x="603" 
d="M351 512q-103 0 -166.5 -60t-63.5 -175q0 -111 65 -169.5t166 -58.5q60 0 128 22v153h-79v48h137v-236q-94 -43 -192 -43q-125 0 -208 72t-83 212t81 215.5t213 75.5q102 0 175 -43l-11 -55q-73 42 -162 42z" />
    <glyph glyph-name="h.smcp" horiz-adv-x="617" 
d="M75 0v561h60v-238h347v238h60v-561h-60v269h-347v-269h-60z" />
    <glyph glyph-name="i.smcp" horiz-adv-x="210" 
d="M75 0v561h60v-561h-60z" />
    <glyph glyph-name="j.smcp" horiz-adv-x="346" 
d="M113 -7q-32 0 -63 7l-5 51q33 -7 64 -7q53 0 77.5 27.5t24.5 88.5v348h-79v53h139v-403q0 -86 -39.5 -125.5t-118.5 -39.5z" />
    <glyph glyph-name="k.smcp" horiz-adv-x="527" 
d="M495 41v-40q-17 -7 -40 -7q-33 0 -60 28q-19 20 -81.5 106t-96.5 142h-82v-270h-60v561h60v-237h85q59 71 174 237h69q-107 -150 -197 -263q91 -149 166 -232q23 -25 63 -25z" />
    <glyph glyph-name="l.smcp" horiz-adv-x="413" 
d="M75 0v561h60v-508h238v-53h-298z" />
    <glyph glyph-name="m.smcp" horiz-adv-x="741" 
d="M636 561l35 -561h-59l-26 460h-5q-44 -100 -109 -235t-89 -180l-29 -5q-132 293 -203 422h-4l-17 -462h-60l25 561h63q111 -192 212 -427h4q66 131 196 427h66z" />
    <glyph glyph-name="n.smcp" horiz-adv-x="639" 
d="M561 1l-31 -6q-54 75 -187 233.5t-205 235.5h-4v-464h-59v561h50q68 -71 186.5 -208.5t186.5 -225.5h4v434h59v-560z" />
    <glyph glyph-name="o.smcp" horiz-adv-x="657" 
d="M328 -7q-134 0 -203.5 82t-69.5 208q0 123 70 204t203 81q135 0 204.5 -81.5t69.5 -202.5q0 -128 -70 -209.5t-204 -81.5zM329 47q98 0 153 62t55 174q0 104 -54.5 167t-154.5 63t-154 -63t-54 -167q0 -109 54 -172.5t155 -63.5z" />
    <glyph glyph-name="p.smcp" horiz-adv-x="462" 
d="M135 0h-60v561h151q92 0 142 -42.5t50 -117.5q0 -176 -222 -176q-43 0 -61 2v-227zM135 508l-1 -227q24 -3 55 -3q85 0 126.5 26.5t41.5 94.5q0 109 -138 109h-84z" />
    <glyph glyph-name="q.smcp" horiz-adv-x="657" 
d="M548 -140q-95 0 -262 135q-113 13 -172 92.5t-59 195.5q0 123 70 204t203 81q135 0 204.5 -81.5t69.5 -202.5q0 -116 -57 -194.5t-167 -92.5q119 -88 194 -88q18 0 40 3v-42q-32 -10 -64 -10zM329 47q98 0 153 62t55 174q0 104 -54.5 167t-154.5 63t-154 -63t-54 -167
q0 -109 54 -172.5t155 -63.5z" />
    <glyph glyph-name="r.smcp" horiz-adv-x="514" 
d="M486 43v-43q-21 -6 -38 -6q-36 0 -62 27q-21 24 -67 91.5t-77 126.5h-107v-239h-60v561h147q188 0 188 -154q0 -55 -25.5 -90.5t-83.5 -57.5q33 -62 86.5 -139t79.5 -77h19zM135 508v-216h60q151 0 151 114q0 54 -34.5 78t-103.5 24h-73z" />
    <glyph glyph-name="s.smcp" horiz-adv-x="462" 
d="M402 144q0 -77 -54 -114t-142 -37q-94 0 -161 46l11 56q73 -48 150 -48q134 0 134 97q0 28 -21 51.5t-46 37t-67 34.5t-65 35q-84 51 -84 129q0 64 47.5 100.5t128.5 36.5q85 0 154 -36l-17 -51q-64 33 -134 33q-54 0 -84.5 -21t-30.5 -62q0 -27 21 -50t47.5 -36.5
t68.5 -34.5t65 -36q79 -52 79 -130z" />
    <glyph glyph-name="t.smcp" horiz-adv-x="563" 
d="M252 0v508h-204v53h467v-53h-203v-508h-60z" />
    <glyph glyph-name="u.smcp" horiz-adv-x="609" 
d="M305 -7q-109 0 -172 58t-63 173v337h61v-339q0 -87 50.5 -130t123.5 -43t123 43.5t50 130.5v338h61v-340q0 -63 -19 -108.5t-53 -71t-74 -37t-88 -11.5z" />
    <glyph glyph-name="v.smcp" horiz-adv-x="548" 
d="M270 94h5q99 243 174 468h64q-38 -106 -114.5 -303t-105.5 -259h-45q-34 78 -106.5 269.5t-106.5 293.5h65q99 -287 170 -469z" />
    <glyph glyph-name="w.smcp" horiz-adv-x="851" 
d="M611 0h-43q-18 42 -136 361h-5q-87 -238 -144 -361h-43q-55 129 -205 561h64q122 -355 164 -465h4q79 197 134 350l-11 27q-10 25 -19 35t-30 11v42q20 2 36 2q27 0 40.5 -11t26.5 -46q3 -9 32.5 -94t64 -183.5t46.5 -131.5h4q72 184 161 464h64q-27 -89 -100.5 -292.5
t-104.5 -268.5z" />
    <glyph glyph-name="x.smcp" horiz-adv-x="565" 
d="M533 0q-11 -7 -31 -7q-23 0 -35.5 5.5t-28.5 24.5q-10 11 -35 46t-64.5 92.5t-57.5 83.5h-4q-136 -197 -167 -245h-67q40 59 108.5 156t94.5 135q-93 138 -129 188q-15 21 -27.5 30t-31.5 9v42q15 3 28 3q27 0 44.5 -12t39.5 -45q37 -53 113 -171h4q46 66 146 226h65
q-118 -185 -181 -272q101 -153 158 -221q22 -27 49 -27h9v-41z" />
    <glyph glyph-name="y.smcp" horiz-adv-x="501" 
d="M218 0v261q-46 78 -139 217q-14 20 -24.5 28.5t-29.5 8.5v45q9 3 21 3q28 0 45 -11t41 -46q34 -50 116 -188h5q52 75 148 243h65q-94 -163 -188 -302v-259h-60z" />
    <glyph glyph-name="z.smcp" horiz-adv-x="537" 
d="M487 53v-53h-437v25q140 205 339 480l-1 3h-317v53h402l9 -23q-128 -170 -346 -482l1 -3h350z" />
    <glyph glyph-name="aacute.smcp" horiz-adv-x="593" 
d="M484 0l-74 181h-234l-70 -181h-61q10 25 64.5 158.5t100.5 245.5t67 157h36q139 -324 235 -561h-64zM296 467h-4q-62 -148 -95 -234h192q-27 67 -93 234zM265 635l-30 15l118 195l64 -33z" />
    <glyph glyph-name="agrave.smcp" horiz-adv-x="593" 
d="M484 0l-74 181h-234l-70 -181h-61q10 25 64.5 158.5t100.5 245.5t67 157h36q139 -324 235 -561h-64zM296 467h-4q-62 -148 -95 -234h192q-27 67 -93 234zM358 651l-29 -16l-155 176l65 33z" />
    <glyph glyph-name="acircumflex.smcp" horiz-adv-x="593" 
d="M484 0l-74 181h-234l-70 -181h-61q10 25 64.5 158.5t100.5 245.5t67 157h36q139 -324 235 -561h-64zM296 467h-4q-62 -148 -95 -234h192q-27 67 -93 234zM272 832h48l124 -181l-25 -16l-123 135l-123 -135l-25 16z" />
    <glyph glyph-name="atilde.smcp" horiz-adv-x="593" 
d="M484 0l-74 181h-234l-70 -181h-61q10 25 64.5 158.5t100.5 245.5t67 157h36q139 -324 235 -561h-64zM296 467h-4q-62 -148 -95 -234h192q-27 67 -93 234zM454 768q-1 -47 -20.5 -75t-57.5 -28q-24 0 -84 18.5t-78 18.5q-37 0 -41 -48h-35q1 47 20.5 75t57.5 28
q24 0 84 -18.5t78 -18.5q37 0 41 48h35z" />
    <glyph glyph-name="adieresis.smcp" horiz-adv-x="593" 
d="M484 0l-74 181h-234l-70 -181h-61q10 25 64.5 158.5t100.5 245.5t67 157h36q139 -324 235 -561h-64zM296 467h-4q-62 -148 -95 -234h192q-27 67 -93 234zM197 668q-18 0 -29.5 11.5t-11.5 28.5q0 16 11.5 27.5t29.5 11.5t29.5 -11.5t11.5 -27.5q0 -17 -11.5 -28.5
t-29.5 -11.5zM395 668q-18 0 -29.5 11.5t-11.5 28.5q0 16 11.5 27.5t29.5 11.5t29.5 -11.5t11.5 -27.5q0 -17 -11.5 -28.5t-29.5 -11.5z" />
    <glyph glyph-name="aring.smcp" horiz-adv-x="593" 
d="M484 0l-74 181h-234l-70 -181h-61q10 25 64.5 158.5t100.5 245.5t67 157h36q139 -324 235 -561h-64zM296 467h-4q-62 -148 -95 -234h192q-27 67 -93 234zM186 740q0 45 31.5 76.5t76.5 31.5q46 0 77 -30.5t31 -74.5q0 -45 -32 -76.5t-78 -31.5q-44 0 -75 30.5t-31 74.5z
M226 741q0 -32 19 -51.5t48 -19.5q32 0 50.5 20.5t18.5 51.5q0 34 -19.5 53.5t-50.5 19.5t-48.5 -21t-17.5 -53z" />
    <glyph glyph-name="ccedilla.smcp" horiz-adv-x="556" 
d="M506 31q-64 -32 -144 -37l-66 -59q103 0 103 -81q0 -35 -30 -59.5t-78 -24.5q-53 0 -88 23l10 33q33 -20 78 -20q58 0 58 45q0 47 -70 47h-43l-8 20l82 76q-111 8 -183 78t-72 203q0 146 77.5 219.5t202.5 73.5q36 0 85 -12t78 -28l-11 -55q-31 16 -75 27.5t-76 11.5
q-100 0 -158 -58t-58 -180q0 -118 63.5 -172.5t161.5 -54.5q75 0 154 36z" />
    <glyph glyph-name="eacute.smcp" horiz-adv-x="430" 
d="M75 0v561h294v-53h-234v-198h181l-7 -52h-174v-205h240v-53h-300zM184 635l-30 15l118 195l64 -33z" />
    <glyph glyph-name="egrave.smcp" horiz-adv-x="430" 
d="M75 0v561h294v-53h-234v-198h181l-7 -52h-174v-205h240v-53h-300zM277 651l-29 -16l-155 176l65 33z" />
    <glyph glyph-name="ecircumflex.smcp" horiz-adv-x="430" 
d="M75 0v561h294v-53h-234v-198h181l-7 -52h-174v-205h240v-53h-300zM201 832h48l124 -181l-25 -16l-123 135l-123 -135l-25 16z" />
    <glyph glyph-name="edieresis.smcp" horiz-adv-x="430" 
d="M75 0v561h294v-53h-234v-198h181l-7 -52h-174v-205h240v-53h-300zM124 668q-18 0 -29.5 11.5t-11.5 28.5q0 16 11.5 27.5t29.5 11.5t29.5 -11.5t11.5 -27.5q0 -17 -11.5 -28.5t-29.5 -11.5zM322 668q-18 0 -29.5 11.5t-11.5 28.5q0 16 11.5 27.5t29.5 11.5t29.5 -11.5
t11.5 -27.5q0 -17 -11.5 -28.5t-29.5 -11.5z" />
    <glyph glyph-name="iacute.smcp" horiz-adv-x="210" 
d="M75 0v561h60v-561h-60zM84 635l-30 15l118 195l64 -33z" />
    <glyph glyph-name="igrave.smcp" horiz-adv-x="210" 
d="M75 0v561h60v-561h-60zM157 651l-29 -16l-155 176l65 33z" />
    <glyph glyph-name="icircumflex.smcp" horiz-adv-x="210" 
d="M75 0v561h60v-561h-60zM81 832h48l124 -181l-25 -16l-123 135l-123 -135l-25 16z" />
    <glyph glyph-name="idieresis.smcp" horiz-adv-x="210" 
d="M75 0v561h60v-561h-60zM6 668q-18 0 -29.5 11.5t-11.5 28.5q0 16 11.5 27.5t29.5 11.5t29.5 -11.5t11.5 -27.5q0 -17 -11.5 -28.5t-29.5 -11.5zM204 668q-18 0 -29.5 11.5t-11.5 28.5q0 16 11.5 27.5t29.5 11.5t29.5 -11.5t11.5 -27.5q0 -17 -11.5 -28.5t-29.5 -11.5z
" />
    <glyph glyph-name="dotlessi.smcp" horiz-adv-x="210" 
d="M75 0v561h60v-561h-60z" />
    <glyph glyph-name="lslash.smcp" horiz-adv-x="452" 
d="M35 219v54l69 17v271h60v-256l126 32v-53l-126 -32v-199h238v-53h-298v236z" />
    <glyph glyph-name="ntilde.smcp" horiz-adv-x="639" 
d="M561 1l-31 -6q-54 75 -187 233.5t-205 235.5h-4v-464h-59v561h50q68 -71 186.5 -208.5t186.5 -225.5h4v434h59v-560zM482 768q-1 -47 -20.5 -75t-57.5 -28q-24 0 -84 18.5t-78 18.5q-37 0 -41 -48h-35q1 47 20.5 75t57.5 28q24 0 84 -18.5t78 -18.5q37 0 41 48h35z" />
    <glyph glyph-name="oacute.smcp" horiz-adv-x="657" 
d="M328 -7q-134 0 -203.5 82t-69.5 208q0 123 70 204t203 81q135 0 204.5 -81.5t69.5 -202.5q0 -128 -70 -209.5t-204 -81.5zM329 47q98 0 153 62t55 174q0 104 -54.5 167t-154.5 63t-154 -63t-54 -167q0 -109 54 -172.5t155 -63.5zM277 635l-30 15l118 195l64 -33z" />
    <glyph glyph-name="ograve.smcp" horiz-adv-x="657" 
d="M328 -7q-134 0 -203.5 82t-69.5 208q0 123 70 204t203 81q135 0 204.5 -81.5t69.5 -202.5q0 -128 -70 -209.5t-204 -81.5zM329 47q98 0 153 62t55 174q0 104 -54.5 167t-154.5 63t-154 -63t-54 -167q0 -109 54 -172.5t155 -63.5zM410 651l-29 -16l-155 176l65 33z" />
    <glyph glyph-name="ocircumflex.smcp" horiz-adv-x="657" 
d="M328 -7q-134 0 -203.5 82t-69.5 208q0 123 70 204t203 81q135 0 204.5 -81.5t69.5 -202.5q0 -128 -70 -209.5t-204 -81.5zM329 47q98 0 153 62t55 174q0 104 -54.5 167t-154.5 63t-154 -63t-54 -167q0 -109 54 -172.5t155 -63.5zM304 832h48l124 -181l-25 -16l-123 135
l-123 -135l-25 16z" />
    <glyph glyph-name="otilde.smcp" horiz-adv-x="657" 
d="M328 -7q-134 0 -203.5 82t-69.5 208q0 123 70 204t203 81q135 0 204.5 -81.5t69.5 -202.5q0 -128 -70 -209.5t-204 -81.5zM329 47q98 0 153 62t55 174q0 104 -54.5 167t-154.5 63t-154 -63t-54 -167q0 -109 54 -172.5t155 -63.5zM491 768q-1 -47 -20.5 -75t-57.5 -28
q-23 0 -84 18.5t-78 18.5q-37 0 -41 -48h-35q1 47 20.5 75t57.5 28q23 0 84 -18.5t78 -18.5q37 0 41 48h35z" />
    <glyph glyph-name="odieresis.smcp" horiz-adv-x="657" 
d="M328 -7q-134 0 -203.5 82t-69.5 208q0 123 70 204t203 81q135 0 204.5 -81.5t69.5 -202.5q0 -128 -70 -209.5t-204 -81.5zM329 47q98 0 153 62t55 174q0 104 -54.5 167t-154.5 63t-154 -63t-54 -167q0 -109 54 -172.5t155 -63.5zM229 668q-18 0 -29.5 11.5t-11.5 28.5
q0 16 11.5 27.5t29.5 11.5t29.5 -11.5t11.5 -27.5q0 -17 -11.5 -28.5t-29.5 -11.5zM427 668q-18 0 -29.5 11.5t-11.5 28.5q0 16 11.5 27.5t29.5 11.5t29.5 -11.5t11.5 -27.5q0 -17 -11.5 -28.5t-29.5 -11.5z" />
    <glyph glyph-name="oslash.smcp" horiz-adv-x="657" 
d="M328 -7q-84 0 -144 34l-31 -45h-58l50 73q-90 78 -90 228q0 123 70 204t203 81q82 0 145 -34l31 45h57l-50 -72q91 -78 91 -223q0 -128 -70 -209.5t-204 -81.5zM120 283q0 -116 59 -178l261 380q-48 28 -112 28q-100 0 -154 -63t-54 -167zM329 47q98 0 153 62t55 174
q0 110 -60 173l-261 -381q48 -28 113 -28z" />
    <glyph glyph-name="scaron.smcp" horiz-adv-x="462" 
d="M402 144q0 -77 -54 -114t-142 -37q-94 0 -161 46l11 56q73 -48 150 -48q134 0 134 97q0 28 -21 51.5t-46 37t-67 34.5t-65 35q-84 51 -84 129q0 64 47.5 100.5t128.5 36.5q85 0 154 -36l-17 -51q-64 33 -134 33q-54 0 -84.5 -21t-30.5 -62q0 -27 21 -50t47.5 -36.5
t68.5 -34.5t65 -36q79 -52 79 -130zM258 635h-48l-124 181l25 16l123 -135l123 135l25 -16z" />
    <glyph glyph-name="germandbls.smcp" horiz-adv-x="924" 
d="M402 144q0 -77 -54 -114t-142 -37q-94 0 -161 46l11 56q73 -48 150 -48q134 0 134 97q0 28 -21 51.5t-46 37t-67 34.5t-65 35q-84 51 -84 129q0 64 47.5 100.5t128.5 36.5q85 0 154 -36l-17 -51q-64 33 -134 33q-54 0 -84.5 -21t-30.5 -62q0 -27 21 -50t47.5 -36.5
t68.5 -34.5t65 -36q79 -52 79 -130zM864 144q0 -77 -54 -114t-142 -37q-94 0 -161 46l11 56q73 -48 150 -48q134 0 134 97q0 28 -21 51.5t-46 37t-67 34.5t-65 35q-84 51 -84 129q0 64 47.5 100.5t128.5 36.5q85 0 154 -36l-17 -51q-64 33 -134 33q-54 0 -84.5 -21
t-30.5 -62q0 -27 21 -50t47.5 -36.5t68.5 -34.5t65 -36q79 -52 79 -130z" />
    <glyph glyph-name="uacute.smcp" horiz-adv-x="609" 
d="M305 -7q-109 0 -172 58t-63 173v337h61v-339q0 -87 50.5 -130t123.5 -43t123 43.5t50 130.5v338h61v-340q0 -63 -19 -108.5t-53 -71t-74 -37t-88 -11.5zM283 635l-30 15l118 195l64 -33z" />
    <glyph glyph-name="ugrave.smcp" horiz-adv-x="609" 
d="M305 -7q-109 0 -172 58t-63 173v337h61v-339q0 -87 50.5 -130t123.5 -43t123 43.5t50 130.5v338h61v-340q0 -63 -19 -108.5t-53 -71t-74 -37t-88 -11.5zM356 651l-29 -16l-155 176l65 33z" />
    <glyph glyph-name="ucircumflex.smcp" horiz-adv-x="609" 
d="M305 -7q-109 0 -172 58t-63 173v337h61v-339q0 -87 50.5 -130t123.5 -43t123 43.5t50 130.5v338h61v-340q0 -63 -19 -108.5t-53 -71t-74 -37t-88 -11.5zM280 832h48l124 -181l-25 -16l-123 135l-123 -135l-25 16z" />
    <glyph glyph-name="udieresis.smcp" horiz-adv-x="609" 
d="M305 -7q-109 0 -172 58t-63 173v337h61v-339q0 -87 50.5 -130t123.5 -43t123 43.5t50 130.5v338h61v-340q0 -63 -19 -108.5t-53 -71t-74 -37t-88 -11.5zM205 668q-18 0 -29.5 11.5t-11.5 28.5q0 16 11.5 27.5t29.5 11.5t29.5 -11.5t11.5 -27.5q0 -17 -11.5 -28.5
t-29.5 -11.5zM403 668q-18 0 -29.5 11.5t-11.5 28.5q0 16 11.5 27.5t29.5 11.5t29.5 -11.5t11.5 -27.5q0 -17 -11.5 -28.5t-29.5 -11.5z" />
    <glyph glyph-name="yacute.smcp" horiz-adv-x="501" 
d="M218 0v261q-46 78 -139 217q-14 20 -24.5 28.5t-29.5 8.5v45q9 3 21 3q28 0 45 -11t41 -46q34 -50 116 -188h5q52 75 148 243h65q-94 -163 -188 -302v-259h-60zM220 635l-30 15l118 195l64 -33z" />
    <glyph glyph-name="ydieresis.smcp" horiz-adv-x="501" 
d="M218 0v261q-46 78 -139 217q-14 20 -24.5 28.5t-29.5 8.5v45q9 3 21 3q28 0 45 -11t41 -46q34 -50 116 -188h5q52 75 148 243h65q-94 -163 -188 -302v-259h-60zM151 668q-18 0 -29.5 11.5t-11.5 28.5q0 16 11.5 27.5t29.5 11.5t29.5 -11.5t11.5 -27.5q0 -17 -11.5 -28.5
t-29.5 -11.5zM349 668q-18 0 -29.5 11.5t-11.5 28.5q0 16 11.5 27.5t29.5 11.5t29.5 -11.5t11.5 -27.5q0 -17 -11.5 -28.5t-29.5 -11.5z" />
    <glyph glyph-name="zcaron.smcp" horiz-adv-x="537" 
d="M487 53v-53h-437v25q140 205 339 480l-1 3h-317v53h402l9 -23q-128 -170 -346 -482l1 -3h350zM288 635h-48l-124 181l25 16l123 -135l123 135l25 -16z" />
    <glyph glyph-name="eth.smcp" horiz-adv-x="643" 
d="M25 270v51h79v240h179q305 0 305 -280q0 -126 -71 -203.5t-221 -77.5h-192v270h-79zM164 508v-187h128v-51h-128v-217h126q120 0 176.5 64.5t56.5 164.5q0 226 -240 226h-119z" />
    <glyph glyph-name="thorn.smcp" horiz-adv-x="468" 
d="M418 291q0 -176 -222 -176q-33 0 -61 2v-117h-60v561h60v-109h94q92 0 140.5 -43t48.5 -118zM135 399l-1 -228q24 -3 55 -3q85 0 126.5 26.5t41.5 94.5q0 110 -138 110h-84z" />
    <glyph glyph-name="ae.smcp" horiz-adv-x="794" 
d="M439 0v142h-235q-85 -126 -95 -142h-74q81 120 203 290t200 271h295v-53h-234v-198h181l-7 -52h-174v-205h240v-53h-300zM435 463q-84 -110 -194 -269h198v268z" />
    <glyph glyph-name="oe.smcp" horiz-adv-x="755" 
d="M700 0h-372q-135 0 -204 76t-69 200t70 204.5t204 80.5h365v-53h-234v-198h181l-7 -52h-174v-205h240v-53zM120 275q0 -104 55 -163t156 -59h69v455h-69q-100 0 -155.5 -64.5t-55.5 -168.5z" />
    <glyph glyph-name="fi.smcp" horiz-adv-x="618" 
d="M76 0l-1 561h293v-53h-233v-199h188l-6 -52h-181v-257h-60zM483 0v561h60v-561h-60z" />
    <glyph glyph-name="fl.smcp" horiz-adv-x="813" 
d="M76 0l-1 561h293v-53h-233v-199h188l-6 -52h-181v-257h-60zM475 0v561h60v-508h238v-53h-298z" />
    <glyph glyph-name="ampersand.smcp" horiz-adv-x="630" 
d="M592 0q-16 -7 -34 -7q-55 0 -154 79q-75 -78 -186 -78q-84 0 -129 43t-45 105q0 49 30.5 93.5t87.5 74.5q-40 62 -40 116q0 71 43 106.5t108 35.5q74 0 139 -40l-22 -49q-62 38 -117 38q-43 0 -67.5 -24t-24.5 -62q0 -59 63.5 -137.5t155.5 -145.5q50 69 95 168h61
q-42 -102 -113 -198l73 -52q35 -24 63 -24h13v-42zM222 46q84 0 143 57q-110 88 -175 167q-40 -24 -62.5 -58t-22.5 -69q0 -41 30 -69t87 -28z" />
    <glyph glyph-name="zero.tosf" 
d="M323 49q89 0 137.5 64.5t48.5 161.5q0 110 -48.5 173.5t-137.5 63.5q-91 0 -136.5 -68t-45.5 -170q0 -91 46 -158t136 -67zM323 -7q-114 0 -182 79.5t-68 201.5q0 125 65 209.5t185 84.5q122 0 188 -81.5t66 -211.5q0 -125 -69 -203.5t-185 -78.5z" />
    <glyph glyph-name="one.tosf" 
d="M163 0v55h160v429l-160 -12v41q110 15 204 48h18v-506h145v-55h-367z" />
    <glyph glyph-name="two.tosf" 
d="M142 446l-20 53q37 31 91.5 50t108.5 19q78 0 130 -39.5t52 -120.5q0 -43 -20 -89t-44 -78.5t-68 -73.5t-66 -58.5t-65 -50.5v-3h288v-55h-402l-7 37q37 25 50.5 34.5t55 41t62.5 51t54.5 53.5t50.5 61.5t30.5 62.5t13.5 67q0 103 -123 103q-86 0 -172 -65z" />
    <glyph glyph-name="three.tosf" 
d="M525 51q0 -104 -62.5 -160.5t-158.5 -56.5q-106 0 -204 66l20 58q87 -67 184 -67q72 0 113.5 41.5t41.5 117.5q0 154 -218 154v43q191 49 191 161q0 52 -32.5 77.5t-84.5 25.5q-47 0 -95.5 -20t-79.5 -53l-21 54q82 76 198 76q77 0 129 -40.5t52 -118.5
q0 -60 -34.5 -102.5t-91.5 -64.5v-4q153 -40 153 -187z" />
    <glyph glyph-name="four.tosf" 
d="M443 568l29 -10v-459h93l-7 -55h-86v-196h-62v196h-342v49q241 310 375 475zM405 437q-149 -182 -261 -332l1 -6h265v335z" />
    <glyph glyph-name="five.tosf" 
d="M304 -166q-109 0 -199 65l20 58q84 -67 183 -67q73 0 114.5 38t41.5 114q0 42 -13.5 72.5t-48 56t-98.5 42t-160 24.5q25 173 37 324h326v-55h-272q-10 -118 -24 -215q60 -7 105.5 -18t87 -30t68.5 -45.5t42.5 -66t15.5 -90.5q0 -91 -59.5 -149t-166.5 -58z" />
    <glyph glyph-name="six.tosf" 
d="M489 672q-126 -36 -203 -112.5t-104 -174.5l5 -1q76 50 154 50q103 0 153.5 -59.5t50.5 -159.5q0 -109 -65 -165.5t-152 -56.5q-112 0 -167.5 83t-55.5 202q0 67 21 133.5t63.5 129.5t115.5 112.5t168 72.5zM335 376q-82 0 -166 -62q-1 -12 -1 -34q0 -101 40 -166
t119 -65q71 0 112 44.5t41 120.5q0 78 -38 120t-107 42z" />
    <glyph glyph-name="seven.tosf" 
d="M233 -159h-71l318 663h-372v57h431l14 -23z" />
    <glyph glyph-name="eight.tosf" 
d="M325 -7q-108 0 -160.5 56t-52.5 135q0 66 40.5 117t107.5 81q-60 34 -94 73.5t-34 99.5q0 77 52 124.5t141 47.5t141 -47.5t52 -124.5q0 -60 -34 -99.5t-94 -73.5q67 -30 107.5 -81t40.5 -117q0 -79 -52.5 -135t-160.5 -56zM325 413q71 35 99.5 67.5t28.5 72.5
q0 58 -35 87.5t-93 29.5t-93 -29.5t-35 -87.5q0 -40 28.5 -72.5t99.5 -67.5zM325 50q70 0 109.5 37t39.5 96q0 58 -36 97t-113 73q-77 -34 -113 -73t-36 -97q0 -59 39.5 -96t109.5 -37z" />
    <glyph glyph-name="nine.tosf" 
d="M168 -112q239 92 300 298l-3 2q-70 -54 -172 -54q-99 0 -146 60.5t-47 147.5q0 106 66 166t151 60q77 0 129 -42t73 -103.5t21 -137.5q0 -68 -18.5 -131.5t-58.5 -125t-111.5 -112t-168.5 -81.5zM304 193q89 0 171 62q2 18 2 28q0 103 -42 165.5t-117 62.5
q-72 0 -112.5 -48t-40.5 -119q0 -151 139 -151z" />
    <glyph glyph-name="zero.lf" horiz-adv-x="670" 
d="M335 49q92 0 139.5 82t47.5 228q0 148 -48.5 230t-138.5 82q-93 0 -140 -85.5t-47 -226.5t47 -225.5t140 -84.5zM335 -7q-118 0 -186.5 96t-68.5 270q0 164 66.5 266t188.5 102q123 0 189 -100t66 -268q0 -176 -68 -271t-187 -95z" />
    <glyph glyph-name="one.lf" horiz-adv-x="390" 
d="M184 0v638h-120v34q94 19 157 48h25v-720h-62z" />
    <glyph glyph-name="two.lf" horiz-adv-x="610" 
d="M94 0l-6 37q185 181 263.5 288t78.5 206q0 66 -38 102.5t-100 36.5q-89 0 -172 -65l-20 53q91 69 192 69q94 0 149.5 -52t55.5 -146q0 -47 -21 -101t-48 -97.5t-74.5 -99.5t-79 -89t-82.5 -83v-4h330v-55h-428z" />
    <glyph glyph-name="three.lf" horiz-adv-x="610" 
d="M510 210q0 -104 -62.5 -160.5t-158.5 -56.5q-107 0 -204 66l20 58q87 -67 184 -67q72 0 113.5 41.5t41.5 117.5q0 154 -218 154v43q191 49 191 161q0 52 -32.5 77.5t-84.5 25.5q-47 0 -95.5 -20t-79.5 -53l-21 54q82 76 198 76q77 0 129 -40.5t52 -118.5
q0 -60 -34.5 -102.5t-91.5 -64.5v-4q153 -40 153 -187z" />
    <glyph glyph-name="four.lf" horiz-adv-x="670" 
d="M453 720l29 -10v-459h93l-7 -55h-86v-196h-62v196h-342v49q241 310 375 475zM415 589q-149 -182 -261 -332l1 -6h265v335z" />
    <glyph glyph-name="five.lf" horiz-adv-x="610" 
d="M284 -7q-109 0 -199 65l20 58q84 -67 183 -67q73 0 114.5 38t41.5 114q0 42 -13.5 72.5t-48 56t-98.5 42t-160 24.5q25 173 37 324h326v-55h-272q-10 -118 -24 -215q60 -7 105.5 -18t87 -30t68.5 -45.5t42.5 -66t15.5 -90.5q0 -91 -59.5 -149t-166.5 -58z" />
    <glyph glyph-name="six.lf" horiz-adv-x="610" 
d="M469 672q-126 -36 -203 -112.5t-104 -174.5l5 -1q76 50 154 50q103 0 153.5 -59.5t50.5 -159.5q0 -109 -65 -165.5t-152 -56.5q-112 0 -167.5 83t-55.5 202q0 67 21 133.5t63.5 129.5t115.5 112.5t168 72.5zM315 376q-82 0 -166 -62q-1 -12 -1 -34q0 -101 40 -166
t119 -65q71 0 112 44.5t41 120.5q0 78 -38 120t-107 42z" />
    <glyph glyph-name="seven.lf" horiz-adv-x="610" 
d="M213 0h-71l318 663h-372v57h431l14 -23z" />
    <glyph glyph-name="eight.lf" horiz-adv-x="610" 
d="M305 -7q-108 0 -160.5 56t-52.5 135q0 66 40.5 117t107.5 81q-60 34 -94 73.5t-34 99.5q0 77 52 124.5t141 47.5t141 -47.5t52 -124.5q0 -60 -34 -99.5t-94 -73.5q67 -30 107.5 -81t40.5 -117q0 -79 -52.5 -135t-160.5 -56zM305 413q71 35 99.5 67.5t28.5 72.5
q0 58 -35 87.5t-93 29.5t-93 -29.5t-35 -87.5q0 -40 28.5 -72.5t99.5 -67.5zM305 50q70 0 109.5 37t39.5 96q0 58 -36 97t-113 73q-77 -34 -113 -73t-36 -97q0 -59 39.5 -96t109.5 -37z" />
    <glyph glyph-name="nine.lf" horiz-adv-x="610" 
d="M148 47q239 92 300 298l-3 2q-70 -54 -172 -54q-99 0 -146 60.5t-47 147.5q0 106 66 166t151 60q77 0 129 -42t73 -103.5t21 -137.5q0 -68 -18.5 -131.5t-58.5 -125t-111.5 -112t-168.5 -81.5zM284 352q89 0 171 62q2 18 2 28q0 103 -42 165.5t-117 62.5
q-72 0 -112.5 -48t-40.5 -119q0 -151 139 -151z" />
    <glyph glyph-name="zero.osf" 
d="M323 49q89 0 137.5 64.5t48.5 161.5q0 110 -48.5 173.5t-137.5 63.5q-91 0 -136.5 -68t-45.5 -170q0 -91 46 -158t136 -67zM323 -7q-114 0 -182 79.5t-68 201.5q0 125 65 209.5t185 84.5q122 0 188 -81.5t66 -211.5q0 -125 -69 -203.5t-185 -78.5z" />
    <glyph glyph-name="one.osf" horiz-adv-x="390" 
d="M184 0v479h-120v34q94 19 157 48h25v-561h-62z" />
    <glyph glyph-name="two.osf" horiz-adv-x="610" 
d="M122 446l-20 53q37 31 91.5 50t108.5 19q78 0 130 -39.5t52 -120.5q0 -43 -20 -89t-44 -78.5t-68 -73.5t-66 -58.5t-65 -50.5v-3h288v-55h-402l-7 37q37 25 50.5 34.5t55 41t62.5 51t54.5 53.5t50.5 61.5t30.5 62.5t13.5 67q0 103 -123 103q-86 0 -172 -65z" />
    <glyph glyph-name="three.osf" horiz-adv-x="610" 
d="M505 51q0 -104 -62.5 -160.5t-158.5 -56.5q-106 0 -204 66l20 58q87 -67 184 -67q72 0 113.5 41.5t41.5 117.5q0 154 -218 154v43q191 49 191 161q0 52 -32.5 77.5t-84.5 25.5q-47 0 -95.5 -20t-79.5 -53l-21 54q82 76 198 76q77 0 129 -40.5t52 -118.5
q0 -60 -34.5 -102.5t-91.5 -64.5v-4q153 -40 153 -187z" />
    <glyph glyph-name="four.osf" horiz-adv-x="670" 
d="M453 568l29 -10v-459h93l-7 -55h-86v-196h-62v196h-342v49q241 310 375 475zM415 437q-149 -182 -261 -332l1 -6h265v335z" />
    <glyph glyph-name="five.osf" horiz-adv-x="610" 
d="M284 -166q-109 0 -199 65l20 58q84 -67 183 -67q73 0 114.5 38t41.5 114q0 42 -13.5 72.5t-48 56t-98.5 42t-160 24.5q25 173 37 324h326v-55h-272q-10 -118 -24 -215q60 -7 105.5 -18t87 -30t68.5 -45.5t42.5 -66t15.5 -90.5q0 -91 -59.5 -149t-166.5 -58z" />
    <glyph glyph-name="six.osf" horiz-adv-x="610" 
d="M469 672q-126 -36 -203 -112.5t-104 -174.5l5 -1q76 50 154 50q103 0 153.5 -59.5t50.5 -159.5q0 -109 -65 -165.5t-152 -56.5q-112 0 -167.5 83t-55.5 202q0 67 21 133.5t63.5 129.5t115.5 112.5t168 72.5zM315 376q-82 0 -166 -62q-1 -12 -1 -34q0 -101 40 -166
t119 -65q71 0 112 44.5t41 120.5q0 78 -38 120t-107 42z" />
    <glyph glyph-name="seven.osf" horiz-adv-x="610" 
d="M213 -159h-71l318 663h-372v57h431l14 -23z" />
    <glyph glyph-name="eight.osf" horiz-adv-x="610" 
d="M305 -7q-108 0 -160.5 56t-52.5 135q0 66 40.5 117t107.5 81q-60 34 -94 73.5t-34 99.5q0 77 52 124.5t141 47.5t141 -47.5t52 -124.5q0 -60 -34 -99.5t-94 -73.5q67 -30 107.5 -81t40.5 -117q0 -79 -52.5 -135t-160.5 -56zM305 413q71 35 99.5 67.5t28.5 72.5
q0 58 -35 87.5t-93 29.5t-93 -29.5t-35 -87.5q0 -40 28.5 -72.5t99.5 -67.5zM305 50q70 0 109.5 37t39.5 96q0 58 -36 97t-113 73q-77 -34 -113 -73t-36 -97q0 -59 39.5 -96t109.5 -37z" />
    <glyph glyph-name="nine.osf" horiz-adv-x="610" 
d="M148 -112q239 92 300 298l-3 2q-70 -54 -172 -54q-99 0 -146 60.5t-47 147.5q0 106 66 166t151 60q77 0 129 -42t73 -103.5t21 -137.5q0 -68 -18.5 -131.5t-58.5 -125t-111.5 -112t-168.5 -81.5zM284 193q89 0 171 62q2 18 2 28q0 103 -42 165.5t-117 62.5
q-72 0 -112.5 -48t-40.5 -119q0 -151 139 -151z" />
    <glyph glyph-name="zero.numr" horiz-adv-x="360" 
d="M180 414q43 0 65 37.5t22 100.5t-22 100t-65 37q-44 0 -66 -37.5t-22 -100.5t22 -100t66 -37zM180 376q-64 0 -101 45.5t-37 129.5q0 79 36 127.5t102 48.5q64 0 101 -45.5t37 -129.5q0 -79 -36 -127.5t-102 -48.5z" />
    <glyph glyph-name="one.numr" horiz-adv-x="360" 
d="M78 383v36h86v257l-86 -5v28q66 8 118 24h16v-305h79v-35h-213z" />
    <glyph glyph-name="two.numr" horiz-adv-x="360" 
d="M58 383l-6 26q93 77 135 127.5t42 94.5q0 28 -17.5 43.5t-47.5 15.5q-47 0 -90 -30l-15 35q48 32 109 32q52 0 83 -24.5t31 -70.5q0 -82 -145 -207v-2h158v-40h-237z" />
    <glyph glyph-name="three.numr" horiz-adv-x="360" 
d="M170 376q-60 0 -113 31l14 37q46 -31 96 -31q35 0 55 17.5t20 49.5t-29 50t-81 18v26q96 21 96 72q0 43 -57 43q-50 0 -91 -32l-15 33q48 37 113 37q45 0 73.5 -19.5t28.5 -55.5q0 -28 -17.5 -49.5t-45.5 -32.5v-2q78 -19 78 -89q0 -49 -35 -76t-90 -27z" />
    <glyph glyph-name="four.numr" horiz-adv-x="360" 
d="M237 725l29 -4v-215h46l-5 -36h-41v-87h-45v87h-179v30q160 187 195 225zM218 652q-21 -23 -122 -143v-3h125v145z" />
    <glyph glyph-name="five.numr" horiz-adv-x="360" 
d="M170 376q-55 0 -113 29l15 40q50 -29 97 -29q34 0 55 16t21 48q0 35 -38 54.5t-130 26.5q12 68 22 159h186v-40h-144q-4 -38 -11 -86q165 -10 165 -113q0 -50 -35.5 -77.5t-89.5 -27.5z" />
    <glyph glyph-name="six.numr" horiz-adv-x="360" 
d="M274 693q-125 -32 -160 -126l3 -1q35 23 78 23q49 0 78.5 -29t29.5 -76q0 -44 -32 -76t-89 -32q-59 0 -91.5 39.5t-32.5 97.5q0 71 54 132.5t151 81.5zM185 552q-39 0 -79 -28v-6q0 -46 19 -75t57 -29q32 0 52 19t20 51q0 33 -18 50.5t-51 17.5z" />
    <glyph glyph-name="seven.numr" horiz-adv-x="360" 
d="M150 383h-54l164 297h-194v40h238l10 -16z" />
    <glyph glyph-name="eight.numr" horiz-adv-x="360" 
d="M179 376q-57 0 -88 28t-31 67q0 62 74 92q-64 33 -64 79q0 38 29.5 61.5t79.5 23.5q51 0 80 -24t29 -61q0 -47 -65 -80q76 -31 76 -92q0 -39 -31.5 -66.5t-88.5 -27.5zM180 411q32 0 51 17t19 42t-17 41.5t-54 30.5q-70 -25 -70 -72q0 -25 19.5 -42t51.5 -17zM179 580
q33 15 47 29t14 31q0 25 -17.5 39t-43.5 14q-27 0 -44.5 -14t-17.5 -39q0 -17 13.5 -31t48.5 -29z" />
    <glyph glyph-name="nine.numr" horiz-adv-x="360" 
d="M85 411q117 30 159 125l-3 1q-33 -23 -77 -23q-49 0 -78.5 29.5t-29.5 75.5q0 44 32 76t89 32q59 0 91.5 -39.5t32.5 -97.5q0 -71 -54 -132.5t-151 -81.5zM173 551q40 0 80 28q-4 110 -76 110q-33 0 -53 -19t-20 -51q0 -33 18 -50.5t51 -17.5z" />
    <glyph glyph-name="zero.dnom" horiz-adv-x="360" 
d="M180 31q43 0 65 37.5t22 100.5t-22 100t-65 37q-44 0 -66 -37.5t-22 -100.5t22 -100t66 -37zM180 -7q-64 0 -101 45.5t-37 129.5q0 79 36 127.5t102 48.5q64 0 101 -45.5t37 -129.5q0 -79 -36 -127.5t-102 -48.5z" />
    <glyph glyph-name="one.dnom" horiz-adv-x="360" 
d="M78 0v36h86v257l-86 -5v28q66 8 118 24h16v-305h79v-35h-213z" />
    <glyph glyph-name="two.dnom" horiz-adv-x="360" 
d="M58 0l-6 26q93 77 135 127.5t42 94.5q0 28 -17.5 43.5t-47.5 15.5q-47 0 -90 -30l-15 35q48 32 109 32q52 0 83 -24.5t31 -70.5q0 -82 -145 -207v-2h158v-40h-237z" />
    <glyph glyph-name="three.dnom" horiz-adv-x="360" 
d="M170 -7q-60 0 -113 31l14 37q46 -31 96 -31q35 0 55 17.5t20 49.5t-29 50t-81 18v26q96 21 96 72q0 43 -57 43q-50 0 -91 -32l-15 33q48 37 113 37q45 0 73.5 -19.5t28.5 -55.5q0 -57 -63 -82v-2q78 -19 78 -89q0 -49 -35 -76t-90 -27z" />
    <glyph glyph-name="four.dnom" horiz-adv-x="360" 
d="M237 342l29 -4v-215h46l-5 -36h-41v-87h-45v87h-179v30q160 187 195 225zM218 269q-21 -23 -122 -143v-3h125v145z" />
    <glyph glyph-name="five.dnom" horiz-adv-x="360" 
d="M170 -7q-55 0 -113 29l15 40q50 -29 97 -29q34 0 55 16t21 48q0 35 -38 54.5t-130 26.5q12 68 22 159h186v-40h-144q-4 -38 -11 -86q165 -10 165 -113q0 -50 -35.5 -77.5t-89.5 -27.5z" />
    <glyph glyph-name="six.dnom" horiz-adv-x="360" 
d="M274 310q-125 -32 -160 -126l3 -1q35 23 78 23q49 0 78.5 -29t29.5 -76q0 -44 -32 -76t-89 -32q-59 0 -91.5 39.5t-32.5 97.5q0 71 54 132.5t151 81.5zM185 169q-39 0 -79 -28v-6q0 -46 19 -75t57 -29q32 0 52 19t20 51q0 33 -18 50.5t-51 17.5z" />
    <glyph glyph-name="seven.dnom" horiz-adv-x="360" 
d="M150 0h-54l164 297h-194v40h238l10 -16z" />
    <glyph glyph-name="eight.dnom" horiz-adv-x="360" 
d="M179 -7q-57 0 -88 28t-31 67q0 62 74 92q-64 33 -64 79q0 38 29.5 61.5t79.5 23.5q51 0 80 -24t29 -61q0 -47 -65 -80q76 -31 76 -92q0 -39 -31.5 -66.5t-88.5 -27.5zM180 28q32 0 51 17t19 42t-17 41.5t-54 30.5q-70 -25 -70 -72q0 -25 19.5 -42t51.5 -17zM179 197
q33 15 47 29t14 31q0 25 -17.5 39t-43.5 14q-27 0 -44.5 -14t-17.5 -39q0 -17 13.5 -31t48.5 -29z" />
    <glyph glyph-name="nine.dnom" horiz-adv-x="360" 
d="M85 28q117 30 159 125l-3 1q-33 -23 -77 -23q-49 0 -78.5 29.5t-29.5 75.5q0 44 32 76t89 32q59 0 91.5 -39.5t32.5 -97.5q0 -71 -54 -132.5t-151 -81.5zM173 168q40 0 80 28q-4 110 -76 110q-33 0 -53 -19t-20 -51q0 -33 18 -50.5t51 -17.5z" />
    <glyph glyph-name="acute.case" horiz-adv-x="400" 
d="M99 825l-19 28l201 109l39 -60z" />
    <glyph glyph-name="grave.case" horiz-adv-x="400" 
d="M301 825l-221 77l39 60l201 -109z" />
    <glyph glyph-name="circumflex.case" horiz-adv-x="400" 
d="M178 955h44l146 -105l-16 -25l-152 72l-152 -72l-16 25z" />
    <glyph glyph-name="tilde.case" horiz-adv-x="400" 
d="M358 941q-1 -47 -20.5 -75t-57.5 -28q-24 0 -84 18.5t-78 18.5q-37 0 -41 -48h-35q1 47 20.5 75t57.5 28q24 0 84 -18.5t78 -18.5q37 0 41 48h35z" />
    <glyph glyph-name="dieresis.case" horiz-adv-x="400" 
d="M101 838q-18 0 -29.5 11.5t-11.5 28.5q0 16 11.5 27.5t29.5 11.5t29.5 -11.5t11.5 -27.5q0 -17 -11.5 -28.5t-29.5 -11.5zM299 838q-18 0 -29.5 11.5t-11.5 28.5q0 16 11.5 27.5t29.5 11.5t29.5 -11.5t11.5 -27.5q0 -17 -11.5 -28.5t-29.5 -11.5z" />
    <glyph glyph-name="ring.case" horiz-adv-x="400" 
d="M308 890q0 -45 -32 -76.5t-78 -31.5q-44 0 -75 30.5t-31 74.5q0 45 31.5 76.5t76.5 31.5q46 0 77 -30.5t31 -74.5zM268 889q0 34 -19.5 53.5t-50.5 19.5t-48.5 -21t-17.5 -53t19 -51.5t48 -19.5q32 0 50.5 20.5t18.5 51.5z" />
    <glyph glyph-name="caron.case" horiz-adv-x="400" 
d="M222 825h-44l-146 105l16 25l152 -72l152 72l16 -25z" />
    <glyph glyph-name="macron.case" horiz-adv-x="400" 
d="M350 914v-52h-300v52h300z" />
    <glyph glyph-name="breve.case" horiz-adv-x="400" 
d="M200 825q-60 0 -98.5 35t-44.5 102l31 9q28 -98 112 -98t112 98l31 -9q-6 -67 -44.5 -102t-98.5 -35z" />
    <glyph glyph-name="hungarumlaut.case" horiz-adv-x="400" 
d="M80 824l-25 13l83 184l62 -32zM225 824l-25 13l83 184l62 -32z" />
    <glyph glyph-name="dotaccent.case" horiz-adv-x="400" 
d="M154 872q0 19 13 32.5t33 13.5t33 -13t13 -33t-13.5 -33.5t-32.5 -13.5q-21 0 -33.5 13.5t-12.5 33.5z" />
    <glyph glyph-name="acute.smcp" horiz-adv-x="400" 
d="M139 635l-30 15l118 195l64 -33z" />
    <glyph glyph-name="grave.smcp" horiz-adv-x="400" 
d="M292 651l-29 -16l-155 176l65 33z" />
    <glyph glyph-name="circumflex.smcp" horiz-adv-x="400" 
d="M176 832h48l124 -181l-25 -16l-123 135l-123 -135l-25 16z" />
    <glyph glyph-name="tilde.smcp" horiz-adv-x="400" 
d="M358 768q-1 -47 -20.5 -75t-57.5 -28q-24 0 -84 18.5t-78 18.5q-37 0 -41 -48h-35q1 47 20.5 75t57.5 28q24 0 84 -18.5t78 -18.5q37 0 41 48h35z" />
    <glyph glyph-name="dieresis.smcp" horiz-adv-x="400" 
d="M101 668q-18 0 -29.5 11.5t-11.5 28.5q0 16 11.5 27.5t29.5 11.5t29.5 -11.5t11.5 -27.5q0 -17 -11.5 -28.5t-29.5 -11.5zM299 668q-18 0 -29.5 11.5t-11.5 28.5q0 16 11.5 27.5t29.5 11.5t29.5 -11.5t11.5 -27.5q0 -17 -11.5 -28.5t-29.5 -11.5z" />
    <glyph glyph-name="ring.smcp" horiz-adv-x="400" 
d="M92 740q0 45 31.5 76.5t76.5 31.5q46 0 77 -30.5t31 -74.5q0 -45 -32 -76.5t-78 -31.5q-44 0 -75 30.5t-31 74.5zM132 741q0 -32 19 -51.5t48 -19.5q32 0 50.5 20.5t18.5 51.5q0 34 -19.5 53.5t-50.5 19.5t-48.5 -21t-17.5 -53z" />
    <glyph glyph-name="caron.smcp" horiz-adv-x="400" 
d="M224 635h-48l-124 181l25 16l123 -135l123 135l25 -16z" />
    <glyph glyph-name="macron.smcp" horiz-adv-x="400" 
d="M350 740v-56h-300v56h300z" />
    <glyph glyph-name="breve.smcp" horiz-adv-x="400" 
d="M200 635q-60 0 -98.5 35t-44.5 102l31 9q28 -98 112 -98t112 98l31 -9q-6 -67 -44.5 -102t-98.5 -35z" />
    <glyph glyph-name="hungarumlaut.smcp" horiz-adv-x="400" 
d="M80 635l-25 13l83 184l62 -32zM225 635l-25 13l83 184l62 -32z" />
    <glyph glyph-name="dotaccent.smcp" horiz-adv-x="400" 
d="M154 701q0 19 13 32.5t33 13.5t33 -13t13 -33t-13.5 -33.5t-32.5 -13.5q-21 0 -33.5 13.5t-12.5 33.5z" />
    <glyph glyph-name="guillemotleft.case" horiz-adv-x="598" 
d="M70 314v36l232 195v-62l-181 -151l181 -151v-62zM281 314v36l232 195v-62l-181 -151l181 -151v-62z" />
    <glyph glyph-name="guillemotright.case" horiz-adv-x="598" 
d="M528 314l-232 -195v62l181 151l-181 151v62l232 -195v-36zM317 314l-232 -195v62l181 151l-181 151v62l232 -195v-36z" />
    <glyph glyph-name="guilsinglleft.case" horiz-adv-x="387" 
d="M70 314v36l232 195v-62l-181 -151l181 -151v-62z" />
    <glyph glyph-name="guilsinglright.case" horiz-adv-x="387" 
d="M317 314l-232 -195v62l181 151l-181 151v62l232 -195v-36z" />
    <glyph glyph-name="exclamdown.case" horiz-adv-x="308" 
d="M115 -7l16 574h42l22 -567zM110 714q0 18 13 30.5t31 12.5t31 -12.5t13 -30.5q0 -19 -13 -31.5t-31 -12.5t-31 12.5t-13 31.5z" />
    <glyph glyph-name="questiondown.case" horiz-adv-x="446" 
d="M287 567q24 -42 24 -81q0 -42 -20 -78t-48.5 -63t-57.5 -53.5t-49 -59.5t-20 -69q0 -56 36.5 -88t93.5 -32q71 0 118 34l22 -47q-66 -37 -139 -37q-89 0 -138 48.5t-49 118.5q0 46 20.5 85t49.5 67t58 54t49.5 58t20.5 68q0 35 -21 75h50zM211 714q0 18 13 30.5t31 12.5
t31 -12.5t13 -30.5q0 -19 -13 -31.5t-31 -12.5t-31 12.5t-13 31.5z" />
    <glyph glyph-name="hyphen.case" horiz-adv-x="380" 
d="M30 296v49l320 20v-49z" />
    <glyph glyph-name="endash.case" horiz-adv-x="620" 
d="M30 308v50h560v-50h-560z" />
    <glyph glyph-name="emdash.case" horiz-adv-x="900" 
d="M30 308v50h840v-50h-840z" />
    <glyph glyph-name="parenleft.case" horiz-adv-x="426" 
d="M138 372q0 -259 208 -376v-61q-125 52 -200.5 167.5t-75.5 269.5t75.5 269.5t200.5 167.5v-61q-208 -117 -208 -376z" />
    <glyph glyph-name="parenright.case" horiz-adv-x="426" 
d="M288 372q0 259 -208 376v61q125 -52 200.5 -167.5t75.5 -269.5t-75.5 -269.5t-200.5 -167.5v61q208 117 208 376z" />
    <glyph glyph-name="bracketleft.case" horiz-adv-x="408" 
d="M318 750h-136v-757h136v-55h-198v867h198v-55z" />
    <glyph glyph-name="bracketright.case" horiz-adv-x="408" 
d="M90 -7h136v757h-136v55h198v-867h-198v55z" />
    <glyph glyph-name="braceleft.case" horiz-adv-x="472" 
d="M184 69v152q0 62 -21 87.5t-83 36.5v54q62 11 83 36.5t21 87.5v151q0 77 34 104t117 27h47v-55h-43q-51 0 -72 -14.5t-21 -66.5v-152q0 -61 -23.5 -94t-81.5 -50v-2q58 -17 81.5 -50t23.5 -94v-153q0 -52 21 -66.5t72 -14.5h43v-55h-47q-83 0 -117 27t-34 104z" />
    <glyph glyph-name="braceright.case" horiz-adv-x="472" 
d="M288 221v-152q0 -77 -34 -104t-117 -27h-47v55h43q51 0 72 14.5t21 66.5v153q0 61 23.5 94t81.5 50v2q-58 17 -81.5 50t-23.5 94v152q0 52 -21 66.5t-72 14.5h-43v55h47q83 0 117 -27t34 -104v-151q0 -62 21 -87.5t83 -36.5v-54q-62 -11 -83 -36.5t-21 -87.5z" />
    <glyph glyph-name="at.case" horiz-adv-x="840" 
d="M404 -7q-69 0 -130 21.5t-109.5 62.5t-76.5 108.5t-28 153.5q0 183 105.5 300t292.5 118q61 0 117.5 -18t103 -53t74 -92t27.5 -128q0 -113 -67 -197t-165 -84q-62 0 -69 60l-4 1q-16 -20 -48 -37.5t-65 -17.5q-61 0 -89.5 43.5t-28.5 108.5q0 101 52.5 168.5t145.5 67.5
q48 0 90 -29l16 22h23q-45 -263 -45 -299q0 -40 33 -40q68 0 119.5 66t51.5 167q0 117 -79 181.5t-197 64.5q-157 -1 -251 -102.5t-94 -267.5q0 -148 84 -226t214 -78q134 0 257 85l26 -34q-128 -96 -286 -96zM363 239q57 0 116 63l36 206q-31 26 -75 26q-68 0 -105.5 -56
t-37.5 -134q0 -105 66 -105z" />
    </font>
</defs>
</svg>
