<?xml version="1.0" standalone="no"?>
<!DOCTYPE svg PUBLIC "-//W3C//DTD SVG 1.1//EN" "http://www.w3.org/Graphics/SVG/1.1/DTD/svg11.dtd" >
<svg>
<metadata>
Created by FontForge 20120731 at Wed Jun 29 21:57:58 2016
 By ,,,
Copyright (c) 2012 by Gobierno Federal - Mexico. All rights reserved.
</metadata>
<defs>
<font id="SoberanaSans-Bold" horiz-adv-x="650" >
  <font-face 
    font-family="Soberana Sans Light"
    font-weight="700"
    font-stretch="normal"
    units-per-em="1000"
    panose-1="2 0 0 0 0 0 0 0 0 0"
    ascent="770"
    descent="-230"
    x-height="541"
    cap-height="750"
    bbox="-182 -233 1297 1052"
    underline-thickness="50"
    underline-position="-50"
    unicode-range="U+0020-FB02"
  />
<missing-glyph horiz-adv-x="750" 
d="M281 106h116q-18 36 -18 68q0 29 19 57t46.5 53t55 51.5t46.5 64t19 79.5q0 79 -56 127.5t-156 48.5q-97 0 -177 -46l36 -93q23 16 58 26t64 10q45 0 73 -23.5t28 -65.5q0 -28 -18 -55t-44.5 -49t-52.5 -45.5t-44 -56t-18 -69.5q0 -38 23 -82zM344 -113q33 0 54.5 18.5
t21.5 50.5t-21.5 51t-54.5 19q-34 0 -56 -19t-22 -51q0 -33 22 -51t56 -18zM650 770v-1000h-550v1000h550z" />
    <glyph glyph-name="f_i" unicode="fi" horiz-adv-x="617" 
d="M420 0v452h-182v-452h-128v452h-85v89h86v39q0 195 223 195q82 0 166 -22l-22 -89q-62 17 -129 17q-53 0 -82 -22t-29 -78v-40h310v-541h-128z" />
    <glyph glyph-name="f_l" unicode="fl" horiz-adv-x="649" 
d="M452 0v667q-52 13 -104 13t-81 -21t-29 -77v-41h136l-11 -89h-125v-452h-128v452h-85v89h86v39q0 195 231 195q127 0 238 -33v-742h-128z" />
    <glyph glyph-name=".notdef" horiz-adv-x="750" 
d="M281 106h116q-18 36 -18 68q0 29 19 57t46.5 53t55 51.5t46.5 64t19 79.5q0 79 -56 127.5t-156 48.5q-97 0 -177 -46l36 -93q23 16 58 26t64 10q45 0 73 -23.5t28 -65.5q0 -28 -18 -55t-44.5 -49t-52.5 -45.5t-44 -56t-18 -69.5q0 -38 23 -82zM344 -113q33 0 54.5 18.5
t21.5 50.5t-21.5 51t-54.5 19q-34 0 -56 -19t-22 -51q0 -33 22 -51t56 -18zM650 770v-1000h-550v1000h550z" />
    <glyph glyph-name=".null" horiz-adv-x="0" 
 />
    <glyph glyph-name="nonmarkingreturn" horiz-adv-x="333" 
 />
    <glyph glyph-name="space" unicode=" " horiz-adv-x="260" 
 />
    <glyph glyph-name="exclam" unicode="!" horiz-adv-x="352" 
d="M229 210h-102l-26 537l148 12zM177 -9q-34 0 -55.5 18t-21.5 51q0 32 22 51t55 19t54.5 -19t21.5 -51t-21.5 -50.5t-54.5 -18.5z" />
    <glyph glyph-name="quotedbl" unicode="&#x22;" horiz-adv-x="438" 
d="M156 521h-69l-24 227l120 11zM347 521h-69l-24 227l120 11z" />
    <glyph glyph-name="numbersign" unicode="#" 
d="M424 644h85l-22 -177l123 1v-83h-134l-14 -114l128 1v-83l-138 1l-22 -180h-85l22 180h-120l-23 -180h-84l21 180l-122 -1v83l133 -1l14 114h-127v83l138 -1l22 177h85l-22 -177h120zM271 385l-14 -114h121l14 114h-121z" />
    <glyph glyph-name="dollar" unicode="$" 
d="M206 -132l17 130q-88 14 -148 53l21 107q44 -29 101.5 -45.5t108.5 -16.5q136 0 136 96q0 28 -25 53.5t-54 40t-77.5 37t-72.5 35.5q-60 34 -92.5 73.5t-32.5 105.5q0 87 62.5 137t168.5 54l18 130l103 -9l-18 -128q71 -12 126 -39l-36 -100q-82 42 -168 42
q-120 0 -120 -84q0 -27 24 -51t54 -38.5t80 -38t81 -41.5q108 -64 108 -172q0 -103 -67 -153t-178 -54l-16 -133z" />
    <glyph glyph-name="percent" unicode="%" horiz-adv-x="936" 
d="M219 442q39 0 61 29t22 82q0 55 -22 83.5t-61 28.5q-85 0 -85 -111q0 -112 85 -112zM218 378q-78 0 -123.5 45t-45.5 131q0 80 43.5 127.5t125.5 47.5t125.5 -47t43.5 -129q0 -86 -45.5 -130.5t-123.5 -44.5zM719 55q40 0 61.5 28.5t21.5 83.5q0 53 -22 82t-61 29
q-43 0 -63.5 -30t-20.5 -81q0 -112 84 -112zM718 -9q-79 0 -124 45.5t-45 130.5q0 81 44.5 128t124.5 47q81 0 125.5 -46.5t44.5 -129.5q0 -84 -45.5 -129.5t-124.5 -45.5zM298 -9l-86 52l426 686l87 -50z" />
    <glyph glyph-name="ampersand" unicode="&#x26;" horiz-adv-x="773" 
d="M749 0q-26 -9 -55 -9q-64 0 -135 49q-40 28 -59 43q-101 -92 -232 -92q-109 0 -171.5 55.5t-62.5 142.5q0 126 143 225q-48 83 -48 154q0 88 57 139.5t149 51.5q107 0 188 -57l-38 -91q-66 48 -135 48q-47 0 -75 -23.5t-28 -71.5q0 -62 69 -150.5t173 -177.5
q43 65 95 184h120q-52 -127 -134 -248q34 -26 72 -49q49 -31 87 -31h20v-92zM275 87q76 0 145 60q-118 99 -185 184q-80 -65 -80 -140q0 -44 31.5 -74t88.5 -30z" />
    <glyph glyph-name="quotesingle" unicode="'" horiz-adv-x="247" 
d="M156 521h-69l-24 227l120 11z" />
    <glyph glyph-name="parenleft" unicode="(" horiz-adv-x="431" 
d="M362 -103q-141 43 -222 161t-81 276q0 159 81 276.5t222 160.5v-105q-174 -104 -174 -332q0 -229 174 -331v-106z" />
    <glyph glyph-name="parenright" unicode=")" horiz-adv-x="431" 
d="M243 334q0 227 -174 332v105q141 -43 222 -160.5t81 -276.5q0 -158 -81 -276t-222 -161v106q174 103 174 331z" />
    <glyph glyph-name="asterisk" unicode="*" horiz-adv-x="446" 
d="M265 387h-84l22 144l-116 -91l-38 73l137 50l-137 50l37 73l117 -92l-22 145h84l-22 -145l116 91l38 -72l-137 -50l137 -51l-37 -72l-117 91z" />
    <glyph glyph-name="plus" unicode="+" 
d="M370 49h-90v219h-210v88h210v220h90v-220h210v-88h-210v-219z" />
    <glyph glyph-name="comma" unicode="," horiz-adv-x="265" 
d="M125 -122l-83 17q54 55 54 116q0 51 -45 100l114 21q45 -44 45 -99q0 -76 -85 -155z" />
    <glyph glyph-name="hyphen" unicode="-" horiz-adv-x="406" 
d="M27 227v84l352 22v-85z" />
    <glyph glyph-name="period" unicode="." horiz-adv-x="265" 
d="M58 60q0 31 21 51.5t53 20.5t53.5 -20.5t21.5 -51.5q0 -30 -21.5 -49.5t-53.5 -19.5t-53 19.5t-21 49.5z" />
    <glyph glyph-name="slash" unicode="/" horiz-adv-x="575" 
d="M536 747l-399 -790l-98 50l396 786z" />
    <glyph glyph-name="zero" unicode="0" 
d="M326 92q72 0 108 70t36 201q0 130 -37 196.5t-107 66.5q-73 0 -109.5 -71t-36.5 -195q0 -126 36.5 -197t109.5 -71zM325 -9q-130 0 -203.5 93.5t-73.5 277.5q0 170 71.5 268.5t206.5 98.5t205.5 -97t70.5 -267q0 -187 -73 -280.5t-204 -93.5z" />
    <glyph glyph-name="one" unicode="1" 
d="M111 0v103h168v488l-168 -11v85q125 14 253 55h46v-617h158v-103h-457z" />
    <glyph glyph-name="two" unicode="2" 
d="M87 0l-13 78q176 152 256 248t80 181q0 52 -30 82t-84 30q-90 0 -173 -62l-40 99q104 73 232 73q104 0 170.5 -53t66.5 -157q0 -54 -23 -110.5t-66.5 -111.5t-81 -95t-91.5 -90l1 -5h285v-107h-489z" />
    <glyph glyph-name="three" unicode="3" 
d="M568 213q0 -107 -74.5 -164.5t-185.5 -57.5q-131 0 -236 70l35 102q38 -28 90.5 -47.5t98.5 -19.5q63 0 99 31.5t36 90.5t-53 89.5t-150 30.5v69q78 20 127 50.5t49 83.5q0 41 -28 60.5t-72 19.5q-47 0 -95.5 -18.5t-80.5 -48.5l-37 94q96 81 235 81q97 0 157 -43
t60 -124q0 -56 -34 -98t-89 -64v-5q148 -42 148 -182z" />
    <glyph glyph-name="four" unicode="4" 
d="M422 725l90 -12v-443h80l-9 -101h-71v-169h-122v169h-343v82q96 123 232.5 294.5t142.5 179.5zM386 532q-129 -160 -203 -258l1 -5h207v260z" />
    <glyph glyph-name="five" unicode="5" 
d="M306 -9q-130 0 -234 69l34 104q39 -29 94 -48t106 -19q60 0 94 29t34 86q0 70 -77 107.5t-246 51.5q27 166 43 349h391v-103h-274q-6 -73 -18 -162q159 -20 237 -74.5t78 -175.5q0 -97 -72 -155.5t-190 -58.5z" />
    <glyph glyph-name="six" unicode="6" 
d="M521 630q-116 -32 -194.5 -93.5t-110.5 -141.5l6 -2q72 45 146 45q100 0 155.5 -57.5t55.5 -159.5q0 -111 -72.5 -170.5t-178.5 -59.5q-118 0 -187 80t-69 213q0 156 114.5 280.5t307.5 164.5zM335 349q-71 0 -138 -55q0 -92 31.5 -150t99.5 -58q58 0 91 36t33 97
q0 62 -31 96t-86 34z" />
    <glyph glyph-name="seven" unicode="7" 
d="M278 0h-157q22 39 94.5 185t140 283t72.5 147h-352v105h487l22 -45q-19 -49 -307 -675z" />
    <glyph glyph-name="eight" unicode="8" 
d="M325 -9q-115 0 -182 55t-67 143q0 66 38.5 115t101.5 78q-55 31 -87 70t-32 96q0 86 60.5 133.5t167.5 47.5q111 0 170 -49t59 -132q0 -58 -32.5 -96t-89.5 -70q142 -66 142 -194q0 -88 -68.5 -142.5t-180.5 -54.5zM325 431q55 27 80 53.5t25 59.5q0 46 -29.5 68.5
t-75.5 22.5t-75.5 -22.5t-29.5 -69.5q0 -63 105 -112zM325 87q56 0 88.5 28.5t32.5 75.5t-29.5 77t-93.5 57q-61 -27 -90 -57t-29 -78q0 -47 33.5 -75t87.5 -28z" />
    <glyph glyph-name="nine" unicode="9" 
d="M134 90q103 38 185 99.5t115 143.5l-4 3q-66 -47 -159 -47q-97 0 -149.5 57.5t-52.5 151.5q0 109 72.5 170t177.5 61q118 0 187 -77.5t69 -210.5q0 -155 -109 -276.5t-306 -173.5zM308 378q77 0 142 55q0 90 -33 145.5t-98 55.5q-60 0 -92 -39t-32 -95q0 -59 29 -90.5
t84 -31.5z" />
    <glyph glyph-name="colon" unicode=":" horiz-adv-x="265" 
d="M58 60q0 31 21 51.5t53 20.5t53.5 -20.5t21.5 -51.5q0 -30 -21.5 -49.5t-53.5 -19.5t-53 19.5t-21 49.5zM58 377q0 31 21 51t53 20t53.5 -20t21.5 -51t-21.5 -50.5t-53.5 -19.5t-53 19.5t-21 50.5z" />
    <glyph glyph-name="semicolon" unicode=";" horiz-adv-x="265" 
d="M132 307q-32 0 -53 19.5t-21 50.5t21 51t53 20t53.5 -20t21.5 -51t-21.5 -50.5t-53.5 -19.5zM125 -122l-83 17q54 55 54 116q0 51 -45 100l114 21q45 -44 45 -99q0 -76 -85 -155z" />
    <glyph glyph-name="less" unicode="&#x3c;" 
d="M87 279v69l469 223v-98l-341 -160l341 -159v-99z" />
    <glyph glyph-name="equal" unicode="=" 
d="M580 368h-510v88h510v-88zM580 169h-510v88h510v-88z" />
    <glyph glyph-name="greater" unicode="&#x3e;" 
d="M563 348v-69l-469 -224v99l341 159l-341 160v98z" />
    <glyph glyph-name="question" unicode="?" horiz-adv-x="497" 
d="M270 210h-116q-23 44 -23 82q0 37 18 69.5t44 56t52.5 45.5t44.5 49t18 55q0 42 -28 65.5t-73 23.5q-29 0 -64 -10t-58 -26l-36 93q80 46 177 46q100 0 156 -48.5t56 -127.5q0 -42 -19 -79.5t-46.5 -64t-55 -51.5t-46.5 -53t-19 -57q0 -32 18 -68zM217 -9q-34 0 -56 18
t-22 51q0 32 22 51t56 19q33 0 54.5 -19t21.5 -51t-21.5 -50.5t-54.5 -18.5z" />
    <glyph glyph-name="at" unicode="@" horiz-adv-x="824" 
d="M399 -118q-154 0 -252 97t-98 259q0 183 107 300t294 118q61 0 118 -18t104 -53t75.5 -93t28.5 -132q0 -112 -66.5 -196.5t-168.5 -84.5q-67 0 -78 62l-5 1q-53 -57 -118 -57q-60 0 -89 43.5t-29 110.5q0 100 53 168.5t152 68.5q56 0 105 -33l24 26h32q-42 -272 -42 -294
q0 -32 27 -32q56 0 102.5 60t46.5 158q0 119 -79.5 183.5t-196.5 64.5q-157 -1 -251.5 -102.5t-94.5 -265.5q0 -145 84 -228t216 -83q65 0 133.5 24t124.5 66l28 -38q-128 -100 -287 -100zM367 158q45 0 92 52l29 173q-24 20 -60 20q-54 0 -84.5 -46.5t-30.5 -111.5
q0 -87 54 -87z" />
    <glyph glyph-name="A" unicode="A" horiz-adv-x="762" 
d="M594 0q-8 23 -20 55.5t-30.5 81t-29.5 78.5h-273q-43 -118 -74 -215h-138q50 136 150 392t144 358h113q160 -395 297 -750h-139zM380 579h-5q-13 -33 -100 -266h205z" />
    <glyph glyph-name="B" unicode="B" horiz-adv-x="632" 
d="M74 0v750h229q245 0 245 -186q0 -113 -111 -157v-7q157 -37 157 -187q0 -96 -65 -154.5t-193 -58.5h-262zM206 91h107q69 0 105.5 36t36.5 94q0 126 -166 126h-83v-256zM206 433h66q61 0 100 33t39 86q0 107 -125 107h-80v-226z" />
    <glyph glyph-name="C" unicode="C" horiz-adv-x="694" 
d="M427 -9q-76 0 -142.5 22t-121.5 65.5t-87 118t-32 170.5q0 191 106 291.5t272 100.5q56 0 118.5 -14.5t102.5 -39.5l-23 -104q-88 50 -182 50q-115 0 -184 -72.5t-69 -209.5q0 -132 74 -200t187 -68q100 0 190 44l15 -103q-101 -51 -224 -51z" />
    <glyph glyph-name="D" unicode="D" horiz-adv-x="769" 
d="M74 0v750h264q195 0 288.5 -99t93.5 -276q0 -173 -93.5 -274t-276.5 -101h-276zM207 647v-544h125q124 0 184.5 75t60.5 199q0 270 -252 270h-118z" />
    <glyph glyph-name="E" unicode="E" horiz-adv-x="539" 
d="M74 0v750h411v-103h-278v-221h212l-13 -94h-199v-229h284v-103h-417z" />
    <glyph glyph-name="F" unicode="F" horiz-adv-x="523" 
d="M74 0v750h417v-103h-284v-227h229l-12 -95h-217v-325h-133z" />
    <glyph glyph-name="G" unicode="G" horiz-adv-x="767" 
d="M703 381v-329q-105 -61 -267 -61q-171 0 -279 98.5t-108 277.5q0 196 109.5 294t287.5 98q64 0 130 -14.5t109 -39.5l-24 -104q-97 50 -202 50q-121 0 -195.5 -69.5t-74.5 -211.5q0 -129 73 -199.5t188 -70.5q73 0 130 25v170h-86v86h209z" />
    <glyph glyph-name="H" unicode="H" horiz-adv-x="782" 
d="M74 0v750h133v-307h369v307h133v-750h-133v339h-369v-339h-133z" />
    <glyph glyph-name="I" unicode="I" horiz-adv-x="280" 
d="M74 0v750h132v-750h-132z" />
    <glyph glyph-name="J" unicode="J" horiz-adv-x="424" 
d="M133 648v102h222v-547q0 -104 -56 -158.5t-151 -54.5q-52 0 -101 11l-8 102q28 -8 67 -8q114 0 114 134v419h-87z" />
    <glyph glyph-name="K" unicode="K" horiz-adv-x="690" 
d="M666 88v-88q-34 -9 -71 -9q-40 0 -63 11t-49 41q-28 32 -93 130t-101 167h-82v-340h-133v750h133v-306h84q62 80 199 306h146q-121 -195 -233 -352q33 -61 86.5 -143t99.5 -134q28 -33 77 -33z" />
    <glyph glyph-name="L" unicode="L" horiz-adv-x="536" 
d="M74 0v750h133v-647h291v-103h-424z" />
    <glyph glyph-name="M" unicode="M" horiz-adv-x="950" 
d="M846 750l40 -750h-127l-28 535h-5q-91 -218 -221 -477l-64 -9q0 1 -49.5 112t-91.5 200t-87 177h-5l-19 -538h-125l31 750h137q127 -236 242 -512h5q37 72 105.5 226t118.5 286h143z" />
    <glyph glyph-name="N" unicode="N" horiz-adv-x="805" 
d="M732 1l-80 -10q-89 117 -230 293t-214 261l-6 -1v-544h-128v750h112q76 -86 202 -240t208 -263l5 1v502h131v-749z" />
    <glyph glyph-name="O" unicode="O" horiz-adv-x="818" 
d="M409 -9q-172 0 -266 106t-94 280q0 171 92 276.5t268 105.5q175 0 267.5 -105t92.5 -274q0 -178 -93.5 -283.5t-266.5 -105.5zM407 93q108 0 165.5 74t57.5 212q0 134 -57.5 207t-165.5 73q-107 0 -163 -75t-56 -207t56 -208t163 -76z" />
    <glyph glyph-name="P" unicode="P" horiz-adv-x="613" 
d="M278 274q-42 0 -71 4v-278h-133v750h246q126 0 191 -59t65 -165q0 -117 -74.5 -184.5t-223.5 -67.5zM207 647v-264q24 -4 60 -4q88 0 132 32.5t44 110.5q0 125 -153 125h-83z" />
    <glyph glyph-name="Q" unicode="Q" horiz-adv-x="818" 
d="M693 -173q-82 0 -183.5 51.5t-179.5 119.5q-137 21 -209 124t-72 255q0 171 92 276.5t268 105.5q175 0 267.5 -105t92.5 -274q0 -148 -66 -249t-193 -125q117 -85 225 -85q3 0 47 2v-84q-38 -12 -89 -12zM407 93q108 0 165.5 74t57.5 212q0 134 -57.5 207t-165.5 73
q-107 0 -163 -75t-56 -207t56 -208t163 -76z" />
    <glyph glyph-name="R" unicode="R" horiz-adv-x="663" 
d="M644 88v-88q-34 -9 -69 -9q-65 0 -99 39q-26 28 -76 108t-91 159h-102v-297h-133v750h228q126 0 192 -54.5t66 -161.5q0 -74 -30.5 -121t-97.5 -79q78 -139 135 -212q27 -34 65 -34h12zM207 647v-250h62q157 0 157 131q0 119 -146 119h-73z" />
    <glyph glyph-name="S" unicode="S" horiz-adv-x="594" 
d="M275 -9q-135 0 -231 61l20 107q43 -28 99 -45.5t108 -17.5q140 0 140 101q0 31 -23 57.5t-50.5 41.5t-77.5 39.5t-78 41.5q-61 37 -93 78.5t-32 106.5q0 95 66.5 146t181.5 51q118 0 212 -48l-27 -100q-82 42 -176 42q-121 0 -121 -89q0 -29 24.5 -54.5t56 -41.5
t81.5 -40.5t80 -44.5q51 -33 78 -74.5t27 -103.5q0 -111 -73 -162.5t-192 -51.5z" />
    <glyph glyph-name="T" unicode="T" horiz-adv-x="697" 
d="M282 0v647h-243v103h619v-103h-243v-647h-133z" />
    <glyph glyph-name="U" unicode="U" horiz-adv-x="763" 
d="M382 -9q-142 0 -230 80.5t-88 241.5v437h133v-442q0 -102 53 -156t132 -54q78 0 131 53t53 157v442h134v-446q0 -155 -88.5 -234t-229.5 -79z" />
    <glyph glyph-name="V" unicode="V" horiz-adv-x="718" 
d="M418 0h-125q-43 104 -135 359.5t-134 390.5h140q106 -345 191 -583h5q108 285 195 583h140q-42 -128 -141 -398t-136 -352z" />
    <glyph glyph-name="W" unicode="W" horiz-adv-x="1096" 
d="M700 0q-24 63 -144 415h-2q-90 -249 -162 -415h-120q-37 94 -120.5 349.5t-126.5 400.5h140q77 -275 177 -578h5q51 128 152 407q-21 50 -32.5 64.5t-40.5 14.5v91q38 4 62 4q42 0 66.5 -17t41.5 -66q57 -171 157 -495h6q105 314 168 575h139q-36 -133 -122.5 -401
t-121.5 -349h-122z" />
    <glyph glyph-name="X" unicode="X" horiz-adv-x="729" 
d="M24 0q176 272 251 384q-106 170 -140 221q-33 49 -76 49v94q30 4 60 4q41 0 68 -17t56 -63q9 -14 59 -98t61 -102h6q24 35 166 278h144q-164 -268 -229 -364q117 -190 171 -260q18 -22 35 -30t45 -8v-88q-23 -9 -70 -9q-35 0 -57 10t-47 42q-19 23 -163 252h-6
q-88 -134 -185 -295h-149z" />
    <glyph glyph-name="Y" unicode="Y" horiz-adv-x="666" 
d="M265 0v334q-117 192 -170 270q-18 26 -33 37t-37 11v96q21 4 50 4q42 0 71.5 -17.5t56.5 -63.5l127 -218h4q45 69 164 297h144q-86 -159 -246 -417v-333h-131z" />
    <glyph glyph-name="Z" unicode="Z" horiz-adv-x="680" 
d="M636 103v-103h-596v52q159 256 393 589l-2 6h-364v103h544l18 -50q-244 -352 -398 -591l2 -6h403z" />
    <glyph glyph-name="bracketleft" unicode="[" horiz-adv-x="440" 
d="M361 666h-128v-664h128v-101h-252v866h252v-101z" />
    <glyph glyph-name="backslash" unicode="\" horiz-adv-x="575" 
d="M437 -43l-398 790l101 46l396 -786z" />
    <glyph glyph-name="bracketright" unicode="]" horiz-adv-x="440" 
d="M207 666h-128v101h252v-866h-252v101h128v664z" />
    <glyph glyph-name="asciicircum" unicode="^" 
d="M286 730h78l212 -460h-99l-152 331l-152 -331h-99z" />
    <glyph glyph-name="underscore" unicode="_" 
d="M-10 -210v86h670v-86h-670z" />
    <glyph glyph-name="grave" unicode="`" horiz-adv-x="465" 
d="M348 645l-52 -27l-180 196l101 56z" />
    <glyph glyph-name="a" unicode="a" horiz-adv-x="599" 
d="M571 86l6 -73q-58 -22 -104 -22q-76 0 -88 72l-5 2q-47 -39 -85.5 -56.5t-85.5 -17.5q-68 0 -116.5 44.5t-48.5 113.5q0 54 30 82t95 45q33 8 108.5 25t103.5 24v33q0 50 -24 74.5t-82 24.5q-80 0 -179 -48l-26 81q107 60 215 60q37 0 66.5 -4.5t60 -17t51 -33.5
t33.5 -57.5t13 -84.5v-232q0 -19 5.5 -28t23.5 -9q21 0 33 2zM174 160q0 -36 24 -59.5t59 -23.5q64 0 124 63v120q-83 -17 -147 -36q-30 -8 -45 -21.5t-15 -42.5z" />
    <glyph glyph-name="b" unicode="b" horiz-adv-x="616" 
d="M69 0v770h128v-185l-3 -107l5 -2q23 22 40.5 35.5t49.5 26t67 12.5q102 0 159.5 -77t57.5 -193q0 -138 -65 -213.5t-196 -75.5q-104 0 -183 39l-21 -30h-39zM327 455q-75 0 -130 -72v-276q52 -25 102 -25q75 0 109.5 52t34.5 140q0 80 -31.5 130.5t-84.5 50.5z" />
    <glyph glyph-name="c" unicode="c" horiz-adv-x="520" 
d="M305 -9q-120 0 -188 69t-68 202q0 288 253 288q96 0 172 -34l-19 -98q-66 31 -135 31q-141 0 -141 -184q0 -173 150 -173q66 0 141 27l16 -92q-75 -36 -181 -36z" />
    <glyph glyph-name="d" unicode="d" horiz-adv-x="613" 
d="M258 -9q-101 0 -157.5 77t-56.5 192q0 142 68 216t186 74q60 0 121 -21v241h125v-770h-100l-18 67l-6 1q-75 -77 -162 -77zM289 85q76 0 130 72v276q-52 25 -101 25q-76 0 -110 -53.5t-34 -139.5q0 -81 32 -130.5t83 -49.5z" />
    <glyph glyph-name="e" unicode="e" horiz-adv-x="582" 
d="M513 117l13 -88q-86 -38 -197 -38q-120 0 -200 66t-80 205q0 77 21 134.5t58 90t82.5 48t99.5 15.5q114 0 171.5 -61.5t57.5 -173.5q0 -28 -1 -41h-359v-21q0 -86 45.5 -126.5t122.5 -40.5t166 31zM183 338h238q0 129 -108 129q-52 0 -87 -32t-43 -97z" />
    <glyph glyph-name="f" unicode="f" horiz-adv-x="411" 
d="M25 452v89h86v39q0 109 48 152t139 43q69 0 130 -22l-20 -88q-46 16 -87 16q-42 0 -62.5 -22t-20.5 -76v-42h143l-11 -89h-132v-452h-128v452h-85z" />
    <glyph glyph-name="g" unicode="g" horiz-adv-x="622" 
d="M60 372q1 82 61.5 130t164.5 48q117 0 173 -56h6q2 20 6 31.5t17 19.5t37 8q40 0 73 -13l-7 -66q-21 3 -47 3q-16 0 -25 -3.5t-13.5 -13t-5.5 -16.5t-2 -24q8 -24 8 -49q0 -80 -61.5 -123.5t-165.5 -43.5q-16 0 -23 1q-85 -32 -85 -76q0 -37 56 -37h171q192 0 192 -143
q0 -42 -21 -74.5t-52.5 -51.5t-75 -31.5t-83.5 -17t-83 -4.5q-29 0 -58 2.5t-64.5 11.5t-61.5 23t-44 39.5t-18 59.5q0 77 92 126v6q-62 20 -62 70q0 74 114 115l-1 5q-53 17 -82.5 54t-29.5 90zM376 11h-127q-30 -5 -61 -28t-31 -60q0 -75 142 -75q65 0 113 22.5t49 73.5
q0 67 -85 67zM185 373q0 -40 25 -68.5t73 -28.5q49 0 77.5 25t28.5 73q0 49 -26.5 76t-74.5 27q-50 0 -76.5 -27.5t-26.5 -76.5z" />
    <glyph glyph-name="h" unicode="h" horiz-adv-x="609" 
d="M69 0v770h128v-185l-4 -115l6 -1q75 81 173 81q178 0 178 -215v-335h-128v320q0 128 -93 128q-39 0 -74 -20t-58 -53v-375h-128z" />
    <glyph glyph-name="i" unicode="i" horiz-adv-x="258" 
d="M65 0v541h128v-541h-128zM53 727q0 32 20.5 52.5t55.5 20.5q33 0 54.5 -20.5t21.5 -52.5t-21.5 -52.5t-54.5 -20.5q-35 0 -55.5 20t-20.5 53z" />
    <glyph glyph-name="j" unicode="j" horiz-adv-x="311" 
d="M40 449v92h201v-585q0 -95 -37.5 -140.5t-135.5 -45.5q-25 0 -57 6l-8 100q24 -6 46 -6q38 0 51 24t13 81v474h-73zM90 727q0 32 20.5 52.5t55.5 20.5q34 0 55 -20.5t21 -52.5t-21 -52.5t-55 -20.5q-35 0 -55.5 20t-20.5 53z" />
    <glyph glyph-name="k" unicode="k" horiz-adv-x="603" 
d="M69 0v770h128v-414h65q27 30 143 185h135q-37 -53 -171 -223q15 -29 59.5 -100.5t65.5 -96.5q27 -34 56 -34h21v-85q-33 -11 -63 -11q-36 0 -63.5 16.5t-56.5 54.5q-15 19 -57 87t-63 108h-71v-257h-128z" />
    <glyph glyph-name="l" unicode="l" horiz-adv-x="264" 
d="M69 0v770h127v-770h-127z" />
    <glyph glyph-name="m" unicode="m" horiz-adv-x="953" 
d="M69 0v541h107l13 -71l7 -1q84 81 178 81q106 0 148 -85h7q86 85 188 85q89 0 133 -54t44 -152v-344h-128v326q0 122 -90 122q-37 0 -72.5 -18t-57.5 -50v-380h-128v326q0 122 -89 122q-37 0 -73.5 -21t-58.5 -53v-374h-128z" />
    <glyph glyph-name="n" unicode="n" horiz-adv-x="609" 
d="M69 0v541h107l14 -70l7 -1q83 80 179 80q84 0 129 -53t45 -151v-346h-128v326q0 122 -92 122q-37 0 -73 -20t-60 -52v-376h-128z" />
    <glyph glyph-name="o" unicode="o" horiz-adv-x="626" 
d="M314 84q134 0 134 185q0 187 -134 187q-135 0 -135 -188q0 -92 35.5 -138t99.5 -46zM313 -9q-123 0 -193.5 68.5t-70.5 209.5q0 136 68 208.5t197 72.5q130 0 197 -72t67 -209q0 -143 -70.5 -210.5t-194.5 -67.5z" />
    <glyph glyph-name="p" unicode="p" horiz-adv-x="613" 
d="M355 550q101 0 158 -77.5t57 -192.5q0 -142 -67.5 -215.5t-186.5 -73.5q-64 0 -122 21v-242h-125v771h101l17 -67l5 -1q75 77 163 77zM324 455q-76 0 -130 -71v-277q53 -25 101 -25q76 0 110.5 53.5t34.5 139.5q0 81 -32.5 130.5t-83.5 49.5z" />
    <glyph glyph-name="q" unicode="q" horiz-adv-x="616" 
d="M547 -229h-127v187l2 104l-5 1q-74 -72 -157 -72q-102 0 -159 76.5t-57 190.5q0 141 66 216.5t197 75.5q94 0 176 -39l24 30h40v-770zM289 86q78 0 130 71v275q-52 26 -101 26q-75 0 -109.5 -52t-34.5 -139q0 -80 31 -130.5t84 -50.5z" />
    <glyph glyph-name="r" unicode="r" horiz-adv-x="426" 
d="M197 0h-128v541h102l17 -83h7q85 92 151 92q40 0 63 -33l-29 -103q-26 12 -49 12q-51 0 -134 -83v-343z" />
    <glyph glyph-name="s" unicode="s" horiz-adv-x="506" 
d="M463 157q0 -83 -64.5 -124.5t-166.5 -41.5q-50 0 -104 12.5t-84 29.5l15 86q86 -40 176 -40q106 0 106 73q0 28 -30 46t-72.5 30t-84.5 28t-72 49.5t-30 83.5q0 78 59 119.5t160 41.5q99 0 172 -31l-19 -87q-72 30 -152 30q-44 0 -69.5 -17t-25.5 -50q0 -22 21 -37.5
t53 -24.5t69 -23t69 -30t53 -48t21 -75z" />
    <glyph glyph-name="t" unicode="t" horiz-adv-x="450" 
d="M20 452v89h88l25 133h99v-133h167l-9 -89h-157v-279q0 -38 14 -58t51 -20q46 0 106 24l16 -95q-81 -33 -160 -33q-82 0 -118 41.5t-36 127.5v292h-86z" />
    <glyph glyph-name="u" unicode="u" horiz-adv-x="611" 
d="M543 541v-541h-101l-19 64l-7 1q-82 -74 -176 -74q-81 0 -131 54.5t-50 143.5v352h128v-330q0 -58 26 -91.5t72 -33.5q33 0 69 20t61 47v388h128z" />
    <glyph glyph-name="v" unicode="v" horiz-adv-x="574" 
d="M338 0h-102q-5 14 -36.5 91.5t-60 147.5t-62.5 158t-53 144h131q72 -223 130 -373h6q71 191 128 373h131q-34 -96 -110 -288.5t-102 -252.5z" />
    <glyph glyph-name="w" unicode="w" horiz-adv-x="833" 
d="M629 0h-100l-104 306h-6q-58 -149 -124 -306h-90q-107 294 -181 541h124q43 -155 120 -386h6q78 196 102 266q-9 25 -18 33.5t-25 9.5v77q6 0 16.5 1t19 1.5t15.5 0.5q41 0 59.5 -14.5t32.5 -58.5q59 -181 98 -309h5q62 181 113 379h117q-66 -232 -180 -541z" />
    <glyph glyph-name="x" unicode="x" horiz-adv-x="616" 
d="M564 541q-76 -125 -164 -254q64 -102 108 -162q32 -38 71 -39v-86q-25 -5 -59 -5q-38 0 -61 14.5t-55 56.5q-27 37 -96 146h-5q-39 -58 -133 -212h-138q70 109 186 278q-65 99 -96 140q-30 40 -64 40v83q38 2 51 2q42 0 65.5 -13t53.5 -56q14 -20 81 -123h5q4 6 24 38.5
t43.5 71.5t46.5 80h136z" />
    <glyph glyph-name="y" unicode="y" horiz-adv-x="605" 
d="M288 -230h-142q70 145 106 230h-27q-87 260 -155 421q-7 14 -11 20.5t-13 11.5t-23 5v83q2 0 19.5 1.5t33.5 1.5q46 0 69.5 -16.5t42.5 -65.5q5 -12 23.5 -68t46.5 -141t42 -125h4q98 267 145 413h133q-40 -120 -135.5 -370t-158.5 -401z" />
    <glyph glyph-name="z" unicode="z" horiz-adv-x="544" 
d="M501 92v-92h-457v49q248 357 276 396l-1 5h-263v91h427l15 -48q-199 -273 -281 -396l2 -5h282z" />
    <glyph glyph-name="braceleft" unicode="{" horiz-adv-x="477" 
d="M146 45v143q0 53 -20.5 75t-76.5 30v82q56 9 76.5 31t20.5 74v143q0 80 38 112t121 32h94v-101h-41q-49 0 -68.5 -13t-19.5 -60v-121q0 -107 -99 -136v-3q99 -29 99 -136v-121q0 -47 20 -60.5t68 -13.5h41v-101h-94q-83 0 -121 32t-38 112z" />
    <glyph glyph-name="bar" unicode="|" horiz-adv-x="375" 
d="M244 -150h-113v1050h113v-1050z" />
    <glyph glyph-name="braceright" unicode="}" horiz-adv-x="477" 
d="M331 188v-143q0 -80 -37.5 -112t-121.5 -32h-93v101h40q48 0 68 13.5t20 60.5v121q0 107 100 136v3q-100 29 -100 136v121q0 47 -19.5 60t-68.5 13h-40v101h93q84 0 121.5 -32t37.5 -112v-143q0 -52 20.5 -74t77.5 -31v-82q-57 -8 -77.5 -30t-20.5 -75z" />
    <glyph glyph-name="asciitilde" unicode="~" 
d="M565 388q0 -72 -34 -105.5t-83 -33.5q-43 0 -121.5 25.5t-107.5 25.5q-51 0 -54 -55h-80q0 75 34.5 107.5t85.5 32.5q39 0 117.5 -25.5t109.5 -25.5q52 0 53 54h80z" />
    <glyph glyph-name="uni00A0" unicode="&#xa0;" horiz-adv-x="260" 
 />
    <glyph glyph-name="exclamdown" unicode="&#xa1;" horiz-adv-x="352" 
d="M103 -203l20 549h102l26 -537zM99 496q0 32 21.5 50.5t54.5 18.5q34 0 55.5 -18t21.5 -51q0 -32 -22 -51t-55 -19t-54.5 19t-21.5 51z" />
    <glyph glyph-name="cent" unicode="&#xa2;" 
d="M254 -69l17 134q-88 27 -137 102.5t-49 193.5q0 139 64.5 229.5t198.5 98.5l17 130l104 -8l-16 -129q66 -13 116 -37l-23 -102q-29 15 -75 27t-83 12q-79 0 -120 -57t-41 -161q0 -101 45 -152t122 -51q80 0 160 35l19 -99q-37 -19 -92.5 -32t-107.5 -13l-14 -129z" />
    <glyph glyph-name="sterling" unicode="&#xa3;" 
d="M516 306v-73h-184v-9q0 -38 -12.5 -76t-36.5 -58h303v-90h-495v62q116 27 116 140q0 5 -0.5 15t-0.5 16h-105v73h97l-10 69h-87v73h80q-1 13 -1 41q0 121 66.5 180.5t177.5 59.5q79 0 141 -24l-21 -91q-54 18 -107 18q-128 0 -128 -144q0 -27 1 -40h206v-73h-199
q1 -6 4.5 -31t4.5 -38h190z" />
    <glyph glyph-name="currency" unicode="&#xa4;" 
d="M325 110q-84 0 -141 40l-76 -75l-65 61l81 80q-37 56 -37 132q0 77 38 136l-82 79l65 62l77 -76q60 41 140 41q83 0 141 -41l76 76l66 -61l-82 -80q37 -55 37 -132q0 -79 -37 -136l82 -79l-65 -62l-78 76q-56 -41 -140 -41zM327 195q69 0 106.5 44.5t37.5 113.5
q0 68 -40 110.5t-107 42.5q-69 0 -106.5 -44.5t-37.5 -113.5q0 -68 39.5 -110.5t107.5 -42.5z" />
    <glyph glyph-name="yen" unicode="&#xa5;" 
d="M259 0v128h-161v73h161v69h-161v73h137q-91 159 -139 237q-29 47 -59 47v96q26 4 39 4q33 0 59 -16.5t54 -64.5q7 -11 63 -112.5t68 -122.5h5q109 209 158 309h129q-107 -204 -208 -377h143v-73h-160v-69h160v-73h-160v-128h-128z" />
    <glyph glyph-name="brokenbar" unicode="&#xa6;" horiz-adv-x="375" 
d="M244 514h-113v386h113v-386zM244 -150h-113v387h113v-387z" />
    <glyph glyph-name="section" unicode="&#xa7;" horiz-adv-x="597" 
d="M260 -159q-46 0 -103.5 12t-97.5 29l20 98q36 -17 88 -28.5t92 -11.5q42 0 68 18t26 55q0 32 -32 58t-77.5 47t-90.5 45t-77 62.5t-32 88.5q0 118 128 154q-59 51 -59 120q0 79 61 125t158 46q46 0 103.5 -12t97.5 -29l-20 -98q-36 16 -88.5 28t-91.5 12q-42 0 -68 -18
t-26 -55q0 -32 32 -58t77.5 -47t90.5 -45t77 -63t32 -89q0 -118 -129 -153q60 -51 60 -120q0 -79 -61 -125t-158 -46zM419 279q0 13 -3.5 24.5t-12.5 22t-16.5 18t-24 18t-24.5 15.5t-29.5 16.5t-28.5 15.5q-107 -14 -107 -88q0 -13 3.5 -24.5t12.5 -22t16.5 -18.5t23.5 -18
t24.5 -15.5t29 -16.5t28.5 -16q108 14 108 89z" />
    <glyph glyph-name="dieresis" unicode="&#xa8;" horiz-adv-x="465" 
d="M112 648q-31 0 -49.5 18t-18.5 47t18.5 47t49.5 18q30 0 48.5 -18t18.5 -47t-18.5 -47t-48.5 -18zM353 648q-30 0 -48.5 18t-18.5 47t18.5 47t48.5 18q31 0 49.5 -18t18.5 -47t-18.5 -47t-49.5 -18z" />
    <glyph glyph-name="copyright" unicode="&#xa9;" horiz-adv-x="866" 
d="M433 -9q-160 0 -272 110t-112 275q0 163 112 273t272 110q161 0 273 -110t112 -274t-112 -274t-273 -110zM435 36q141 0 237 97t96 242t-96 241.5t-237 96.5q-140 0 -238 -97t-98 -241q0 -145 98 -242t238 -97zM455 157q-100 0 -166 57t-66 162q0 108 65 167t165 59
q80 0 133 -32l-10 -72q-50 30 -113 30q-68 0 -107 -40.5t-39 -111.5q0 -72 40.5 -108t108.5 -36q73 0 118 25l7 -69q-51 -31 -136 -31z" />
    <glyph glyph-name="ordfeminine" unicode="&#xaa;" horiz-adv-x="395" 
d="M357 440l4 -50q-33 -14 -67 -14q-48 0 -55 42l-4 1q-47 -43 -102 -43q-42 0 -71 23.5t-29 63.5q0 64 76 83l127 30v14q0 30 -13 44t-48 14q-54 0 -110 -29l-16 54q61 36 133 36q65 0 102.5 -26t37.5 -95v-128q0 -22 17 -22q4 0 10.5 1t7.5 1zM122 472q0 -19 12 -29
t31 -10q38 0 71 38v61q-7 -2 -40 -10.5t-44 -11.5q-30 -9 -30 -38z" />
    <glyph glyph-name="guillemotleft" unicode="&#xab;" horiz-adv-x="648" 
d="M59 253v53l256 217v-113l-156 -131l156 -130v-114zM308 253v53l257 217v-113l-156 -131l156 -130v-114z" />
    <glyph glyph-name="logicalnot" unicode="&#xac;" 
d="M491 177v191h-421v88h510v-279h-89z" />
    <glyph glyph-name="uni00AD" unicode="&#xad;" horiz-adv-x="406" 
d="M27 227v84l352 22v-85z" />
    <glyph glyph-name="registered" unicode="&#xae;" horiz-adv-x="537" 
d="M269 365q-89 0 -147 57t-58 140q0 86 57.5 141.5t147.5 55.5q89 0 146.5 -56t57.5 -141q0 -83 -58 -140t-146 -57zM271 403q72 0 117.5 45t45.5 117q0 71 -45.5 113.5t-119.5 42.5q-73 0 -118.5 -42.5t-45.5 -113.5q0 -73 46 -117.5t120 -44.5zM357 480q-8 -3 -27 -3
q-27 0 -65 70h-23v-67h-42v183h66q73 0 73 -55q0 -36 -33 -52q13 -21 31 -43q7 -8 20 -8v-25zM242 629v-50h17q39 0 39 26q0 24 -35 24h-21z" />
    <glyph glyph-name="macron" unicode="&#xaf;" horiz-adv-x="465" 
d="M400 753v-89h-335v89h335z" />
    <glyph glyph-name="degree" unicode="&#xb0;" horiz-adv-x="415" 
d="M350 589q0 -67 -41.5 -106t-102.5 -39q-62 0 -101.5 41t-39.5 100q0 63 41 103.5t102 40.5q63 0 102.5 -40t39.5 -100zM290 587q0 41 -22.5 64.5t-60.5 23.5q-36 0 -59 -24.5t-23 -65.5q0 -39 23 -62.5t59 -23.5q38 0 60.5 25t22.5 63z" />
    <glyph glyph-name="plusminus" unicode="&#xb1;" 
d="M370 209h-90v177h-196v89h196v188h90v-188h196v-89h-196v-177zM566 46h-482v88h482v-88z" />
    <glyph glyph-name="twosuperior" unicode="&#xb2;" horiz-adv-x="380" 
d="M51 383l-9 44q89 65 132.5 109.5t43.5 82.5q0 47 -54 47q-48 0 -97 -30l-21 56q59 35 132 35q58 0 96 -25t38 -76q0 -77 -126 -179v-2h139v-62h-274z" />
    <glyph glyph-name="threesuperior" unicode="&#xb3;" horiz-adv-x="380" 
d="M177 376q-73 0 -131 33l21 57q47 -31 102 -31q66 0 66 51q0 25 -28.5 38.5t-76.5 13.5v37q91 19 91 59q0 33 -50 33q-51 0 -93 -30l-23 50q56 40 134 40q56 0 90 -21t34 -59q0 -27 -17.5 -48t-46.5 -30v-3q77 -18 77 -85q0 -50 -42.5 -77.5t-106.5 -27.5z" />
    <glyph glyph-name="acute" unicode="&#xb4;" horiz-adv-x="465" 
d="M170 618l-53 26l131 227l100 -56z" />
    <glyph glyph-name="mu" unicode="&#xb5;" horiz-adv-x="657" 
d="M622 114l28 -55q-52 -68 -123 -68q-36 0 -61 19t-32 53l-7 2q-69 -74 -145 -74q-56 0 -95 37q7 -131 33 -225l-117 -26q-34 137 -34 430v334h128v-334q0 -56 27 -88.5t72 -32.5q36 0 71 20t58 49v386h128v-403q0 -48 27 -48q19 0 42 24z" />
    <glyph glyph-name="paragraph" unicode="&#xb6;" horiz-adv-x="829" 
d="M552 -150v796h-79v-796h-132v406q-146 0 -221.5 66.5t-75.5 175.5q0 112 75.5 182t226.5 70h435v-105h-95v-795h-134zM341 360v286q-84 0 -127.5 -40.5t-43.5 -107.5q0 -60 42 -99t129 -39z" />
    <glyph glyph-name="periodcentered" unicode="&#xb7;" horiz-adv-x="265" 
d="M58 327q0 31 21 51t53 20t53.5 -20t21.5 -51t-21.5 -50.5t-53.5 -19.5t-53 19.5t-21 50.5z" />
    <glyph glyph-name="cedilla" unicode="&#xb8;" horiz-adv-x="465" 
d="M235 0h84l-69 -59q95 -7 95 -83q0 -41 -34.5 -66t-88.5 -25q-59 0 -102 25l14 43q35 -20 78 -20q50 0 50 37q0 39 -67 39h-38l-12 27z" />
    <glyph glyph-name="onesuperior" unicode="&#xb9;" horiz-adv-x="380" 
d="M65 383v58h89v211l-89 -5v47q60 6 143 29h31v-283h84v-57h-258z" />
    <glyph glyph-name="ordmasculine" unicode="&#xba;" horiz-adv-x="381" 
d="M191 439q74 0 74 103q0 106 -73 106q-76 0 -76 -105q0 -104 75 -104zM192 376q-74 0 -116.5 40t-42.5 125q0 81 42 124.5t118 43.5q75 0 115 -43t40 -124q0 -86 -42 -126t-114 -40z" />
    <glyph glyph-name="guillemotright" unicode="&#xbb;" horiz-adv-x="648" 
d="M590 253l-257 -218v114l156 130l-156 131v113l257 -217v-53zM340 253l-257 -218v114l156 130l-156 131v113l257 -217v-53z" />
    <glyph glyph-name="onequarter" unicode="&#xbc;" horiz-adv-x="907" 
d="M762 342l62 -5v-207h40l-6 -56h-34v-74h-78v74h-183v45q50 57 123.5 139t75.5 84zM744 241q-6 -7 -24 -27.5t-36.5 -41.5t-33.5 -39l1 -3h96v110zM65 383v58h89v211l-89 -5v47q60 6 143 29h31v-283h84v-57h-258zM320 -9l-86 52l426 686l86 -50z" />
    <glyph glyph-name="onehalf" unicode="&#xbd;" horiz-adv-x="907" 
d="M578 0l-9 44q89 65 132.5 109.5t43.5 82.5q0 47 -54 47q-48 0 -97 -30l-21 56q59 35 132 35q58 0 96 -25t38 -76q0 -77 -126 -179v-2h139v-62h-274zM65 383v58h89v211l-89 -5v47q60 6 143 29h31v-283h84v-57h-258zM284 -9l-86 52l426 686l86 -50z" />
    <glyph glyph-name="threequarters" unicode="&#xbe;" horiz-adv-x="907" 
d="M762 342l62 -5v-207h40l-6 -56h-34v-74h-78v74h-183v45q50 57 123.5 139t75.5 84zM744 241q-6 -7 -24 -27.5t-36.5 -41.5t-33.5 -39l1 -3h96v110zM177 376q-73 0 -131 33l21 57q47 -31 102 -31q66 0 66 51q0 25 -28.5 38.5t-76.5 13.5v37q91 19 91 59q0 33 -50 33
q-51 0 -93 -30l-23 50q56 40 134 40q56 0 90 -21t34 -59q0 -27 -17.5 -48t-46.5 -30v-3q77 -18 77 -85q0 -50 -42.5 -77.5t-106.5 -27.5zM310 -9l-86 52l426 686l86 -50z" />
    <glyph glyph-name="questiondown" unicode="&#xbf;" horiz-adv-x="487" 
d="M333 354q23 -44 23 -82q0 -37 -18 -69.5t-44 -56t-52.5 -45.5t-44.5 -49t-18 -55q0 -42 28 -65.5t73 -23.5q29 0 64 10t58 26l36 -93q-80 -46 -177 -46q-100 0 -156 48t-56 128q0 42 19 79t46.5 64t55 52t46.5 53t19 57q0 32 -18 68h116zM194 504q0 32 21.5 50.5
t54.5 18.5q34 0 56 -18t22 -51q0 -32 -22 -51t-56 -19q-33 0 -54.5 19t-21.5 51z" />
    <glyph glyph-name="Agrave" unicode="&#xc0;" horiz-adv-x="762" 
d="M594 0q-8 23 -20 55.5t-30.5 81t-29.5 78.5h-273q-43 -118 -74 -215h-138q50 136 150 392t144 358h113q160 -395 297 -750h-139zM380 579h-5q-13 -33 -100 -266h205zM464 825l-255 85l59 98l229 -133z" />
    <glyph glyph-name="Aacute" unicode="&#xc1;" horiz-adv-x="762" 
d="M594 0q-8 23 -20 55.5t-30.5 81t-29.5 78.5h-273q-43 -118 -74 -215h-138q50 136 150 392t144 358h113q160 -395 297 -750h-139zM380 579h-5q-13 -33 -100 -266h205zM297 825l-34 50l230 133l58 -98z" />
    <glyph glyph-name="Acircumflex" unicode="&#xc2;" horiz-adv-x="762" 
d="M594 0q-8 23 -20 55.5t-30.5 81t-29.5 78.5h-273q-43 -118 -74 -215h-138q50 136 150 392t144 358h113q160 -395 297 -750h-139zM380 579h-5q-13 -33 -100 -266h205zM333 998h102l160 -123l-36 -50l-175 82l-176 -82l-35 50z" />
    <glyph glyph-name="Atilde" unicode="&#xc3;" horiz-adv-x="762" 
d="M594 0q-8 23 -20 55.5t-30.5 81t-29.5 78.5h-273q-43 -118 -74 -215h-138q50 136 150 392t144 358h113q160 -395 297 -750h-139zM380 579h-5q-13 -33 -100 -266h205zM573 966q-1 -65 -27.5 -98.5t-68.5 -33.5q-29 0 -87.5 16.5t-76.5 16.5q-34 0 -37 -44h-74
q1 67 28 99.5t70 32.5q25 0 84 -16.5t79 -16.5q33 0 36 44h74z" />
    <glyph glyph-name="Adieresis" unicode="&#xc4;" horiz-adv-x="762" 
d="M594 0q-8 23 -20 55.5t-30.5 81t-29.5 78.5h-273q-43 -118 -74 -215h-138q50 136 150 392t144 358h113q160 -395 297 -750h-139zM380 579h-5q-13 -33 -100 -266h205zM263 827q-31 0 -49.5 18t-18.5 47t18.5 47t49.5 18q30 0 48.5 -18t18.5 -47t-18.5 -47t-48.5 -18z
M504 827q-30 0 -48.5 18t-18.5 47t18.5 47t48.5 18q31 0 49.5 -18t18.5 -47t-18.5 -47t-49.5 -18z" />
    <glyph glyph-name="Aring" unicode="&#xc5;" horiz-adv-x="762" 
d="M594 0q-8 23 -20 55.5t-30.5 81t-29.5 78.5h-273q-43 -118 -74 -215h-138q50 136 150 392t144 358h113q160 -395 297 -750h-139zM380 579h-5q-13 -33 -100 -266h205zM256 906q0 54 37 90t91 36q55 0 91.5 -35.5t36.5 -88.5q0 -54 -37 -90.5t-92 -36.5q-54 0 -90.5 35.5
t-36.5 89.5zM315 906q0 -32 19.5 -51.5t49.5 -19.5q31 0 50.5 20.5t19.5 51.5q0 33 -20 53t-51 20t-49.5 -21t-18.5 -53z" />
    <glyph glyph-name="AE" unicode="&#xc6;" horiz-adv-x="997" 
d="M530 0v165h-268q-75 -118 -103 -165h-152q98 151 260 384.5t259 365.5h416v-103h-278v-221h212l-13 -94h-199v-229h284v-103h-418zM525 559q-81 -114 -199 -296h204v294z" />
    <glyph glyph-name="Ccedilla" unicode="&#xc7;" horiz-adv-x="694" 
d="M651 42q-91 -47 -206 -50l-59 -51q95 -7 95 -83q0 -41 -34.5 -66t-88.5 -25q-59 0 -102 25l14 43q35 -20 78 -20q50 0 50 37q0 39 -67 39h-38l-12 27l84 77q-140 17 -230.5 110.5t-90.5 261.5q0 191 106 291.5t272 100.5q56 0 118.5 -14.5t102.5 -39.5l-23 -104
q-88 50 -182 50q-115 0 -184 -72.5t-69 -209.5q0 -132 74 -200t187 -68q100 0 190 44z" />
    <glyph glyph-name="Egrave" unicode="&#xc8;" horiz-adv-x="539" 
d="M380 825l-255 85l59 98l229 -133zM74 0v750h411v-103h-278v-221h212l-13 -94h-199v-229h284v-103h-417z" />
    <glyph glyph-name="Eacute" unicode="&#xc9;" horiz-adv-x="539" 
d="M74 0v750h411v-103h-278v-221h212l-13 -94h-199v-229h284v-103h-417zM159 825l-34 50l230 133l58 -98z" />
    <glyph glyph-name="Ecircumflex" unicode="&#xca;" horiz-adv-x="539" 
d="M224 998h102l160 -123l-36 -50l-175 82l-176 -82l-35 50zM74 0v750h411v-103h-278v-221h212l-13 -94h-199v-229h284v-103h-417z" />
    <glyph glyph-name="Edieresis" unicode="&#xcb;" horiz-adv-x="539" 
d="M74 0v750h411v-103h-278v-221h212l-13 -94h-199v-229h284v-103h-417zM152 827q-31 0 -49.5 18t-18.5 47t18.5 47t49.5 18q30 0 48.5 -18t18.5 -47t-18.5 -47t-48.5 -18zM393 827q-30 0 -48.5 18t-18.5 47t18.5 47t48.5 18q31 0 49.5 -18t18.5 -47t-18.5 -47t-49.5 -18z
" />
    <glyph glyph-name="Igrave" unicode="&#xcc;" horiz-adv-x="280" 
d="M74 0v750h132v-750h-132zM230 825l-255 85l59 98l229 -133z" />
    <glyph glyph-name="Iacute" unicode="&#xcd;" horiz-adv-x="280" 
d="M74 0v750h132v-750h-132zM50 825l-34 50l230 133l58 -98z" />
    <glyph glyph-name="Icircumflex" unicode="&#xce;" horiz-adv-x="280" 
d="M74 0v750h132v-750h-132zM89 998h102l160 -123l-36 -50l-175 82l-176 -82l-35 50z" />
    <glyph glyph-name="Idieresis" unicode="&#xcf;" horiz-adv-x="280" 
d="M74 0v750h132v-750h-132zM19 827q-31 0 -49.5 18t-18.5 47t18.5 47t49.5 18q30 0 48.5 -18t18.5 -47t-18.5 -47t-48.5 -18zM260 827q-30 0 -48.5 18t-18.5 47t18.5 47t48.5 18q31 0 49.5 -18t18.5 -47t-18.5 -47t-49.5 -18z" />
    <glyph glyph-name="Eth" unicode="&#xd0;" horiz-adv-x="796" 
d="M13 341v95h88v314h264q195 0 288.5 -99t93.5 -276q0 -173 -93.5 -274t-276.5 -101h-276v341h-88zM234 647v-211h137v-95h-137v-238h125q124 0 185 75t61 199q0 270 -253 270h-118z" />
    <glyph glyph-name="Ntilde" unicode="&#xd1;" horiz-adv-x="805" 
d="M591 966q-1 -65 -27.5 -98.5t-68.5 -33.5q-29 0 -87.5 16.5t-76.5 16.5q-34 0 -37 -44h-74q1 67 28 99.5t70 32.5q25 0 84 -16.5t79 -16.5q33 0 36 44h74zM732 1l-80 -10q-89 117 -230 293t-214 261l-6 -1v-544h-128v750h112q76 -86 202 -240t208 -263l5 1v502h131v-749z
" />
    <glyph glyph-name="Ograve" unicode="&#xd2;" horiz-adv-x="818" 
d="M519 825l-255 85l59 98l229 -133zM409 -9q-172 0 -266 106t-94 280q0 171 92 276.5t268 105.5q175 0 267.5 -105t92.5 -274q0 -178 -93.5 -283.5t-266.5 -105.5zM407 93q108 0 165.5 74t57.5 212q0 134 -57.5 207t-165.5 73q-107 0 -163 -75t-56 -207t56 -208t163 -76z
" />
    <glyph glyph-name="Oacute" unicode="&#xd3;" horiz-adv-x="818" 
d="M298 825l-34 50l230 133l58 -98zM409 -9q-172 0 -266 106t-94 280q0 171 92 276.5t268 105.5q175 0 267.5 -105t92.5 -274q0 -178 -93.5 -283.5t-266.5 -105.5zM407 93q108 0 165.5 74t57.5 212q0 134 -57.5 207t-165.5 73q-107 0 -163 -75t-56 -207t56 -208t163 -76z
" />
    <glyph glyph-name="Ocircumflex" unicode="&#xd4;" horiz-adv-x="818" 
d="M358 998h102l160 -123l-36 -50l-175 82l-176 -82l-35 50zM409 -9q-172 0 -266 106t-94 280q0 171 92 276.5t268 105.5q175 0 267.5 -105t92.5 -274q0 -178 -93.5 -283.5t-266.5 -105.5zM407 93q108 0 165.5 74t57.5 212q0 134 -57.5 207t-165.5 73q-107 0 -163 -75
t-56 -207t56 -208t163 -76z" />
    <glyph glyph-name="Otilde" unicode="&#xd5;" horiz-adv-x="818" 
d="M409 -9q-172 0 -266 106t-94 280q0 171 92 276.5t268 105.5q175 0 267.5 -105t92.5 -274q0 -178 -93.5 -283.5t-266.5 -105.5zM407 93q108 0 165.5 74t57.5 212q0 134 -57.5 207t-165.5 73q-107 0 -163 -75t-56 -207t56 -208t163 -76zM594 966q-1 -65 -27.5 -98.5
t-68.5 -33.5q-29 0 -87.5 16.5t-76.5 16.5q-34 0 -37 -44h-74q1 67 28 99.5t70 32.5q25 0 84 -16.5t79 -16.5q33 0 36 44h74z" />
    <glyph glyph-name="Odieresis" unicode="&#xd6;" horiz-adv-x="818" 
d="M409 -9q-172 0 -266 106t-94 280q0 171 92 276.5t268 105.5q175 0 267.5 -105t92.5 -274q0 -178 -93.5 -283.5t-266.5 -105.5zM407 93q108 0 165.5 74t57.5 212q0 134 -57.5 207t-165.5 73q-107 0 -163 -75t-56 -207t56 -208t163 -76zM288 827q-31 0 -49.5 18t-18.5 47
t18.5 47t49.5 18q30 0 48.5 -18t18.5 -47t-18.5 -47t-48.5 -18zM529 827q-30 0 -48.5 18t-18.5 47t18.5 47t48.5 18q31 0 49.5 -18t18.5 -47t-18.5 -47t-49.5 -18z" />
    <glyph glyph-name="multiply" unicode="&#xd7;" 
d="M99 150l164 163l-163 163l61 62l164 -164l164 164l61 -62l-164 -163l165 -163l-62 -62l-164 163l-164 -163z" />
    <glyph glyph-name="Oslash" unicode="&#xd8;" horiz-adv-x="818" 
d="M409 -9q-109 0 -189 44l-33 -49h-66l53 80q-125 104 -125 311q0 171 92 276.5t268 105.5q111 0 195 -46l37 55h65l-58 -87q121 -100 121 -301q0 -178 -93.5 -283.5t-266.5 -105.5zM188 377q0 -135 57 -209l294 450q-50 41 -132 41q-107 0 -163 -75t-56 -207zM407 93
q108 0 165.5 74t57.5 212q0 134 -53 200l-293 -450q52 -36 123 -36z" />
    <glyph glyph-name="Ugrave" unicode="&#xd9;" horiz-adv-x="763" 
d="M479 825l-255 85l59 98l229 -133zM382 -9q-142 0 -230 80.5t-88 241.5v437h133v-442q0 -102 53 -156t132 -54q78 0 131 53t53 157v442h134v-446q0 -155 -88.5 -234t-229.5 -79z" />
    <glyph glyph-name="Uacute" unicode="&#xda;" horiz-adv-x="763" 
d="M382 -9q-142 0 -230 80.5t-88 241.5v437h133v-442q0 -102 53 -156t132 -54q78 0 131 53t53 157v442h134v-446q0 -155 -88.5 -234t-229.5 -79zM284 825l-34 50l230 133l58 -98z" />
    <glyph glyph-name="Ucircumflex" unicode="&#xdb;" horiz-adv-x="763" 
d="M331 998h102l160 -123l-36 -50l-175 82l-176 -82l-35 50zM382 -9q-142 0 -230 80.5t-88 241.5v437h133v-442q0 -102 53 -156t132 -54q78 0 131 53t53 157v442h134v-446q0 -155 -88.5 -234t-229.5 -79z" />
    <glyph glyph-name="Udieresis" unicode="&#xdc;" horiz-adv-x="763" 
d="M382 -9q-142 0 -230 80.5t-88 241.5v437h133v-442q0 -102 53 -156t132 -54q78 0 131 53t53 157v442h134v-446q0 -155 -88.5 -234t-229.5 -79zM261 827q-31 0 -49.5 18t-18.5 47t18.5 47t49.5 18q30 0 48.5 -18t18.5 -47t-18.5 -47t-48.5 -18zM502 827q-30 0 -48.5 18
t-18.5 47t18.5 47t48.5 18q31 0 49.5 -18t18.5 -47t-18.5 -47t-49.5 -18z" />
    <glyph glyph-name="Yacute" unicode="&#xdd;" horiz-adv-x="666" 
d="M265 0v334q-117 192 -170 270q-18 26 -33 37t-37 11v96q21 4 50 4q42 0 71.5 -17.5t56.5 -63.5l127 -218h4q45 69 164 297h144q-86 -159 -246 -417v-333h-131zM251 825l-34 50l230 133l58 -98z" />
    <glyph glyph-name="Thorn" unicode="&#xde;" horiz-adv-x="615" 
d="M278 139q-41 0 -71 2v-141h-133v750h133v-135h114q125 0 190 -59t65 -167q0 -116 -75 -183t-223 -67zM207 512v-265q30 -3 60 -3q92 0 134 33t42 109q0 67 -38 96.5t-110 29.5h-88z" />
    <glyph glyph-name="germandbls" unicode="&#xdf;" horiz-adv-x="714" 
d="M464 -9q-92 0 -164 40l17 85q68 -36 141 -36q39 0 67.5 17.5t28.5 54.5q0 26 -24.5 45t-59.5 32.5t-70 29t-59.5 45.5t-24.5 72q0 40 24 72.5t53 51t53 46t24 59.5q0 33 -26.5 53.5t-76.5 20.5q-43 0 -71 -12t-39.5 -36t-15 -44.5t-3.5 -51.5v-535h-128v452h-85v89h86v9
q0 225 253 225q104 0 174 -42t70 -113q0 -38 -17 -68.5t-41.5 -50t-49 -35.5t-41.5 -34.5t-17 -38.5q0 -24 24 -42t58.5 -32.5t69 -32.5t58.5 -51.5t24 -79.5q0 -79 -59.5 -121.5t-152.5 -42.5z" />
    <glyph glyph-name="agrave" unicode="&#xe0;" horiz-adv-x="599" 
d="M571 86l6 -73q-58 -22 -104 -22q-76 0 -88 72l-5 2q-47 -39 -85.5 -56.5t-85.5 -17.5q-68 0 -116.5 44.5t-48.5 113.5q0 54 30 82t95 45q33 8 108.5 25t103.5 24v33q0 50 -24 74.5t-82 24.5q-80 0 -179 -48l-26 81q107 60 215 60q37 0 66.5 -4.5t60 -17t51 -33.5
t33.5 -57.5t13 -84.5v-232q0 -19 5.5 -28t23.5 -9q21 0 33 2zM174 160q0 -36 24 -59.5t59 -23.5q64 0 124 63v120q-83 -17 -147 -36q-30 -8 -45 -21.5t-15 -42.5zM383 645l-52 -27l-180 196l101 56z" />
    <glyph glyph-name="aacute" unicode="&#xe1;" horiz-adv-x="599" 
d="M571 86l6 -73q-58 -22 -104 -22q-76 0 -88 72l-5 2q-47 -39 -85.5 -56.5t-85.5 -17.5q-68 0 -116.5 44.5t-48.5 113.5q0 54 30 82t95 45q33 8 108.5 25t103.5 24v33q0 50 -24 74.5t-82 24.5q-80 0 -179 -48l-26 81q107 60 215 60q37 0 66.5 -4.5t60 -17t51 -33.5
t33.5 -57.5t13 -84.5v-232q0 -19 5.5 -28t23.5 -9q21 0 33 2zM174 160q0 -36 24 -59.5t59 -23.5q64 0 124 63v120q-83 -17 -147 -36q-30 -8 -45 -21.5t-15 -42.5zM259 618l-53 26l131 227l100 -56z" />
    <glyph glyph-name="acircumflex" unicode="&#xe2;" horiz-adv-x="599" 
d="M571 86l6 -73q-58 -22 -104 -22q-76 0 -88 72l-5 2q-47 -39 -85.5 -56.5t-85.5 -17.5q-68 0 -116.5 44.5t-48.5 113.5q0 54 30 82t95 45q33 8 108.5 25t103.5 24v33q0 50 -24 74.5t-82 24.5q-80 0 -179 -48l-26 81q107 60 215 60q37 0 66.5 -4.5t60 -17t51 -33.5
t33.5 -57.5t13 -84.5v-232q0 -19 5.5 -28t23.5 -9q21 0 33 2zM174 160q0 -36 24 -59.5t59 -23.5q64 0 124 63v120q-83 -17 -147 -36q-30 -8 -45 -21.5t-15 -42.5zM343 855l132 -203l-61 -34l-124 143l-123 -143l-61 34l132 203h105z" />
    <glyph glyph-name="atilde" unicode="&#xe3;" horiz-adv-x="599" 
d="M571 86l6 -73q-58 -22 -104 -22q-76 0 -88 72l-5 2q-47 -39 -85.5 -56.5t-85.5 -17.5q-68 0 -116.5 44.5t-48.5 113.5q0 54 30 82t95 45q33 8 108.5 25t103.5 24v33q0 50 -24 74.5t-82 24.5q-80 0 -179 -48l-26 81q107 60 215 60q37 0 66.5 -4.5t60 -17t51 -33.5
t33.5 -57.5t13 -84.5v-232q0 -19 5.5 -28t23.5 -9q21 0 33 2zM174 160q0 -36 24 -59.5t59 -23.5q64 0 124 63v120q-83 -17 -147 -36q-30 -8 -45 -21.5t-15 -42.5zM479 782q-1 -65 -27.5 -98.5t-68.5 -33.5q-29 0 -87.5 16.5t-76.5 16.5q-34 0 -37 -44h-74q1 67 28 99.5
t70 32.5q25 0 84 -16.5t79 -16.5q33 0 36 44h74z" />
    <glyph glyph-name="adieresis" unicode="&#xe4;" horiz-adv-x="599" 
d="M571 86l6 -73q-58 -22 -104 -22q-76 0 -88 72l-5 2q-47 -39 -85.5 -56.5t-85.5 -17.5q-68 0 -116.5 44.5t-48.5 113.5q0 54 30 82t95 45q33 8 108.5 25t103.5 24v33q0 50 -24 74.5t-82 24.5q-80 0 -179 -48l-26 81q107 60 215 60q37 0 66.5 -4.5t60 -17t51 -33.5
t33.5 -57.5t13 -84.5v-232q0 -19 5.5 -28t23.5 -9q21 0 33 2zM174 160q0 -36 24 -59.5t59 -23.5q64 0 124 63v120q-83 -17 -147 -36q-30 -8 -45 -21.5t-15 -42.5zM170 648q-31 0 -49.5 18t-18.5 47t18.5 47t49.5 18q30 0 48.5 -18t18.5 -47t-18.5 -47t-48.5 -18zM411 648
q-30 0 -48.5 18t-18.5 47t18.5 47t48.5 18q31 0 49.5 -18t18.5 -47t-18.5 -47t-49.5 -18z" />
    <glyph glyph-name="aring" unicode="&#xe5;" horiz-adv-x="599" 
d="M571 86l6 -73q-58 -22 -104 -22q-76 0 -88 72l-5 2q-47 -39 -85.5 -56.5t-85.5 -17.5q-68 0 -116.5 44.5t-48.5 113.5q0 54 30 82t95 45q33 8 108.5 25t103.5 24v33q0 50 -24 74.5t-82 24.5q-80 0 -179 -48l-26 81q107 60 215 60q37 0 66.5 -4.5t60 -17t51 -33.5
t33.5 -57.5t13 -84.5v-232q0 -19 5.5 -28t23.5 -9q21 0 33 2zM174 160q0 -36 24 -59.5t59 -23.5q64 0 124 63v120q-83 -17 -147 -36q-30 -8 -45 -21.5t-15 -42.5zM163 747q0 54 37 90t91 36q55 0 91.5 -35.5t36.5 -88.5q0 -54 -37 -90.5t-92 -36.5q-54 0 -90.5 35.5
t-36.5 89.5zM222 747q0 -32 19.5 -51.5t49.5 -19.5q31 0 50.5 20.5t19.5 51.5q0 33 -20 53t-51 20t-49.5 -21t-18.5 -53z" />
    <glyph glyph-name="ae" unicode="&#xe6;" horiz-adv-x="910" 
d="M841 117l12 -87q-87 -39 -189 -39q-152 0 -225 97q-46 -48 -104 -72.5t-114 -24.5q-76 0 -126.5 43t-50.5 115q0 54 30 82t95 45q33 8 108.5 25t103.5 24v33q0 50 -24 74.5t-82 24.5q-80 0 -179 -48l-26 81q110 60 215 60q128 0 173 -76q64 76 179 76t172 -61.5
t57 -173.5q0 -28 -1 -41h-359v-21q0 -87 46 -127t123 -40t166 31zM174 160q0 -36 24 -59.5t59 -23.5q64 0 124 63v120q-83 -17 -147 -36q-30 -8 -45 -21.5t-15 -42.5zM510 338h238q0 129 -107 129q-52 0 -87 -32t-44 -97z" />
    <glyph glyph-name="ccedilla" unicode="&#xe7;" horiz-adv-x="520" 
d="M486 27q-59 -28 -144 -34l-60 -52q95 -7 95 -83q0 -41 -34.5 -66t-88.5 -25q-59 0 -102 25l14 43q35 -20 78 -20q50 0 50 37q0 39 -67 39h-38l-12 27l83 76q-100 12 -155.5 80t-55.5 188q0 288 253 288q96 0 172 -34l-19 -98q-66 31 -135 31q-141 0 -141 -184
q0 -173 150 -173q66 0 141 27z" />
    <glyph glyph-name="egrave" unicode="&#xe8;" horiz-adv-x="582" 
d="M513 117l13 -88q-86 -38 -197 -38q-120 0 -200 66t-80 205q0 77 21 134.5t58 90t82.5 48t99.5 15.5q114 0 171.5 -61.5t57.5 -173.5q0 -28 -1 -41h-359v-21q0 -86 45.5 -126.5t122.5 -40.5t166 31zM183 338h238q0 129 -108 129q-52 0 -87 -32t-43 -97zM387 645l-52 -27
l-180 196l101 56z" />
    <glyph glyph-name="eacute" unicode="&#xe9;" horiz-adv-x="582" 
d="M261 618l-53 26l131 227l100 -56zM513 117l13 -88q-86 -38 -197 -38q-120 0 -200 66t-80 205q0 77 21 134.5t58 90t82.5 48t99.5 15.5q114 0 171.5 -61.5t57.5 -173.5q0 -28 -1 -41h-359v-21q0 -86 45.5 -126.5t122.5 -40.5t166 31zM183 338h238q0 129 -108 129
q-52 0 -87 -32t-43 -97z" />
    <glyph glyph-name="ecircumflex" unicode="&#xea;" horiz-adv-x="582" 
d="M366 855l132 -203l-61 -34l-124 143l-123 -143l-61 34l132 203h105zM513 117l13 -88q-86 -38 -197 -38q-120 0 -200 66t-80 205q0 77 21 134.5t58 90t82.5 48t99.5 15.5q114 0 171.5 -61.5t57.5 -173.5q0 -28 -1 -41h-359v-21q0 -86 45.5 -126.5t122.5 -40.5t166 31z
M183 338h238q0 129 -108 129q-52 0 -87 -32t-43 -97z" />
    <glyph glyph-name="edieresis" unicode="&#xeb;" horiz-adv-x="582" 
d="M194 648q-31 0 -49.5 18t-18.5 47t18.5 47t49.5 18q30 0 48.5 -18t18.5 -47t-18.5 -47t-48.5 -18zM435 648q-30 0 -48.5 18t-18.5 47t18.5 47t48.5 18q31 0 49.5 -18t18.5 -47t-18.5 -47t-49.5 -18zM513 117l13 -88q-86 -38 -197 -38q-120 0 -200 66t-80 205
q0 77 21 134.5t58 90t82.5 48t99.5 15.5q114 0 171.5 -61.5t57.5 -173.5q0 -28 -1 -41h-359v-21q0 -86 45.5 -126.5t122.5 -40.5t166 31zM183 338h238q0 129 -108 129q-52 0 -87 -32t-43 -97z" />
    <glyph glyph-name="igrave" unicode="&#xec;" horiz-adv-x="265" 
d="M69 0v541h128v-541h-128zM202 645l-52 -27l-180 196l101 56z" />
    <glyph glyph-name="iacute" unicode="&#xed;" horiz-adv-x="265" 
d="M124 618l-53 26l131 227l100 -56zM69 0v541h128v-541h-128z" />
    <glyph glyph-name="icircumflex" unicode="&#xee;" horiz-adv-x="265" 
d="M185 855l132 -203l-61 -34l-124 143l-123 -143l-61 34l132 203h105zM69 0v541h128v-541h-128z" />
    <glyph glyph-name="idieresis" unicode="&#xef;" horiz-adv-x="265" 
d="M12 648q-31 0 -49.5 18t-18.5 47t18.5 47t49.5 18q30 0 48.5 -18t18.5 -47t-18.5 -47t-48.5 -18zM253 648q-30 0 -48.5 18t-18.5 47t18.5 47t48.5 18q31 0 49.5 -18t18.5 -47t-18.5 -47t-49.5 -18zM69 0v541h128v-541h-128z" />
    <glyph glyph-name="eth" unicode="&#xf0;" horiz-adv-x="590" 
d="M174 502v103l61 26q-51 34 -111 53l33 91q114 -29 201 -98l137 57v-105l-63 -27q51 -66 77.5 -150.5t26.5 -166.5q0 -129 -66 -211.5t-193 -82.5q-94 0 -163.5 58.5t-69.5 171.5q0 115 66.5 175.5t180.5 60.5q49 0 93 -18l6 3q-24 70 -66 121zM415 278q0 37 -5 70
q-47 25 -104 25q-65 0 -103.5 -35.5t-38.5 -111.5q0 -66 32.5 -104.5t89.5 -38.5q65 0 97 54t32 141z" />
    <glyph glyph-name="ntilde" unicode="&#xf1;" horiz-adv-x="609" 
d="M69 0v541h107l14 -70l7 -1q83 80 179 80q84 0 129 -53t45 -151v-346h-128v326q0 122 -92 122q-37 0 -73 -20t-60 -52v-376h-128zM489 782q-1 -65 -27.5 -98.5t-68.5 -33.5q-29 0 -87.5 16.5t-76.5 16.5q-34 0 -37 -44h-74q1 67 28 99.5t70 32.5q25 0 84 -16.5t79 -16.5
q33 0 36 44h74z" />
    <glyph glyph-name="ograve" unicode="&#xf2;" horiz-adv-x="626" 
d="M314 84q134 0 134 185q0 187 -134 187q-135 0 -135 -188q0 -92 35.5 -138t99.5 -46zM313 -9q-123 0 -193.5 68.5t-70.5 209.5q0 136 68 208.5t197 72.5q130 0 197 -72t67 -209q0 -143 -70.5 -210.5t-194.5 -67.5zM407 645l-52 -27l-180 196l101 56z" />
    <glyph glyph-name="oacute" unicode="&#xf3;" horiz-adv-x="626" 
d="M274 618l-53 26l131 227l100 -56zM314 84q134 0 134 185q0 187 -134 187q-135 0 -135 -188q0 -92 35.5 -138t99.5 -46zM313 -9q-123 0 -193.5 68.5t-70.5 209.5q0 136 68 208.5t197 72.5q130 0 197 -72t67 -209q0 -143 -70.5 -210.5t-194.5 -67.5z" />
    <glyph glyph-name="ocircumflex" unicode="&#xf4;" horiz-adv-x="626" 
d="M368 855l132 -203l-61 -34l-124 143l-123 -143l-61 34l132 203h105zM314 84q134 0 134 185q0 187 -134 187q-135 0 -135 -188q0 -92 35.5 -138t99.5 -46zM313 -9q-123 0 -193.5 68.5t-70.5 209.5q0 136 68 208.5t197 72.5q130 0 197 -72t67 -209q0 -143 -70.5 -210.5
t-194.5 -67.5z" />
    <glyph glyph-name="otilde" unicode="&#xf5;" horiz-adv-x="626" 
d="M314 84q134 0 134 185q0 187 -134 187q-135 0 -135 -188q0 -92 35.5 -138t99.5 -46zM313 -9q-123 0 -193.5 68.5t-70.5 209.5q0 136 68 208.5t197 72.5q130 0 197 -72t67 -209q0 -143 -70.5 -210.5t-194.5 -67.5zM499 782q-1 -65 -27.5 -98.5t-68.5 -33.5
q-29 0 -87.5 16.5t-76.5 16.5q-34 0 -37 -44h-74q1 67 28 99.5t70 32.5q25 0 84 -16.5t79 -16.5q33 0 36 44h74z" />
    <glyph glyph-name="odieresis" unicode="&#xf6;" horiz-adv-x="626" 
d="M193 648q-31 0 -49.5 18t-18.5 47t18.5 47t49.5 18q30 0 48.5 -18t18.5 -47t-18.5 -47t-48.5 -18zM434 648q-30 0 -48.5 18t-18.5 47t18.5 47t48.5 18q31 0 49.5 -18t18.5 -47t-18.5 -47t-49.5 -18zM314 84q134 0 134 185q0 187 -134 187q-135 0 -135 -188
q0 -92 35.5 -138t99.5 -46zM313 -9q-123 0 -193.5 68.5t-70.5 209.5q0 136 68 208.5t197 72.5q130 0 197 -72t67 -209q0 -143 -70.5 -210.5t-194.5 -67.5z" />
    <glyph glyph-name="divide" unicode="&#xf7;" 
d="M580 268h-510v88h510v-88zM266 136q0 25 16.5 41t42.5 16t42.5 -16t16.5 -41t-16.5 -40.5t-42.5 -15.5t-42.5 15.5t-16.5 40.5zM266 487q0 26 16.5 41.5t42.5 15.5t42.5 -15.5t16.5 -41.5q0 -25 -16.5 -40.5t-42.5 -15.5t-42.5 15.5t-16.5 40.5z" />
    <glyph glyph-name="oslash" unicode="&#xf8;" horiz-adv-x="626" 
d="M313 -9q-77 0 -132 26l-27 -41h-62l44 69q-87 70 -87 224q0 137 68 209t197 72q81 0 137 -28l26 39h63l-45 -68q83 -70 83 -224q0 -143 -70.5 -210.5t-194.5 -67.5zM205 144l186 289q-32 23 -77 23q-135 0 -135 -188q0 -78 26 -124zM314 84q134 0 134 185q0 83 -23 122
l-184 -287q31 -20 73 -20z" />
    <glyph glyph-name="ugrave" unicode="&#xf9;" horiz-adv-x="611" 
d="M543 541v-541h-101l-19 64l-7 1q-82 -74 -176 -74q-81 0 -131 54.5t-50 143.5v352h128v-330q0 -58 26 -91.5t72 -33.5q33 0 69 20t61 47v388h128zM378 645l-52 -27l-180 196l101 56z" />
    <glyph glyph-name="uacute" unicode="&#xfa;" horiz-adv-x="611" 
d="M273 618l-53 26l131 227l100 -56zM543 541v-541h-101l-19 64l-7 1q-82 -74 -176 -74q-81 0 -131 54.5t-50 143.5v352h128v-330q0 -58 26 -91.5t72 -33.5q33 0 69 20t61 47v388h128z" />
    <glyph glyph-name="ucircumflex" unicode="&#xfb;" horiz-adv-x="611" 
d="M351 855l132 -203l-61 -34l-124 143l-123 -143l-61 34l132 203h105zM543 541v-541h-101l-19 64l-7 1q-82 -74 -176 -74q-81 0 -131 54.5t-50 143.5v352h128v-330q0 -58 26 -91.5t72 -33.5q33 0 69 20t61 47v388h128z" />
    <glyph glyph-name="udieresis" unicode="&#xfc;" horiz-adv-x="611" 
d="M178 648q-31 0 -49.5 18t-18.5 47t18.5 47t49.5 18q30 0 48.5 -18t18.5 -47t-18.5 -47t-48.5 -18zM419 648q-30 0 -48.5 18t-18.5 47t18.5 47t48.5 18q31 0 49.5 -18t18.5 -47t-18.5 -47t-49.5 -18zM543 541v-541h-101l-19 64l-7 1q-82 -74 -176 -74q-81 0 -131 54.5
t-50 143.5v352h128v-330q0 -58 26 -91.5t72 -33.5q33 0 69 20t61 47v388h128z" />
    <glyph glyph-name="yacute" unicode="&#xfd;" horiz-adv-x="605" 
d="M288 -230h-142q70 145 106 230h-27q-87 260 -155 421q-7 14 -11 20.5t-13 11.5t-23 5v83q2 0 19.5 1.5t33.5 1.5q46 0 69.5 -16.5t42.5 -65.5q5 -12 23.5 -68t46.5 -141t42 -125h4q98 267 145 413h133q-40 -120 -135.5 -370t-158.5 -401zM276 618l-53 26l131 227l100 -56
z" />
    <glyph glyph-name="thorn" unicode="&#xfe;" horiz-adv-x="613" 
d="M355 550q101 0 158 -77.5t57 -192.5q0 -142 -67.5 -215.5t-186.5 -73.5q-66 0 -125 21v-242h-122v1000h124v-178l-3 -117l7 -1q72 76 158 76zM324 455q-76 0 -130 -71v-277q53 -25 101 -25q76 0 110.5 53.5t34.5 139.5q0 81 -32.5 130.5t-83.5 49.5z" />
    <glyph glyph-name="ydieresis" unicode="&#xff;" horiz-adv-x="605" 
d="M288 -230h-142q70 145 106 230h-27q-87 260 -155 421q-7 14 -11 20.5t-13 11.5t-23 5v83q2 0 19.5 1.5t33.5 1.5q46 0 69.5 -16.5t42.5 -65.5q5 -12 23.5 -68t46.5 -141t42 -125h4q98 267 145 413h133q-40 -120 -135.5 -370t-158.5 -401zM193 648q-31 0 -49.5 18
t-18.5 47t18.5 47t49.5 18q30 0 48.5 -18t18.5 -47t-18.5 -47t-48.5 -18zM434 648q-30 0 -48.5 18t-18.5 47t18.5 47t48.5 18q31 0 49.5 -18t18.5 -47t-18.5 -47t-49.5 -18z" />
    <glyph glyph-name="dotlessi" unicode="&#x131;" horiz-adv-x="265" 
d="M69 0v541h128v-541h-128z" />
    <glyph glyph-name="Lslash" unicode="&#x141;" horiz-adv-x="564" 
d="M24 270v103l77 21v356h133v-322l155 41v-101l-155 -42v-223h291v-103h-424v290z" />
    <glyph glyph-name="lslash" unicode="&#x142;" horiz-adv-x="282" 
d="M4 271v105l74 31v363h127v-310l79 34v-105l-79 -34v-355h-127v302z" />
    <glyph glyph-name="OE" unicode="&#x152;" horiz-adv-x="958" 
d="M909 0h-502q-173 0 -265.5 99t-92.5 270q0 172 93 276.5t269 104.5h492v-103h-278v-221h212l-13 -94h-199v-229h284v-103zM188 367q0 -124 58 -194.5t166 -70.5h80v547h-79q-107 0 -166 -77.5t-59 -204.5z" />
    <glyph glyph-name="oe" unicode="&#x153;" horiz-adv-x="979" 
d="M733 -9q-148 0 -217 99q-62 -99 -204 -99q-122 0 -192.5 69t-70.5 209q0 135 68 208t196 73q138 0 199 -98q64 98 194 98q115 0 172.5 -61.5t57.5 -173.5q0 -28 -2 -41h-358v-21q0 -86 45 -126.5t123 -40.5q77 0 166 31l13 -87q-89 -39 -190 -39zM314 84q134 0 134 185
q0 187 -134 187q-135 0 -135 -188q0 -92 35.5 -138t99.5 -46zM580 338h238q0 129 -108 129q-52 0 -87 -32t-43 -97z" />
    <glyph glyph-name="Scaron" unicode="&#x160;" horiz-adv-x="594" 
d="M275 -9q-135 0 -231 61l20 107q43 -28 99 -45.5t108 -17.5q140 0 140 101q0 31 -23 57.5t-50.5 41.5t-77.5 39.5t-78 41.5q-61 37 -93 78.5t-32 106.5q0 95 66.5 146t181.5 51q118 0 212 -48l-27 -100q-82 42 -176 42q-121 0 -121 -89q0 -29 24.5 -54.5t56 -41.5
t81.5 -40.5t80 -44.5q51 -33 78 -74.5t27 -103.5q0 -111 -73 -162.5t-192 -51.5zM358 825h-102l-160 123l35 50l176 -82l175 82l36 -50z" />
    <glyph glyph-name="scaron" unicode="&#x161;" horiz-adv-x="506" 
d="M317 621h-104l-133 203l61 35l124 -144l124 144l60 -35zM463 157q0 -83 -64.5 -124.5t-166.5 -41.5q-50 0 -104 12.5t-84 29.5l15 86q86 -40 176 -40q106 0 106 73q0 28 -30 46t-72.5 30t-84.5 28t-72 49.5t-30 83.5q0 78 59 119.5t160 41.5q99 0 172 -31l-19 -87
q-72 30 -152 30q-44 0 -69.5 -17t-25.5 -50q0 -22 21 -37.5t53 -24.5t69 -23t69 -30t53 -48t21 -75z" />
    <glyph glyph-name="Ydieresis" unicode="&#x178;" horiz-adv-x="666" 
d="M265 0v334q-117 192 -170 270q-18 26 -33 37t-37 11v96q21 4 50 4q42 0 71.5 -17.5t56.5 -63.5l127 -218h4q45 69 164 297h144q-86 -159 -246 -417v-333h-131zM211 827q-31 0 -49.5 18t-18.5 47t18.5 47t49.5 18q30 0 48.5 -18t18.5 -47t-18.5 -47t-48.5 -18zM452 827
q-30 0 -48.5 18t-18.5 47t18.5 47t48.5 18q31 0 49.5 -18t18.5 -47t-18.5 -47t-49.5 -18z" />
    <glyph glyph-name="Zcaron" unicode="&#x17d;" horiz-adv-x="678" 
d="M634 103v-103h-596v52q159 256 393 589l-2 6h-364v103h544l18 -50q-244 -352 -398 -591l2 -6h403zM398 825h-102l-160 123l35 50l176 -82l175 82l36 -50z" />
    <glyph glyph-name="zcaron" unicode="&#x17e;" horiz-adv-x="544" 
d="M324 621h-104l-133 203l61 35l124 -144l124 144l60 -35zM501 92v-92h-457v49q248 357 276 396l-1 5h-263v91h427l15 -48q-199 -273 -281 -396l2 -5h282z" />
    <glyph glyph-name="florin" unicode="&#x192;" 
d="M517 300h-155l-23 -228q-13 -125 -60.5 -178t-130.5 -53q-58 0 -102 19l28 92q30 -6 54 -6q49 0 68.5 35.5t26.5 104.5l22 214h-102v79h111l12 108q13 126 78 184t160 58q40 0 69 -7l-22 -93q-85 0 -122.5 -32.5t-46.5 -115.5l-12 -102h147v-79z" />
    <glyph glyph-name="circumflex" unicode="&#x2c6;" horiz-adv-x="465" 
d="M285 855l132 -203l-61 -34l-124 143l-123 -143l-61 34l132 203h105z" />
    <glyph glyph-name="caron" unicode="&#x2c7;" horiz-adv-x="465" 
d="M285 621h-104l-133 203l61 35l124 -144l124 144l60 -35z" />
    <glyph glyph-name="breve" unicode="&#x2d8;" horiz-adv-x="465" 
d="M234 622q-77 0 -125.5 47t-52.5 130l68 16q21 -107 110 -107q87 0 107 107l68 -16q-4 -83 -52.5 -130t-122.5 -47z" />
    <glyph glyph-name="dotaccent" unicode="&#x2d9;" horiz-adv-x="465" 
d="M156 707q0 32 21 52.5t55 20.5t55.5 -20.5t21.5 -52.5t-21.5 -52.5t-55.5 -20.5t-55 20.5t-21 52.5z" />
    <glyph glyph-name="ring" unicode="&#x2da;" horiz-adv-x="465" 
d="M104 747q0 54 37 90t91 36q55 0 91.5 -35.5t36.5 -88.5q0 -54 -37 -90.5t-92 -36.5q-54 0 -90.5 35.5t-36.5 89.5zM163 747q0 -32 19.5 -51.5t49.5 -19.5q31 0 50.5 20.5t19.5 51.5q0 33 -20 53t-51 20t-49.5 -21t-18.5 -53z" />
    <glyph glyph-name="ogonek" unicode="&#x2db;" horiz-adv-x="465" 
d="M238 0h88q-47 -24 -78 -64.5t-31 -77.5q0 -40 43 -40q27 0 57 15l16 -43q-42 -23 -97 -23q-44 0 -73.5 20t-29.5 63q0 39 30 82t75 68z" />
    <glyph glyph-name="tilde" unicode="&#x2dc;" horiz-adv-x="465" 
d="M418 782q-1 -65 -27.5 -98.5t-68.5 -33.5q-29 0 -87.5 16.5t-76.5 16.5q-34 0 -37 -44h-74q1 67 28 99.5t70 32.5q25 0 84 -16.5t79 -16.5q33 0 36 44h74z" />
    <glyph glyph-name="hungarumlaut" unicode="&#x2dd;" horiz-adv-x="465" 
d="M101 618l-51 22l89 209l99 -47zM277 618l-51 22l89 209l99 -47z" />
    <glyph glyph-name="pi" unicode="&#x3c0;" horiz-adv-x="694" 
d="M44 439v102h603v-102h-123q-17 -156 -17 -260q0 -84 44 -84q20 0 51 18l35 -79q-62 -43 -128 -43q-117 0 -117 154q0 72 20 294h-134q-20 -280 -60 -439h-124q20 72 39.5 199t26.5 240h-116z" />
    <glyph glyph-name="uni200A" unicode="&#x200a;" horiz-adv-x="65" 
 />
    <glyph glyph-name="endash" unicode="&#x2013;" horiz-adv-x="646" 
d="M27 239v85h592v-85h-592z" />
    <glyph glyph-name="emdash" unicode="&#x2014;" horiz-adv-x="926" 
d="M27 239v85h872v-85h-872z" />
    <glyph glyph-name="quoteleft" unicode="&#x2018;" horiz-adv-x="245" 
d="M126 766l70 -16q-49 -55 -49 -109q0 -48 48 -99l-104 -21q-48 45 -48 98q0 80 83 147z" />
    <glyph glyph-name="quoteright" unicode="&#x2019;" horiz-adv-x="245" 
d="M119 516l-71 16q49 53 49 107q0 52 -48 100l104 21q48 -44 48 -99q0 -77 -82 -145z" />
    <glyph glyph-name="quotesinglbase" unicode="&#x201a;" horiz-adv-x="245" 
d="M114 -115l-71 16q49 55 49 108q0 52 -48 100l104 21q48 -44 48 -100q0 -77 -82 -145z" />
    <glyph glyph-name="quotedblleft" unicode="&#x201c;" horiz-adv-x="436" 
d="M126 766l70 -16q-49 -55 -49 -109q0 -48 48 -99l-104 -21q-48 45 -48 98q0 80 83 147zM317 759l70 -15q-48 -52 -48 -104q0 -50 47 -98l-104 -20q-47 43 -47 97q0 75 82 140z" />
    <glyph glyph-name="quotedblright" unicode="&#x201d;" horiz-adv-x="436" 
d="M119 522l-71 16q49 50 49 103q0 51 -48 98l104 20q48 -42 48 -96q0 -74 -82 -141zM310 516l-70 16q48 52 48 109q0 48 -47 98l104 21q47 -44 47 -98q0 -81 -82 -146z" />
    <glyph glyph-name="quotedblbase" unicode="&#x201e;" horiz-adv-x="436" 
d="M114 -108l-71 15q49 52 49 104q0 50 -48 98l104 20q48 -42 48 -97q0 -75 -82 -140zM305 -115l-70 16q48 54 48 110q0 48 -47 98l104 21q47 -44 47 -98q0 -80 -82 -147z" />
    <glyph glyph-name="dagger" unicode="&#x2020;" horiz-adv-x="529" 
d="M319 0h-108l7 466l-169 -8v99l168 -5l-7 198h109l-8 -198l169 5v-99l-169 8z" />
    <glyph glyph-name="daggerdbl" unicode="&#x2021;" horiz-adv-x="529" 
d="M319 0h-109l5 219l-166 -6v99l166 -6l3 160l-169 -8v99l168 -5l-7 198h109l-8 -198l169 5v-99l-169 8l2 -160l168 6v-99l-168 7z" />
    <glyph glyph-name="bullet" unicode="&#x2022;" horiz-adv-x="469" 
d="M99 332q0 59 37.5 96.5t97.5 37.5t98 -37t38 -97q0 -59 -38 -95.5t-98 -36.5t-97.5 36.5t-37.5 95.5z" />
    <glyph glyph-name="ellipsis" unicode="&#x2026;" horiz-adv-x="749" 
d="M58 60q0 31 21 51.5t53 20.5t53.5 -20.5t21.5 -51.5q0 -30 -21.5 -49.5t-53.5 -19.5t-53 19.5t-21 49.5zM300 60q0 31 21 51.5t53 20.5t53.5 -20.5t21.5 -51.5q0 -30 -21.5 -49.5t-53.5 -19.5t-53 19.5t-21 49.5zM543 60q0 31 21 51.5t53 20.5t53 -20.5t21 -51.5
q0 -30 -21 -49.5t-53 -19.5t-53 19.5t-21 49.5z" />
    <glyph glyph-name="perthousand" unicode="&#x2030;" horiz-adv-x="1346" 
d="M219 442q39 0 61 29t22 82q0 55 -22 83.5t-61 28.5q-85 0 -85 -111q0 -112 85 -112zM218 378q-78 0 -123.5 45t-45.5 131q0 80 43.5 127.5t125.5 47.5t125.5 -47t43.5 -129q0 -86 -45.5 -130.5t-123.5 -44.5zM1128 55q40 0 61.5 28.5t21.5 83.5q0 53 -22 82t-61 29
q-43 0 -63.5 -30t-20.5 -81q0 -112 84 -112zM1127 -9q-79 0 -124 45.5t-45 130.5q0 81 44.5 128t124.5 47q81 0 125.5 -46.5t44.5 -129.5q0 -84 -45.5 -129.5t-124.5 -45.5zM719 55q40 0 61.5 28.5t21.5 83.5q0 53 -22 82t-61 29q-43 0 -63.5 -30t-20.5 -81q0 -112 84 -112z
M718 -9q-79 0 -124 45.5t-45 130.5q0 81 44.5 128t124.5 47q81 0 125.5 -46.5t44.5 -129.5q0 -84 -45.5 -129.5t-124.5 -45.5zM298 -9l-86 52l426 686l87 -50z" />
    <glyph glyph-name="guilsinglleft" unicode="&#x2039;" horiz-adv-x="398" 
d="M59 253v53l256 217v-113l-156 -131l156 -130v-114z" />
    <glyph glyph-name="guilsinglright" unicode="&#x203a;" horiz-adv-x="398" 
d="M340 253l-257 -218v114l156 130l-156 131v113l257 -217v-53z" />
    <glyph glyph-name="fraction" unicode="&#x2044;" horiz-adv-x="147" 
d="M-96 -9l-86 52l426 686l86 -50z" />
    <glyph glyph-name="zero.sups" unicode="&#x2070;" horiz-adv-x="380" 
d="M190 434q67 0 67 120q0 114 -67 114t-67 -116q0 -118 67 -118zM190 376q-72 0 -112.5 44.5t-40.5 132.5q0 81 39.5 127.5t113.5 46.5q73 0 112.5 -44.5t39.5 -127.5q0 -86 -39.5 -132.5t-112.5 -46.5z" />
    <glyph glyph-name="four.sups" unicode="&#x2074;" horiz-adv-x="380" 
d="M235 725l62 -5v-207h40l-6 -56h-34v-74h-78v74h-183v45q50 57 123.5 139t75.5 84zM217 624q-6 -7 -24 -27.5t-36.5 -41.5t-33.5 -39l1 -3h96v110z" />
    <glyph glyph-name="five.sups" unicode="&#x2075;" horiz-adv-x="380" 
d="M179 376q-69 0 -133 32l22 59q52 -29 109 -29q62 0 62 47q0 52 -173 65q12 58 25 170h224v-60h-147l-8 -64q166 -12 166 -114q0 -51 -40.5 -78.5t-106.5 -27.5z" />
    <glyph glyph-name="six.sups" unicode="&#x2076;" horiz-adv-x="380" 
d="M302 672q-125 -30 -162 -102l4 -1q33 21 75 21q50 0 82 -27.5t32 -75.5q0 -47 -38 -79t-103 -32q-64 0 -104 37.5t-40 102.5q0 76 66 135t171 76zM194 540q-32 0 -65 -23q2 -87 63 -87q27 0 42.5 15.5t15.5 40.5q0 54 -56 54z" />
    <glyph glyph-name="seven.sups" unicode="&#x2077;" horiz-adv-x="380" 
d="M183 383h-102q14 20 51.5 85t72 125.5t37.5 65.5h-185v61h271l15 -26q-6 -13 -75.5 -148t-84.5 -163z" />
    <glyph glyph-name="eight.sups" unicode="&#x2078;" horiz-adv-x="380" 
d="M189 376q-62 0 -101 27t-39 70q0 59 71 90q-61 31 -61 76q0 42 34.5 65t95.5 23q64 0 97 -24t33 -65q0 -46 -63 -76q74 -32 74 -90q0 -43 -40.5 -69.5t-100.5 -26.5zM189 429q25 0 41 12.5t16 32.5t-14 32.5t-45 23.5q-56 -20 -56 -56q0 -20 16 -32.5t42 -12.5zM188 588
q50 23 50 48q0 20 -14 30.5t-36 10.5t-36.5 -11t-14.5 -30q0 -27 51 -48z" />
    <glyph glyph-name="nine.sups" unicode="&#x2079;" horiz-adv-x="380" 
d="M76 431q118 28 160 102l-2 1q-32 -21 -75 -21q-50 0 -81.5 27.5t-31.5 75.5t38 79.5t103 31.5q64 0 104 -36.5t40 -101.5q0 -76 -67 -136t-171 -77zM183 563q35 0 66 23q-4 87 -62 87q-27 0 -43.5 -15.5t-16.5 -40.5q0 -26 15 -40t41 -14z" />
    <glyph glyph-name="zero.sinf" unicode="&#x2080;" horiz-adv-x="380" 
d="M190 -99q67 0 67 120q0 114 -67 114t-67 -116q0 -118 67 -118zM190 -157q-72 0 -112.5 44.5t-40.5 132.5q0 81 39.5 127.5t113.5 46.5q73 0 112.5 -44.5t39.5 -127.5q0 -86 -39.5 -132.5t-112.5 -46.5z" />
    <glyph glyph-name="one.sinf" unicode="&#x2081;" horiz-adv-x="380" 
d="M65 -150v58h89v211l-89 -5v47q60 6 143 29h31v-283h84v-57h-258z" />
    <glyph glyph-name="two.sinf" unicode="&#x2082;" horiz-adv-x="380" 
d="M51 -150l-9 44q89 65 132.5 109.5t43.5 82.5q0 47 -54 47q-48 0 -97 -30l-21 56q59 35 132 35q58 0 96 -25t38 -76q0 -77 -126 -179v-2h139v-62h-274z" />
    <glyph glyph-name="three.sinf" unicode="&#x2083;" horiz-adv-x="380" 
d="M177 -157q-73 0 -131 33l21 57q47 -31 102 -31q66 0 66 51q0 25 -28.5 38.5t-76.5 13.5v37q91 20 91 59q0 33 -50 33q-51 0 -93 -30l-23 50q56 40 134 40q56 0 90 -21t34 -59q0 -27 -17.5 -48t-46.5 -30v-3q77 -17 77 -85q0 -50 -42.5 -77.5t-106.5 -27.5z" />
    <glyph glyph-name="four.sinf" unicode="&#x2084;" horiz-adv-x="380" 
d="M235 192l62 -5v-207h40l-6 -56h-34v-74h-78v74h-183v45q50 57 123.5 139t75.5 84zM217 91q-6 -7 -24 -27.5t-36.5 -41.5t-33.5 -39l1 -3h96v110z" />
    <glyph glyph-name="five.sinf" unicode="&#x2085;" horiz-adv-x="380" 
d="M179 -157q-69 0 -133 32l22 59q52 -29 109 -29q62 0 62 47q0 52 -173 65q12 58 25 170h224v-60h-147l-8 -64q166 -12 166 -114q0 -51 -40.5 -78.5t-106.5 -27.5z" />
    <glyph glyph-name="six.sinf" unicode="&#x2086;" horiz-adv-x="380" 
d="M302 139q-125 -30 -162 -102l4 -1q33 21 75 21q50 0 82 -27.5t32 -75.5q0 -47 -38 -79t-103 -32q-64 0 -104 37.5t-40 102.5q0 76 66 135t171 76zM194 7q-32 0 -65 -23q2 -87 63 -87q27 0 42.5 15.5t15.5 40.5q0 54 -56 54z" />
    <glyph glyph-name="seven.sinf" unicode="&#x2087;" horiz-adv-x="380" 
d="M183 -150h-102q14 20 51.5 85t72 125.5t37.5 65.5h-185v61h271l15 -26q-6 -13 -75.5 -148t-84.5 -163z" />
    <glyph glyph-name="eight.sinf" unicode="&#x2088;" horiz-adv-x="380" 
d="M189 -157q-62 0 -101 27t-39 70q0 59 71 90q-61 31 -61 76q0 42 34.5 65t95.5 23q64 0 97 -24t33 -65q0 -46 -63 -76q74 -32 74 -90q0 -43 -40.5 -69.5t-100.5 -26.5zM189 -104q25 0 41 12.5t16 32.5t-14 32.5t-45 23.5q-56 -20 -56 -56q0 -20 16 -32.5t42 -12.5zM188 55
q50 23 50 48q0 20 -14 30.5t-36 10.5t-36.5 -11t-14.5 -30q0 -27 51 -48z" />
    <glyph glyph-name="nine.sinf" unicode="&#x2089;" horiz-adv-x="380" 
d="M76 -102q118 28 160 102l-2 1q-32 -21 -75 -21q-50 0 -81.5 27.5t-31.5 75.5t38 79.5t103 31.5q64 0 104 -36.5t40 -101.5q0 -76 -67 -136t-171 -77zM183 30q35 0 66 23q-4 87 -62 87q-27 0 -43.5 -15.5t-16.5 -40.5q0 -26 15 -40t41 -14z" />
    <glyph glyph-name="Euro" unicode="&#x20ac;" 
d="M506 324v-73h-216q30 -155 155 -155q76 0 146 36l15 -97q-85 -44 -178 -44q-112 0 -185.5 65t-94.5 195h-80v73h73q-1 11 -1 35q0 23 1 34h-73v73h81q23 131 100.5 197t176.5 66q87 0 169 -42l-21 -96q-67 36 -130 36q-125 0 -155 -161h217v-73h-225v-33q0 -25 1 -36h224
z" />
    <glyph glyph-name="trademark" unicode="&#x2122;" horiz-adv-x="831" 
d="M165 383v246h-106v62h283v-62h-108v-246h-69zM397 383l4 308h74q49 -88 100 -196h5q53 104 94 196h74l4 -308h-65l-1 200h-4q-18 -41 -39 -82.5t-35.5 -67t-16.5 -31.5q-1 0 -15 -1t-16 -1q-71 144 -92 181h-4l-2 -198h-65z" />
    <glyph glyph-name="Omega" unicode="&#x2126;" horiz-adv-x="832" 
d="M416 658q-107 0 -165.5 -70t-58.5 -174q0 -93 44 -174.5t120 -130.5v-109h-307v104h198v2q-85 50 -138 138.5t-53 194.5q0 142 96.5 231t263.5 89q166 0 263 -89t97 -231q0 -105 -53 -193.5t-139 -139.5v-2h199v-104h-307v109q76 49 119.5 131t43.5 174q0 104 -58.5 174
t-164.5 70z" />
    <glyph glyph-name="partialdiff" unicode="&#x2202;" horiz-adv-x="595" 
d="M256 -9q-98 0 -157.5 58t-59.5 152q0 110 66 170t167 60q39 0 80 -14t66 -37q1 13 1 42q0 111 -38 179t-120 68q-73 0 -157 -41l-19 94q94 53 192 53q94 0 155 -53t85 -133t24 -184q0 -180 -73.5 -297t-211.5 -117zM261 92q55 0 93.5 50.5t54.5 144.5q-43 55 -116 55
q-56 0 -93.5 -35t-37.5 -97q0 -58 29 -88t70 -30z" />
    <glyph glyph-name="Delta" unicode="&#x2206;" horiz-adv-x="744" 
d="M701 0h-658l-14 43l316 707h67l304 -705zM162 101l1 -8h416l1 7l-202 482h-6z" />
    <glyph glyph-name="product" unicode="&#x220f;" horiz-adv-x="799" 
d="M661 647v-797h-133v797h-256v-797h-133v797h-90v103h702v-103h-90z" />
    <glyph glyph-name="summation" unicode="&#x2211;" horiz-adv-x="637" 
d="M39 684v66h559v-104h-377l-2 -5l215 -333l-221 -350l2 -4h383v-104h-559v68l247 388z" />
    <glyph glyph-name="minus" unicode="&#x2212;" 
d="M580 268h-510v88h510v-88z" />
    <glyph glyph-name="radical" unicode="&#x221a;" horiz-adv-x="679" 
d="M27 475h201l106 -359l217 784h111l-252 -900h-150l-129 390h-104v85z" />
    <glyph glyph-name="infinity" unicode="&#x221e;" horiz-adv-x="879" 
d="M643 122q-113 0 -205 126q-89 -126 -203 -126q-83 0 -139.5 57t-56.5 150q0 95 56.5 151t139.5 56q114 0 206 -126q91 126 204 126q83 0 139.5 -56t56.5 -151q0 -98 -57 -152.5t-141 -54.5zM635 434q-75 0 -144 -104q76 -105 145 -105q47 0 73.5 29.5t26.5 74.5
q0 44 -28 74.5t-73 30.5zM245 224q75 0 142 104q-73 106 -143 106q-47 0 -74 -30t-27 -75q0 -43 28.5 -74t73.5 -31z" />
    <glyph glyph-name="integral" unicode="&#x222b;" horiz-adv-x="394" 
d="M9 -154l16 99q12 -3 31 -3q87 0 87 122q0 94 -11.5 298.5t-11.5 292.5q0 122 42.5 183.5t162.5 61.5q30 0 60 -6l-17 -98q-10 3 -30 3q-87 0 -87 -122q0 -94 11.5 -298.5t11.5 -292.5q0 -122 -42.5 -183.5t-162.5 -61.5q-23 0 -60 5z" />
    <glyph glyph-name="approxequal" unicode="&#x2248;" 
d="M522 299l59 -52q-62 -92 -139 -92q-39 0 -116.5 22.5t-105.5 22.5q-50 0 -93 -54l-59 51q60 93 138 93q39 0 116.5 -23t105.5 -23q49 0 94 55zM522 495l59 -51q-62 -93 -139 -93q-39 0 -116.5 23t-105.5 23q-50 0 -93 -55l-59 52q60 93 138 93q39 0 116.5 -23t105.5 -23
q50 0 94 54z" />
    <glyph glyph-name="notequal" unicode="&#x2260;" 
d="M580 181h-271l-54 -115h-98l54 115h-141v88h179l52 111h-231v88h270l54 115h99l-55 -115h142v-88h-181l-52 -111h233v-88z" />
    <glyph glyph-name="lessequal" unicode="&#x2264;" 
d="M90 407v69l470 213v-98l-344 -150l344 -149v-98zM560 46h-470v88h470v-88z" />
    <glyph glyph-name="greaterequal" unicode="&#x2265;" 
d="M560 476v-69l-470 -213v98l344 149l-344 150v98zM560 46h-470v88h470v-88z" />
    <glyph glyph-name="lozenge" unicode="&#x25ca;" 
d="M363 0h-76l-218 375l218 375h76l218 -375zM325 640l-152 -265l152 -265l152 265z" />
    <glyph glyph-name="fi" unicode="&#xfb01;" horiz-adv-x="617" 
d="M420 0v452h-182v-452h-128v452h-85v89h86v39q0 195 223 195q82 0 166 -22l-22 -89q-62 17 -129 17q-53 0 -82 -22t-29 -78v-40h310v-541h-128z" />
    <glyph glyph-name="fl" unicode="&#xfb02;" horiz-adv-x="649" 
d="M452 0v667q-52 13 -104 13t-81 -21t-29 -77v-41h136l-11 -89h-125v-452h-128v452h-85v89h86v39q0 195 231 195q127 0 238 -33v-742h-128z" />
    <glyph glyph-name="a.smcp" horiz-adv-x="658" 
d="M491 0l-56 141h-217q-1 -2 -6.5 -17.5t-13 -34.5t-15 -39t-13 -34.5t-5.5 -15.5h-131q175 435 235 564h118q116 -262 237 -564h-133zM330 417h-5q-47 -116 -77 -194h157q-23 56 -75 194z" />
    <glyph glyph-name="b.smcp" horiz-adv-x="552" 
d="M64 0v564h210q61 0 103.5 -10t72 -42t29.5 -85q0 -90 -91 -123v-5q58 -13 91 -45.5t33 -94.5q0 -74 -52.5 -116.5t-161.5 -42.5h-234zM192 86h86q105 0 105 89q0 45 -28.5 65.5t-87.5 20.5h-75v-175zM192 322h57q46 0 74.5 22t28.5 63q0 72 -93 72h-67v-157z" />
    <glyph glyph-name="c.smcp" horiz-adv-x="567" 
d="M348 -9q-61 0 -113.5 16t-96.5 48.5t-69 89.5t-25 133q0 151 82 223t216 72q43 0 94.5 -11t85.5 -27l-23 -99q-69 33 -138 33q-84 0 -131 -47t-47 -144q0 -95 51.5 -138.5t133.5 -43.5q75 0 146 31l14 -97q-85 -39 -180 -39z" />
    <glyph glyph-name="d.smcp" horiz-adv-x="644" 
d="M64 0v564h229q308 0 308 -283q0 -136 -77 -208.5t-224 -72.5h-236zM192 465v-367h97q89 0 133.5 50t44.5 135q0 182 -184 182h-91z" />
    <glyph glyph-name="e.smcp" horiz-adv-x="464" 
d="M64 0v564h349v-92h-221v-149h168l-10 -75h-158v-156h225v-92h-353z" />
    <glyph glyph-name="f.smcp" horiz-adv-x="446" 
d="M64 0v564h349v-92h-221v-159h178l-11 -86h-166v-227h-129z" />
    <glyph glyph-name="g.smcp" horiz-adv-x="624" 
d="M379 471q-89 0 -142 -47.5t-53 -145.5q0 -92 51 -138.5t130 -46.5q47 0 92 15v115h-64v68h177v-254q-102 -46 -221 -46q-131 0 -218 72t-87 214q0 149 86.5 222.5t228.5 73.5q115 0 197 -41l-23 -96q-70 35 -154 35z" />
    <glyph glyph-name="h.smcp" horiz-adv-x="660" 
d="M64 0v564h130v-223h271v223h131v-564h-131v243h-271v-243h-130z" />
    <glyph glyph-name="i.smcp" horiz-adv-x="258" 
d="M64 0v564h131v-564h-131z" />
    <glyph glyph-name="j.smcp" horiz-adv-x="367" 
d="M131 -9q-47 0 -89 9l-8 99q26 -7 55 -7q44 0 62.5 21.5t18.5 68.5v283h-66v99h199v-405q0 -168 -172 -168z" />
    <glyph glyph-name="k.smcp" horiz-adv-x="594" 
d="M566 85v-83q-31 -11 -69 -11q-35 0 -56 10t-43 39q-23 29 -71 96t-72 106h-61v-242h-130v564h130v-222h62q26 32 148 222h140q-133 -203 -179 -266q79 -128 137 -191q21 -22 64 -22z" />
    <glyph glyph-name="l.smcp" horiz-adv-x="455" 
d="M64 0v564h131v-465h231v-99h-362z" />
    <glyph glyph-name="m.smcp" horiz-adv-x="803" 
d="M714 564l30 -564h-125l-19 368h-6q-93 -199 -166 -325l-57 -7q-129 263 -170 335h-6l-13 -371h-123l25 564h133q62 -107 182 -356h6q141 288 171 356h138z" />
    <glyph glyph-name="n.smcp" horiz-adv-x="678" 
d="M611 1l-81 -9q-65 83 -173 209.5t-161 182.5l-5 -1v-383h-127v564h111q142 -150 303 -352h5v352h128v-563z" />
    <glyph glyph-name="o.smcp" horiz-adv-x="682" 
d="M341 -9q-141 0 -219 78t-78 214q0 135 75 212.5t221 77.5q142 0 220 -77.5t78 -210.5q0 -139 -75.5 -216.5t-221.5 -77.5zM341 88q77 0 119 50t42 147q0 91 -41.5 141t-120.5 50q-78 0 -119.5 -50t-41.5 -142q0 -94 41.5 -145t120.5 -51z" />
    <glyph glyph-name="p.smcp" horiz-adv-x="531" 
d="M195 0h-131v564h217q107 0 162.5 -47t55.5 -131q0 -196 -248 -196q-40 0 -56 1v-191zM195 466l-1 -179q14 -2 47 -2q64 0 96 22t32 74q0 85 -110 85h-64z" />
    <glyph glyph-name="q.smcp" horiz-adv-x="682" 
d="M572 -151q-64 0 -146.5 44t-153.5 103q-110 16 -169 92.5t-59 194.5q0 135 75 212.5t221 77.5q142 0 220 -77.5t78 -210.5q0 -111 -49 -185t-145 -94q96 -68 164 -68q12 0 40 2v-79q-34 -12 -76 -12zM341 88q77 0 119 50t42 147q0 91 -41.5 141t-120.5 50
q-78 0 -119.5 -50t-41.5 -142q0 -94 41.5 -145t120.5 -51z" />
    <glyph glyph-name="r.smcp" horiz-adv-x="571" 
d="M546 85v-85q-38 -9 -66 -9q-54 0 -84 35q-21 24 -59 80.5t-64 104.5h-79v-211h-130v564h203q217 0 217 -167q0 -103 -96 -147q19 -33 40 -65.5t50.5 -66t46.5 -33.5h21zM194 471v-172h50q116 0 116 91q0 81 -106 81h-60z" />
    <glyph glyph-name="s.smcp" horiz-adv-x="502" 
d="M454 156q0 -85 -61 -125t-162 -40q-111 0 -197 48l17 98q87 -53 177 -53q101 0 101 69q0 21 -18 39t-39 28t-58.5 26.5t-56.5 26.5q-55 29 -84.5 61.5t-29.5 86.5q0 75 56.5 113.5t155.5 38.5q104 0 179 -36l-24 -92q-68 35 -150 35q-86 0 -86 -59q0 -26 27 -45t83 -42.5
t83 -39.5q87 -49 87 -138z" />
    <glyph glyph-name="t.smcp" horiz-adv-x="586" 
d="M228 0v466h-191v98h513v-98h-191v-466h-131z" />
    <glyph glyph-name="u.smcp" horiz-adv-x="648" 
d="M324 -9q-265 0 -265 244v329h131v-330q0 -71 37 -105.5t97 -34.5q58 0 96 33.5t38 105.5v331h132v-334q0 -239 -266 -239z" />
    <glyph glyph-name="v.smcp" horiz-adv-x="626" 
d="M309 151h5q98 244 153 414h135q-37 -103 -119 -304.5t-111 -260.5h-123q-36 81 -113 271.5t-112 293.5h135q76 -224 150 -414z" />
    <glyph glyph-name="w.smcp" horiz-adv-x="906" 
d="M692 0h-126q-13 31 -108 288h-1q-82 -206 -122 -288h-118q-92 244 -192 564h131q63 -202 139 -418h5q62 144 109 269q-17 38 -27.5 50.5t-30.5 13.5v85q25 4 55 4q37 0 57 -13t34 -53q82 -246 120 -352h4q73 201 129 414h131q-27 -100 -94.5 -301t-94.5 -263z" />
    <glyph glyph-name="x.smcp" horiz-adv-x="624" 
d="M596 0q-22 -9 -63 -9q-35 0 -55 7.5t-41 33.5q-7 7 -28.5 38.5t-51 73.5t-44.5 63h-5q-13 -20 -59.5 -91t-75.5 -116h-142q78 118 193 285q-39 59 -106 149q-28 38 -64 38v91q30 4 62 4q36 0 59 -13.5t47 -49.5q39 -53 89 -134h5q32 48 120 194h136q-103 -172 -173 -273
q68 -104 130 -179q25 -29 54 -29h13v-83z" />
    <glyph glyph-name="y.smcp" horiz-adv-x="563" 
d="M209 0v244q-64 103 -128 191q-26 35 -59 35v93q20 4 47 4q38 0 63 -13t51 -51q33 -49 90 -146h5q48 71 124 208h138q-99 -177 -200 -322v-243h-131z" />
    <glyph glyph-name="z.smcp" horiz-adv-x="576" 
d="M538 98v-98h-499v52q84 124 301 409l-1 4h-279v99h455l18 -50q-203 -264 -307 -411l1 -5h311z" />
    <glyph glyph-name="aacute.smcp" horiz-adv-x="658" 
d="M309 638l-53 26l131 227l100 -56zM491 0l-56 141h-217q-1 -2 -6.5 -17.5t-13 -34.5t-15 -39t-13 -34.5t-5.5 -15.5h-131q175 435 235 564h118q116 -262 237 -564h-133zM330 417h-5q-47 -116 -77 -194h157q-23 56 -75 194z" />
    <glyph glyph-name="agrave.smcp" horiz-adv-x="658" 
d="M404 665l-52 -27l-180 196l101 56zM491 0l-56 141h-217q-1 -2 -6.5 -17.5t-13 -34.5t-15 -39t-13 -34.5t-5.5 -15.5h-131q175 435 235 564h118q116 -262 237 -564h-133zM330 417h-5q-47 -116 -77 -194h157q-23 56 -75 194z" />
    <glyph glyph-name="acircumflex.smcp" horiz-adv-x="658" 
d="M276 875h105l132 -203l-61 -34l-124 143l-123 -143l-61 34zM491 0l-56 141h-217q-1 -2 -6.5 -17.5t-13 -34.5t-15 -39t-13 -34.5t-5.5 -15.5h-131q175 435 235 564h118q116 -262 237 -564h-133zM330 417h-5q-47 -116 -77 -194h157q-23 56 -75 194z" />
    <glyph glyph-name="atilde.smcp" horiz-adv-x="658" 
d="M491 0l-56 141h-217q-1 -2 -6.5 -17.5t-13 -34.5t-15 -39t-13 -34.5t-5.5 -15.5h-131q175 435 235 564h118q116 -262 237 -564h-133zM330 417h-5q-47 -116 -77 -194h157q-23 56 -75 194zM514 802q-1 -65 -27.5 -98.5t-68.5 -33.5q-29 0 -87.5 16.5t-76.5 16.5
q-34 0 -37 -44h-74q1 67 28 99.5t70 32.5q25 0 84 -16.5t79 -16.5q33 0 36 44h74z" />
    <glyph glyph-name="adieresis.smcp" horiz-adv-x="658" 
d="M491 0l-56 141h-217q-1 -2 -6.5 -17.5t-13 -34.5t-15 -39t-13 -34.5t-5.5 -15.5h-131q175 435 235 564h118q116 -262 237 -564h-133zM330 417h-5q-47 -116 -77 -194h157q-23 56 -75 194zM208 668q-31 0 -49.5 18t-18.5 47t18.5 47t49.5 18q30 0 48.5 -18t18.5 -47
t-18.5 -47t-48.5 -18zM449 668q-30 0 -48.5 18t-18.5 47t18.5 47t48.5 18q31 0 49.5 -18t18.5 -47t-18.5 -47t-49.5 -18z" />
    <glyph glyph-name="aring.smcp" horiz-adv-x="658" 
d="M199 767q0 54 37 90t91 36q55 0 91.5 -35.5t36.5 -88.5q0 -54 -37 -90.5t-92 -36.5q-54 0 -90.5 35.5t-36.5 89.5zM258 767q0 -32 19.5 -51.5t49.5 -19.5q31 0 50.5 20.5t19.5 51.5q0 33 -20 53t-51 20t-49.5 -21t-18.5 -53zM491 0l-56 141h-217q-1 -2 -6.5 -17.5
t-13 -34.5t-15 -39t-13 -34.5t-5.5 -15.5h-131q175 435 235 564h118q116 -262 237 -564h-133zM330 417h-5q-47 -116 -77 -194h157q-23 56 -75 194z" />
    <glyph glyph-name="ccedilla.smcp" horiz-adv-x="567" 
d="M528 30q-65 -30 -149 -37l-60 -52q95 -7 95 -83q0 -41 -34.5 -66t-88.5 -25q-59 0 -102 25l14 43q35 -20 78 -20q50 0 50 37q0 39 -67 39h-38l-12 27l83 76q-112 12 -182.5 82t-70.5 202q0 151 82 223t216 72q43 0 94.5 -11t85.5 -27l-23 -99q-69 33 -138 33
q-84 0 -131 -47t-47 -144q0 -95 51.5 -138.5t133.5 -43.5q75 0 146 31z" />
    <glyph glyph-name="eacute.smcp" horiz-adv-x="464" 
d="M64 0v564h349v-92h-221v-149h168l-10 -75h-158v-156h225v-92h-353zM199 638l-53 26l131 227l100 -56z" />
    <glyph glyph-name="egrave.smcp" horiz-adv-x="464" 
d="M301 665l-52 -27l-180 196l101 56zM64 0v564h349v-92h-221v-149h168l-10 -75h-158v-156h225v-92h-353z" />
    <glyph glyph-name="ecircumflex.smcp" horiz-adv-x="464" 
d="M64 0v564h349v-92h-221v-149h168l-10 -75h-158v-156h225v-92h-353zM186 875h105l132 -203l-61 -34l-124 143l-123 -143l-61 34z" />
    <glyph glyph-name="edieresis.smcp" horiz-adv-x="464" 
d="M64 0v564h349v-92h-221v-149h168l-10 -75h-158v-156h225v-92h-353zM118 668q-31 0 -49.5 18t-18.5 47t18.5 47t49.5 18q30 0 48.5 -18t18.5 -47t-18.5 -47t-48.5 -18zM359 668q-30 0 -48.5 18t-18.5 47t18.5 47t48.5 18q31 0 49.5 -18t18.5 -47t-18.5 -47t-49.5 -18z" />
    <glyph glyph-name="iacute.smcp" horiz-adv-x="258" 
d="M118 638l-53 26l131 227l100 -56zM64 0v564h131v-564h-131z" />
    <glyph glyph-name="igrave.smcp" horiz-adv-x="258" 
d="M194 665l-52 -27l-180 196l101 56zM64 0v564h131v-564h-131z" />
    <glyph glyph-name="icircumflex.smcp" horiz-adv-x="258" 
d="M77 875h105l132 -203l-61 -34l-124 143l-123 -143l-61 34zM64 0v564h131v-564h-131z" />
    <glyph glyph-name="idieresis.smcp" horiz-adv-x="258" 
d="M64 0v564h131v-564h-131zM9 668q-31 0 -49.5 18t-18.5 47t18.5 47t49.5 18q30 0 48.5 -18t18.5 -47t-18.5 -47t-48.5 -18zM250 668q-30 0 -48.5 18t-18.5 47t18.5 47t48.5 18q31 0 49.5 -18t18.5 -47t-18.5 -47t-49.5 -18z" />
    <glyph glyph-name="dotlessi.smcp" horiz-adv-x="258" 
d="M64 0v564h131v-564h-131z" />
    <glyph glyph-name="lslash.smcp" horiz-adv-x="489" 
d="M24 204v84l64 16v260h131v-225l113 29v-84l-113 -29v-156h232v-99h-363v220z" />
    <glyph glyph-name="ntilde.smcp" horiz-adv-x="678" 
d="M611 1l-81 -9q-65 83 -173 209.5t-161 182.5l-5 -1v-383h-127v564h111q142 -150 303 -352h5v352h128v-563zM524 802q-1 -65 -27.5 -98.5t-68.5 -33.5q-29 0 -87.5 16.5t-76.5 16.5q-34 0 -37 -44h-74q1 67 28 99.5t70 32.5q25 0 84 -16.5t79 -16.5q33 0 36 44h74z" />
    <glyph glyph-name="oacute.smcp" horiz-adv-x="682" 
d="M341 -9q-141 0 -219 78t-78 214q0 135 75 212.5t221 77.5q142 0 220 -77.5t78 -210.5q0 -139 -75.5 -216.5t-221.5 -77.5zM341 88q77 0 119 50t42 147q0 91 -41.5 141t-120.5 50q-78 0 -119.5 -50t-41.5 -142q0 -94 41.5 -145t120.5 -51zM295 638l-53 26l131 227l100 -56
z" />
    <glyph glyph-name="ograve.smcp" horiz-adv-x="682" 
d="M341 -9q-141 0 -219 78t-78 214q0 135 75 212.5t221 77.5q142 0 220 -77.5t78 -210.5q0 -139 -75.5 -216.5t-221.5 -77.5zM341 88q77 0 119 50t42 147q0 91 -41.5 141t-120.5 50q-78 0 -119.5 -50t-41.5 -142q0 -94 41.5 -145t120.5 -51zM429 665l-52 -27l-180 196
l101 56z" />
    <glyph glyph-name="ocircumflex.smcp" horiz-adv-x="682" 
d="M341 -9q-141 0 -219 78t-78 214q0 135 75 212.5t221 77.5q142 0 220 -77.5t78 -210.5q0 -139 -75.5 -216.5t-221.5 -77.5zM341 88q77 0 119 50t42 147q0 91 -41.5 141t-120.5 50q-78 0 -119.5 -50t-41.5 -142q0 -94 41.5 -145t120.5 -51zM287 875h105l132 -203l-61 -34
l-124 143l-123 -143l-61 34z" />
    <glyph glyph-name="otilde.smcp" horiz-adv-x="682" 
d="M341 -9q-141 0 -219 78t-78 214q0 135 75 212.5t221 77.5q142 0 220 -77.5t78 -210.5q0 -139 -75.5 -216.5t-221.5 -77.5zM341 88q77 0 119 50t42 147q0 91 -41.5 141t-120.5 50q-78 0 -119.5 -50t-41.5 -142q0 -94 41.5 -145t120.5 -51zM530 802q-1 -65 -27.5 -98.5
t-68.5 -33.5q-29 0 -87.5 16.5t-76.5 16.5q-34 0 -37 -44h-74q1 67 28 99.5t70 32.5q25 0 84 -16.5t79 -16.5q33 0 36 44h74z" />
    <glyph glyph-name="odieresis.smcp" horiz-adv-x="682" 
d="M341 -9q-141 0 -219 78t-78 214q0 135 75 212.5t221 77.5q142 0 220 -77.5t78 -210.5q0 -139 -75.5 -216.5t-221.5 -77.5zM341 88q77 0 119 50t42 147q0 91 -41.5 141t-120.5 50q-78 0 -119.5 -50t-41.5 -142q0 -94 41.5 -145t120.5 -51zM221 668q-31 0 -49.5 18
t-18.5 47t18.5 47t49.5 18q30 0 48.5 -18t18.5 -47t-18.5 -47t-48.5 -18zM462 668q-30 0 -48.5 18t-18.5 47t18.5 47t48.5 18q31 0 49.5 -18t18.5 -47t-18.5 -47t-49.5 -18z" />
    <glyph glyph-name="oslash.smcp" horiz-adv-x="682" 
d="M341 -9q-90 0 -156 32l-35 -48h-61l54 74q-99 78 -99 234q0 135 75 212.5t221 77.5q91 0 157 -32l35 48h59l-53 -74q100 -76 100 -230q0 -139 -75.5 -216.5t-221.5 -77.5zM179 284q0 -91 37 -138l214 306q-36 24 -90 24q-78 0 -119.5 -50t-41.5 -142zM341 88q77 0 119 50
t42 147q0 89 -37 135l-214 -308q36 -24 90 -24z" />
    <glyph glyph-name="scaron.smcp" horiz-adv-x="502" 
d="M454 156q0 -85 -61 -125t-162 -40q-111 0 -197 48l17 98q87 -53 177 -53q101 0 101 69q0 21 -18 39t-39 28t-58.5 26.5t-56.5 26.5q-55 29 -84.5 61.5t-29.5 86.5q0 75 56.5 113.5t155.5 38.5q104 0 179 -36l-24 -92q-68 35 -150 35q-86 0 -86 -59q0 -26 27 -45t83 -42.5
t83 -39.5q87 -49 87 -138zM301 641h-104l-133 203l61 35l124 -144l124 144l60 -35z" />
    <glyph glyph-name="germandbls.smcp" horiz-adv-x="1001" 
d="M454 156q0 -85 -61 -125t-162 -40q-111 0 -197 48l17 98q87 -53 177 -53q101 0 101 69q0 21 -18 39t-39 28t-58.5 26.5t-56.5 26.5q-55 29 -84.5 61.5t-29.5 86.5q0 75 56.5 113.5t155.5 38.5q104 0 179 -36l-24 -92q-68 35 -150 35q-86 0 -86 -59q0 -26 27 -45t83 -42.5
t83 -39.5q87 -49 87 -138zM952 156q0 -85 -61 -125t-162 -40q-111 0 -197 48l17 98q87 -53 177 -53q101 0 101 69q0 21 -18 39t-39 28t-58.5 26.5t-56.5 26.5q-55 29 -84.5 61.5t-29.5 86.5q0 75 56.5 113.5t155.5 38.5q104 0 179 -36l-24 -92q-68 35 -150 35q-86 0 -86 -59
q0 -26 27 -45t83 -42.5t83 -39.5q87 -49 87 -138z" />
    <glyph glyph-name="uacute.smcp" horiz-adv-x="648" 
d="M324 -9q-265 0 -265 244v329h131v-330q0 -71 37 -105.5t97 -34.5q58 0 96 33.5t38 105.5v331h132v-334q0 -239 -266 -239zM304 638l-53 26l131 227l100 -56z" />
    <glyph glyph-name="ugrave.smcp" horiz-adv-x="648" 
d="M394 665l-52 -27l-180 196l101 56zM324 -9q-265 0 -265 244v329h131v-330q0 -71 37 -105.5t97 -34.5q58 0 96 33.5t38 105.5v331h132v-334q0 -239 -266 -239z" />
    <glyph glyph-name="ucircumflex.smcp" horiz-adv-x="648" 
d="M324 -9q-265 0 -265 244v329h131v-330q0 -71 37 -105.5t97 -34.5q58 0 96 33.5t38 105.5v331h132v-334q0 -239 -266 -239zM271 875h105l132 -203l-61 -34l-124 143l-123 -143l-61 34z" />
    <glyph glyph-name="udieresis.smcp" horiz-adv-x="648" 
d="M324 -9q-265 0 -265 244v329h131v-330q0 -71 37 -105.5t97 -34.5q58 0 96 33.5t38 105.5v331h132v-334q0 -239 -266 -239zM203 668q-31 0 -49.5 18t-18.5 47t18.5 47t49.5 18q30 0 48.5 -18t18.5 -47t-18.5 -47t-48.5 -18zM444 668q-30 0 -48.5 18t-18.5 47t18.5 47
t48.5 18q31 0 49.5 -18t18.5 -47t-18.5 -47t-49.5 -18z" />
    <glyph glyph-name="yacute.smcp" horiz-adv-x="563" 
d="M240 638l-53 26l131 227l100 -56zM209 0v244q-64 103 -128 191q-26 35 -59 35v93q20 4 47 4q38 0 63 -13t51 -51q33 -49 90 -146h5q48 71 124 208h138q-99 -177 -200 -322v-243h-131z" />
    <glyph glyph-name="ydieresis.smcp" horiz-adv-x="563" 
d="M209 0v244q-64 103 -128 191q-26 35 -59 35v93q20 4 47 4q38 0 63 -13t51 -51q33 -49 90 -146h5q48 71 124 208h138q-99 -177 -200 -322v-243h-131zM158 668q-31 0 -49.5 18t-18.5 47t18.5 47t49.5 18q30 0 48.5 -18t18.5 -47t-18.5 -47t-48.5 -18zM399 668
q-30 0 -48.5 18t-18.5 47t18.5 47t48.5 18q31 0 49.5 -18t18.5 -47t-18.5 -47t-49.5 -18z" />
    <glyph glyph-name="zcaron.smcp" horiz-adv-x="576" 
d="M538 98v-98h-499v52q84 124 301 409l-1 4h-279v99h455l18 -50q-203 -264 -307 -411l1 -5h311zM340 641h-104l-133 203l61 35l124 -144l124 144l60 -35z" />
    <glyph glyph-name="eth.smcp" horiz-adv-x="665" 
d="M17 257v70h68v237h229q308 0 308 -283q0 -136 -77 -208.5t-224 -72.5h-236v257h-68zM214 465v-138h102v-70h-102v-159h96q89 0 133.5 50t44.5 135q0 182 -183 182h-91z" />
    <glyph glyph-name="thorn.smcp" horiz-adv-x="537" 
d="M499 293q0 -197 -248 -197q-30 0 -56 2v-98h-131v564h131v-93h88q106 0 161 -47t55 -131zM195 373l-1 -180q14 -2 47 -2q64 0 96 22t32 74q0 86 -110 86h-64z" />
    <glyph glyph-name="ae.smcp" horiz-adv-x="849" 
d="M449 0v111h-212l-75 -111h-138q234 333 415 564h359v-92h-220v-149h167l-10 -75h-157v-156h224v-92h-353zM445 400q-72 -94 -155 -215h159v214z" />
    <glyph glyph-name="oe.smcp" horiz-adv-x="802" 
d="M755 0h-419q-142 0 -217 72t-75 206q0 135 75.5 210.5t222.5 75.5h409v-92h-220v-149h167l-10 -75h-157v-156h224v-92zM179 277q0 -88 43 -136.5t122 -48.5h58v380h-57q-80 0 -123 -51.5t-43 -143.5z" />
    <glyph glyph-name="fi.smcp" horiz-adv-x="708" 
d="M514 0v564h131v-564h-131zM64 0v564h349v-92h-221v-159h178l-11 -86h-166v-227h-129z" />
    <glyph glyph-name="fl.smcp" horiz-adv-x="893" 
d="M501 0v564h131v-465h231v-99h-362zM64 0v564h349v-92h-221v-159h178l-11 -86h-166v-227h-129z" />
    <glyph glyph-name="ampersand.smcp" horiz-adv-x="645" 
d="M618 0q-25 -9 -49 -9q-65 0 -153 71q-85 -71 -196 -71q-86 0 -136.5 44t-50.5 110q0 47 30 92.5t83 76.5q-37 58 -37 108q0 72 48.5 111.5t123.5 39.5q83 0 157 -41l-37 -82q-57 35 -106 35q-35 0 -54.5 -17.5t-19.5 -48.5q0 -45 53 -106t132 -118q34 51 66 123h110
q-34 -85 -97 -177l41 -28q43 -28 75 -28h17v-85zM233 75q63 0 113 44q-88 67 -145 127q-56 -45 -56 -96q0 -32 23 -53.5t65 -21.5z" />
    <glyph glyph-name="zero.tosf" 
d="M323 86q70 0 107.5 53t37.5 140t-37.5 141.5t-106.5 54.5q-73 0 -107.5 -58t-34.5 -140q0 -80 35 -135.5t106 -55.5zM323 -9q-128 0 -203 75.5t-75 210.5q0 133 72.5 214.5t206.5 81.5q133 0 207 -77.5t74 -216.5q0 -133 -75 -210.5t-207 -77.5z" />
    <glyph glyph-name="one.tosf" 
d="M135 0v100h151v337l-151 -9v81q122 15 236 55h46v-464h140v-100h-422z" />
    <glyph glyph-name="two.tosf" 
d="M127 404l-34 95q39 32 104.5 53t131.5 21q88 0 146.5 -40t58.5 -124q0 -40 -17.5 -81t-39.5 -70.5t-59 -63.5t-58 -50t-54 -40v-4h254v-100h-457l-13 74q148 92 213 151q94 88 94 161q0 80 -98 80q-83 0 -172 -62z" />
    <glyph glyph-name="three.tosf" 
d="M565 57q0 -107 -74.5 -164.5t-185.5 -57.5q-131 0 -236 70l35 102q38 -28 90.5 -47.5t98.5 -19.5q63 0 99 31.5t36 90.5t-53 89.5t-150 30.5v69q78 20 127 50.5t49 83.5q0 41 -28 60.5t-72 19.5q-47 0 -95.5 -18.5t-80.5 -48.5l-37 94q96 81 235 81q97 0 157 -43t60 -124
q0 -56 -34 -98t-89 -64v-5q148 -42 148 -182z" />
    <glyph glyph-name="four.tosf" 
d="M422 574l90 -12v-443h80l-9 -101h-71v-169h-122v169h-343v82q96 123 232.5 294.5t142.5 179.5zM386 381q-129 -160 -203 -258l1 -5h207v260z" />
    <glyph glyph-name="five.tosf" 
d="M306 -165q-130 0 -234 69l34 104q39 -29 94 -48t106 -19q60 0 94 29t34 86q0 70 -77 107.5t-246 51.5q27 166 43 349h391v-103h-274q-6 -73 -18 -162q159 -20 237 -74.5t78 -175.5q0 -97 -72 -155.5t-190 -58.5z" />
    <glyph glyph-name="six.tosf" 
d="M521 630q-116 -32 -194.5 -93.5t-110.5 -141.5l6 -2q72 45 146 45q100 0 155.5 -57.5t55.5 -159.5q0 -111 -72.5 -170.5t-178.5 -59.5q-118 0 -187 80t-69 213q0 156 114.5 280.5t307.5 164.5zM335 349q-71 0 -138 -55q0 -92 31.5 -150t99.5 -58q58 0 91 36t33 97
q0 62 -31 96t-86 34z" />
    <glyph glyph-name="seven.tosf" 
d="M276 -156h-157q22 39 94.5 185t140 283t72.5 147h-352v105h487l22 -45q-19 -49 -307 -675z" />
    <glyph glyph-name="eight.tosf" 
d="M325 -9q-115 0 -182 55t-67 143q0 66 38.5 115t101.5 78q-55 31 -87 70t-32 96q0 86 60.5 133.5t167.5 47.5q111 0 170 -49t59 -132q0 -58 -32.5 -96t-89.5 -70q142 -66 142 -194q0 -88 -68.5 -142.5t-180.5 -54.5zM325 431q55 27 80 53.5t25 59.5q0 46 -29.5 68.5
t-75.5 22.5t-75.5 -22.5t-29.5 -69.5q0 -63 105 -112zM325 87q56 0 88.5 28.5t32.5 75.5t-29.5 77t-93.5 57q-61 -27 -90 -57t-29 -78q0 -47 33.5 -75t87.5 -28z" />
    <glyph glyph-name="nine.tosf" 
d="M134 -66q103 38 185 99.5t115 143.5l-4 3q-66 -47 -159 -47q-97 0 -149.5 57.5t-52.5 151.5q0 109 72.5 170t177.5 61q118 0 187 -77.5t69 -210.5q0 -155 -109 -276.5t-306 -173.5zM308 222q77 0 142 55q0 90 -33 145.5t-98 55.5q-60 0 -92 -39t-32 -95q0 -59 29 -90.5
t84 -31.5z" />
    <glyph glyph-name="zero.lf" horiz-adv-x="681" 
d="M341 92q72 0 108 70t36 201q0 130 -37 196.5t-107 66.5q-73 0 -109.5 -71t-36.5 -195q0 -126 36.5 -197t109.5 -71zM340 -9q-130 0 -203.5 93.5t-73.5 277.5q0 170 71.5 268.5t206.5 98.5t205.5 -97t70.5 -267q0 -187 -73 -280.5t-204 -93.5z" />
    <glyph glyph-name="one.lf" horiz-adv-x="430" 
d="M176 0v586h-123v79q113 17 203 55h51v-720h-131z" />
    <glyph glyph-name="two.lf" horiz-adv-x="646" 
d="M85 0l-13 78q176 152 256 248t80 181q0 52 -30 82t-84 30q-90 0 -173 -62l-40 99q104 73 232 73q104 0 170.5 -53t66.5 -157q0 -54 -23 -110.5t-66.5 -111.5t-81 -95t-91.5 -90l1 -5h285v-107h-489z" />
    <glyph glyph-name="three.lf" horiz-adv-x="648" 
d="M564 213q0 -107 -74.5 -164.5t-185.5 -57.5q-131 0 -236 70l35 102q38 -28 90.5 -47.5t98.5 -19.5q63 0 99 31.5t36 90.5t-53 89.5t-150 30.5v69q78 20 127 50.5t49 83.5q0 41 -28 60.5t-72 19.5q-47 0 -95.5 -18.5t-80.5 -48.5l-37 94q96 81 235 81q97 0 157 -43
t60 -124q0 -56 -34 -98t-89 -64v-5q148 -42 148 -182z" />
    <glyph glyph-name="four.lf" horiz-adv-x="685" 
d="M437 725l90 -12v-443h80l-9 -101h-71v-169h-122v169h-343v82q96 123 232.5 294.5t142.5 179.5zM401 532q-129 -160 -203 -258l1 -5h207v260z" />
    <glyph glyph-name="five.lf" horiz-adv-x="649" 
d="M303 -9q-131 0 -234 69l34 104q39 -29 94 -48t106 -19q60 0 94 29t34 86q0 70 -77 107.5t-246 51.5q27 166 43 349h391v-103h-274q-6 -73 -18 -162q159 -20 237 -74.5t78 -175.5q0 -97 -72 -155.5t-190 -58.5z" />
    <glyph glyph-name="six.lf" horiz-adv-x="644" 
d="M518 630q-116 -32 -194.5 -93.5t-110.5 -141.5l6 -2q72 45 146 45q100 0 155.5 -57.5t55.5 -159.5q0 -111 -72.5 -170.5t-178.5 -59.5q-118 0 -187 80t-69 213q0 156 114.5 280.5t307.5 164.5zM332 349q-71 0 -138 -55q0 -92 31.5 -150t99.5 -58q58 0 91 36t33 97
q0 62 -31 96t-86 34z" />
    <glyph glyph-name="seven.lf" horiz-adv-x="642" 
d="M274 0h-157q22 39 94.5 185t140 283t72.5 147h-352v105h487l22 -45q-19 -49 -307 -675z" />
    <glyph glyph-name="eight.lf" horiz-adv-x="649" 
d="M324 -9q-115 0 -182 55t-67 143q0 66 38.5 115t101.5 78q-55 31 -87 70t-32 96q0 86 60.5 133.5t167.5 47.5q111 0 170 -49t59 -132q0 -58 -32.5 -96t-89.5 -70q142 -66 142 -194q0 -88 -68.5 -142.5t-180.5 -54.5zM324 431q55 27 80 53.5t25 59.5q0 46 -29.5 68.5
t-75.5 22.5t-75.5 -22.5t-29.5 -69.5q0 -63 105 -112zM324 87q56 0 88.5 28.5t32.5 75.5t-29.5 77t-93.5 57q-61 -27 -90 -57t-29 -78q0 -47 33.5 -75t87.5 -28z" />
    <glyph glyph-name="nine.lf" horiz-adv-x="643" 
d="M129 90q103 38 185 99.5t115 143.5l-4 3q-66 -47 -159 -47q-97 0 -149.5 57.5t-52.5 151.5q0 109 72.5 170t177.5 61q118 0 187 -77.5t69 -210.5q0 -155 -109 -276.5t-306 -173.5zM303 378q77 0 142 55q0 90 -33 145.5t-98 55.5q-60 0 -92 -39t-32 -95q0 -59 29 -90.5
t84 -31.5z" />
    <glyph glyph-name="zero.osf" horiz-adv-x="673" 
d="M335 86q70 0 107.5 53t37.5 140t-37.5 141.5t-106.5 54.5q-73 0 -107.5 -58t-34.5 -140q0 -80 35 -135.5t106 -55.5zM335 -9q-128 0 -203 75.5t-75 210.5q0 133 72.5 214.5t206.5 81.5q133 0 207 -77.5t74 -216.5q0 -133 -75 -210.5t-207 -77.5z" />
    <glyph glyph-name="one.osf" horiz-adv-x="430" 
d="M178 0v433h-124v76q113 17 204 55h51v-564h-131z" />
    <glyph glyph-name="two.osf" horiz-adv-x="638" 
d="M121 404l-34 95q39 32 104.5 53t131.5 21q88 0 146.5 -40t58.5 -124q0 -40 -17.5 -81t-39.5 -70.5t-59 -63.5t-58 -50t-54 -40v-4h254v-100h-457l-13 74q148 92 213 151q94 88 94 161q0 80 -98 80q-83 0 -172 -62z" />
    <glyph glyph-name="three.osf" horiz-adv-x="648" 
d="M559 57q0 -107 -74.5 -164.5t-185.5 -57.5q-131 0 -236 70l35 102q38 -28 90.5 -47.5t98.5 -19.5q63 0 99 31.5t36 90.5t-53 89.5t-150 30.5v69q78 20 127 50.5t49 83.5q0 41 -28 60.5t-72 19.5q-47 0 -95.5 -18.5t-80.5 -48.5l-37 94q96 81 235 81q97 0 157 -43t60 -124
q0 -56 -34 -98t-89 -64v-5q148 -42 148 -182z" />
    <glyph glyph-name="four.osf" horiz-adv-x="685" 
d="M437 574l90 -12v-443h80l-9 -101h-71v-169h-122v169h-343v82q96 123 232.5 294.5t142.5 179.5zM401 381q-129 -160 -203 -258l1 -5h207v260z" />
    <glyph glyph-name="five.osf" horiz-adv-x="649" 
d="M303 -165q-131 0 -234 69l34 104q39 -29 94 -48t106 -19q60 0 94 29t34 86q0 70 -77 107.5t-246 51.5q27 166 43 349h391v-103h-274q-6 -73 -18 -162q159 -20 237 -74.5t78 -175.5q0 -97 -72 -155.5t-190 -58.5z" />
    <glyph glyph-name="six.osf" horiz-adv-x="644" 
d="M518 630q-116 -32 -194.5 -93.5t-110.5 -141.5l6 -2q72 45 146 45q100 0 155.5 -57.5t55.5 -159.5q0 -111 -72.5 -170.5t-178.5 -59.5q-118 0 -187 80t-69 213q0 156 114.5 280.5t307.5 164.5zM332 349q-71 0 -138 -55q0 -92 31.5 -150t99.5 -58q58 0 91 36t33 97
q0 62 -31 96t-86 34z" />
    <glyph glyph-name="seven.osf" horiz-adv-x="642" 
d="M274 -156h-157q22 39 94.5 185t140 283t72.5 147h-352v105h487l22 -45q-19 -49 -307 -675z" />
    <glyph glyph-name="eight.osf" horiz-adv-x="649" 
d="M324 -9q-115 0 -182 55t-67 143q0 66 38.5 115t101.5 78q-55 31 -87 70t-32 96q0 86 60.5 133.5t167.5 47.5q111 0 170 -49t59 -132q0 -58 -32.5 -96t-89.5 -70q142 -66 142 -194q0 -88 -68.5 -142.5t-180.5 -54.5zM324 431q55 27 80 53.5t25 59.5q0 46 -29.5 68.5
t-75.5 22.5t-75.5 -22.5t-29.5 -69.5q0 -63 105 -112zM324 87q56 0 88.5 28.5t32.5 75.5t-29.5 77t-93.5 57q-61 -27 -90 -57t-29 -78q0 -47 33.5 -75t87.5 -28z" />
    <glyph glyph-name="nine.osf" horiz-adv-x="643" 
d="M129 -66q103 38 185 99.5t115 143.5l-4 3q-66 -47 -159 -47q-97 0 -149.5 57.5t-52.5 151.5q0 109 72.5 170t177.5 61q118 0 187 -77.5t69 -210.5q0 -155 -109 -276.5t-306 -173.5zM303 222q77 0 142 55q0 90 -33 145.5t-98 55.5q-60 0 -92 -39t-32 -95q0 -59 29 -90.5
t84 -31.5z" />
    <glyph glyph-name="zero.numr" horiz-adv-x="380" 
d="M190 434q67 0 67 120q0 114 -67 114t-67 -116q0 -118 67 -118zM190 376q-72 0 -112.5 44.5t-40.5 132.5q0 81 39.5 127.5t113.5 46.5q73 0 112.5 -44.5t39.5 -127.5q0 -86 -39.5 -132.5t-112.5 -46.5z" />
    <glyph glyph-name="one.numr" horiz-adv-x="380" 
d="M65 383v58h89v211l-89 -5v47q60 6 143 29h31v-283h84v-57h-258z" />
    <glyph glyph-name="two.numr" horiz-adv-x="380" 
d="M51 383l-9 44q89 65 132.5 109.5t43.5 82.5q0 47 -54 47q-48 0 -97 -30l-21 56q59 35 132 35q58 0 96 -25t38 -76q0 -77 -126 -179v-2h139v-62h-274z" />
    <glyph glyph-name="three.numr" horiz-adv-x="380" 
d="M177 376q-73 0 -131 33l21 57q47 -31 102 -31q66 0 66 51q0 25 -28.5 38.5t-76.5 13.5v37q91 19 91 59q0 33 -50 33q-51 0 -93 -30l-23 50q56 40 134 40q56 0 90 -21t34 -59q0 -27 -17.5 -48t-46.5 -30v-3q77 -18 77 -85q0 -50 -42.5 -77.5t-106.5 -27.5z" />
    <glyph glyph-name="four.numr" horiz-adv-x="380" 
d="M235 725l62 -5v-207h40l-6 -56h-34v-74h-78v74h-183v45q50 57 123.5 139t75.5 84zM217 624q-6 -7 -24 -27.5t-36.5 -41.5t-33.5 -39l1 -3h96v110z" />
    <glyph glyph-name="five.numr" horiz-adv-x="380" 
d="M179 376q-69 0 -133 32l22 59q52 -29 109 -29q62 0 62 47q0 52 -173 65q12 58 25 170h224v-60h-147l-8 -64q166 -12 166 -114q0 -51 -40.5 -78.5t-106.5 -27.5z" />
    <glyph glyph-name="six.numr" horiz-adv-x="380" 
d="M302 672q-125 -30 -162 -102l4 -1q33 21 75 21q50 0 82 -27.5t32 -75.5q0 -47 -38 -79t-103 -32q-64 0 -104 37.5t-40 102.5q0 76 66 135t171 76zM194 540q-32 0 -65 -23q2 -87 63 -87q27 0 42.5 15.5t15.5 40.5q0 54 -56 54z" />
    <glyph glyph-name="seven.numr" horiz-adv-x="380" 
d="M183 383h-102q14 20 51.5 85t72 125.5t37.5 65.5h-185v61h271l15 -26q-6 -13 -75.5 -148t-84.5 -163z" />
    <glyph glyph-name="eight.numr" horiz-adv-x="380" 
d="M189 376q-62 0 -101 27t-39 70q0 59 71 90q-61 31 -61 76q0 42 34.5 65t95.5 23q64 0 97 -24t33 -65q0 -46 -63 -76q74 -32 74 -90q0 -43 -40.5 -69.5t-100.5 -26.5zM189 429q25 0 41 12.5t16 32.5t-14 32.5t-45 23.5q-56 -20 -56 -56q0 -20 16 -32.5t42 -12.5zM188 588
q50 23 50 48q0 20 -14 30.5t-36 10.5t-36.5 -11t-14.5 -30q0 -27 51 -48z" />
    <glyph glyph-name="nine.numr" horiz-adv-x="380" 
d="M76 431q118 28 160 102l-2 1q-32 -21 -75 -21q-50 0 -81.5 27.5t-31.5 75.5t38 79.5t103 31.5q64 0 104 -36.5t40 -101.5q0 -76 -67 -136t-171 -77zM183 563q35 0 66 23q-4 87 -62 87q-27 0 -43.5 -15.5t-16.5 -40.5q0 -26 15 -40t41 -14z" />
    <glyph glyph-name="zero.dnom" horiz-adv-x="380" 
d="M190 51q67 0 67 120q0 114 -67 114t-67 -116q0 -118 67 -118zM190 -7q-72 0 -112.5 44.5t-40.5 132.5q0 81 39.5 127.5t113.5 46.5q73 0 112.5 -44.5t39.5 -127.5q0 -86 -39.5 -132.5t-112.5 -46.5z" />
    <glyph glyph-name="one.dnom" horiz-adv-x="380" 
d="M65 0v58h89v211l-89 -5v47q60 6 143 29h31v-283h84v-57h-258z" />
    <glyph glyph-name="two.dnom" horiz-adv-x="380" 
d="M51 0l-9 44q89 65 132.5 109.5t43.5 82.5q0 47 -54 47q-48 0 -97 -30l-21 56q59 35 132 35q58 0 96 -25t38 -76q0 -77 -126 -179v-2h139v-62h-274z" />
    <glyph glyph-name="three.dnom" horiz-adv-x="380" 
d="M177 -7q-73 0 -131 33l21 57q47 -31 102 -31q66 0 66 51q0 25 -28.5 38.5t-76.5 13.5v37q91 20 91 59q0 33 -50 33q-51 0 -93 -30l-23 50q56 40 134 40q56 0 90 -21t34 -59q0 -27 -17.5 -48t-46.5 -30v-3q77 -18 77 -85q0 -50 -42.5 -77.5t-106.5 -27.5z" />
    <glyph glyph-name="four.dnom" horiz-adv-x="380" 
d="M235 342l62 -5v-207h40l-6 -56h-34v-74h-78v74h-183v45q50 57 123.5 139t75.5 84zM217 241q-6 -7 -24 -27.5t-36.5 -41.5t-33.5 -39l1 -3h96v110z" />
    <glyph glyph-name="five.dnom" horiz-adv-x="380" 
d="M179 -7q-69 0 -133 32l22 59q52 -29 109 -29q62 0 62 47q0 52 -173 65q12 58 25 170h224v-60h-147l-8 -64q166 -12 166 -114q0 -51 -40.5 -78.5t-106.5 -27.5z" />
    <glyph glyph-name="six.dnom" horiz-adv-x="380" 
d="M302 289q-125 -30 -162 -102l4 -1q33 21 75 21q50 0 82 -27.5t32 -75.5q0 -47 -38 -79t-103 -32q-64 0 -104 37.5t-40 102.5q0 76 66 135t171 76zM194 157q-32 0 -65 -23q2 -87 63 -87q27 0 42.5 15.5t15.5 40.5q0 54 -56 54z" />
    <glyph glyph-name="seven.dnom" horiz-adv-x="380" 
d="M183 0h-102q14 20 51.5 85t72 125.5t37.5 65.5h-185v61h271l15 -26q-6 -13 -75.5 -148t-84.5 -163z" />
    <glyph glyph-name="eight.dnom" horiz-adv-x="380" 
d="M189 -7q-62 0 -101 27t-39 70q0 59 71 90q-61 31 -61 76q0 42 34.5 65t95.5 23q64 0 97 -24t33 -65q0 -46 -63 -76q74 -32 74 -90q0 -43 -40.5 -69.5t-100.5 -26.5zM189 46q25 0 41 12.5t16 32.5t-14 32.5t-45 23.5q-56 -20 -56 -56q0 -20 16 -32.5t42 -12.5zM188 205
q50 23 50 48q0 20 -14 30.5t-36 10.5t-36.5 -11t-14.5 -30q0 -27 51 -48z" />
    <glyph glyph-name="nine.dnom" horiz-adv-x="380" 
d="M76 48q118 28 160 102l-2 1q-32 -21 -75 -21q-50 0 -81.5 27.5t-31.5 75.5t38 79.5t103 31.5q64 0 104 -36.5t40 -101.5q0 -76 -67 -136t-171 -77zM183 180q35 0 66 23q-4 87 -62 87q-27 0 -43.5 -15.5t-16.5 -40.5q0 -26 15 -40t41 -14z" />
    <glyph glyph-name="acute.case" horiz-adv-x="465" 
d="M122 825l-34 50l230 133l58 -98z" />
    <glyph glyph-name="grave.case" horiz-adv-x="465" 
d="M343 825l-255 85l59 98l229 -133z" />
    <glyph glyph-name="circumflex.case" horiz-adv-x="465" 
d="M182 998h102l160 -123l-36 -50l-175 82l-176 -82l-35 50z" />
    <glyph glyph-name="tilde.case" horiz-adv-x="465" 
d="M418 966q-1 -65 -27.5 -98.5t-68.5 -33.5q-29 0 -87.5 16.5t-76.5 16.5q-34 0 -37 -44h-74q1 67 28 99.5t70 32.5q25 0 84 -16.5t79 -16.5q33 0 36 44h74z" />
    <glyph glyph-name="dieresis.case" horiz-adv-x="465" 
d="M112 827q-31 0 -49.5 18t-18.5 47t18.5 47t49.5 18q30 0 48.5 -18t18.5 -47t-18.5 -47t-48.5 -18zM353 827q-30 0 -48.5 18t-18.5 47t18.5 47t48.5 18q31 0 49.5 -18t18.5 -47t-18.5 -47t-49.5 -18z" />
    <glyph glyph-name="ring.case" horiz-adv-x="465" 
d="M105 906q0 54 37 90t91 36q55 0 91.5 -35.5t36.5 -88.5q0 -54 -37 -90.5t-92 -36.5q-54 0 -90.5 35.5t-36.5 89.5zM164 906q0 -32 19.5 -51.5t49.5 -19.5q31 0 50.5 20.5t19.5 51.5q0 33 -20 53t-51 20t-49.5 -21t-18.5 -53z" />
    <glyph glyph-name="caron.case" horiz-adv-x="465" 
d="M284 825h-102l-160 123l35 50l176 -82l175 82l36 -50z" />
    <glyph glyph-name="macron.case" horiz-adv-x="465" 
d="M400 950v-89h-335v89h335z" />
    <glyph glyph-name="breve.case" horiz-adv-x="465" 
d="M234 825q-77 0 -125.5 47t-52.5 130l68 16q21 -107 110 -107q87 0 107 107l68 -16q-4 -83 -52.5 -130t-122.5 -47z" />
    <glyph glyph-name="hungarumlaut.case" horiz-adv-x="465" 
d="M101 821l-51 22l89 209l99 -47zM277 821l-51 22l89 209l99 -47z" />
    <glyph glyph-name="dotaccent.case" horiz-adv-x="465" 
d="M156 897q0 32 21 52.5t55 20.5t55.5 -20.5t21.5 -52.5t-21.5 -52.5t-55.5 -20.5t-55 20.5t-21 52.5z" />
    <glyph glyph-name="acute.smcp" horiz-adv-x="465" 
d="M170 638l-53 26l131 227l100 -56z" />
    <glyph glyph-name="grave.smcp" horiz-adv-x="465" 
d="M348 665l-52 -27l-180 196l101 56z" />
    <glyph glyph-name="circumflex.smcp" horiz-adv-x="465" 
d="M180 875h105l132 -203l-61 -34l-124 143l-123 -143l-61 34z" />
    <glyph glyph-name="tilde.smcp" horiz-adv-x="465" 
d="M418 802q-1 -65 -27.5 -98.5t-68.5 -33.5q-29 0 -87.5 16.5t-76.5 16.5q-34 0 -37 -44h-74q1 67 28 99.5t70 32.5q25 0 84 -16.5t79 -16.5q33 0 36 44h74z" />
    <glyph glyph-name="dieresis.smcp" horiz-adv-x="465" 
d="M112 668q-31 0 -49.5 18t-18.5 47t18.5 47t49.5 18q30 0 48.5 -18t18.5 -47t-18.5 -47t-48.5 -18zM353 668q-30 0 -48.5 18t-18.5 47t18.5 47t48.5 18q31 0 49.5 -18t18.5 -47t-18.5 -47t-49.5 -18z" />
    <glyph glyph-name="ring.smcp" horiz-adv-x="465" 
d="M104 767q0 54 37 90t91 36q55 0 91.5 -35.5t36.5 -88.5q0 -54 -37 -90.5t-92 -36.5q-54 0 -90.5 35.5t-36.5 89.5zM163 767q0 -32 19.5 -51.5t49.5 -19.5q31 0 50.5 20.5t19.5 51.5q0 33 -20 53t-51 20t-49.5 -21t-18.5 -53z" />
    <glyph glyph-name="caron.smcp" horiz-adv-x="465" 
d="M285 641h-104l-133 203l61 35l124 -144l124 144l60 -35z" />
    <glyph glyph-name="macron.smcp" horiz-adv-x="465" 
d="M400 773v-89h-335v89h335z" />
    <glyph glyph-name="breve.smcp" horiz-adv-x="465" 
d="M234 642q-77 0 -125.5 47t-52.5 130l68 16q21 -107 110 -107q87 0 107 107l68 -16q-4 -83 -52.5 -130t-122.5 -47z" />
    <glyph glyph-name="hungarumlaut.smcp" horiz-adv-x="465" 
d="M101 638l-51 22l89 209l99 -47zM277 638l-51 22l89 209l99 -47z" />
    <glyph glyph-name="dotaccent.smcp" horiz-adv-x="465" 
d="M156 727q0 32 21 52.5t55 20.5t55.5 -20.5t21.5 -52.5t-21.5 -52.5t-55.5 -20.5t-55 20.5t-21 52.5z" />
    <glyph glyph-name="guillemotleft.case" horiz-adv-x="648" 
d="M59 306v52l256 218v-114l-156 -130l156 -130v-114zM308 306v52l257 218v-114l-156 -130l156 -130v-114z" />
    <glyph glyph-name="guillemotright.case" horiz-adv-x="648" 
d="M590 306l-257 -218v114l156 130l-156 130v114l257 -218v-52zM340 306l-257 -218v114l156 130l-156 130v114l257 -218v-52z" />
    <glyph glyph-name="guilsinglleft.case" horiz-adv-x="398" 
d="M59 306v52l256 218v-114l-156 -130l156 -130v-114z" />
    <glyph glyph-name="guilsinglright.case" horiz-adv-x="398" 
d="M340 306l-257 -218v114l156 130l-156 130v114l257 -218v-52z" />
    <glyph glyph-name="exclamdown.case" horiz-adv-x="352" 
d="M103 -9l20 549h102l26 -537zM99 690q0 32 21.5 50.5t54.5 18.5q34 0 55.5 -18t21.5 -51q0 -32 -22 -51t-55 -19t-54.5 19t-21.5 51z" />
    <glyph glyph-name="questiondown.case" horiz-adv-x="487" 
d="M333 540q23 -44 23 -82q0 -37 -18 -69.5t-44 -56t-52.5 -45.5t-44.5 -49t-18 -55q0 -42 28 -65.5t73 -23.5q29 0 64 10t58 26l36 -93q-80 -46 -177 -46q-100 0 -156 48.5t-56 127.5q0 42 19 79.5t46.5 64t55 51.5t46.5 53t19 57q0 32 -18 68h116zM194 690q0 32 21.5 50.5
t54.5 18.5q34 0 56 -18t22 -51q0 -32 -22 -51t-56 -19q-33 0 -54.5 19t-21.5 51z" />
    <glyph glyph-name="hyphen.case" horiz-adv-x="406" 
d="M27 278v85l352 22v-85z" />
    <glyph glyph-name="endash.case" horiz-adv-x="646" 
d="M27 290v86h592v-86h-592z" />
    <glyph glyph-name="emdash.case" horiz-adv-x="926" 
d="M27 290v86h872v-86h-872z" />
    <glyph glyph-name="parenleft.case" horiz-adv-x="431" 
d="M188 372q0 -228 174 -332v-105q-141 42 -222 160t-81 277t81 277t222 160v-105q-174 -104 -174 -332z" />
    <glyph glyph-name="parenright.case" horiz-adv-x="431" 
d="M243 372q0 227 -174 332v105q141 -42 222 -160t81 -277t-81 -277t-222 -160v105q174 105 174 332z" />
    <glyph glyph-name="bracketleft.case" horiz-adv-x="440" 
d="M361 704h-128v-665h128v-100h-252v865h252v-100z" />
    <glyph glyph-name="bracketright.case" horiz-adv-x="440" 
d="M79 39h128v665h-128v100h252v-865h-252v100z" />
    <glyph glyph-name="braceleft.case" horiz-adv-x="497" 
d="M166 82v143q0 53 -20.5 75t-76.5 31v81q56 9 76.5 31t20.5 75v143q0 80 37.5 111.5t121.5 31.5h94v-100h-41q-48 0 -68 -13.5t-20 -60.5v-121q0 -107 -99 -136v-3q99 -29 99 -136v-121q0 -47 20 -60.5t68 -13.5h41v-100h-94q-84 0 -121.5 31.5t-37.5 111.5z" />
    <glyph glyph-name="braceright.case" horiz-adv-x="497" 
d="M331 225v-143q0 -80 -37.5 -111.5t-121.5 -31.5h-93v100h40q48 0 68 13.5t20 60.5v121q0 107 100 136v3q-100 29 -100 136v121q0 47 -20 60.5t-68 13.5h-40v100h93q84 0 121.5 -31.5t37.5 -111.5v-143q0 -53 20.5 -75t77.5 -31v-81q-57 -9 -77.5 -31t-20.5 -75z" />
    <glyph glyph-name="at.case" horiz-adv-x="824" 
d="M399 -12q-154 0 -252 97t-98 259q0 183 107 299.5t294 117.5q62 0 118.5 -18t103.5 -52.5t75.5 -92.5t28.5 -132q0 -112 -66.5 -196.5t-168.5 -84.5q-67 0 -78 61l-5 1q-52 -56 -118 -56q-60 0 -89 43t-29 110q0 100 53 169t152 69q56 0 105 -34l24 26h32
q-42 -270 -42 -293q0 -33 27 -33q56 0 102.5 60.5t46.5 157.5q0 120 -79.5 184.5t-196.5 64.5q-157 -1 -251.5 -102.5t-94.5 -266.5q0 -145 84 -227.5t216 -82.5q65 0 133.5 23.5t124.5 65.5l28 -38q-128 -99 -287 -99zM367 264q45 0 92 52l29 173q-26 20 -60 20
q-54 0 -84.5 -46.5t-30.5 -111.5q0 -87 54 -87z" />
    </font>
</defs>
</svg>
